<?xml version="1.0" encoding="UTF-8" standalone="no"?>
<!-- Created with Inkscape (http://www.inkscape.org/) -->

<svg
   xmlns:dc="http://purl.org/dc/elements/1.1/"
   xmlns:cc="http://creativecommons.org/ns#"
   xmlns:rdf="http://www.w3.org/1999/02/22-rdf-syntax-ns#"
   xmlns:svg="http://www.w3.org/2000/svg"
   xmlns="http://www.w3.org/2000/svg"
   xmlns:sodipodi="http://sodipodi.sourceforge.net/DTD/sodipodi-0.dtd"
   xmlns:inkscape="http://www.inkscape.org/namespaces/inkscape"
   xmlns:xlink="http://www.w3.org/1999/xlink"
   id="SVGRoot"
   width="100mm"
   height="100mm"
   inkscape:version="0.92.3 (2405546, 2018-03-11)"
   sodipodi:docname="peonpath4_SMIL3.svg"
   version="1.1"
   viewBox="0 0 300 300">
  <defs
     id="defs10979">
    <filter
       id="filter1605"
       x="-.044"
       y="-.0165"
       width="1.09"
       height="1.03"
       color-interpolation-filters="sRGB"
       inkscape:collect="always">
      <feGaussianBlur
         id="feGaussianBlur1607"
         inkscape:collect="always"
         stdDeviation="0.275" />
    </filter>
  </defs>
  <title
     id="character1">game character design</title>
  <script
     id="script9226">window.onload=function () {
         var square = document.getElementById(&quot;square&quot;);
         square.onclick = function() {
            var color = this.getAttribute(&quot;fill&quot;);
         }
      }</script>
  <sodipodi:namedview
     id="base"
     bordercolor="#05259e"
     borderlayer="true"
     borderopacity="0.5"
     fit-margin-top="0.0"
     gridtolerance="6"
     guidecolor="#f400ff"
     guideopacity="0.6"
     guidetolerance="10000"
     inkscape:current-layer="gBodyFull"
     inkscape:cx="277.14389"
     inkscape:cy="238.70815"
     inkscape:document-units="px"
     inkscape:guide-bbox="false"
     inkscape:pagecheckerboard="true"
     inkscape:pageopacity="0.6"
     inkscape:pageshadow="5"
     inkscape:snap-nodes="false"
     inkscape:snap-perpendicular="true"
     inkscape:snap-tangential="true"
     inkscape:window-height="748"
     inkscape:window-maximized="1"
     inkscape:window-width="1280"
     inkscape:window-x="-8"
     inkscape:window-y="-8"
     inkscape:zoom="2"
     objecttolerance="2"
     pagecolor="#ffeeff"
     scale-x="1.22133"
     showgrid="true"
     showguides="true"
     units="mm"
     viewbox-height="300"
     viewbox-width="300"
     viewbox-x="0"
     viewbox-y="0">
    <inkscape:grid
       id="grid9224"
       color="#fffc82"
       opacity=".325"
       dotted="false"
       empcolor="#003c18"
       empopacity="0.36470588"
       empspacing="5"
       spacingx="9.9879999"
       spacingy="10.0044"
       type="xygrid"
       units="mm"
       visible="true" />
  </sodipodi:namedview>
  <metadata
     id="metadata10972">
    <rdf:RDF>
      <cc:Work
         rdf:about="T Tribal legalnotice life">
        <dc:format>image/svg+xml</dc:format>
        <dc:type
           rdf:resource="http://purl.org/dc/dcmitype/StillImage" />
        <dc:title>game character design</dc:title>
      </cc:Work>
    </rdf:RDF>
  </metadata>
  <g
     id="gBodyFull">
    <g
       id="gAnimLegL1" 
       transform="matrix(0.898,0,0,1,16.2,-4.76)">
      <path
         id="path3794"
         d="m 146.55813,140.17999 c -9.13239,-21.85222 12.11963,-45.224576 8.79101,-11.21113 -0.12718,9.67197 -5.30022,18.20384 -8.79101,11.21113 z m 7.68146,-8.28484 c 3.13233,-19.95202 -6.78529,4.69347 0,0 z"
         inkscape:connector-curvature="0"
         style="fill:#4c2f2f;stroke:#141313;stroke-width:2.96725678" />
      <path
         id="rLegL1"
         d="m 140,120 c 8.47,-1.64 17.6,-0.402 15,9.82 v 30.2 c -8.47,1.64 -17.6,0.402 -15,-9.82 z"
         display="none"
         inkscape:connector-curvature="0"
         style="display:none;opacity:0.5;fill:#2b1100" />
      <path
         id="path1064-3"
         d="m 147.41163,109.77691 c -11.43683,9.04492 1.99718,61.94627 7.63024,31.5432 0.49077,-13.28235 2.42393,-37.81383 -7.63024,-31.5432 z m 1.23757,3.21133 c 16.0457,-0.29833 -3.53348,60.42612 -4.07971,17.50077 -0.0603,-6.57466 0.40967,-16.34165 4.07971,-17.50077 z m 7.0584,1.20282 c 7.68145,20.7121 -10.66869,58.14588 -12.20497,21.6622 1.96303,-11.7622 -2.23617,-20.33206 -2.42393,-3.49636 -2.30444,26.98273 14.59476,32.11324 17.4113,7.41075 -3.47374,-6.55566 1.72405,-19.95202 -2.85922,-25.46257 z m -2.78239,14.53648 c -5.92326,3.19233 2.01424,12.38925 0,0 z m 1.00712,13.87141 c -0.51637,8.0568 -4.66008,5.1115 0,0 z m -6.09395,-34.96355 c 16.47244,-1.97621 -0.21337,61.56624 -2.75679,21.85221 0.92177,-30.403069 -5.4197,20.7121 3.94314,18.60288 9.55915,0.81328 10.83939,-46.93475 0.0243,-40.09405 z m -3.40545,3.30633 0.0384,0.47125 z m 11.52219,1.01471 c 7.61316,21.66219 -11.09544,58.33591 -11.94893,21.09213 0.55903,-27.17274 -5.69281,8.37985 -0.17753,15.25855 8.13381,20.52207 18.26479,-10.81211 14.08267,-28.69291 0.0772,-3.09731 -0.63416,-6.49866 -1.97158,-7.65777 z m -12.03429,1.05651 0.0103,0.17994 z m 9.3031,13.47236 c -6.29026,3.43934 2.31297,12.16122 0,0 z m 1.00712,13.87141 c -0.97298,7.9428 -4.26747,4.35143 0,0 z m -6.40974,-31.16316 c -6.75968,-0.73729 -2.89335,41.99424 -3.31157,17.40576 -6.30732,21.28215 13.39987,35.15356 10.3273,7.50576 -4.44671,26.41267 -15.36291,-0.79048 -9.04705,-17.61479 3.13233,-12.78828 12.20498,2.10922 2.09106,-7.29673 z m 7.27178,21.09213 c -0.26203,-5.98561 -0.28592,-6.51767 0,0 z m -8.70565,18.10883 c -1.91183,-3.9144 0.5488,2.37524 0,0 z m -0.71609,-2.29923 c -0.0472,-2.85028 -1.67284,-1.04321 0,0 z m 9.98589,-32.87332 0.23557,0.0806 z m -6.25611,0.18811 c -0.26032,5.05451 2.11666,-2.39424 0,0 z m 6.47802,0.081 0.3286,0.71068 z m -5.46236,0.024 -0.23557,0.39904 z m 4.71982,0.042 c -2.98723,7.69579 2.33858,13.35836 0,0 z m -11.60752,0.60997 c -5.72696,14.68848 0.0293,47.5048 9.38844,41.4242 6.81088,-2.39425 5.13803,-40.09407 2.98723,-32.87335 3.3713,18.52688 -8.2533,45.79465 -12.03428,16.98773 -1.33999,-8.13281 -1.55336,-17.27275 -0.4037,-25.6526 z m 1.18635,1.82038 -0.32347,3.85738 z m -3.02137,2.22322 c -1.14369,0.17957 0.18265,2.37525 0,0 z m 15.36291,3.28734 c 0.78265,4.69348 -1.74967,8.05682 0,0 z m -2.63731,5.33954 c 0.0148,4.35144 0.0236,6.9547 0,0 z m -1.50214,1.18383 c -5.00149,3.24932 1.51068,10.69807 0,0 z m -2.13375,4.99749 0.26118,-0.65557 z m 2.01426,-4.14241 c -0.37981,2.77427 -0.55478,4.0474 0,0 z m -0.86203,0.53395 -0.54027,1.37194 z m 0.60427,0.48075 c -0.83727,2.26122 -1.10954,2.98329 0,0 z m 0.0173,0.9748 -0.28251,0.28883 z m 4.3699,0.70876 c 0.0965,3.70538 0.16472,6.32765 0,0 z m -14.42407,0.68028 c 0.20229,8.37984 -0.46685,8.03781 0,0 z m 13.91197,0.88169 c 1.38267,11.89519 -4.7881,25.27256 -0.17497,5.73858 0.0583,-1.9192 0.11608,-3.83839 0.17497,-5.73858 z m -1.33999,16.11363 0.16473,-0.73727 z m 0.88764,-4.35145 c 0.23898,-2.14721 0.15704,-1.40803 0,0 z m 0.2697,-2.09021 0.064,-0.81707 z m 1.65579,-8.20882 -0.0235,0.23181 z m -15.19222,3.9714 c 0.40713,6.0426 0.48564,7.20173 0,0 z m -0.72034,1.37004 c 0.33969,5.9666 0.35591,6.23262 0,0 z m 11.86358,1.67787 c -1.34853,10.10902 -5.51359,6.8787 0,0 z m -2.79093,4.04741 -0.17497,0.24322 z m 1.69845,1.54105 0.009,0.20902 z m -3.15793,0.0557 c -0.93884,0.65746 -0.57269,0.40284 0,0 z m 2.81654,0.45224 -0.0405,0.45985 z m -2.10814,1.56576 0.41992,0.44275 z m 0.42931,0.79617 -0.36189,0.22614 z m 5.38555,0.0378 c 1.01566,1.13063 -0.99858,1.31494 0,0 z m -10.83938,2.28024 c 2.44099,2.54625 2.59463,2.69826 0,0 z m 9.81519,0.49025 c -2.32151,4.1044 -5.19778,1.62276 0,0 z"
         inkscape:connector-curvature="0"
         style="fill:#2b1100;stroke-width:1.2735008" />
      
    </g>
    <g
       id="gAnimLegR1"
       transform="matrix(0.822,0,0,1,24.5,-6.35)">
      <path
         id="path3796"
         d="m 118.72027,150.31006 c -11.11173,-2.01424 7.01373,-18.12819 -5.60031,-16.77245 -2.15124,2.05298 12.08957,-23.04759 13.51187,-3.79608 1.07562,8.73485 2.18679,26.53379 -7.90267,20.5298 z"
         inkscape:connector-curvature="0"
         style="fill:#4c2f2f;stroke:#141313;stroke-width:3.30655551" />
      <path
         id="rLegR1"
         d="m 115,120 c 8.47,-1.64 17.6,-0.402 15,9.82 v 30.2 c -8.47,1.64 -17.6,0.402 -15,-9.82 z"
         display="none"
         inkscape:connector-curvature="0"
         style="display:none;opacity:0.5;fill:#2b1100;filter:url(#filter1605)" />
      <path
         id="path1064-2-1"
         d="m 122.27602,107.70106 c -14.66748,-3.62176 -7.91155,62.36409 3.46686,35.44295 -1.20006,-11.05898 4.04468,-31.76308 -3.46686,-35.44295 z m 4.26691,4.2609 c 7.19152,18.67049 -9.95611,60.23364 -12.53403,24.59702 1.19117,-11.67874 -1.41341,-21.11083 -3.18241,-4.64826 -3.37797,30.60101 21.24564,28.66424 18.40103,-0.96839 -0.9156,-6.31387 -0.67203,-13.57678 -2.68459,-18.94163 z m -5.01361,0.63332 c 12.00067,8.50243 -3.1824,52.68022 -6.30258,20.14244 -2.53348,-11.5819 1.12007,-19.5614 6.30258,-20.14244 z m -5.12918,13.88667 c -1.04895,11.91115 6.31146,2.67274 0,0 z m 6.62259,-14.54516 0.065,0.10458 z m -1.99122,1.38285 c -11.46731,-3.02136 -8.80938,40.47855 0.50226,40.47855 6.88927,-2.16919 3.53797,-45.70784 3.28907,-17.99262 1.36896,22.66024 -12.71183,11.91115 -9.68943,-7.01111 -0.0458,-7.18543 1.85787,-16.65626 5.8581,-15.45546 z m 2.38235,2.75022 0.15469,0.38735 z m 2.90684,1.99487 c 7.85822,20.52979 -12.53404,54.61699 -12.62294,19.5614 0.64893,-9.49018 -0.61781,-22.66023 -2.09789,-5.38422 -6.59593,23.62863 15.55643,37.96074 17.5121,9.37398 0.3049,-7.63089 0.0792,-18.28314 -2.71126,-23.62863 z m -10.1339,11.23328 c -1.24452,10.61352 6.04478,3.75734 0,0 z m 5.04028,-18.74796 c 12.53403,17.15981 -5.04918,48.41933 -7.47597,34.0872 8.6227,33.11882 17.3343,-26.92114 7.47597,-34.0872 z m 2.37347,39.12282 c -1.70676,7.26289 2.96905,-6.02337 0,0 z m -10.2228,-16.84993 c 0.25245,-6.10083 0.27646,-6.6625 0,0 z m 1.86677,-19.15468 c -2.01789,-1.71986 -1.66232,2.82769 0,0 z m 3.62687,0.5636 c -0.85427,5.69411 2.73794,-1.72566 0,0 z m -6.56036,0.21692 -0.16446,0.26146 z m 0.0855,0.46095 c -0.86049,-2.30476 -0.21957,1.99488 0,0 z m 0.7876,0.0234 c -3.33352,15.20367 4.17801,9.58703 0,0 z m 12.44514,0.0906 c 8.23157,23.43495 -12.17846,60.81466 -13.0674,21.49819 0.9156,-17.27602 -3.37797,-14.23529 -2.23123,1.55329 0.0363,28.27687 16.08979,24.01597 17.86766,0.12763 1.37787,-8.03761 0.66405,-17.79895 -2.52458,-23.0476 z m -14.93417,7.28227 -0.0341,-0.26921 z m 1.82232,-6.95302 c -0.84715,-3.1763 -0.72626,2.26603 0,0 z m 15.82312,5.44234 c 0.17157,2.18855 0.10218,1.2957 0,0 z m -13.77856,2.634 c -1.20006,1.38286 0.71471,1.9058 0,0 z m -3.32462,0.002 c 1.27118,4.45458 -0.89784,9.21904 0,0 z m 3.72465,1.76247 c -1.41341,-0.54811 0.37779,2.71147 0,0 z m -3.57354,8.96725 -0.11823,4.45458 z m 15.73422,0.72436 c 0.55114,8.92851 -0.34047,8.11507 0,0 z m -15.20085,0.94127 c 0.68714,9.21904 3.59131,28.0832 -0.22135,8.56053 -0.0674,-2.88579 0.009,-5.71348 0.22135,-8.56053 z m -0.22935,5.13244 0.0722,0.86767 z m 0.42846,5.19056 c 0.29691,2.18855 0.20624,1.52036 0,0 z m 0.29425,2.22729 0.14667,0.78632 z m 5.26252,-11.96927 c 0.096,1.81477 0.68804,-1.60364 0,0 z m 9.15606,5.24866 c 0.78405,5.73285 -1.91122,7.30163 0,0 z m 0.78582,1.45839 c -0.4098,6.15894 -0.48446,7.2629 0,0 z m -0.31557,0.55198 c 0.007,3.29252 0.007,3.07947 0,0 z m -11.37841,7.18543 0.0167,0.21498 z m 0.37335,0.54229 0.0435,0.49001 z m 2.29346,1.66951 c -0.0978,1.87092 -1.92011,-1.30732 0,0 z m -0.46758,0.85024 c 0.7876,-1.3906 0.25068,1.67531 0,0 z m 5.947,2.47906 c -2.60458,2.49844 -3.04906,2.92453 0,0 z"
         inkscape:connector-curvature="0"
         style="fill:#2b1100;stroke-width:1.31212521" />
    </g>
   
    <g
       id="gAnimTorso1">
	    <g
       id="gAnimHandR1"
       transform="translate(1.21e-8,-11.1)" > 
      <path
         id="rHandR1"
         d="m 100,120 c 8.47,-1.64 17.6,-0.402 15,9.82 v 40.2 c -8.47,1.64 -17.6,0.402 -15,-9.82 z"
         display="none"
         inkscape:connector-curvature="0"
         style="display:none;opacity:0.5;fill:#916f6f" />
      <path
         id="path1314"
         d="m 110.61868,117.52188 c 1.63718,14.61778 4.63482,31.55801 0.0717,45.49272 -7.06369,13.5795 -15.680013,-5.73783 -9.37726,-18.443 3.38965,-9.37177 -4.411923,27.86941 5.76471,18.30638 8.53177,-10.27343 2.63639,-26.7765 3.18212,-40.7112 l 0.12759,-2.30879 0.22675,-2.29513 z m -1.56032,50.82069 c -0.76863,1.37981 -0.3651,-2.00824 0,0 z m 2.52879,-7.11763 c 0.50576,1.26642 -0.8993,-0.22268 0,0 z m 0.82243,1.72135 c -0.91467,-0.35247 0.64642,-0.8716 0,0 z m -2.62102,-45.08288 c 1.26055,5.5329 0.0468,34.56354 0.33512,15.98393 0.68408,-11.8445 -5.6033,-10.90186 -5.54181,0.53143 -0.70483,7.33622 -2.46729,14.61778 -1.83702,2.77328 -0.98384,-8.78433 3.65099,-14.61778 7.04063,-19.26268 z m -7.84001,34.83677 c -0.20906,1.54375 -0.13758,1.01641 0,0 z m -0.34741,2.74596 c 2.72094,6.44821 -2.713263,5.94274 0,0 z m 4.88847,-29.23557 c 0.13067,-2.41808 1.35278,0.85795 0,0 z m 3.28973,-1.84429 c 1.31435,0.80192 -0.62874,1.74866 0,0 z m 0.18447,2.40442 c 0.55956,1.44811 -0.85318,0.68444 0,0 z m 1.97537,-5.43727 c -0.55187,7.89633 0.22982,32.92416 -0.0466,12.95108 -0.022,-4.31703 -0.005,-8.63406 0.0466,-12.95108 z m -3.63561,0.0559 c -1.28361,-0.4358 0.10453,1.96726 0,0 z m 3.3051,0.23771 c -0.40122,6.73511 -0.14373,27.32296 -0.0699,9.11221 0.005,-3.03285 0.0443,-6.07936 0.0699,-9.11221 z m 0.61337,2.56836 -0.0284,2.22682 z m -5.16518,0.0492 c -1.19138,0.84838 -1.7371,1.23637 0,0 z m -3.79703,0.68034 c 1.36816,-2.9782 0.9531,3.64762 0,0 z m 6.47954,0.75002 c 0.77631,1.31423 -1.09145,0.59154 0,0 z m -5.47263,4.8225 c -1.64487,1.95359 1.35278,3.08749 0,0 z m -0.36203,1.54375 c 1.176,0.27323 -0.59415,1.6667 0,0 z m 5.87232,0.90029 c 1.0069,4.33069 -1.11451,2.17217 0,0 z m -5.88769,9.63134 c -0.98384,-0.347 0.34742,1.37981 0,0 z m 5.84926,0.38662 c 0.80706,1.36342 -1.11451,0.78827 0,0 z m -0.26134,1.6667 c 1.72942,6.63948 -0.27978,21.03868 -0.093,5.64219 -0.20753,-1.92627 -0.16756,-3.74324 0.093,-5.64219 z m -7.54792,0.55739 c -0.18447,1.50276 -0.0953,0.78007 0,0 z m 0.94541,0.63389 c -0.26825,1.51642 -0.17371,0.98363 0,0 z m 0.55956,0.80739 c 0.60645,1.91261 -1.48345,0.32515 0,0 z m -0.51652,3.75691 c -0.71789,4.12577 -0.79168,4.54927 0,0 z m -0.37047,0.57105 c 0.70252,1.40713 -1.14526,0.37706 0,0 z m 1.26055,10.32808 c 4.45804,1.27325 0.70098,6.40723 0,0 z m 3.50494,2.33611 c 0.10914,-3.22411 1.61412,2.14485 0,0 z m 1.50651,-2.17217 c 0.1445,-1.35522 0.2744,0.83471 0,0 z m -4.2582,1.20357 c 0.8993,-0.72406 -0.28132,1.73501 0,0 z m 5.37271,2.13119 c -0.96079,0.36476 0.80706,1.01915 0,0 z m -6.92534,0.28689 c -0.32128,2.15852 1.09145,-0.77187 0,0 z m 6.47954,1.55741 c -1.16063,-1.47544 -0.5196,1.78965 0,0 z m -0.21291,-48.77147 c -0.90699,14.07132 3.52031,30.19186 -1.43734,42.76042 -7.916873,13.34726 -6.47185,-19.80914 -6.11059,-14.07132 -5.003773,12.67785 3.89694,25.95681 8.45491,10.34174 2.89004,-7.50015 -3.50495,-34.01708 1.49882,-32.92416 1.08377,14.34455 2.23671,31.69462 -3.5818,43.30688 -12.374913,5.91542 -9.838443,-24.31743 -6.1106,-36.47614 0.51114,-8.29252 5.31891,-6.29795 7.30197,-13.07404 z m -0.24443,5.3553 c -7.24047,5.43726 -8.99294,28.14264 -4.03529,37.70567 7.54024,-5.86077 3.01302,-24.18081 4.02761,-35.79307 z m 0.99153,-4.13943 c -0.83012,14.20793 3.58181,30.46509 -1.6218,43.03365 -8.30118,12.30899 -5.91844,-20.90206 -5.81852,-15.02762 -3.789333,9.38543 1.26824,26.63988 6.74856,13.18332 7.31733,-10.68327 -2.82855,-27.18634 2.72094,-37.56906 1.59106,14.34455 2.80549,31.28478 -2.28283,43.98996 -10.683923,11.73521 -12.144323,-18.30638 -8.30118,-29.91864 1.52957,-7.51381 4.66557,-13.79809 8.53177,-17.75992 z m -0.24519,5.3553 c -6.89459,5.98372 -9.06981,27.18634 -4.4811,37.43245 8.45491,-3.33341 3.27435,-24.18082 4.43498,-35.38323 z"
         inkscape:connector-curvature="0"
         style="opacity:0.794;fill:#6c5353;stroke-width:1.02472401" />
      <path
         id="path3786"
         d="m 106.00691,162.60475 c 4.704,-11.80352 5.16518,-28.82572 2.64408,-42.35058 -8.07059,-1.35658 -6.69475,24.31743 -8.22432,34.97338 -0.18293,5.49192 2.75169,8.78433 5.59561,7.34988 z"
         inkscape:connector-curvature="0"
         style="fill:#916f6f;stroke-width:1.02472401" />
      
    </g>
	   <g
       id="gAnimHandL1"
       transform="translate(5.31,-12)">
      <path
         id="rHandL1"
         d="m 155,120 c 8.47,-1.64 17.6,-0.402 15,9.82 v 40.2 c -8.47,1.64 -17.6,0.402 -15,-9.82 z"
         display="none"
         inkscape:connector-curvature="0"
         style="display:none;opacity:0.5;fill:#916f6f" />
      <path
         id="path1062"
         d="m 155.59982,119.14934 c 0.63603,13.03786 -1.97438,26.97934 1.24808,39.24267 2.45387,7.69363 12.26935,-0.80034 4.1321,5.80895 -8.46163,-0.27883 -7.05136,-21.42857 -7.19238,-32.53011 0.35821,-4.14371 -0.44353,-9.88811 1.8122,-12.56023 z m 6.318,41.82442 -0.0861,0.15878 z m -5.64108,-41.69532 c 2.0308,3.95008 -1.20577,6.35111 0,0 z m 5.45069,5.43459 c 1.36092,-1.18116 -0.0747,2.60757 0,0 z m 0.13186,1.51032 c 0.54578,0.63899 -0.71218,0.51377 0,0 z m 0.54437,0.15232 c 0.002,2.96902 -1.27629,1.00818 0,0 z m -7.96802,0.2982 0.0903,2.86575 z m 1.84745,0.27237 c 1.14232,1.15405 -0.6057,1.66524 0,0 z m 6.14172,0.10415 c -0.80385,7.84854 1.77694,20.78313 1.38207,25.43029 -1.36092,-8.14544 -2.86285,-17.03959 -1.38207,-25.43029 z m 0.3977,0.0649 c -0.26513,7.62908 2.87695,28.78656 2.45387,28.3993 -1.50193,-9.20396 -2.82054,-18.71773 -2.45387,-28.3993 z m 3.26477,32.40101 -0.24256,2.19449 z m -2.64425,-29.94835 c 0.52674,1.67815 -1.3186,0.35757 0,0 z m -7.19237,2.38812 0.007,2.5043 z m -0.005,3.679 0.002,2.40104 z m 7.12187,2.01377 c 0.97308,5.17642 -0.36316,4.8537 0,0 z m -6.74814,3.963 c 0.495,5.13768 -0.99424,2.01376 0,0 z m -1.93912,1.3296 c 0.0291,1.52323 0.0201,1.04819 0,0 z m 0.93077,6.77711 -0.0365,0.75387 z m 0.51545,4.81497 c 1.34681,2.71084 -1.9109,4.77625 0,0 z m 6.84686,2.14285 c 1.10001,1.40706 -0.97308,0.96042 0,0 z m -8.8847,0.21816 c 1.15642,2.47849 -0.8532,1.96213 0,0 z m 1.54425,0.0892 c 0.13609,1.44578 0.079,0.83907 0,0 z m 5.85262,3.89845 -0.0797,0.15619 z m -4.68915,1.79432 c 0.43296,2.27194 1.90387,-0.0736 0,0 z m 3.9276,0.10637 -0.22846,0.50344 z m -4.7103,-44.53527 c 8.8847,5.44751 8.81419,34.59551 4.28017,43.24439 -8.60265,-2.27194 -4.1744,-23.75214 -4.26606,-34.72459 0.11423,-2.81411 0.27289,-5.67987 -0.0136,-8.49398 z m -2.51733,0.0392 c 4.29427,12.28915 -0.93782,27.62477 2.3763,40.40445 9.51933,12.76678 9.16676,-13.94148 5.99365,-24.1394 2.38336,-12.59897 4.45645,15.49052 2.94041,21.81582 -1.98848,20.65404 -15.44244,2.77539 -11.56421,-11.88898 0.32719,-8.67469 1.34681,-17.42684 0.25385,-26.07571 z m 2.77823,3.04647 c 1.29745,11.86316 -2.78528,31.62649 2.43272,38.33905 8.10905,-4.09208 2.51733,-27.75386 -0.0299,-36.66092 -0.76154,-0.67512 -1.6077,-1.10627 -2.4045,-1.69104 z m -0.76154,-3.97591 c 9.51932,5.86059 8.10905,32.40103 5.77505,44.148 -9.66035,2.27194 -5.96544,-21.42856 -5.90198,-32.14284 0.37655,-4.06627 -0.50981,-8.13253 0.12975,-12.08261 z m -2.68657,0.0409 c 4.18851,13.6833 -1.37501,31.23923 3.30003,44.40618 6.70583,5.40877 9.66035,-5.98968 6.7693,-16.39414 -1.00129,-7.09982 -1.16347,-23.62305 1.45257,-7.09982 2.80644,11.35971 1.65002,34.5955 -7.8975,28.01202 -7.96802,-11.39844 -1.5654,-33.30462 -3.59619,-48.92424 z m 2.96157,3.17556 c 1.33976,12.48278 -2.85579,32.65919 2.48207,40.14628 8.95521,-3.2401 1.97438,-27.3666 0.80385,-37.43544 -0.93782,-1.43287 -2.10835,-2.23321 -3.28592,-2.74957 z"
         inkscape:connector-curvature="0"
         style="opacity:0.794;fill:#6c5353;stroke-width:0.9540661" />
      <path
         id="path3784"
         d="m 161.20784,165.23365 c 5.64107,-12.90876 1.84039,-30.98105 -2.26349,-43.63164 -4.4917,-11.14027 -5.14042,14.58691 -4.30131,21.68674 1.73462,7.03527 -1.48784,24.91393 4.70324,22.84852 0.62052,-0.27366 1.24104,-0.54862 1.86156,-0.82229 z"
         inkscape:connector-curvature="0"
         style="fill:#916f6f;stroke-width:0.9540661" />
    </g>
    
      <path
         id="rTorso1"
         d="m 100,100 h 70 v 40 h -70 z"
         display="none"
         inkscape:connector-curvature="0"
         style="display:none;opacity:0.5;fill:#6c5353" />
      <path
         id="path3790"
         d="m 110,136 c -12,-2.89 -1.79469,-24.15781 5.74531,-30.05781 11.16047,-4.03084 20.02551,-4.34523 24.25604,-4.11897 8.67373,0.46391 15.84466,2.73754 19.40646,15.07365 C 172.43659,133.55147 129.49,138.96 120.84,136.63 c -3.59,-0.39 -7.24,0.0837 -10.8,-0.636 z"
         inkscape:connector-curvature="0"
         style="fill:#916f6f"
         sodipodi:nodetypes="ccscccc" />
      <path
         id="path3792"
         d="m 149,136 c -7.27,2.1 -35.35687,-6.185 -28.25687,-9.485 11.6,-4.87 33.11687,-14.425 34.75687,-22.425 7.24,5.79 15.3,15.8 13.7,24.8 -3.86,6.03 -13.4,8.96 -20.2,7.05 z"
         inkscape:connector-curvature="0"
         style="fill:#916f6f"
         sodipodi:nodetypes="cccccc" />
      <path
         id="path1064-0-3-0"
         d="m 137,100 c -15,-0.243 -33.8,5.68 -38.7,21.5 -5.64,14.7 13.2,20.4 23.9,15.4 -7.73,2.77 -22.7,-1.44 -19.9,-13.8 2.16,-11.3 14.9,-15.9 24.6,-18.9 15.9,-4.2 37.3,2.6 40.8,20.5 2.97,13.6 -20.2,9.8 -22.2,11.7 9.68,3.77 25.4,-1.92 23.3,-14.2 -2.18,-9.38 -10.2,-16.1 -19.5,-17.8 -4.77,-2.19 -25.8,-2.47 -11,-3.08 15.2,-0.0857 31.3,10.9 32.7,26.9 3.98,-18.1 -18.6,-30.3 -34,-28.1 z m -12.6,3.59 c -10,-0.914 -21.1,17.6 -23.6,17 3.27,-10.1 14.4,-14.1 23.6,-17 z m 4.48,32.8 c 1.07,8.35 15.1,-0.756 2.48,0.245 -0.825,-0.0817 -1.65,-0.163 -2.48,-0.245 z m 5.3,0.876 1.76,0.201 z m -24.4,1.01 c 1.51,0.0177 3.19,0.0372 0,0 z m 24.9,-38.1 c -14.9,0.381 -33.5,7.34 -36.9,23.6 -2.15,16.7 19.8,16.9 31.1,14.7 11.9,-3.24 24.5,1.75 36.2,-2.44 11.1,-4.67 6.84,-19.4 -0.0397,-25.9 -7.71,-7.93 -19.5,-11.4 -30.3,-9.93 z m -29.1,37.6 c 0.579,-2.97 -2.51,0.304 0,0 z m 31.6,-37.4 c -4.93,0.617 -9.05,0.536 -1.52,0.0799 z m 7.23,0.46 c 2.3,0.624 7.13,1.55 2.01,0.421 z m -6.46,0.0686 c -5.88,0.672 -6.69,0.0533 0,0 z m -0.0609,0.375 c 5.84,0.0605 10.9,1.6 1.81,0.29 z m -9.16,0.537 c -2.1,0.746 -6.38,1.67 -1.77,0.44 z m 4.82,0.554 c 14.5,-0.419 31.7,7.61 34.4,23.1 -1.88,12.2 -16.8,10.5 -25.9,9.58 -9.68,-1.94 -18.5,5.09 -28.2,2.01 -12.8,-0.893 -16.2,-17.4 -4.96,-23.6 6.81,-6.04 15.3,-11 24.6,-11.1 z m -3.96,33.7 c 1.75,1.89 1.68,-1.22 0,0 z m 25.6,-31.8 c 5.71,1.42 13.1,11.1 3.92,2.19 -1.27,-0.804 -2.57,-1.53 -3.92,-2.19 z m -5.29,0.708 c -1.98,-2.79 -0.98,1.67 0,0 z m -29,0.768 c -2.19,0.896 -2.73,1.11 0,0 z m 34,1.47 c 4.38,3.19 7.51,5.9 1.22,0.966 z m 2.08,1.13 c 1.5,1.09 0.981,0.714 0,0 z m -47.3,0.318 c -5.24,4.29 -6.13,4.3 0,0 z m -2.23,0.98 c -5.06,4.58 -5.85,4.78 0,0 z m 52.4,0.269 c 4,4.79 6.87,7.64 0.959,1.05 z m -51,0.0531 c -4.88,4.3 -5.86,4.2 0,0 z m 58.1,2.83 c 2.48,5.57 4.68,8.91 0.665,1.23 z m -4.41,0.171 c 1,1.4 0.876,1.22 0,0 z m 4.21,1.3 c 2.65,5.65 3.34,6.09 0,0 z m -61.8,3.43 c -3.3,6.57 -4.39,7.93 0,0 z m -6.16,4.27 -0.164,1.96 z m 68.7,0.303 c -1.24,0.886 1.52,0.629 0,0 z m -68.3,0.581 c 0.245,3.91 -0.591,3.61 0,0 z m -1.28,1.25 -0.0383,1.35 z m 70.7,6.96 c 1.51,2.19 -1.97,2.48 0,0 z m -1.29,0.754 c 0.263,3.03 -2.43,0.177 0,0 z m -0.842,2.18 c 2.56,0.322 -2.34,1.1 0,0 z m -63.1,0.232 c 2.24,-0.815 -3.6e-4,2.01 0,0 z m 41.2,0.92 c -1.22,1.45 -2.84,-2.38 0,0 z m -2.41,0.102 c -2.6,2.6 -4.62,0.604 0,0 z m 4.47,0.0967 c 2.08,0.252 3.99,0.484 0,0 z m -0.371,0.162 0.194,0.096 z m -2.87,0.139 c 2,-2.09 1.23,1.79 0,0 z m 19.8,0.219 c 0.465,1.98 -1.72,-0.398 0,0 z m -36.1,0.172 0.149,0.565 z m 28.3,0.0778 c 0.0311,2.51 -2.24,-0.855 0,0 z m -50.4,0.197 c 4.13,0.747 1.31,1.53 0,0 z m 57.8,0.0503 c -0.575,0.662 -0.31,-0.961 0,0 z m -43.8,0.317 c -4.29,3.37 -10.1,-1.2 -1.81,-0.28 z m 2.04,0.0592 c 0.1,1.11 -1.38,-0.751 0,0 z m -0.25,0.394 c 1.03,-0.475 -0.383,1.03 0,0 z m 36.9,1.67 c -0.6,-1.64 -0.973,1.08 0,0 z m -19.6,0.334 c -0.392,-1.18 -0.637,0.775 0,0 z m -25.8,0.147 c 2.66,-1.78 0.288,1.55 0,0 z m 23.1,-39.1 c -14.9,0.381 -33.5,7.34 -36.9,23.6 -2.15,16.7 19.8,16.9 31.1,14.7 11.9,-3.24 24.5,1.75 36.2,-2.44 11.1,-4.67 6.84,-19.4 -0.0397,-25.9 -7.71,-7.93 -19.5,-11.4 -30.3,-9.93 z m -29.1,37.6 c 0.579,-2.97 -2.51,0.304 0,0 z m 31.6,-37.4 c -4.93,0.617 -9.05,0.536 -1.52,0.0799 z m 7.23,0.46 c 2.3,0.624 7.13,1.55 2.01,0.421 z m -6.46,0.0686 c -5.88,0.672 -6.69,0.0533 0,0 z m -0.0609,0.375 c 5.84,0.0605 10.9,1.6 1.81,0.29 z m -9.16,0.537 c -2.1,0.746 -6.38,1.67 -1.77,0.44 z m 4.82,0.554 c 14.5,-0.419 31.7,7.61 34.4,23.1 -1.88,12.2 -16.8,10.5 -25.9,9.58 -9.68,-1.94 -18.5,5.09 -28.2,2.01 -12.8,-0.893 -16.2,-17.4 -4.96,-23.6 6.81,-6.04 15.3,-11 24.6,-11.1 z m -3.96,33.7 c 1.75,1.89 1.68,-1.22 0,0 z m 25.6,-31.8 c 5.71,1.42 13.1,11.1 3.92,2.19 -1.27,-0.804 -2.57,-1.53 -3.92,-2.19 z m -5.29,0.708 c -1.98,-2.79 -0.98,1.67 0,0 z m -29,0.768 c -2.19,0.896 -2.73,1.11 0,0 z m 34,1.47 c 4.38,3.19 7.51,5.9 1.22,0.966 z m 2.08,1.13 c 1.5,1.09 0.981,0.714 0,0 z m -47.3,0.318 c -5.24,4.29 -6.13,4.3 0,0 z m -2.23,0.98 c -5.06,4.58 -5.85,4.78 0,0 z m 52.4,0.269 c 4,4.79 6.87,7.64 0.959,1.05 z m -51,0.0531 c -4.88,4.3 -5.86,4.2 0,0 z m 58.1,2.83 c 2.48,5.57 4.68,8.91 0.665,1.23 z m -4.41,0.171 c 1,1.4 0.876,1.22 0,0 z m 4.21,1.3 c 2.65,5.65 3.34,6.09 0,0 z m -61.8,3.43 c -3.3,6.57 -4.39,7.93 0,0 z m -6.16,4.27 -0.164,1.96 z m 68.7,0.303 c -1.24,0.886 1.52,0.629 0,0 z m -68.3,0.581 c 0.245,3.91 -0.591,3.61 0,0 z m -1.28,1.25 -0.0383,1.35 z m 70.7,6.96 c 1.51,2.19 -1.97,2.48 0,0 z m -1.29,0.754 c 0.263,3.03 -2.43,0.177 0,0 z m -0.842,2.18 c 2.56,0.322 -2.34,1.1 0,0 z m -63.1,0.232 c 2.24,-0.815 -3.8e-4,2.01 0,0 z m 41.2,0.92 c -1.22,1.45 -2.84,-2.38 0,0 z m -2.41,0.102 c -2.6,2.6 -4.62,0.604 0,0 z m 4.47,0.0967 c 2.08,0.252 3.99,0.484 0,0 z m -0.371,0.162 0.194,0.096 z m -2.87,0.139 c 2,-2.09 1.23,1.79 0,0 z m 19.8,0.219 c 0.465,1.98 -1.72,-0.398 0,0 z m -36.1,0.172 0.149,0.565 z m 28.3,0.0778 c 0.0311,2.51 -2.24,-0.855 0,0 z m -50.4,0.197 c 4.13,0.747 1.31,1.53 0,0 z m 57.8,0.0503 c -0.575,0.662 -0.31,-0.961 0,0 z m -43.8,0.317 c -4.29,3.37 -10.1,-1.2 -1.81,-0.28 z m 2.04,0.0592 c 0.1,1.11 -1.38,-0.751 0,0 z m -0.25,0.394 c 1.03,-0.475 -0.383,1.03 0,0 z m 36.9,1.67 c -0.6,-1.64 -0.973,1.08 0,0 z m -19.6,0.334 c -0.392,-1.18 -0.637,0.775 0,0 z m -25.8,0.147 c 2.66,-1.78 0.288,1.55 0,0 z m 22.5,-38.5 c -14.9,0.381 -33.5,7.34 -36.9,23.6 -2.15,16.7 19.8,16.9 31.1,14.7 11.9,-3.24 24.5,1.75 36.2,-2.44 11.1,-4.67 6.84,-19.4 -0.0397,-25.9 -7.71,-7.93 -19.5,-11.4 -30.3,-9.93 z m -29.1,37.6 c 0.579,-2.97 -2.51,0.304 0,0 z m 31.6,-37.4 c -4.93,0.617 -9.05,0.536 -1.52,0.0799 z m 7.23,0.46 c 2.3,0.624 7.13,1.55 2.01,0.421 z m -6.46,0.0686 c -5.88,0.672 -6.69,0.0534 0,0 z m -0.0609,0.375 c 5.84,0.0605 10.9,1.6 1.81,0.29 z m -9.16,0.537 c -2.1,0.746 -6.38,1.67 -1.77,0.44 z m 4.82,0.554 c 14.5,-0.419 31.7,7.61 34.4,23.1 -1.88,12.2 -16.8,10.5 -25.9,9.58 -9.68,-1.94 -18.5,5.09 -28.2,2.01 -12.8,-0.893 -16.2,-17.4 -4.96,-23.6 6.81,-6.04 15.3,-11 24.6,-11.1 z m -3.96,33.7 c 1.75,1.89 1.68,-1.22 0,0 z m 25.6,-31.8 c 5.71,1.42 13.1,11.1 3.92,2.19 -1.27,-0.804 -2.57,-1.53 -3.92,-2.19 z m -5.29,0.708 c -1.98,-2.79 -0.98,1.67 0,0 z m -29,0.768 c -2.19,0.896 -2.73,1.11 0,0 z m 34,1.47 c 4.38,3.19 7.51,5.9 1.22,0.966 z m 2.08,1.13 c 1.5,1.09 0.981,0.714 0,0 z m -47.3,0.319 c -5.24,4.29 -6.13,4.3 0,0 z m -2.23,0.98 c -5.06,4.58 -5.85,4.78 0,0 z m 52.4,0.269 c 4,4.79 6.87,7.64 0.959,1.05 z m -51,0.0531 c -4.88,4.3 -5.86,4.2 0,0 z m 58.1,2.83 c 2.48,5.57 4.68,8.91 0.665,1.23 z m -4.41,0.171 c 1,1.4 0.876,1.22 0,0 z m 4.21,1.3 c 2.65,5.65 3.34,6.09 0,0 z m -61.8,3.43 c -3.3,6.57 -4.39,7.93 0,0 z m -6.16,4.27 -0.164,1.96 z m 68.7,0.303 c -1.24,0.886 1.52,0.629 0,0 z m -68.3,0.581 c 0.245,3.91 -0.591,3.61 0,0 z m -1.28,1.25 -0.0383,1.35 z m 70.7,6.96 c 1.51,2.19 -1.97,2.48 0,0 z m -1.29,0.754 c 0.263,3.03 -2.43,0.177 0,0 z m -0.842,2.18 c 2.56,0.322 -2.34,1.1 0,0 z m -63.1,0.232 c 2.24,-0.815 -3.7e-4,2.01 0,0 z m 41.2,0.92 c -1.22,1.45 -2.84,-2.38 0,0 z m -2.41,0.102 c -2.6,2.6 -4.62,0.603 0,0 z m 4.47,0.0968 c 2.08,0.252 3.99,0.484 0,0 z m -0.371,0.162 0.194,0.0959 z m -2.87,0.139 c 2,-2.09 1.23,1.79 0,0 z m 19.8,0.219 c 0.465,1.98 -1.72,-0.398 0,0 z m -36.1,0.172 0.149,0.565 z m 28.3,0.078 c 0.0311,2.51 -2.24,-0.855 0,0 z m -50.4,0.197 c 4.13,0.746 1.31,1.53 0,0 z m 57.8,0.0503 c -0.575,0.662 -0.31,-0.961 0,0 z m -43.8,0.317 c -4.29,3.37 -10.1,-1.2 -1.81,-0.28 z m 2.04,0.0592 c 0.1,1.11 -1.38,-0.751 0,0 z m -0.25,0.394 c 1.03,-0.475 -0.383,1.03 0,0 z m 36.9,1.67 c -0.6,-1.64 -0.974,1.08 0,0 z m -19.6,0.334 c -0.392,-1.18 -0.637,0.775 0,0 z m -25.8,0.147 c 2.66,-1.78 0.288,1.55 0,0 z"
         inkscape:connector-curvature="0"
         style="opacity:0.794;fill:#6c5353" />
		  </g>
    <g
       id="gAnimHead1"
       transform="translate(64.9,18.728125)">
      <path
         id="rHead1"
         d="m 49.2,76 h 40 v 40 h -40 z"
         display="none"
         inkscape:connector-curvature="0"
         style="display:none;opacity:0.5;fill:#ebffff;fill-opacity:0.5" />
      <path
         sodipodi:nodetypes="cccccc"
         style="fill:#ff9955;stroke-width:0.57276833"
         inkscape:connector-curvature="0"
         d="m 57.466276,107.95752 c -4.85965,-1.39977 -8.63637,-11.375592 -3.33742,-10.462322 8.42658,1.68157 24.28796,4.611232 28.71588,2.1929 1.35077,4.257082 1.07831,8.505162 -3.77066,11.298672 -4.75595,1.04228 -9.82109,3.63438 -12.65155,0.9177 z"
         id="path1842" />
      <path
         id="path1041"
         d="m 53.8,104 c 6.62,15.1 31.2,10.8 35,-4.22 5.56,-11.9 -7.77,-23.9 -19.4,-21.8 -11,1.49 -22.9,15.2 -15.6,26.1 z M 64.3,79.8 c -0.874,1.39 -0.273,-1.59 0,0 z m -2.71,2.18 c 0.148,2.29 -1.64,-1.5 0,0 z m -6.23,0.609 c -1.66,-0.761 1.07,1.48 0,0 z m 0.598,0.827 c 0.0909,1.87 -1.09,-1.27 0,0 z m 3.14,0.0438 -0.234,0.223 z m -0.34,0.387 -0.787,0.546 z m -5.81,4.02 c 5.4,-0.031 -2.3,3.16 0,0 z m -0.486,11.7 c 7.55,10.9 21.8,6.86 32.7,5.63 -7.39,11.9 -30.6,9.15 -32.7,-5.63 z"
         inkscape:connector-curvature="0"
         style="fill:#483737" />
      <path
         id="path1072-1"
         d="m 70,77 c -13.3,-3.06 -25,12.4 -19.1,24.4 4.4,10.6 17.9,14.6 27.8,9.22 9.79,-3.8 16.6,-16.9 8.67,-25.8 -4.58,-7.65 -18.3,-7.99 -23,-7.25 1.49,-0.308 13.5,-0.288 5.61,-0.603 z m 0.546,2.33 c 11.9,-3.19 24.9,14.1 14.5,23.1 -9.93,6.19 -25.5,6.09 -33.1,-3.74 -5.36,-11.4 8.82,-20 18.6,-19.4 z m -18,22.6 c 9.5,5.9 22.3,7.42 32.1,1.46 -5.01,13.2 -26.7,9.43 -32.1,-1.46 z m 11.6,10.2 c 2.59,8.27 14.4,-0.825 2.25,0.425 z m 5.21,-34.5 c -13.3,-3.06 -25,12.4 -19.1,24.4 4.4,10.6 17.9,14.6 27.8,9.22 9.79,-3.8 16.6,-16.9 8.67,-25.8 -4.58,-7.65 -18.3,-7.99 -23,-7.25 1.49,-0.308 13.5,-0.288 5.61,-0.603 z m 0.546,2.33 c 11.9,-3.19 24.9,14.1 14.5,23.1 -9.93,6.19 -25.5,6.09 -33.1,-3.74 -5.36,-11.4 8.82,-20 18.6,-19.4 z m -18,22.6 c 9.5,5.9 22.3,7.42 32.1,1.46 -5.01,13.2 -26.7,9.43 -32.1,-1.46 z m 11.6,10.2 c 2.59,8.27 14.4,-0.826 2.25,0.425 z m 7.45,-34.7 c -7.54,0.255 -7.27,1.38 0,0 z m -1.12,0.68 c -15.3,-2.89 -26.5,18.3 -14.3,28.7 11.4,13.6 38.6,3.46 36,-14.9 -1.74,-9.61 -12.6,-14.9 -21.7,-13.8 z m 1.68,1.55 c 14.1,-3.44 24.9,21.3 8.74,25.3 -9.57,6.11 -25.5,0.253 -27.3,-11.3 0.452,-8.21 11.1,-14.3 18.6,-14 z m -16.6,22.5 c 8.49,6.46 20.8,7.21 29.9,1.62 -4.59,12.7 -25.6,9.58 -29.9,-1.62 z m 10.3,10.3 c 2.48,7.68 14.6,-0.0401 2.98,0.111 l -1.4,-0.076 z m 5.57,-35.7 c -11.6,-2.88 -21.8,8.88 -19.6,20 0.992,16.8 26.3,22.8 35.1,8.7 7.68,-8.8 5.14,-26.1 -8.14,-27.4 -3.39,-0.14 -17.4,-0.333 -6.01,-1.04 4.6,0.0722 -0.519,-0.176 -1.35,-0.287 z m 0.5,2.33 c 12.5,-2.66 22.8,15.7 12.2,24 -9.07,5.78 -23.3,4.97 -28.8,-5.38 -6.11,-11 7.33,-18.7 16.6,-18.6 z m -16.5,22.6 c 6.17,10.1 26.5,1.32 28.2,4.67 -7.52,8.85 -23.5,5.44 -28.2,-4.67 z m 10.2,10.1 c 2.58,8.39 14.5,-0.912 2.29,0.269 z"
         inkscape:connector-curvature="0"
         style="fill:#241c1c" />
		 
	     
   <animateTransform
         attributeName="transform"			 xlink:href = "#gAnimHead1"
         type="translate"    values="64,20;  64,30;  64,20 "
         begin="0s"       dur="1s"
         repeatCount="indefinite" fill="freeze" />  
   <!-- <animateTransform
         attributeName="transform" xlink:href = "#gAnimHead1"
         attributeType="XML" type="rotate" values="-10,120,180;   10,60,180;  -10,120,180"
         begin="0.0s"         dur="1s" repeatCount="indefinite"    fill="freeze" />   -->
													  <!--  rozgląda sie po ludziach  -->
		  <animateTransform
         attributeName="transform" 				xlink:href = "#gAnimHead1" 
         attributeType="XML" 
         type="rotate"   values="50 60 80;   -20 60 80;  50 60 80"
         begin="0.0s"     dur="4s"
         repeatCount="indefinite" additive="sum"
         fill="freeze" />
		<animateTransform
         attributeName="transform" 				xlink:href = "#gAnimLegL1"
         type="translate"  values="0,20;  0,-20; 0,20"
         begin="0s"  dur="1s"		
         repeatCount="indefinite" fill="freeze" />     
	 <animateTransform
         attributeName="transform"				 xlink:href = "#gAnimLegR1"
         type="translate"  values="0,-20;  0,20;  0,-20"
         begin="0s"   dur="1s"
         repeatCount="indefinite"   fill="freeze" />
	  <animateTransform   
         attributeName="transform" 
		 attributeType="XML" 			xlink:href="#gAnimHandR1"	  
         type="translate" values="0,10;  0,60;  0,10"
         begin="0s"  dur="1s" 
		 additive="sum"  repeatCount="indefinite"   fill="freeze" />		 
	    <animateTransform 
		attributeName="transform"  xlink:href  ="#gAnimHandR1"
		attributeType="XML"    	  
		type="scale"  values="1 1.1;1 .6;1 1.1" 
		begin="0s" dur="1s"  
		fill="freeze"  additive="sum" repeatCount="indefinite"/>
		<animateTransform
         attributeName="transform"  xlink:href = "gAnimHandL1"
         type="translate"
         values="0,-10;  0,10; 0,-10"
         begin="0s"
         dur="1s" additive="sum" 
         repeatCount="indefinite"
         fill="freeze" />
	  <animateTransform
         attributeName="transform" xlink:href = "#gAnimTorso1"
         attributeType="XML"
         type="rotate"
         values="-20,135,120;   20,135,120;  -20,135,120"
         begin="0.0s"
         dur="1s" additive="sum"
         repeatCount="indefinite"
         fill="freeze" />
   
    </g>
  </g>
  <!-- ============================================================
    <animateTransform attributeName="transform" attributeType="XML"
           type="rotate" from="-20,135,120" to="20,135,120"
           begin="0.5s" dur="1s" fill="freeze" />
	

  <animateMotion from="15,43" to="65,30" begin="0s" dur="3s" fill="freeze"/>
		
   
   <animate attributeName="x" dur="10s" values="0; 50; 100" 
     keyTimes="0; .8; 1" calcMode="spline" 
     keySplines=".5 0 .5 1; 0 0 1 1" />
	 
	 
      <animateTransform attributeName="transform" attributeType="XML" 
	  type="rotate" from="-20,135,120" to="20,135,120"
	  dur="3s" additive="replace" fill="freeze"/>
   
   <animateTransform attributeName="transform" attributeType="XML" 
   type="rotate" from="-30" to="0" begin="3s" dur="6s" fill="freeze"/>
   <animateTransform attributeName="transform" attributeType="XML" 
	type="scale" from="1" to="3" begin="3s" dur="6s"  additive="sum" fill="freeze"/>


	<animate id="A" begin="10s" .../>
<animate id="B" begin="A.begin+5s" .../>
<animate id="C" begin="click" .../>
<animate id="D" begin="C.begin+5s" .../>
...
<a href="#D">Start the last animation</a>

<animate id="foo" repeatCount="10" end="endAnim.click" ... />
<img id="endAnim" begin="foo.repeat(2)" .../>

	============================================================ -->
</svg>
