<?xml version="1.0" encoding="UTF-8" standalone="no"?>
<!-- Created with Inkscape (http://www.inkscape.org/) -->

<svg
   xmlns:dc="http://purl.org/dc/elements/1.1/"
   xmlns:cc="http://creativecommons.org/ns#"
   xmlns:rdf="http://www.w3.org/1999/02/22-rdf-syntax-ns#"
   xmlns:svg="http://www.w3.org/2000/svg"
   xmlns="http://www.w3.org/2000/svg"
   xmlns:sodipodi="http://sodipodi.sourceforge.net/DTD/sodipodi-0.dtd"
   xmlns:inkscape="http://www.inkscape.org/namespaces/inkscape"
   height="1000"
   width="1000"
   sodipodi:docname="peonekGREACER.svg"
   version="1.1"
   id="svg3838"
   inkscape:version="0.92.3 (2405546, 2018-03-11)">
  <sodipodi:namedview
     id="base"
     pagecolor="#ffffff"
     bordercolor="#666666"
     borderopacity="1.0"
     inkscape:pageopacity="0.0"
     inkscape:pageshadow="2"
     inkscape:zoom="0.5"
     inkscape:cx="-77"
     inkscape:cy="580"
     inkscape:document-units="px"
     inkscape:current-layer="g5662"
     showgrid="false"
     showguides="true"
     inkscape:window-width="1280"
     inkscape:window-height="748"
     inkscape:window-x="-8"
     inkscape:window-y="-8"
     inkscape:window-maximized="1"
     showborder="true"
     inkscape:showpageshadow="false">
    <sodipodi:guide
       id="guide_baseline"
       inkscape:label="baseline"
       position="0,253"
       orientation="0,1"
       inkscape:locked="false" />
    <sodipodi:guide
       id="guide_ascender"
       inkscape:label="ascender"
       position="0,945"
       orientation="0,1"
       inkscape:locked="false" />
    <sodipodi:guide
       id="guide_caps"
       inkscape:label="caps"
       position="0,896"
       orientation="0,1"
       inkscape:locked="false" />
    <sodipodi:guide
       id="guide_xheight"
       inkscape:label="xheight"
       position="0,729"
       orientation="0,1"
       inkscape:locked="false" />
    <sodipodi:guide
       id="guide_descender"
       inkscape:label="descender"
       position="0,28"
       orientation="0,1"
       inkscape:locked="false" />
  </sodipodi:namedview>
  <defs
     id="defs4" />
  <metadata
     id="metadata7">
    <rdf:RDF>
      <cc:Work
         rdf:about="">
        <dc:format>image/svg+xml</dc:format>
        <dc:type
           rdf:resource="http://purl.org/dc/dcmitype/StillImage" />
        <dc:title></dc:title>
      </cc:Work>
    </rdf:RDF>
  </metadata>
  <g
     id="layer1"
     inkscape:groupmode="layer"
     inkscape:label="Layer 1">
    <g
       id="g5662"
       transform="translate(-576,-70.000012)">
	
	
	
	
	
	
	<path
   id="path5200"
   d="M 697.6,575.7 C 695.7,560 684.8,547.6 670.8,542.9 v -2.5 c 0,-2.6 -1.7,-4.9 -4,-5.8 v -4.2 c 0,-1.7 -1.4,-3.1 -3.1,-3.1 H 655 c -1.7,0 -3.1,1.4 -3.1,3.1 v 0.1 c -0.5,-0.2 -1.1,-0.3 -1.7,-0.3 -2.6,0 -4.7,1.9 -5.1,4.3 -2.4,0.8 -4.1,3.1 -4.1,5.8 v 4.3 c -2.8,1.3 -5.4,3 -7.8,4.9 -5,-5.6 -11.4,-9.9 -18.6,-12.4 7.8,-2.9 14.9,-7.2 21,-12.5 h 5.9 c 3,0 5.4,-2.4 5.4,-5.4 0,-1.7 -0.8,-3.3 -2.1,-4.3 9.3,-11.8 14.9,-26.8 14.9,-43 0,-2.3 -0.1,-4.7 -0.3,-6.9 1.1,0.1 2.3,0.1 3.5,0.1 25.4,0 46.1,-20.6 46.1,-46.1 0,-25.4 -20.6,-46.1 -46.1,-46.1 -14.5,0 -27.5,6.7 -35.9,17.3 l -0.6,-0.3 c -11.3,-5 -23.7,-7.7 -36.3,-7.7 -15.3,0 -30.1,3.9 -43.2,11.1 -13.1,7.2 -24.3,17.6 -32.5,30.5 -4.6,7.3 -3.9,16.4 1,22.8 -3.4,3.3 -5.5,8 -5.5,13.1 0,6.4 3.2,12 8.2,15.3 l -9.7,47.9 c -1.9,-0.2 -3.9,-0.3 -5.8,-0.3 -26,0 -45.5,17.5 -49,41.3 h -10.9 c -3.7,0 -6.7,3 -6.7,6.7 0,3.7 3,6.7 6.7,6.7 h 2.3 c -1.3,1.7 -2.6,3.6 -3.6,5.6 l -60.1,111.2 c -28.5,7.3 -49.5,33.2 -49.5,64 0,32.8 23.9,60 55.2,65.1 l 43.7,70.4 -26.5,86.4 H 517 l 18.5,-60.3 c 4,-2.4 7.8,-5.1 11.3,-8.2 L 582.4,980 H 704.3 L 631.2,839.5 c 12.6,-10.5 20.7,-26.4 20.7,-44 V 775 c 3.7,3.4 7.9,6.1 12.5,7.8 0.3,0.1 0.5,0.2 0.8,0.3 l 0.4,0.1 0.3,0.1 0.6,0.2 v 0 c 2.5,0.8 5,1.4 7.7,1.7 h 0.3 l 0.5,0.1 0.6,0.1 h 0.2 c 6.8,0.6 13.8,-0.7 20.3,-3.8 h 0.1 l 0.7,-0.3 0.3,-0.1 0.5,-0.3 0.3,-0.1 0.5,-0.3 0.3,-0.2 v 0 c 0.2,-0.1 0.5,-0.3 0.7,-0.4 l 0.4,-0.2 0.4,-0.2 h 0.1 l 0.3,-0.2 c 7.4,-4.9 12.7,-11.8 15.5,-19.5 v -0.1 l 0.2,-0.7 0.1,-0.4 0.2,-0.5 0.2,-0.6 0.1,-0.3 0.2,-0.7 0.1,-0.2 0.2,-0.8 v -0.1 c 0.1,-0.3 0.1,-0.6 0.2,-0.9 v 0 c 0.1,-0.3 0.1,-0.6 0.2,-0.9 v -0.1 l 0.2,-0.8 v -0.2 l 0.1,-0.7 v -0.3 l 0.1,-0.6 0.1,-0.5 V 750 c 0.3,-3.3 0.3,-6.7 -0.2,-10.1 z"
   class="st2"
   inkscape:connector-curvature="0"
   style="clip-rule:evenodd;fill:#712c1e;fill-rule:evenodd" />

	
	<path
   id="path5254"
   d="m 1181,165.8 v -24.6 c 0,-7.9 -6.4,-14.3 -14.3,-14.3 h -81 c -7.9,0 -14.3,6.4 -14.3,14.3 v 24.6 c 0,7.9 6.4,14.3 14.3,14.3 h 81 c 7.8,0 14.3,-6.4 14.3,-14.3 z"
   class="st1"
   inkscape:connector-curvature="0"
   style="clip-rule:evenodd;fill:#902e23;fill-rule:evenodd" />

	<path
   id="path5256"
   d="m 1249.7,227.5 v -24.6 c 0,-7.9 -6.4,-14.3 -14.3,-14.3 h -81 c -7.9,0 -14.3,6.4 -14.3,14.3 v 24.6 c 0,7.9 6.4,14.3 14.3,14.3 h 81 c 7.8,0 14.3,-6.5 14.3,-14.3 z"
   class="st1"
   inkscape:connector-curvature="0"
   style="clip-rule:evenodd;fill:#902e23;fill-rule:evenodd" />

	<path
   id="path5258"
   d="m 1287,188.6 h -18.5 c -5.9,0 -10.7,4.8 -10.7,10.7 v 31.8 c 0,5.9 4.8,10.7 10.7,10.7 h 18.5 c 5.9,0 10.7,-4.8 10.7,-10.7 v -31.8 c 0,-5.9 -4.9,-10.7 -10.7,-10.7 z"
   class="st1"
   inkscape:connector-curvature="0"
   style="clip-rule:evenodd;fill:#902e23;fill-rule:evenodd" />

	<path
   id="path5260"
   d="m 1283.4,250.6 h -81 c -7.9,0 -14.3,6.4 -14.3,14.3 v 24.6 c 0,7.9 6.4,14.3 14.3,14.3 h 81 c 7.9,0 14.3,-6.4 14.3,-14.3 v -24.6 c 0,-7.8 -6.5,-14.3 -14.3,-14.3 z"
   class="st1"
   inkscape:connector-curvature="0"
   style="clip-rule:evenodd;fill:#902e23;fill-rule:evenodd" />

	<path
   id="path5262"
   d="m 1283.4,126.9 h -81 c -7.9,0 -14.3,6.4 -14.3,14.3 v 24.6 c 0,7.9 6.4,14.3 14.3,14.3 h 81 c 7.9,0 14.3,-6.4 14.3,-14.3 v -24.6 c 0,-7.9 -6.5,-14.3 -14.3,-14.3 z"
   class="st1"
   inkscape:connector-curvature="0"
   style="clip-rule:evenodd;fill:#902e23;fill-rule:evenodd" />

	<path
   id="path5264"
   d="M 96.6,204.2 H 115 c 5.9,0 10.7,-4.8 10.7,-10.7 V 161.7 C 125.7,155.8 120.9,151 115,151 H 96.6 c -5.9,0 -10.7,4.8 -10.7,10.7 v 31.8 c 0,5.8 4.8,10.7 10.7,10.7 z"
   class="st1"
   inkscape:connector-curvature="0"
   style="clip-rule:evenodd;fill:#902e23;fill-rule:evenodd" />

	<path
   id="path5266"
   d="m 100.1,142.5 h 81 c 7.9,0 14.3,-6.4 14.3,-14.3 v -24.6 c 0,-7.9 -6.4,-14.3 -14.3,-14.3 h -81 c -7.9,0 -14.3,6.4 -14.3,14.3 v 24.6 c 0.1,7.9 6.5,14.3 14.3,14.3 z"
   class="st1"
   inkscape:connector-curvature="0"
   style="clip-rule:evenodd;fill:#902e23;fill-rule:evenodd" />

	<path
   id="path5268"
   d="m 229.2,151 h -81 c -7.9,0 -14.3,6.4 -14.3,14.3 v 24.6 c 0,7.9 6.4,14.3 14.3,14.3 h 81 c 7.9,0 14.3,-6.4 14.3,-14.3 v -24.6 c 0,-7.9 -6.5,-14.3 -14.3,-14.3 z"
   class="st1"
   inkscape:connector-curvature="0"
   style="clip-rule:evenodd;fill:#902e23;fill-rule:evenodd" />

	
	<path
   id="path5272"
   d="m 297.9,89.3 h -81 c -7.9,0 -14.3,6.4 -14.3,14.3 v 24.6 c 0,7.9 6.4,14.3 14.3,14.3 h 81 c 7.9,0 14.3,-6.4 14.3,-14.3 v -24.6 c 0,-7.9 -6.5,-14.3 -14.3,-14.3 z"
   class="st1"
   inkscape:connector-curvature="0"
   style="clip-rule:evenodd;fill:#902e23;fill-rule:evenodd" />

	<g
   id="g5552">
		<rect
   id="rect5274"
   height="10.7"
   width="1.6"
   class="st13"
   y="165.3"
   x="850.70001"
   style="clip-rule:evenodd;fill:#ffffff;fill-rule:evenodd" />

		<path
   id="path5276"
   d="m 868.9,163.4 c 0.3,0 0.5,-0.1 0.7,-0.3 0.2,-0.2 0.3,-0.5 0.3,-0.8 0,-0.4 -0.1,-0.6 -0.3,-0.8 -0.2,-0.2 -0.4,-0.3 -0.7,-0.3 -0.3,0 -0.5,0.1 -0.7,0.3 -0.2,0.2 -0.3,0.4 -0.3,0.8 0,0.4 0.1,0.6 0.3,0.8 0.2,0.2 0.4,0.3 0.7,0.3 z"
   class="st13"
   inkscape:connector-curvature="0"
   style="clip-rule:evenodd;fill:#ffffff;fill-rule:evenodd" />

		<rect
   id="rect5278"
   height="10.7"
   width="1.6"
   class="st13"
   y="165.3"
   x="868.09998"
   style="clip-rule:evenodd;fill:#ffffff;fill-rule:evenodd" />

		<path
   id="path5280"
   d="m 481,174.1 c -1.1,0.5 -2.3,0.7 -3.4,0.7 -1.1,0 -2,-0.3 -2.6,-1 -0.6,-0.7 -0.9,-1.6 -1,-2.9 h 7.4 v -1 c 0,-1.5 -0.4,-2.6 -1.2,-3.5 -0.8,-0.9 -1.9,-1.3 -3.2,-1.3 -1.4,0 -2.6,0.5 -3.4,1.5 -0.9,1 -1.3,2.4 -1.3,4.1 0,1.7 0.5,3.1 1.4,4 0.9,1 2.2,1.5 3.8,1.5 0.7,0 1.3,-0.1 1.9,-0.2 0.5,-0.1 1.1,-0.3 1.6,-0.5 z m -6,-6.8 c 0.5,-0.6 1.2,-0.8 2.1,-0.8 0.8,0 1.5,0.3 2,0.8 0.5,0.5 0.7,1.3 0.7,2.4 h -5.6 c 0,-1.1 0.3,-1.9 0.8,-2.4 z"
   class="st13"
   inkscape:connector-curvature="0"
   style="clip-rule:evenodd;fill:#ffffff;fill-rule:evenodd" />

		<path
   id="path5282"
   d="m 593.2,219.7 c -1.4,0 -2.6,0.5 -3.4,1.5 -0.9,1 -1.3,2.4 -1.3,4.1 0,1.7 0.5,3.1 1.4,4 0.9,1 2.2,1.5 3.8,1.5 0.7,0 1.3,-0.1 1.9,-0.2 0.5,-0.1 1.1,-0.3 1.6,-0.5 v -1.5 c -1.1,0.5 -2.3,0.7 -3.4,0.7 -1.1,0 -2,-0.3 -2.6,-1 -0.6,-0.7 -0.9,-1.6 -1,-2.9 h 7.4 v -1 c 0,-1.4 -0.4,-2.6 -1.2,-3.5 -0.8,-0.7 -1.8,-1.2 -3.2,-1.2 z m -3,4.6 c 0.1,-1 0.4,-1.8 0.9,-2.3 0.5,-0.6 1.2,-0.8 2.1,-0.8 0.9,0 1.5,0.3 2,0.8 0.5,0.5 0.7,1.3 0.7,2.4 h -5.7 z"
   class="st13"
   inkscape:connector-curvature="0"
   style="clip-rule:evenodd;fill:#ffffff;fill-rule:evenodd" />

		<rect
   id="rect5284"
   height="10.7"
   width="1.6"
   class="st13"
   y="165.3"
   x="892.29999"
   style="clip-rule:evenodd;fill:#ffffff;fill-rule:evenodd" />

		<path
   id="path5286"
   d="m 508.9,192.4 c -1.4,0 -2.6,0.5 -3.4,1.5 -0.9,1 -1.3,2.4 -1.3,4.1 0,1.7 0.5,3.1 1.4,4 0.9,1 2.2,1.5 3.8,1.5 0.7,0 1.3,-0.1 1.9,-0.2 0.5,-0.1 1.1,-0.3 1.6,-0.5 v -1.5 c -1.1,0.5 -2.3,0.7 -3.4,0.7 -1.1,0 -2,-0.3 -2.6,-1 -0.6,-0.7 -0.9,-1.6 -1,-2.9 h 7.4 v -1 c 0,-1.4 -0.4,-2.6 -1.2,-3.5 -0.8,-0.8 -1.8,-1.2 -3.2,-1.2 z m -3,4.5 c 0.1,-1 0.4,-1.8 0.9,-2.3 0.5,-0.6 1.2,-0.8 2.1,-0.8 0.8,0 1.5,0.3 2,0.8 0.5,0.5 0.7,1.3 0.7,2.4 h -5.7 z"
   class="st13"
   inkscape:connector-curvature="0"
   style="clip-rule:evenodd;fill:#ffffff;fill-rule:evenodd" />

		<path
   id="path5288"
   d="m 851.5,163.4 c 0.3,0 0.5,-0.1 0.7,-0.3 0.2,-0.2 0.3,-0.5 0.3,-0.8 0,-0.4 -0.1,-0.6 -0.3,-0.8 -0.2,-0.2 -0.4,-0.3 -0.7,-0.3 -0.3,0 -0.5,0.1 -0.7,0.3 -0.2,0.2 -0.3,0.4 -0.3,0.8 0,0.4 0.1,0.6 0.3,0.8 0.2,0.2 0.4,0.3 0.7,0.3 z"
   class="st13"
   inkscape:connector-curvature="0"
   style="clip-rule:evenodd;fill:#ffffff;fill-rule:evenodd" />

		<path
   id="path5290"
   d="m 484.1,197.2 c -0.9,-0.3 -1.6,-0.6 -1.9,-0.8 -0.3,-0.2 -0.6,-0.4 -0.7,-0.6 -0.1,-0.2 -0.2,-0.4 -0.2,-0.7 0,-0.4 0.2,-0.8 0.6,-1 0.4,-0.2 1,-0.4 1.7,-0.4 0.9,0 1.8,0.2 2.9,0.7 l 0.6,-1.3 c -1.1,-0.5 -2.2,-0.7 -3.4,-0.7 -1.2,0 -2.2,0.3 -2.9,0.8 -0.7,0.5 -1.1,1.2 -1.1,2.1 0,0.5 0.1,0.9 0.3,1.3 0.2,0.4 0.5,0.7 0.9,0.9 0.4,0.3 1.1,0.6 2.1,1 1.1,0.4 1.8,0.8 2.1,1.1 0.4,0.3 0.5,0.7 0.5,1.1 0,0.6 -0.2,1 -0.7,1.2 -0.5,0.3 -1.1,0.4 -2,0.4 -0.5,0 -1.1,-0.1 -1.7,-0.2 -0.6,-0.2 -1.1,-0.4 -1.7,-0.6 v 1.5 c 0.8,0.5 1.9,0.7 3.3,0.7 1.3,0 2.4,-0.3 3.1,-0.8 0.7,-0.5 1.1,-1.3 1.1,-2.3 0,-0.7 -0.2,-1.3 -0.7,-1.8 0,-0.6 -0.9,-1.1 -2.2,-1.6 z"
   class="st13"
   inkscape:connector-curvature="0"
   style="clip-rule:evenodd;fill:#ffffff;fill-rule:evenodd" />

		<path
   id="path5292"
   d="m 497.4,167.1 c 0.4,0.4 0.5,1.1 0.5,1.9 v 7 h 1.6 v -7 c 0,-1.4 -0.3,-2.4 -0.9,-3 -0.6,-0.6 -1.5,-0.9 -2.7,-0.9 -0.8,0 -1.5,0.2 -2.1,0.5 -0.6,0.3 -1.1,0.8 -1.4,1.3 h -0.1 c -0.5,-1.2 -1.6,-1.8 -3.3,-1.8 -0.7,0 -1.3,0.1 -1.9,0.4 -0.6,0.3 -1,0.7 -1.3,1.2 h -0.1 l -0.3,-1.5 h -1.3 V 176 h 1.6 v -5.6 c 0,-1.4 0.2,-2.4 0.7,-3 0.5,-0.6 1.2,-0.9 2.2,-0.9 0.8,0 1.4,0.2 1.7,0.6 0.4,0.4 0.5,1.1 0.5,1.9 v 7 h 1.6 v -6 c 0,-1.2 0.2,-2.1 0.7,-2.7 0.5,-0.6 1.2,-0.9 2.2,-0.9 1.2,0 1.7,0.3 2.1,0.7 z"
   class="st13"
   inkscape:connector-curvature="0"
   style="clip-rule:evenodd;fill:#ffffff;fill-rule:evenodd" />

		<rect
   id="rect5294"
   height="15.3"
   width="1.6"
   class="st13"
   y="215.39999"
   x="600.40002"
   style="clip-rule:evenodd;fill:#ffffff;fill-rule:evenodd" />

		<path
   id="path5296"
   d="m 498.9,197.2 c -0.9,-0.3 -1.6,-0.6 -1.9,-0.8 -0.3,-0.2 -0.6,-0.4 -0.7,-0.6 -0.1,-0.2 -0.2,-0.4 -0.2,-0.7 0,-0.4 0.2,-0.8 0.6,-1 0.4,-0.2 1,-0.4 1.7,-0.4 0.9,0 1.8,0.2 2.9,0.7 l 0.6,-1.3 c -1.1,-0.5 -2.2,-0.7 -3.4,-0.7 -1.2,0 -2.2,0.3 -2.9,0.8 -0.7,0.5 -1.1,1.2 -1.1,2.1 0,0.5 0.1,0.9 0.3,1.3 0.2,0.4 0.5,0.7 0.9,0.9 0.4,0.3 1.1,0.6 2.1,1 1.1,0.4 1.8,0.8 2.1,1.1 0.4,0.3 0.5,0.7 0.5,1.1 0,0.6 -0.2,1 -0.7,1.2 -0.5,0.3 -1.1,0.4 -2,0.4 -0.5,0 -1.1,-0.1 -1.7,-0.2 -0.6,-0.2 -1.1,-0.4 -1.7,-0.6 v 1.5 c 0.8,0.5 1.9,0.7 3.3,0.7 1.3,0 2.4,-0.3 3.1,-0.8 0.7,-0.5 1.1,-1.3 1.1,-2.3 0,-0.7 -0.2,-1.3 -0.7,-1.8 -0.1,-0.6 -0.9,-1.1 -2.2,-1.6 z"
   class="st13"
   inkscape:connector-curvature="0"
   style="clip-rule:evenodd;fill:#ffffff;fill-rule:evenodd" />

		<path
   id="path5298"
   d="m 580.4,194.4 c 0.4,0.4 0.5,1.1 0.5,1.9 v 7 h 1.6 v -7 c 0,-1.4 -0.3,-2.4 -0.9,-3 -0.6,-0.6 -1.5,-0.9 -2.7,-0.9 -0.8,0 -1.5,0.2 -2.1,0.5 -0.6,0.3 -1.1,0.8 -1.4,1.3 h -0.1 c -0.5,-1.2 -1.6,-1.8 -3.3,-1.8 -0.7,0 -1.3,0.1 -1.9,0.4 -0.6,0.3 -1,0.7 -1.3,1.2 h -0.1 l -0.3,-1.5 h -1.3 v 10.7 h 1.6 v -5.6 c 0,-1.4 0.2,-2.4 0.7,-3 0.5,-0.6 1.2,-0.9 2.2,-0.9 0.8,0 1.4,0.2 1.7,0.6 0.4,0.4 0.5,1.1 0.5,1.9 v 7 h 1.6 v -6 c 0,-1.2 0.2,-2.1 0.7,-2.7 0.5,-0.6 1.2,-0.9 2.2,-0.9 1.1,0.2 1.7,0.4 2.1,0.8 z"
   class="st13"
   inkscape:connector-curvature="0"
   style="clip-rule:evenodd;fill:#ffffff;fill-rule:evenodd" />

		<rect
   id="rect5300"
   height="15.3"
   width="1.6"
   class="st13"
   y="188.10001"
   x="551"
   style="clip-rule:evenodd;fill:#ffffff;fill-rule:evenodd" />

		<rect
   id="rect5302"
   height="10.7"
   width="1.6"
   class="st13"
   y="165.3"
   x="942.20001"
   style="clip-rule:evenodd;fill:#ffffff;fill-rule:evenodd" />

		<path
   id="path5304"
   d="m 702.6,176.2 c 0.3,-0.9 0.6,-1.6 0.7,-2.3 l -0.1,-0.2 h -1.8 c -0.1,0.6 -0.2,1.4 -0.4,2.4 -0.2,1 -0.4,1.8 -0.6,2.5 h 1.2 c 0.4,-0.8 0.7,-1.6 1,-2.4 z"
   class="st13"
   inkscape:connector-curvature="0"
   style="clip-rule:evenodd;fill:#ffffff;fill-rule:evenodd" />

		<rect
   id="rect5306"
   height="15.3"
   width="1.6"
   class="st13"
   y="188.10001"
   x="545.90002"
   style="clip-rule:evenodd;fill:#ffffff;fill-rule:evenodd" />

		<path
   id="path5308"
   d="m 555.9,176 v -6 c 0,-1.2 0.2,-2.1 0.7,-2.7 0.5,-0.6 1.2,-0.9 2.2,-0.9 0.8,0 1.3,0.2 1.7,0.6 0.4,0.4 0.5,1.1 0.5,1.9 v 7 h 1.6 v -7 c 0,-1.4 -0.3,-2.4 -0.9,-3 -0.6,-0.6 -1.5,-0.9 -2.7,-0.9 -0.8,0 -1.5,0.2 -2.1,0.5 -0.6,0.3 -1.1,0.8 -1.4,1.3 h -0.1 c -0.5,-1.2 -1.6,-1.8 -3.3,-1.8 -0.7,0 -1.3,0.1 -1.9,0.4 -0.6,0.3 -1,0.7 -1.3,1.2 h 0.1 l -0.3,-1.5 h -1.3 V 176 h 1.6 v -5.6 c 0,-1.4 0.2,-2.4 0.7,-3 0.5,-0.6 1.2,-0.9 2.2,-0.9 0.8,0 1.4,0.2 1.7,0.6 0.4,0.4 0.5,1.1 0.5,1.9 v 7 z"
   class="st13"
   inkscape:connector-curvature="0"
   style="clip-rule:evenodd;fill:#ffffff;fill-rule:evenodd" />

		<path
   id="path5310"
   d="m 943.1,163.4 c 0.3,0 0.5,-0.1 0.7,-0.3 0.2,-0.2 0.3,-0.5 0.3,-0.8 0,-0.4 -0.1,-0.6 -0.3,-0.8 -0.2,-0.2 -0.4,-0.3 -0.7,-0.3 -0.3,0 -0.5,0.1 -0.7,0.3 -0.2,0.2 -0.3,0.4 -0.3,0.8 0,0.4 0.1,0.6 0.3,0.8 0.1,0.2 0.4,0.3 0.7,0.3 z"
   class="st13"
   inkscape:connector-curvature="0"
   style="clip-rule:evenodd;fill:#ffffff;fill-rule:evenodd" />

		<path
   id="path5312"
   d="m 583.1,227.1 c -0.4,1.1 -0.6,1.8 -0.7,2.2 h -0.1 c -0.1,-0.4 -0.4,-1.4 -0.9,-2.9 l -2.3,-6.4 h -1.7 l 4.1,10.7 h 1.9 l 4.1,-10.7 h -1.7 c -1.5,3.6 -2.3,6 -2.7,7.1 z"
   class="st13"
   inkscape:connector-curvature="0"
   style="clip-rule:evenodd;fill:#ffffff;fill-rule:evenodd" />

		<path
   id="path5314"
   d="m 523.3,192.5 v 0.8 l 0.1,0.8 h -0.1 c -0.8,-1.1 -1.9,-1.6 -3.4,-1.6 -1.4,0 -2.5,0.5 -3.3,1.5 -0.8,1 -1.2,2.4 -1.2,4.1 0,1.8 0.4,3.1 1.2,4.1 0.8,1 1.9,1.4 3.3,1.4 1.5,0 2.6,-0.5 3.4,-1.6 h 0.1 l 0.2,1.4 h 1.3 v -15.3 h -1.6 z m 0,5.8 c 0,1.3 -0.3,2.3 -0.8,2.9 -0.5,0.6 -1.3,0.9 -2.4,0.9 -1,0 -1.7,-0.4 -2.2,-1.1 -0.5,-0.7 -0.8,-1.7 -0.8,-3.1 0,-1.4 0.3,-2.4 0.8,-3.1 0.5,-0.7 1.2,-1.1 2.2,-1.1 1.1,0 1.9,0.3 2.4,1 0.5,0.7 0.8,1.7 0.8,3.3 z"
   class="st13"
   inkscape:connector-curvature="0"
   style="clip-rule:evenodd;fill:#ffffff;fill-rule:evenodd" />

		<path
   id="path5316"
   d="m 516.3,175.8 c 0.6,0.3 1.2,0.4 1.9,0.4 1.4,0 2.5,-0.5 3.3,-1.5 0.8,-1 1.2,-2.3 1.2,-4.1 0,-1.8 -0.4,-3.1 -1.2,-4.1 -0.8,-1 -1.9,-1.5 -3.3,-1.5 -0.7,0 -1.4,0.1 -1.9,0.4 -0.6,0.3 -1,0.7 -1.5,1.3 h -0.1 l -0.2,-1.5 h -1.3 v 15.6 h 1.6 v -4.4 c 0,-0.6 0,-1.2 -0.1,-1.8 h 0.1 c 0.4,0.6 0.9,1 1.5,1.2 z m -1.4,-5.5 c 0,-1.3 0.3,-2.3 0.8,-2.9 0.5,-0.6 1.3,-0.9 2.4,-0.9 1,0 1.7,0.4 2.2,1.1 0.5,0.7 0.8,1.7 0.8,3.1 0,1.3 -0.3,2.4 -0.8,3.1 -0.5,0.8 -1.3,1.1 -2.2,1.1 -1.1,0 -1.9,-0.3 -2.4,-1 -0.5,-0.6 -0.8,-1.7 -0.8,-3.2 z"
   class="st13"
   inkscape:connector-curvature="0"
   style="clip-rule:evenodd;fill:#ffffff;fill-rule:evenodd" />

		<path
   id="path5318"
   d="m 893.1,163.4 c 0.3,0 0.5,-0.1 0.7,-0.3 0.2,-0.2 0.3,-0.5 0.3,-0.8 0,-0.4 -0.1,-0.6 -0.3,-0.8 -0.2,-0.2 -0.4,-0.3 -0.7,-0.3 -0.3,0 -0.5,0.1 -0.7,0.3 -0.2,0.2 -0.3,0.4 -0.3,0.8 0,0.4 0.1,0.6 0.3,0.8 0.2,0.2 0.4,0.3 0.7,0.3 z"
   class="st13"
   inkscape:connector-curvature="0"
   style="clip-rule:evenodd;fill:#ffffff;fill-rule:evenodd" />

		<path
   id="path5320"
   d="m 930.4,176.2 c 0.7,0 1.3,-0.1 1.9,-0.2 0.5,-0.1 1.1,-0.3 1.6,-0.5 V 174 c -1.1,0.5 -2.3,0.7 -3.4,0.7 -1.1,0 -1.9,-0.3 -2.6,-1 -0.6,-0.7 -0.9,-1.6 -1,-2.9 h 7.4 v -1 c 0,-1.5 -0.4,-2.6 -1.2,-3.5 -0.8,-0.9 -1.9,-1.3 -3.2,-1.3 -1.4,0 -2.6,0.5 -3.4,1.5 -0.9,1 -1.3,2.4 -1.3,4.1 0,1.7 0.5,3.1 1.4,4 1,1.1 2.2,1.6 3.8,1.6 z m -2.5,-8.9 c 0.5,-0.6 1.2,-0.8 2.1,-0.8 0.8,0 1.5,0.3 2,0.8 0.5,0.5 0.7,1.3 0.7,2.4 H 927 c 0.1,-1.1 0.4,-1.9 0.9,-2.4 z"
   class="st13"
   inkscape:connector-curvature="0"
   style="clip-rule:evenodd;fill:#ffffff;fill-rule:evenodd" />

		<path
   id="path5322"
   d="m 540.8,198.2 c 0,1.4 -0.3,2.4 -0.8,3 -0.5,0.6 -1.3,0.9 -2.5,0.9 -0.9,0 -1.5,-0.2 -1.9,-0.6 -0.4,-0.4 -0.6,-1.1 -0.6,-2 v -7 h -1.6 v 7 c 0,1.4 0.3,2.4 1,3 0.7,0.6 1.6,0.9 2.9,0.9 0.8,0 1.4,-0.1 2,-0.4 0.6,-0.3 1.1,-0.7 1.4,-1.2 h 0.1 l 0.2,1.4 h 1.3 v -10.7 h -1.6 v 5.7 z"
   class="st13"
   inkscape:connector-curvature="0"
   style="clip-rule:evenodd;fill:#ffffff;fill-rule:evenodd" />

		<path
   id="path5324"
   d="m 542.4,170.9 c 0,1.4 -0.3,2.4 -0.8,3 -0.5,0.6 -1.3,0.9 -2.5,0.9 -0.9,0 -1.5,-0.2 -1.9,-0.6 -0.4,-0.4 -0.6,-1.1 -0.6,-2 v -7 H 535 v 7 c 0,1.4 0.3,2.4 1,3 0.7,0.6 1.6,0.9 2.9,0.9 0.8,0 1.4,-0.1 2,-0.4 0.6,-0.3 1.1,-0.7 1.4,-1.2 h 0.1 l 0.2,1.4 h 1.3 v -10.7 h -1.6 v 5.7 z"
   class="st13"
   inkscape:connector-curvature="0"
   style="clip-rule:evenodd;fill:#ffffff;fill-rule:evenodd" />

		<path
   id="path5326"
   d="m 560.1,192.4 c -0.6,0 -1.3,0.1 -1.9,0.2 -0.6,0.2 -1.2,0.4 -1.7,0.7 l 0.5,1.2 c 1.1,-0.5 2.1,-0.8 3,-0.8 0.8,0 1.4,0.2 1.7,0.6 0.4,0.4 0.5,1 0.5,1.9 v 0.7 l -1.8,0.1 c -3.5,0.1 -5.2,1.2 -5.2,3.4 0,1 0.3,1.8 0.9,2.3 0.6,0.5 1.4,0.8 2.5,0.8 0.8,0 1.5,-0.1 2,-0.4 0.5,-0.2 1.1,-0.7 1.6,-1.4 h 0.1 l 0.3,1.5 h 1.2 V 196 c 0,-1.3 -0.3,-2.2 -0.9,-2.7 -0.6,-0.6 -1.5,-0.9 -2.8,-0.9 z m 2.2,6.6 c 0,1 -0.3,1.8 -0.9,2.3 -0.6,0.6 -1.4,0.8 -2.4,0.8 -0.6,0 -1.1,-0.2 -1.5,-0.5 -0.4,-0.3 -0.5,-0.8 -0.5,-1.3 0,-0.7 0.3,-1.3 0.9,-1.7 0.6,-0.4 1.5,-0.6 2.8,-0.6 l 1.6,-0.1 z"
   class="st13"
   inkscape:connector-curvature="0"
   style="clip-rule:evenodd;fill:#ffffff;fill-rule:evenodd" />

		<rect
   id="rect5328"
   height="15.3"
   width="1.6"
   class="st13"
   y="160.7"
   x="595.70001"
   style="clip-rule:evenodd;fill:#ffffff;fill-rule:evenodd" />

		<path
   id="path5330"
   d="m 715.6,192.6 v 7 c 0,1.4 0.3,2.4 1,3 0.7,0.6 1.6,0.9 2.9,0.9 0.8,0 1.4,-0.1 2,-0.4 0.6,-0.3 1.1,-0.7 1.4,-1.2 h 0.1 l 0.2,1.4 h 1.3 V 192.6 H 723 v 5.6 c 0,1.4 -0.3,2.4 -0.8,3 -0.5,0.6 -1.3,0.9 -2.5,0.9 -0.9,0 -1.5,-0.2 -1.9,-0.6 -0.4,-0.4 -0.6,-1.1 -0.6,-2 v -7 h -1.6 z"
   class="st13"
   inkscape:connector-curvature="0"
   style="clip-rule:evenodd;fill:#ffffff;fill-rule:evenodd" />

		<rect
   id="rect5332"
   height="15.3"
   width="1.6"
   class="st13"
   y="188.10001"
   x="733.20001"
   style="clip-rule:evenodd;fill:#ffffff;fill-rule:evenodd" />

		<path
   id="path5334"
   d="m 590.3,193.8 c 0.3,0 0.7,0 1.1,0.1 0.4,0.1 0.8,0.2 1.2,0.4 l 0.5,-1.4 c -0.3,-0.2 -0.7,-0.3 -1.2,-0.4 -0.5,-0.1 -1,-0.2 -1.5,-0.2 -1.6,0 -2.8,0.5 -3.7,1.5 -0.9,1 -1.3,2.4 -1.3,4.2 0,1.7 0.4,3.1 1.3,4.1 0.9,1 2.1,1.4 3.6,1.4 1.1,0 2,-0.2 2.7,-0.6 v -1.4 c -0.9,0.4 -1.9,0.6 -2.8,0.6 -1,0 -1.8,-0.4 -2.4,-1.1 -0.5,-0.7 -0.8,-1.7 -0.8,-3 0,-2.8 1.1,-4.2 3.3,-4.2 z"
   class="st13"
   inkscape:connector-curvature="0"
   style="clip-rule:evenodd;fill:#ffffff;fill-rule:evenodd" />

		<path
   id="path5336"
   d="m 735,170.4 c 0,-1.4 0.3,-2.4 0.8,-3 0.5,-0.6 1.3,-0.9 2.5,-0.9 0.9,0 1.5,0.2 1.9,0.6 0.4,0.4 0.6,1.1 0.6,2 v 6.9 h 1.6 v -7 c 0,-1.4 -0.3,-2.4 -1,-3 -0.7,-0.6 -1.6,-0.9 -2.9,-0.9 -0.7,0 -1.4,0.1 -2,0.4 -0.6,0.3 -1.1,0.7 -1.4,1.2 H 735 l -0.3,-1.5 h -1.3 V 176 h 1.6 z"
   class="st13"
   inkscape:connector-curvature="0"
   style="clip-rule:evenodd;fill:#ffffff;fill-rule:evenodd" />

		<path
   id="path5338"
   d="m 575.2,176.2 c 1.5,0 2.6,-0.5 3.4,-1.6 h 0.1 l 0.2,1.4 h 1.3 v -15.3 h -1.6 v 4.4 0.8 l 0.1,0.8 h -0.1 c -0.8,-1.1 -1.9,-1.6 -3.4,-1.6 -1.4,0 -2.5,0.5 -3.3,1.5 -0.8,1 -1.2,2.4 -1.2,4.1 0,1.8 0.4,3.1 1.2,4.1 0.8,0.9 1.9,1.4 3.3,1.4 z m -2,-8.7 c 0.5,-0.7 1.2,-1.1 2.2,-1.1 1.1,0 1.9,0.3 2.4,1 0.5,0.6 0.8,1.7 0.8,3.3 v 0.3 c 0,1.3 -0.3,2.3 -0.8,2.9 -0.5,0.6 -1.3,0.9 -2.4,0.9 -1,0 -1.7,-0.4 -2.2,-1 -0.5,-0.7 -0.8,-1.7 -0.8,-3.1 0,-1.4 0.3,-2.4 0.8,-3.2 z"
   class="st13"
   inkscape:connector-curvature="0"
   style="clip-rule:evenodd;fill:#ffffff;fill-rule:evenodd" />

		<path
   id="path5340"
   d="m 585.4,175.5 c 0.7,0.5 1.6,0.7 2.6,0.7 1.6,0 2.8,-0.5 3.7,-1.5 0.9,-1 1.3,-2.4 1.3,-4.1 0,-1.7 -0.4,-3.1 -1.3,-4.1 -0.9,-1 -2.1,-1.5 -3.6,-1.5 -1.6,0 -2.8,0.5 -3.6,1.5 -0.9,1 -1.3,2.3 -1.3,4.1 0,1.1 0.2,2.1 0.6,3 0.2,0.8 0.8,1.5 1.6,1.9 z m 0.1,-8 c 0.5,-0.7 1.3,-1 2.4,-1 1.1,0 1.9,0.4 2.4,1.1 0.6,0.7 0.8,1.7 0.8,3.1 0,1.4 -0.3,2.4 -0.8,3.1 -0.6,0.7 -1.4,1.1 -2.4,1.1 -1.1,0 -1.9,-0.4 -2.4,-1.1 -0.5,-0.7 -0.8,-1.8 -0.8,-3.1 0,-1.5 0.3,-2.5 0.8,-3.2 z"
   class="st13"
   inkscape:connector-curvature="0"
   style="clip-rule:evenodd;fill:#ffffff;fill-rule:evenodd" />

		<path
   id="path5342"
   d="m 746.2,170.1 c 0.4,0.3 1.1,0.6 2.1,1 1.1,0.4 1.8,0.8 2.1,1.1 0.4,0.3 0.5,0.7 0.5,1.1 0,0.6 -0.2,1 -0.7,1.2 -0.5,0.3 -1.1,0.4 -2,0.4 -0.5,0 -1.1,-0.1 -1.7,-0.2 -0.6,-0.2 -1.1,-0.4 -1.7,-0.6 v 1.5 c 0.8,0.5 1.9,0.7 3.3,0.7 1.4,0 2.4,-0.3 3.1,-0.8 0.7,-0.5 1.1,-1.3 1.1,-2.3 0,-0.7 -0.2,-1.3 -0.7,-1.8 -0.4,-0.5 -1.3,-0.9 -2.6,-1.4 -0.9,-0.3 -1.6,-0.6 -1.9,-0.8 -0.3,-0.2 -0.6,-0.4 -0.7,-0.6 -0.1,-0.2 -0.2,-0.4 -0.2,-0.7 0,-0.4 0.2,-0.8 0.6,-1 0.4,-0.2 1,-0.4 1.8,-0.4 0.9,0 1.8,0.2 2.9,0.7 l 0.6,-1.3 c -1.1,-0.5 -2.2,-0.7 -3.4,-0.7 -1.2,0 -2.2,0.3 -2.9,0.8 -0.7,0.5 -1.1,1.2 -1.1,2.1 0,0.5 0.1,0.9 0.3,1.3 0.5,0.1 0.8,0.4 1.2,0.7 z"
   class="st13"
   inkscape:connector-curvature="0"
   style="clip-rule:evenodd;fill:#ffffff;fill-rule:evenodd" />

		<path
   id="path5344"
   d="m 715.9,176.2 c 1.1,0 2,-0.2 2.7,-0.6 v -1.4 c -0.9,0.4 -1.9,0.6 -2.8,0.6 -1,0 -1.8,-0.4 -2.4,-1.1 -0.5,-0.7 -0.8,-1.7 -0.8,-3 0,-2.8 1.1,-4.2 3.3,-4.2 0.3,0 0.7,0 1.1,0.1 0.4,0.1 0.8,0.2 1.2,0.4 l 0.5,-1.4 c -0.3,-0.2 -0.7,-0.3 -1.2,-0.4 -0.5,-0.1 -1,-0.2 -1.5,-0.2 -1.6,0 -2.8,0.5 -3.7,1.5 -0.9,1 -1.3,2.4 -1.3,4.2 0,1.7 0.4,3.1 1.3,4.1 0.9,0.9 2.1,1.4 3.6,1.4 z"
   class="st13"
   inkscape:connector-curvature="0"
   style="clip-rule:evenodd;fill:#ffffff;fill-rule:evenodd" />

		<path
   id="path5346"
   d="m 710.6,201 v 0 l -7.9,-12 h -1.9 v 14.3 h 1.5 v -8.1 c 0,-1.2 -0.1,-2.5 -0.2,-3.9 h 0.1 l 7.8,12 h 1.9 V 189 h -1.6 v 8.2 c 0,0.4 0,1.1 0,2.1 0.3,0.9 0.3,1.5 0.3,1.7 z"
   class="st13"
   inkscape:connector-curvature="0"
   style="clip-rule:evenodd;fill:#ffffff;fill-rule:evenodd" />

		<path
   id="path5348"
   d="m 690.1,201.3 c -0.2,0.2 -0.3,0.6 -0.3,1 0,0.5 0.1,0.8 0.3,1 0.2,0.2 0.5,0.3 0.8,0.3 0.4,0 0.7,-0.1 0.9,-0.3 0.2,-0.2 0.3,-0.6 0.3,-1 0,-0.4 -0.1,-0.8 -0.3,-1 -0.2,-0.2 -0.5,-0.3 -0.9,-0.3 -0.3,0 -0.6,0.1 -0.8,0.3 z"
   class="st13"
   inkscape:connector-curvature="0"
   style="clip-rule:evenodd;fill:#ffffff;fill-rule:evenodd" />

		<path
   id="path5350"
   d="m 687.7,176.2 c 0.7,0 1.3,-0.1 1.9,-0.2 0.5,-0.1 1.1,-0.3 1.6,-0.5 V 174 c -1.1,0.5 -2.3,0.7 -3.4,0.7 -1.1,0 -2,-0.3 -2.6,-1 -0.6,-0.7 -0.9,-1.6 -1,-2.9 h 7.4 v -1 c 0,-1.5 -0.4,-2.6 -1.2,-3.5 -0.8,-0.9 -1.8,-1.3 -3.2,-1.3 -1.4,0 -2.6,0.5 -3.4,1.5 -0.9,1 -1.3,2.4 -1.3,4.1 0,1.7 0.5,3.1 1.4,4 1,1.1 2.2,1.6 3.8,1.6 z m -2.5,-8.9 c 0.5,-0.6 1.2,-0.8 2.1,-0.8 0.9,0 1.5,0.3 2,0.8 0.5,0.5 0.7,1.3 0.7,2.4 h -5.6 c 0,-1.1 0.3,-1.9 0.8,-2.4 z"
   class="st13"
   inkscape:connector-curvature="0"
   style="clip-rule:evenodd;fill:#ffffff;fill-rule:evenodd" />

		<path
   id="path5352"
   d="m 476.2,188.6 c -0.3,0 -0.5,0.1 -0.7,0.3 -0.2,0.2 -0.3,0.4 -0.3,0.8 0,0.4 0.1,0.6 0.3,0.8 0.2,0.2 0.4,0.3 0.7,0.3 0.3,0 0.5,-0.1 0.7,-0.3 0.2,-0.2 0.3,-0.5 0.3,-0.8 0,-0.4 -0.1,-0.6 -0.3,-0.8 -0.2,-0.2 -0.5,-0.3 -0.7,-0.3 z"
   class="st13"
   inkscape:connector-curvature="0"
   style="clip-rule:evenodd;fill:#ffffff;fill-rule:evenodd" />

		<path
   id="path5354"
   d="m 683.1,200.3 c 0,2.2 1,3.3 3.1,3.3 0.3,0 0.6,0 0.9,-0.1 0.3,-0.1 0.6,-0.1 0.8,-0.2 V 202 c -0.2,0 -0.4,0.1 -0.6,0.1 -0.3,0 -0.5,0.1 -0.8,0.1 -0.5,0 -1,-0.2 -1.3,-0.5 -0.3,-0.3 -0.5,-0.8 -0.5,-1.5 v -6.3 h 3.1 v -1.3 h -3.1 v -2.5 h -0.9 l -0.7,2.3 -1.5,0.7 v 0.8 h 1.5 z"
   class="st13"
   inkscape:connector-curvature="0"
   style="clip-rule:evenodd;fill:#ffffff;fill-rule:evenodd" />

		<path
   id="path5356"
   d="m 655.9,176.2 c 0.8,0 1.5,-0.1 2,-0.4 0.5,-0.2 1.1,-0.7 1.6,-1.4 h 0.1 l 0.3,1.5 h 1.2 v -7.3 c 0,-1.3 -0.3,-2.2 -0.9,-2.7 -0.6,-0.6 -1.6,-0.9 -2.8,-0.9 -0.6,0 -1.3,0.1 -1.9,0.2 -0.6,0.2 -1.2,0.4 -1.7,0.7 l 0.5,1.2 c 1.1,-0.5 2.1,-0.8 3,-0.8 0.8,0 1.4,0.2 1.7,0.6 0.4,0.4 0.5,1 0.5,1.9 v 0.7 l -1.8,0.1 c -3.5,0.1 -5.2,1.2 -5.2,3.4 0,1 0.3,1.8 0.9,2.4 0.6,0.5 1.5,0.8 2.5,0.8 z m -0.8,-4.8 c 0.6,-0.4 1.5,-0.6 2.8,-0.6 l 1.6,-0.1 v 1 c 0,1 -0.3,1.8 -0.9,2.3 -0.6,0.6 -1.4,0.8 -2.4,0.8 -0.6,0 -1.1,-0.2 -1.5,-0.5 -0.4,-0.3 -0.5,-0.8 -0.5,-1.3 0,-0.7 0.3,-1.3 0.9,-1.6 z"
   class="st13"
   inkscape:connector-curvature="0"
   style="clip-rule:evenodd;fill:#ffffff;fill-rule:evenodd" />

		<path
   id="path5358"
   d="m 666.1,170.4 c 0,-1.4 0.2,-2.4 0.7,-3 0.5,-0.6 1.2,-0.9 2.2,-0.9 0.8,0 1.4,0.2 1.7,0.6 0.4,0.4 0.5,1.1 0.5,1.9 v 7 h 1.6 v -6 c 0,-1.2 0.2,-2.1 0.7,-2.7 0.5,-0.6 1.2,-0.9 2.2,-0.9 0.8,0 1.3,0.2 1.7,0.6 0.4,0.4 0.5,1.1 0.5,1.9 v 7 h 1.6 v -7 c 0,-1.4 -0.3,-2.4 -0.9,-3 -0.6,-0.6 -1.5,-0.9 -2.7,-0.9 -0.8,0 -1.5,0.2 -2.1,0.5 -0.6,0.3 -1.1,0.8 -1.4,1.3 h -0.1 c -0.5,-1.2 -1.6,-1.8 -3.3,-1.8 -0.7,0 -1.3,0.1 -1.9,0.4 -0.6,0.3 -1,0.7 -1.3,1.2 h -0.1 l -0.3,-1.5 h -1.3 V 176 h 1.6 v -5.6 z"
   class="st13"
   inkscape:connector-curvature="0"
   style="clip-rule:evenodd;fill:#ffffff;fill-rule:evenodd" />

		<path
   id="path5360"
   d="m 805.3,176.2 c 0.8,0 1.4,-0.1 2,-0.4 0.6,-0.3 1.1,-0.7 1.4,-1.2 h 0.1 l 0.2,1.4 h 1.3 v -10.7 h -1.6 v 5.6 c 0,1.4 -0.3,2.4 -0.8,3 -0.5,0.6 -1.3,0.9 -2.5,0.9 -0.8,0 -1.5,-0.2 -1.9,-0.6 -0.4,-0.4 -0.6,-1.1 -0.6,-2 v -7 h -1.6 v 7 c 0,1.4 0.3,2.4 1,3 0.7,0.7 1.7,1 3,1 z"
   class="st13"
   inkscape:connector-curvature="0"
   style="clip-rule:evenodd;fill:#ffffff;fill-rule:evenodd" />

		<path
   id="path5362"
   d="m 509,163.4 c 0.3,0 0.5,-0.1 0.7,-0.3 0.2,-0.2 0.3,-0.5 0.3,-0.8 0,-0.4 -0.1,-0.6 -0.3,-0.8 -0.2,-0.2 -0.4,-0.3 -0.7,-0.3 -0.3,0 -0.5,0.1 -0.7,0.3 -0.2,0.2 -0.3,0.4 -0.3,0.8 0,0.4 0.1,0.6 0.3,0.8 0.2,0.2 0.4,0.3 0.7,0.3 z"
   class="st13"
   inkscape:connector-curvature="0"
   style="clip-rule:evenodd;fill:#ffffff;fill-rule:evenodd" />

		<path
   id="path5364"
   d="m 462.1,198.2 c 0,1.4 -0.3,2.4 -0.8,3 -0.5,0.6 -1.3,0.9 -2.5,0.9 -0.9,0 -1.5,-0.2 -1.9,-0.6 -0.4,-0.4 -0.6,-1.1 -0.6,-2 v -7 h -1.6 v 7 c 0,1.4 0.3,2.4 1,3 0.7,0.6 1.6,0.9 2.9,0.9 0.8,0 1.4,-0.1 2,-0.4 0.6,-0.3 1.1,-0.7 1.4,-1.2 h 0.1 l 0.2,1.4 h 1.3 V 192.5 H 462 v 5.7 z"
   class="st13"
   inkscape:connector-curvature="0"
   style="clip-rule:evenodd;fill:#ffffff;fill-rule:evenodd" />

		<path
   id="path5366"
   d="m 457.4,176.2 c 1.6,0 2.8,-0.5 3.7,-1.5 0.9,-1 1.3,-2.4 1.3,-4.1 0,-1.7 -0.4,-3.1 -1.3,-4.1 -0.9,-1 -2.1,-1.5 -3.6,-1.5 -1.6,0 -2.8,0.5 -3.6,1.5 -0.9,1 -1.3,2.3 -1.3,4.1 0,1.1 0.2,2.1 0.6,3 0.4,0.8 1,1.5 1.7,1.9 0.7,0.5 1.5,0.7 2.5,0.7 z m -2.4,-8.7 c 0.5,-0.7 1.3,-1 2.4,-1 1.1,0 1.9,0.4 2.4,1.1 0.6,0.7 0.8,1.7 0.8,3.1 0,1.4 -0.3,2.4 -0.8,3.1 -0.6,0.7 -1.4,1.1 -2.4,1.1 -1.1,0 -1.9,-0.4 -2.4,-1.1 -0.5,-0.7 -0.8,-1.8 -0.8,-3.1 0,-1.5 0.2,-2.5 0.8,-3.2 z"
   class="st13"
   inkscape:connector-curvature="0"
   style="clip-rule:evenodd;fill:#ffffff;fill-rule:evenodd" />

		<path
   id="path5368"
   d="m 470,166.5 c 0.3,0 0.7,0 1.2,0.1 l 0.2,-1.5 c -0.4,-0.1 -0.8,-0.1 -1.3,-0.1 -0.7,0 -1.3,0.2 -1.9,0.6 -0.6,0.4 -1,0.9 -1.4,1.6 h -0.1 l -0.2,-2 h -1.3 V 176 h 1.6 v -5.8 c 0,-1 0.3,-1.9 0.9,-2.6 0.7,-0.7 1.4,-1.1 2.3,-1.1 z"
   class="st13"
   inkscape:connector-curvature="0"
   style="clip-rule:evenodd;fill:#ffffff;fill-rule:evenodd" />

		<rect
   id="rect5370"
   height="10.7"
   width="1.6"
   class="st13"
   y="192.60001"
   x="475.39999"
   style="clip-rule:evenodd;fill:#ffffff;fill-rule:evenodd" />

		<path
   id="path5372"
   d="m 470.2,193 c -0.6,0.4 -1,0.9 -1.4,1.6 h -0.1 l -0.2,-2 h -1.3 v 10.7 h 1.6 v -5.8 c 0,-1 0.3,-1.9 0.9,-2.6 0.6,-0.7 1.4,-1.1 2.2,-1.1 0.3,0 0.7,0 1.2,0.1 l 0.2,-1.5 c -0.4,-0.1 -0.8,-0.1 -1.3,-0.1 -0.6,0.1 -1.2,0.3 -1.8,0.7 z"
   class="st13"
   inkscape:connector-curvature="0"
   style="clip-rule:evenodd;fill:#ffffff;fill-rule:evenodd" />

		<path
   id="path5374"
   d="m 805.7,193.9 c -0.8,1 -1.2,2.4 -1.2,4.1 0,1.8 0.4,3.1 1.2,4.1 0.8,1 1.9,1.4 3.3,1.4 1.5,0 2.6,-0.5 3.4,-1.6 h 0.1 l 0.2,1.4 H 814 V 188 h -1.6 v 4.4 0.8 l 0.1,0.8 h -0.1 c -0.8,-1.1 -1.9,-1.6 -3.3,-1.6 -1.5,0 -2.6,0.5 -3.4,1.5 z m 5.9,0.8 c 0.5,0.7 0.8,1.7 0.8,3.3 v 0.3 c 0,1.3 -0.3,2.3 -0.7,2.9 -0.5,0.6 -1.3,0.9 -2.4,0.9 -1,0 -1.7,-0.4 -2.2,-1.1 -0.5,-0.7 -0.8,-1.7 -0.8,-3.1 0,-1.4 0.3,-2.4 0.8,-3.1 0.5,-0.7 1.2,-1.1 2.2,-1.1 1,0.1 1.8,0.4 2.3,1 z"
   class="st13"
   inkscape:connector-curvature="0"
   style="clip-rule:evenodd;fill:#ffffff;fill-rule:evenodd" />

		<rect
   id="rect5376"
   height="10.7"
   width="1.6"
   class="st13"
   y="165.3"
   x="508.20001"
   style="clip-rule:evenodd;fill:#ffffff;fill-rule:evenodd" />

		<polygon
   id="polygon5378"
   points="444.6,161.7 442.9,161.7 442.9,176 450.9,176 450.9,174.5 444.6,174.5 "
   class="st13"
   style="clip-rule:evenodd;fill:#ffffff;fill-rule:evenodd" />

		<path
   id="path5380"
   d="m 787.7,176.2 c 0.7,0 1.3,-0.1 1.9,-0.2 0.5,-0.1 1.1,-0.3 1.6,-0.5 V 174 c -1.1,0.5 -2.3,0.7 -3.4,0.7 -1.1,0 -1.9,-0.3 -2.6,-1 -0.6,-0.7 -0.9,-1.6 -1,-2.9 h 7.4 v -1 c 0,-1.5 -0.4,-2.6 -1.2,-3.5 -0.8,-0.9 -1.9,-1.3 -3.2,-1.3 -1.4,0 -2.6,0.5 -3.4,1.5 -0.9,1 -1.3,2.4 -1.3,4.1 0,1.7 0.5,3.1 1.4,4 0.9,1.1 2.2,1.6 3.8,1.6 z m -2.5,-8.9 c 0.5,-0.6 1.2,-0.8 2.1,-0.8 0.9,0 1.5,0.3 2,0.8 0.5,0.5 0.7,1.3 0.7,2.4 h -5.6 c -0.1,-1.1 0.3,-1.9 0.8,-2.4 z"
   class="st13"
   inkscape:connector-curvature="0"
   style="clip-rule:evenodd;fill:#ffffff;fill-rule:evenodd" />

		<path
   id="path5382"
   d="m 447.7,192.4 c -0.6,0 -1.3,0.1 -1.9,0.2 -0.6,0.2 -1.2,0.4 -1.7,0.7 l 0.5,1.2 c 1.1,-0.5 2.1,-0.8 3,-0.8 0.8,0 1.4,0.2 1.7,0.6 0.4,0.4 0.5,1 0.5,1.9 v 0.7 L 448,197 c -3.5,0.1 -5.2,1.2 -5.2,3.4 0,1 0.3,1.8 0.9,2.3 0.6,0.5 1.4,0.8 2.5,0.8 0.8,0 1.5,-0.1 2,-0.4 0.5,-0.2 1.1,-0.7 1.6,-1.4 h 0.1 l 0.3,1.5 h 1.2 V 196 c 0,-1.3 -0.3,-2.2 -0.9,-2.7 -0.6,-0.6 -1.5,-0.9 -2.8,-0.9 z m 2.2,6.6 c 0,1 -0.3,1.8 -0.9,2.3 -0.6,0.6 -1.4,0.8 -2.4,0.8 -0.6,0 -1.1,-0.2 -1.5,-0.5 -0.4,-0.3 -0.5,-0.8 -0.5,-1.3 0,-0.7 0.3,-1.3 0.9,-1.7 0.6,-0.4 1.5,-0.6 2.8,-0.6 l 1.6,-0.1 z"
   class="st13"
   inkscape:connector-curvature="0"
   style="clip-rule:evenodd;fill:#ffffff;fill-rule:evenodd" />

		<path
   id="path5384"
   d="m 794.5,172.9 c 0,2.2 1,3.3 3.1,3.3 0.3,0 0.6,0 0.9,-0.1 0.3,-0.1 0.6,-0.1 0.8,-0.2 v -1.2 c -0.2,0 -0.4,0.1 -0.6,0.1 -0.3,0 -0.5,0.1 -0.8,0.1 -0.5,0 -1,-0.2 -1.3,-0.5 -0.3,-0.3 -0.5,-0.8 -0.5,-1.5 v -6.3 h 3.1 v -1.3 h -3.1 v -2.5 h -0.9 l -0.7,2.3 -1.5,0.7 v 0.8 h 1.5 z"
   class="st13"
   inkscape:connector-curvature="0"
   style="clip-rule:evenodd;fill:#ffffff;fill-rule:evenodd" />

		<path
   id="path5386"
   d="m 432.9,200.8 v 0 L 428.3,189 h -2.5 v 14.3 h 1.5 v -9.1 c 0,-1.4 0,-2.6 -0.1,-3.6 h 0.1 l 4.9,12.7 h 1.3 l 4.9,-12.7 h 0.1 c -0.1,1.2 -0.1,2.4 -0.1,3.5 v 9.2 h 1.7 V 189 h -2.5 z"
   class="st13"
   inkscape:connector-curvature="0"
   style="clip-rule:evenodd;fill:#ffffff;fill-rule:evenodd" />

		<path
   id="path5388"
   d="m 529.2,169.9 c -0.9,-0.3 -1.6,-0.6 -1.9,-0.8 -0.3,-0.2 -0.6,-0.4 -0.7,-0.6 -0.1,-0.2 -0.2,-0.4 -0.2,-0.7 0,-0.4 0.2,-0.8 0.6,-1 0.4,-0.2 1,-0.4 1.7,-0.4 0.9,0 1.8,0.2 2.9,0.7 l 0.6,-1.3 c -1.1,-0.5 -2.2,-0.7 -3.4,-0.7 -1.2,0 -2.2,0.3 -2.9,0.8 -0.7,0.5 -1.1,1.2 -1.1,2.1 0,0.5 0.1,0.9 0.3,1.3 0.2,0.4 0.5,0.7 0.9,0.9 0.4,0.3 1.1,0.6 2.1,1 1.1,0.4 1.8,0.8 2.1,1.1 0.4,0.3 0.5,0.7 0.5,1.1 0,0.6 -0.2,1 -0.7,1.2 -0.5,0.3 -1.1,0.4 -2,0.4 -0.5,0 -1.1,-0.1 -1.7,-0.2 -0.6,-0.2 -1.1,-0.4 -1.7,-0.6 v 1.5 c 0.8,0.5 1.9,0.7 3.3,0.7 1.3,0 2.4,-0.3 3.1,-0.8 0.7,-0.5 1.1,-1.3 1.1,-2.3 0,-0.7 -0.2,-1.3 -0.7,-1.8 -0.1,-0.7 -0.9,-1.1 -2.2,-1.6 z"
   class="st13"
   inkscape:connector-curvature="0"
   style="clip-rule:evenodd;fill:#ffffff;fill-rule:evenodd" />

		<path
   id="path5390"
   d="m 818.9,228.3 c -0.4,0 -0.7,0.1 -0.9,0.3 -0.2,0.2 -0.3,0.6 -0.3,1 0,0.5 0.1,0.8 0.3,1 0.2,0.2 0.5,0.3 0.8,0.3 0.4,0 0.7,-0.1 0.9,-0.3 0.2,-0.2 0.3,-0.6 0.3,-1 0,-0.4 -0.1,-0.8 -0.3,-1 -0.1,-0.2 -0.4,-0.3 -0.8,-0.3 z"
   class="st13"
   inkscape:connector-curvature="0"
   style="clip-rule:evenodd;fill:#ffffff;fill-rule:evenodd" />

		<path
   id="path5392"
   d="m 826.8,192.4 c -1.6,0 -2.8,0.5 -3.6,1.5 -0.9,1 -1.3,2.3 -1.3,4.1 0,1.1 0.2,2.1 0.6,3 0.4,0.8 1,1.5 1.7,1.9 0.7,0.5 1.6,0.7 2.6,0.7 1.6,0 2.8,-0.5 3.7,-1.5 0.9,-1 1.3,-2.4 1.3,-4.1 0,-1.7 -0.4,-3.1 -1.3,-4.1 -1,-1 -2.2,-1.5 -3.7,-1.5 z m 2.4,8.7 c -0.6,0.7 -1.4,1.1 -2.4,1.1 -1.1,0 -1.9,-0.4 -2.4,-1.1 -0.5,-0.7 -0.8,-1.8 -0.8,-3.1 0,-1.4 0.3,-2.4 0.8,-3.1 0.5,-0.7 1.3,-1 2.4,-1 1.1,0 1.9,0.4 2.4,1.1 0.6,0.7 0.8,1.7 0.8,3.1 0.1,1.2 -0.2,2.3 -0.8,3 z"
   class="st13"
   inkscape:connector-curvature="0"
   style="clip-rule:evenodd;fill:#ffffff;fill-rule:evenodd" />

		<path
   id="path5394"
   d="m 831.2,165.1 c -0.6,0 -1.3,0.1 -1.9,0.2 -0.6,0.2 -1.2,0.4 -1.7,0.7 l 0.5,1.2 c 1.1,-0.5 2.1,-0.8 3,-0.8 0.8,0 1.4,0.2 1.7,0.6 0.4,0.4 0.5,1 0.5,1.9 v 0.7 l -1.8,0.1 c -3.5,0.1 -5.2,1.2 -5.2,3.4 0,1 0.3,1.8 0.9,2.4 0.6,0.5 1.4,0.8 2.5,0.8 0.8,0 1.5,-0.1 2,-0.4 0.5,-0.2 1.1,-0.7 1.6,-1.4 h 0.1 l 0.3,1.5 h 1.2 v -7.3 c 0,-1.3 -0.3,-2.2 -0.9,-2.7 -0.5,-0.6 -1.5,-0.9 -2.8,-0.9 z m 2.2,6.6 c 0,1 -0.3,1.8 -0.9,2.3 -0.6,0.6 -1.4,0.8 -2.4,0.8 -0.6,0 -1.1,-0.2 -1.5,-0.5 -0.4,-0.3 -0.5,-0.8 -0.5,-1.3 0,-0.8 0.3,-1.3 0.9,-1.7 0.6,-0.4 1.5,-0.6 2.8,-0.6 l 1.6,-0.1 z"
   class="st13"
   inkscape:connector-curvature="0"
   style="clip-rule:evenodd;fill:#ffffff;fill-rule:evenodd" />

		<rect
   id="rect5396"
   height="10.7"
   width="1.6"
   class="st13"
   y="192.60001"
   x="817.40002"
   style="clip-rule:evenodd;fill:#ffffff;fill-rule:evenodd" />

		<path
   id="path5398"
   d="m 872.3,192.4 c -0.8,0 -1.5,0.2 -2.1,0.5 -0.6,0.3 -1.1,0.8 -1.4,1.3 h -0.1 c -0.5,-1.2 -1.6,-1.8 -3.3,-1.8 -0.7,0 -1.3,0.1 -1.9,0.4 -0.6,0.3 -1,0.7 -1.3,1.2 h -0.1 l -0.3,-1.5 h -1.3 v 10.7 h 1.6 v -5.6 c 0,-1.4 0.2,-2.4 0.7,-3 0.5,-0.6 1.2,-0.9 2.2,-0.9 0.8,0 1.4,0.2 1.7,0.6 0.4,0.4 0.5,1.1 0.5,1.9 v 7 h 1.6 v -6 c 0,-1.2 0.2,-2.1 0.7,-2.7 0.5,-0.6 1.2,-0.9 2.2,-0.9 0.8,0 1.3,0.2 1.7,0.6 0.4,0.4 0.5,1.1 0.5,1.9 v 7 h 1.6 v -7 c 0,-1.4 -0.3,-2.4 -0.9,-3 -0.1,-0.4 -1,-0.7 -2.3,-0.7 z"
   class="st13"
   inkscape:connector-curvature="0"
   style="clip-rule:evenodd;fill:#ffffff;fill-rule:evenodd" />

		<path
   id="path5400"
   d="m 843.5,197.2 c -0.9,-0.3 -1.6,-0.6 -1.9,-0.8 -0.3,-0.2 -0.6,-0.4 -0.7,-0.6 -0.1,-0.2 -0.2,-0.4 -0.2,-0.7 0,-0.4 0.2,-0.8 0.6,-1 0.4,-0.2 1,-0.4 1.7,-0.4 0.9,0 1.9,0.2 2.9,0.7 l 0.6,-1.3 c -1.1,-0.5 -2.2,-0.7 -3.4,-0.7 -1.2,0 -2.2,0.3 -2.9,0.8 -0.7,0.5 -1.1,1.2 -1.1,2.1 0,0.5 0.1,0.9 0.3,1.3 0.2,0.4 0.5,0.7 0.9,0.9 0.4,0.3 1.1,0.6 2.1,1 1.1,0.4 1.8,0.8 2.1,1.1 0.4,0.3 0.5,0.7 0.5,1.1 0,0.6 -0.2,1 -0.7,1.2 -0.5,0.3 -1.1,0.4 -2,0.4 -0.5,0 -1.1,-0.1 -1.7,-0.2 -0.6,-0.2 -1.1,-0.4 -1.7,-0.6 v 1.5 c 0.8,0.5 1.9,0.7 3.3,0.7 1.3,0 2.4,-0.3 3.1,-0.8 0.7,-0.5 1.1,-1.3 1.1,-2.3 0,-0.7 -0.2,-1.3 -0.7,-1.8 -0.1,-0.6 -0.9,-1.1 -2.2,-1.6 z"
   class="st13"
   inkscape:connector-curvature="0"
   style="clip-rule:evenodd;fill:#ffffff;fill-rule:evenodd" />

		<path
   id="path5402"
   d="m 853.5,192.4 c -1.4,0 -2.6,0.5 -3.4,1.5 -0.9,1 -1.3,2.4 -1.3,4.1 0,1.7 0.5,3.1 1.4,4 0.9,1 2.2,1.5 3.8,1.5 0.7,0 1.3,-0.1 1.9,-0.2 0.5,-0.1 1.1,-0.3 1.6,-0.5 v -1.5 c -1.1,0.5 -2.3,0.7 -3.4,0.7 -1.1,0 -1.9,-0.3 -2.6,-1 -0.6,-0.7 -0.9,-1.6 -1,-2.9 h 7.4 v -1 c 0,-1.4 -0.4,-2.6 -1.2,-3.5 -0.8,-0.8 -1.8,-1.2 -3.2,-1.2 z m -3,4.5 c 0.1,-1 0.4,-1.8 0.9,-2.3 0.5,-0.6 1.2,-0.8 2.1,-0.8 0.9,0 1.5,0.3 2,0.8 0.5,0.5 0.7,1.3 0.7,2.4 h -5.7 z"
   class="st13"
   inkscape:connector-curvature="0"
   style="clip-rule:evenodd;fill:#ffffff;fill-rule:evenodd" />

		<path
   id="path5404"
   d="m 864,174.7 c 0.8,-1 1.2,-2.3 1.2,-4.1 0,-1.8 -0.4,-3.1 -1.2,-4.1 -0.8,-1 -1.9,-1.5 -3.3,-1.5 -0.7,0 -1.4,0.1 -1.9,0.4 -0.6,0.3 -1,0.7 -1.5,1.3 h -0.1 l -0.2,-1.5 h -1.3 v 15.6 h 1.6 v -4.4 c 0,-0.6 0,-1.2 -0.1,-1.8 h 0.1 c 0.4,0.5 0.9,0.9 1.5,1.2 0.6,0.3 1.2,0.4 1.9,0.4 1.5,0 2.6,-0.5 3.3,-1.5 z m -5.9,-0.8 c -0.5,-0.6 -0.8,-1.7 -0.8,-3.2 v -0.4 c 0,-1.3 0.3,-2.3 0.8,-2.9 0.5,-0.6 1.3,-0.9 2.4,-0.9 1,0 1.7,0.4 2.2,1.1 0.5,0.7 0.8,1.7 0.8,3.1 0,1.3 -0.3,2.4 -0.8,3.1 -0.5,0.8 -1.3,1.1 -2.2,1.1 -1,-0.1 -1.9,-0.4 -2.4,-1 z"
   class="st13"
   inkscape:connector-curvature="0"
   style="clip-rule:evenodd;fill:#ffffff;fill-rule:evenodd" />

		<path
   id="path5406"
   d="m 845.6,165.1 v 0.8 l 0.1,0.8 h -0.1 c -0.8,-1.1 -1.9,-1.6 -3.4,-1.6 -1.4,0 -2.5,0.5 -3.3,1.5 -0.8,1 -1.2,2.4 -1.2,4.1 0,1.8 0.4,3.1 1.2,4.1 0.8,1 1.9,1.4 3.3,1.4 1.5,0 2.6,-0.5 3.4,-1.6 h 0.1 l 0.2,1.4 h 1.3 v -15.3 h -1.6 z m 0,5.9 c 0,1.3 -0.3,2.3 -0.7,2.9 -0.5,0.6 -1.3,0.9 -2.4,0.9 -1,0 -1.7,-0.4 -2.2,-1 -0.5,-0.7 -0.8,-1.7 -0.8,-3.1 0,-1.4 0.3,-2.4 0.8,-3.1 0.5,-0.7 1.2,-1.1 2.2,-1.1 1.1,0 1.9,0.3 2.4,1 0.5,0.6 0.8,1.7 0.8,3.3 v 0.2 z"
   class="st13"
   inkscape:connector-curvature="0"
   style="clip-rule:evenodd;fill:#ffffff;fill-rule:evenodd" />

		<path
   id="path5408"
   d="m 818.2,190.8 c 0.3,0 0.5,-0.1 0.7,-0.3 0.2,-0.2 0.3,-0.5 0.3,-0.8 0,-0.4 -0.1,-0.6 -0.3,-0.8 -0.2,-0.2 -0.4,-0.3 -0.7,-0.3 -0.3,0 -0.5,0.1 -0.7,0.3 -0.2,0.2 -0.3,0.4 -0.3,0.8 0,0.4 0.1,0.6 0.3,0.8 0.2,0.2 0.5,0.3 0.7,0.3 z"
   class="st13"
   inkscape:connector-curvature="0"
   style="clip-rule:evenodd;fill:#ffffff;fill-rule:evenodd" />

		<path
   id="path5410"
   d="m 776.2,172.9 c 0,2.2 1,3.3 3.1,3.3 0.3,0 0.6,0 0.9,-0.1 0.3,-0.1 0.6,-0.1 0.8,-0.2 v -1.2 c -0.2,0 -0.4,0.1 -0.6,0.1 -0.3,0 -0.5,0.1 -0.8,0.1 -0.5,0 -1,-0.2 -1.3,-0.5 -0.3,-0.3 -0.5,-0.8 -0.5,-1.5 v -6.3 h 3.1 v -1.3 h -3.1 v -2.5 h -0.9 l -0.7,2.3 -1.5,0.7 v 0.8 h 1.5 z"
   class="st13"
   inkscape:connector-curvature="0"
   style="clip-rule:evenodd;fill:#ffffff;fill-rule:evenodd" />

		<path
   id="path5412"
   d="m 599.8,192.4 c -1.6,0 -2.8,0.5 -3.6,1.5 -0.9,1 -1.3,2.3 -1.3,4.1 0,1.1 0.2,2.1 0.6,3 0.4,0.8 1,1.5 1.7,1.9 0.7,0.5 1.6,0.7 2.6,0.7 1.6,0 2.8,-0.5 3.7,-1.5 0.9,-1 1.3,-2.4 1.3,-4.1 0,-1.7 -0.4,-3.1 -1.3,-4.1 -1,-1 -2.2,-1.5 -3.7,-1.5 z m 2.4,8.7 c -0.6,0.7 -1.4,1.1 -2.4,1.1 -1.1,0 -1.9,-0.4 -2.4,-1.1 -0.5,-0.7 -0.8,-1.8 -0.8,-3.1 0,-1.4 0.3,-2.4 0.8,-3.1 0.5,-0.7 1.3,-1 2.4,-1 1.1,0 1.9,0.4 2.4,1.1 0.6,0.7 0.8,1.7 0.8,3.1 0.1,1.2 -0.2,2.3 -0.8,3 z"
   class="st13"
   inkscape:connector-curvature="0"
   style="clip-rule:evenodd;fill:#ffffff;fill-rule:evenodd" />

		<path
   id="path5414"
   d="m 779.3,203.5 c 1.5,0 2.6,-0.5 3.4,-1.6 h 0.1 l 0.2,1.4 h 1.3 V 188 h -1.6 v 4.4 0.8 l 0.1,0.8 h -0.1 c -0.8,-1.1 -1.9,-1.6 -3.4,-1.6 -1.4,0 -2.5,0.5 -3.3,1.5 -0.8,1 -1.2,2.4 -1.2,4.1 0,1.8 0.4,3.1 1.2,4.1 0.8,1 1.9,1.4 3.3,1.4 z m -2,-8.6 c 0.5,-0.7 1.2,-1.1 2.2,-1.1 1.1,0 1.9,0.3 2.4,1 0.5,0.7 0.8,1.7 0.8,3.3 v 0.3 c 0,1.3 -0.3,2.3 -0.7,2.9 -0.5,0.6 -1.3,0.9 -2.4,0.9 -1,0 -1.7,-0.4 -2.2,-1.1 -0.5,-0.7 -0.8,-1.7 -0.8,-3.1 -0.1,-1.3 0.2,-2.4 0.7,-3.1 z"
   class="st13"
   inkscape:connector-curvature="0"
   style="clip-rule:evenodd;fill:#ffffff;fill-rule:evenodd" />

		<path
   id="path5416"
   d="m 770.8,166.5 c 0.3,0 0.7,0 1.1,0.1 0.4,0.1 0.8,0.2 1.2,0.4 l 0.5,-1.4 c -0.3,-0.2 -0.7,-0.3 -1.2,-0.4 -0.5,-0.1 -1,-0.2 -1.5,-0.2 -1.6,0 -2.8,0.5 -3.7,1.5 -0.9,1 -1.3,2.4 -1.3,4.2 0,1.7 0.4,3.1 1.3,4.1 0.9,1 2.1,1.4 3.6,1.4 1.1,0 2,-0.2 2.7,-0.6 v -1.4 c -0.9,0.4 -1.9,0.6 -2.8,0.6 -1,0 -1.8,-0.4 -2.4,-1.1 -0.5,-0.7 -0.8,-1.7 -0.8,-3 0.1,-2.8 1.2,-4.2 3.3,-4.2 z"
   class="st13"
   inkscape:connector-curvature="0"
   style="clip-rule:evenodd;fill:#ffffff;fill-rule:evenodd" />

		<path
   id="path5418"
   d="m 792.2,219.8 c -0.6,0 -1.3,0.1 -1.9,0.2 -0.6,0.2 -1.2,0.4 -1.7,0.7 l 0.5,1.2 c 1.1,-0.5 2.1,-0.8 3,-0.8 0.8,0 1.4,0.2 1.7,0.6 0.4,0.4 0.5,1 0.5,1.9 v 0.7 l -1.8,0.1 c -3.5,0.1 -5.2,1.2 -5.2,3.4 0,1 0.3,1.8 0.9,2.3 0.6,0.5 1.4,0.8 2.5,0.8 0.8,0 1.5,-0.1 2,-0.4 0.5,-0.2 1.1,-0.7 1.6,-1.4 h 0.1 l 0.3,1.5 h 1.2 v -7.3 c 0,-1.3 -0.3,-2.2 -0.9,-2.7 -0.6,-0.6 -1.5,-0.8 -2.8,-0.8 z m 2.1,6.6 c 0,1 -0.3,1.8 -0.9,2.3 -0.6,0.6 -1.4,0.8 -2.4,0.8 -0.6,0 -1.1,-0.2 -1.5,-0.5 -0.4,-0.3 -0.5,-0.8 -0.5,-1.3 0,-0.8 0.3,-1.3 0.9,-1.7 0.6,-0.4 1.5,-0.6 2.8,-0.6 l 1.6,-0.1 z"
   class="st13"
   inkscape:connector-curvature="0"
   style="clip-rule:evenodd;fill:#ffffff;fill-rule:evenodd" />

		<path
   id="path5420"
   d="m 811,219.7 c -0.8,0 -1.5,0.2 -2.1,0.5 -0.6,0.3 -1.1,0.8 -1.4,1.3 h -0.1 c -0.5,-1.2 -1.6,-1.8 -3.3,-1.8 -0.7,0 -1.3,0.1 -1.9,0.4 -0.6,0.3 -1,0.7 -1.3,1.2 h -0.1 l -0.3,-1.5 h -1.3 v 10.7 h 1.6 V 225 c 0,-1.4 0.2,-2.4 0.7,-3 0.5,-0.6 1.2,-0.9 2.2,-0.9 0.8,0 1.4,0.2 1.7,0.6 0.4,0.4 0.5,1.1 0.5,1.9 v 7 h 1.6 v -6 c 0,-1.2 0.2,-2.1 0.7,-2.7 0.5,-0.6 1.2,-0.9 2.2,-0.9 0.8,0 1.3,0.2 1.7,0.6 0.4,0.4 0.5,1.1 0.5,1.9 v 7 h 1.6 v -7 c 0,-1.4 -0.3,-2.4 -0.9,-3 -0.2,-0.4 -1.1,-0.8 -2.3,-0.8 z"
   class="st13"
   inkscape:connector-curvature="0"
   style="clip-rule:evenodd;fill:#ffffff;fill-rule:evenodd" />

		<path
   id="path5422"
   d="m 802.3,198 c 0,-1.7 -0.4,-3.1 -1.3,-4.1 -0.9,-1 -2.1,-1.5 -3.6,-1.5 -1.6,0 -2.8,0.5 -3.6,1.5 -0.9,1 -1.3,2.3 -1.3,4.1 0,1.1 0.2,2.1 0.6,3 0.4,0.8 1,1.5 1.7,1.9 0.7,0.5 1.6,0.7 2.6,0.7 1.6,0 2.8,-0.5 3.7,-1.5 0.7,-1 1.2,-2.4 1.2,-4.1 z m -2.6,3.1 c -0.5,0.7 -1.4,1.1 -2.4,1.1 -1.1,0 -1.9,-0.4 -2.4,-1.1 -0.5,-0.7 -0.8,-1.8 -0.8,-3.1 0,-1.4 0.3,-2.4 0.8,-3.1 0.5,-0.7 1.3,-1 2.4,-1 1.1,0 1.9,0.4 2.4,1.1 0.6,0.7 0.8,1.7 0.8,3.1 0.1,1.2 -0.2,2.3 -0.8,3 z"
   class="st13"
   inkscape:connector-curvature="0"
   style="clip-rule:evenodd;fill:#ffffff;fill-rule:evenodd" />

		<path
   id="path5424"
   d="m 819.8,166.7 0.2,-1.5 c -0.4,-0.1 -0.8,-0.1 -1.3,-0.1 -0.7,0 -1.3,0.2 -1.9,0.6 -0.6,0.4 -1,0.9 -1.4,1.6 h -0.1 l -0.2,-2 h -1.3 V 176 h 1.6 v -5.8 c 0,-1 0.3,-1.9 0.9,-2.6 0.6,-0.7 1.4,-1.1 2.2,-1.1 0.4,0 0.8,0.1 1.3,0.2 z"
   class="st13"
   inkscape:connector-curvature="0"
   style="clip-rule:evenodd;fill:#ffffff;fill-rule:evenodd" />

		<path
   id="path5426"
   d="m 911,201 c -0.1,0.6 -0.2,1.4 -0.4,2.4 -0.2,1 -0.4,1.8 -0.6,2.5 h 1.2 c 0.3,-0.7 0.7,-1.6 1,-2.4 0.3,-0.9 0.6,-1.6 0.7,-2.3 l -0.1,-0.2 z"
   class="st13"
   inkscape:connector-curvature="0"
   style="clip-rule:evenodd;fill:#ffffff;fill-rule:evenodd" />

		<path
   id="path5428"
   d="m 955.3,173.6 c -0.4,0 -0.7,0.1 -0.9,0.3 -0.2,0.2 -0.3,0.6 -0.3,1 0,0.5 0.1,0.8 0.3,1 0.2,0.2 0.5,0.3 0.8,0.3 0.4,0 0.7,-0.1 0.9,-0.3 0.2,-0.2 0.3,-0.6 0.3,-1 0,-0.4 -0.1,-0.8 -0.3,-1 -0.1,-0.2 -0.4,-0.3 -0.8,-0.3 z"
   class="st13"
   inkscape:connector-curvature="0"
   style="clip-rule:evenodd;fill:#ffffff;fill-rule:evenodd" />

		<rect
   id="rect5430"
   height="15.3"
   width="1.6"
   class="st13"
   y="188.10001"
   x="952"
   style="clip-rule:evenodd;fill:#ffffff;fill-rule:evenodd" />

		<path
   id="path5432"
   d="m 952.2,174.7 c -0.2,0 -0.4,0.1 -0.6,0.1 -0.3,0 -0.5,0.1 -0.8,0.1 -0.5,0 -1,-0.2 -1.3,-0.5 -0.3,-0.3 -0.5,-0.8 -0.5,-1.5 v -6.3 h 3.1 v -1.3 H 949 v -2.5 h -0.9 l -0.7,2.3 -1.5,0.7 v 0.8 h 1.5 v 6.4 c 0,2.2 1,3.3 3.1,3.3 0.3,0 0.6,0 0.9,-0.1 0.3,-0.1 0.6,-0.1 0.8,-0.2 z"
   class="st13"
   inkscape:connector-curvature="0"
   style="clip-rule:evenodd;fill:#ffffff;fill-rule:evenodd" />

		<path
   id="path5434"
   d="m 944.3,192.4 c -1.6,0 -2.8,0.5 -3.6,1.5 -0.9,1 -1.3,2.3 -1.3,4.1 0,1.1 0.2,2.1 0.6,3 0.4,0.8 1,1.5 1.7,1.9 0.7,0.5 1.6,0.7 2.6,0.7 1.6,0 2.8,-0.5 3.7,-1.5 0.9,-1 1.3,-2.4 1.3,-4.1 0,-1.7 -0.4,-3.1 -1.3,-4.1 -1,-1 -2.2,-1.5 -3.7,-1.5 z m 2.4,8.7 c -0.6,0.7 -1.4,1.1 -2.4,1.1 -1.1,0 -1.9,-0.4 -2.4,-1.1 -0.5,-0.7 -0.8,-1.8 -0.8,-3.1 0,-1.4 0.3,-2.4 0.8,-3.1 0.5,-0.7 1.3,-1 2.4,-1 1.1,0 1.9,0.4 2.4,1.1 0.5,0.7 0.8,1.7 0.8,3.1 0,1.2 -0.3,2.3 -0.8,3 z"
   class="st13"
   inkscape:connector-curvature="0"
   style="clip-rule:evenodd;fill:#ffffff;fill-rule:evenodd" />

		<path
   id="path5436"
   d="m 963,188.6 c -0.3,0 -0.5,0.1 -0.7,0.3 -0.2,0.2 -0.3,0.4 -0.3,0.8 0,0.4 0.1,0.6 0.3,0.8 0.2,0.2 0.4,0.3 0.7,0.3 0.3,0 0.5,-0.1 0.7,-0.3 0.2,-0.2 0.3,-0.5 0.3,-0.8 0,-0.4 -0.1,-0.6 -0.3,-0.8 -0.2,-0.2 -0.4,-0.3 -0.7,-0.3 z"
   class="st13"
   inkscape:connector-curvature="0"
   style="clip-rule:evenodd;fill:#ffffff;fill-rule:evenodd" />

		<path
   id="path5438"
   d="m 970.9,197.2 c -0.9,-0.3 -1.6,-0.6 -1.9,-0.8 -0.3,-0.2 -0.6,-0.4 -0.7,-0.6 -0.1,-0.2 -0.2,-0.4 -0.2,-0.7 0,-0.4 0.2,-0.8 0.6,-1 0.4,-0.2 1,-0.4 1.8,-0.4 0.9,0 1.8,0.2 2.9,0.7 l 0.6,-1.3 c -1.1,-0.5 -2.2,-0.7 -3.4,-0.7 -1.2,0 -2.2,0.3 -2.9,0.8 -0.7,0.5 -1.1,1.2 -1.1,2.1 0,0.5 0.1,0.9 0.3,1.3 0.2,0.4 0.5,0.7 0.9,0.9 0.4,0.3 1.1,0.6 2.1,1 1.1,0.4 1.8,0.8 2.1,1.1 0.4,0.3 0.5,0.7 0.5,1.1 0,0.6 -0.2,1 -0.7,1.2 -0.5,0.3 -1.1,0.4 -2,0.4 -0.5,0 -1.1,-0.1 -1.7,-0.2 -0.6,-0.2 -1.1,-0.4 -1.7,-0.6 v 1.5 c 0.8,0.5 1.9,0.7 3.3,0.7 1.4,0 2.4,-0.3 3.1,-0.8 0.7,-0.5 1.1,-1.3 1.1,-2.3 0,-0.7 -0.2,-1.3 -0.7,-1.8 -0.1,-0.6 -1,-1.1 -2.3,-1.6 z"
   class="st13"
   inkscape:connector-curvature="0"
   style="clip-rule:evenodd;fill:#ffffff;fill-rule:evenodd" />

		<rect
   id="rect5440"
   height="15.3"
   width="1.6"
   class="st13"
   y="188.10001"
   x="957.09998"
   style="clip-rule:evenodd;fill:#ffffff;fill-rule:evenodd" />

		<rect
   id="rect5442"
   height="15.3"
   width="1.6"
   class="st13"
   y="160.7"
   x="937.09998"
   style="clip-rule:evenodd;fill:#ffffff;fill-rule:evenodd" />

		<rect
   id="rect5444"
   height="10.7"
   width="1.6"
   class="st13"
   y="192.60001"
   x="962.20001"
   style="clip-rule:evenodd;fill:#ffffff;fill-rule:evenodd" />

		<path
   id="path5446"
   d="m 905.9,193 c -0.6,0.4 -1,0.9 -1.4,1.6 h -0.1 l -0.2,-2 h -1.3 v 10.7 h 1.6 v -5.8 c 0,-1 0.3,-1.9 0.9,-2.6 0.6,-0.7 1.4,-1.1 2.2,-1.1 0.3,0 0.7,0 1.2,0.1 l 0.2,-1.5 c -0.4,-0.1 -0.8,-0.1 -1.3,-0.1 -0.6,0.1 -1.2,0.3 -1.8,0.7 z"
   class="st13"
   inkscape:connector-curvature="0"
   style="clip-rule:evenodd;fill:#ffffff;fill-rule:evenodd" />

		<path
   id="path5448"
   d="m 887.1,166.5 c 0.3,0 0.7,0 1.1,0.1 0.4,0.1 0.8,0.2 1.2,0.4 l 0.5,-1.4 c -0.3,-0.2 -0.7,-0.3 -1.2,-0.4 -0.5,-0.1 -1,-0.2 -1.5,-0.2 -1.6,0 -2.8,0.5 -3.7,1.5 -0.9,1 -1.3,2.4 -1.3,4.2 0,1.7 0.4,3.1 1.3,4.1 0.8,1 2.1,1.4 3.6,1.4 1.1,0 2,-0.2 2.7,-0.6 v -1.4 c -0.9,0.4 -1.9,0.6 -2.8,0.6 -1,0 -1.8,-0.4 -2.4,-1.1 -0.5,-0.7 -0.8,-1.7 -0.8,-3 0,-2.8 1.1,-4.2 3.3,-4.2 z"
   class="st13"
   inkscape:connector-curvature="0"
   style="clip-rule:evenodd;fill:#ffffff;fill-rule:evenodd" />

		<path
   id="path5450"
   d="m 895.8,192.4 c -1.4,0 -2.6,0.5 -3.4,1.5 -0.9,1 -1.3,2.4 -1.3,4.1 0,1.7 0.5,3.1 1.4,4 0.9,1 2.2,1.5 3.8,1.5 0.7,0 1.3,-0.1 1.9,-0.2 0.5,-0.1 1.1,-0.3 1.6,-0.5 v -1.5 c -1.1,0.5 -2.3,0.7 -3.4,0.7 -1.1,0 -1.9,-0.3 -2.6,-1 -0.6,-0.7 -0.9,-1.6 -1,-2.9 h 7.4 v -1 c 0,-1.4 -0.4,-2.6 -1.2,-3.5 -0.8,-0.8 -1.9,-1.2 -3.2,-1.2 z m -3,4.5 c 0.1,-1 0.4,-1.8 0.9,-2.3 0.5,-0.6 1.2,-0.8 2.1,-0.8 0.9,0 1.5,0.3 2,0.8 0.5,0.5 0.7,1.3 0.7,2.4 h -5.7 z"
   class="st13"
   inkscape:connector-curvature="0"
   style="clip-rule:evenodd;fill:#ffffff;fill-rule:evenodd" />

		<path
   id="path5452"
   d="m 904.7,169.1 v 6.9 h 1.6 v -7 c 0,-1.4 -0.3,-2.4 -1,-3 -0.7,-0.6 -1.6,-0.9 -2.9,-0.9 -0.7,0 -1.4,0.1 -2,0.4 -0.6,0.3 -1.1,0.7 -1.4,1.2 h -0.1 l -0.3,-1.5 h -1.3 V 176 h 1.6 v -5.6 c 0,-1.4 0.3,-2.4 0.8,-3 0.5,-0.6 1.3,-0.9 2.5,-0.9 0.9,0 1.5,0.2 1.9,0.6 0.4,0.4 0.6,1.1 0.6,2 z"
   class="st13"
   inkscape:connector-curvature="0"
   style="clip-rule:evenodd;fill:#ffffff;fill-rule:evenodd" />

		<path
   id="path5454"
   d="m 884.3,192.4 c -0.7,0 -1.4,0.1 -1.9,0.4 -0.6,0.3 -1,0.7 -1.5,1.3 h -0.1 l -0.2,-1.5 h -1.3 v 15.6 h 1.6 v -4.4 c 0,-0.6 0,-1.2 -0.1,-1.8 h 0.1 c 0.4,0.5 0.9,0.9 1.5,1.2 0.6,0.3 1.2,0.4 1.9,0.4 1.4,0 2.5,-0.5 3.3,-1.5 0.8,-1 1.2,-2.3 1.2,-4.1 0,-1.8 -0.4,-3.1 -1.2,-4.1 -0.7,-1 -1.8,-1.5 -3.3,-1.5 z m 2,8.6 c -0.5,0.8 -1.3,1.1 -2.2,1.1 -1.1,0 -1.9,-0.3 -2.4,-1 -0.5,-0.6 -0.8,-1.7 -0.8,-3.2 v -0.4 c 0,-1.3 0.3,-2.3 0.8,-2.9 0.5,-0.6 1.3,-0.9 2.4,-0.9 1,0 1.7,0.4 2.2,1.1 0.5,0.7 0.8,1.7 0.8,3.1 0,1.4 -0.3,2.4 -0.8,3.1 z"
   class="st13"
   inkscape:connector-curvature="0"
   style="clip-rule:evenodd;fill:#ffffff;fill-rule:evenodd" />

		<path
   id="path5456"
   d="m 932.9,192.4 c -0.8,0 -1.5,0.2 -2.1,0.5 -0.6,0.3 -1.1,0.8 -1.4,1.3 h -0.1 c -0.5,-1.2 -1.6,-1.8 -3.3,-1.8 -0.7,0 -1.3,0.1 -1.9,0.4 -0.6,0.3 -1,0.7 -1.3,1.2 h -0.1 l -0.3,-1.5 h -1.3 v 10.7 h 1.6 v -5.6 c 0,-1.4 0.2,-2.4 0.7,-3 0.5,-0.6 1.2,-0.9 2.2,-0.9 0.8,0 1.4,0.2 1.7,0.6 0.4,0.4 0.5,1.1 0.5,1.9 v 7 h 1.6 v -6 c 0,-1.2 0.2,-2.1 0.7,-2.7 0.5,-0.6 1.2,-0.9 2.2,-0.9 0.8,0 1.3,0.2 1.7,0.6 0.4,0.4 0.5,1.1 0.5,1.9 v 7 h 1.6 v -7 c 0,-1.4 -0.3,-2.4 -0.9,-3 -0.2,-0.4 -1.1,-0.7 -2.3,-0.7 z"
   class="st13"
   inkscape:connector-curvature="0"
   style="clip-rule:evenodd;fill:#ffffff;fill-rule:evenodd" />

		<path
   id="path5458"
   d="m 913.2,165.1 c -1.3,0 -2.3,0.3 -3,1 -0.7,0.6 -1.1,1.5 -1.1,2.7 0,0.7 0.2,1.3 0.5,1.9 0.4,0.5 0.8,0.9 1.4,1.2 -0.5,0.3 -0.8,0.6 -1,0.9 -0.2,0.3 -0.3,0.6 -0.3,1 0,0.3 0.1,0.6 0.3,0.9 0.2,0.3 0.4,0.5 0.7,0.6 -0.8,0.2 -1.3,0.5 -1.8,1 -0.4,0.5 -0.6,1 -0.6,1.7 0,1 0.4,1.7 1.1,2.2 0.8,0.5 1.8,0.8 3.3,0.8 1.8,0 3.2,-0.3 4.2,-0.9 1,-0.6 1.4,-1.5 1.4,-2.7 0,-0.9 -0.3,-1.6 -0.9,-2.1 -0.6,-0.5 -1.5,-0.7 -2.7,-0.7 h -1.9 c -0.6,0 -1,-0.1 -1.2,-0.2 -0.2,-0.1 -0.4,-0.4 -0.4,-0.7 0,-0.6 0.3,-1 1,-1.4 0.3,0.1 0.6,0.1 0.9,0.1 1.3,0 2.2,-0.3 3,-0.9 0.7,-0.6 1.1,-1.5 1.1,-2.5 0,-0.5 -0.1,-0.9 -0.2,-1.2 -0.1,-0.4 -0.3,-0.7 -0.5,-0.9 l 2,-0.2 v -1 h -3.7 c -0.5,-0.6 -1,-0.6 -1.6,-0.6 z m -1,10.7 h 2 c 1,0 1.7,0.1 2,0.3 0.4,0.2 0.5,0.6 0.5,1.2 0,0.7 -0.3,1.2 -1,1.7 -0.7,0.4 -1.7,0.6 -3,0.6 -0.9,0 -1.6,-0.2 -2.1,-0.4 -0.5,-0.3 -0.7,-0.7 -0.7,-1.3 0,-0.7 0.2,-1.2 0.6,-1.5 0.4,-0.5 1,-0.6 1.7,-0.6 z m 3.4,-7.1 c 0,1.5 -0.8,2.3 -2.4,2.3 -0.8,0 -1.4,-0.2 -1.8,-0.6 -0.4,-0.4 -0.6,-1 -0.6,-1.7 0,-0.8 0.2,-1.4 0.6,-1.8 0.4,-0.4 1,-0.6 1.8,-0.6 1.6,-0.1 2.4,0.8 2.4,2.4 z"
   class="st13"
   inkscape:connector-curvature="0"
   style="clip-rule:evenodd;fill:#ffffff;fill-rule:evenodd" />

		<path
   id="path5460"
   d="m 880.1,173.1 c 0,-0.7 -0.2,-1.3 -0.7,-1.8 -0.4,-0.5 -1.3,-0.9 -2.6,-1.4 -0.9,-0.3 -1.6,-0.6 -1.9,-0.8 -0.3,-0.2 -0.6,-0.4 -0.7,-0.6 -0.1,-0.2 -0.2,-0.4 -0.2,-0.7 0,-0.4 0.2,-0.8 0.6,-1 0.4,-0.2 1,-0.4 1.7,-0.4 0.9,0 1.9,0.2 2.9,0.7 l 0.6,-1.3 c -1.1,-0.5 -2.2,-0.7 -3.4,-0.7 -1.2,0 -2.2,0.3 -2.9,0.8 -0.7,0.5 -1.1,1.2 -1.1,2.1 0,0.5 0.1,0.9 0.3,1.3 0.2,0.4 0.5,0.7 0.9,0.9 0.4,0.3 1.1,0.6 2.1,1 1.1,0.4 1.8,0.8 2.1,1.1 0.4,0.3 0.5,0.7 0.5,1.1 0,0.6 -0.2,1 -0.7,1.2 -0.5,0.3 -1.1,0.4 -2,0.4 -0.5,0 -1.1,-0.1 -1.7,-0.2 -0.6,-0.2 -1.1,-0.4 -1.7,-0.6 v 1.5 c 0.8,0.5 1.9,0.7 3.3,0.7 1.4,0 2.4,-0.3 3.1,-0.8 1.1,-0.8 1.5,-1.5 1.5,-2.5 z"
   class="st13"
   inkscape:connector-curvature="0"
   style="clip-rule:evenodd;fill:#ffffff;fill-rule:evenodd" />

		<path
   id="path5462"
   d="m 768.3,192.4 c -1.4,0 -2.6,0.5 -3.4,1.5 -0.9,1 -1.3,2.4 -1.3,4.1 0,1.7 0.5,3.1 1.4,4 0.9,1 2.2,1.5 3.8,1.5 0.7,0 1.3,-0.1 1.9,-0.2 0.5,-0.1 1.1,-0.3 1.6,-0.5 v -1.5 c -1.1,0.5 -2.3,0.7 -3.4,0.7 -1.1,0 -1.9,-0.3 -2.6,-1 -0.6,-0.7 -0.9,-1.6 -1,-2.9 h 7.4 v -1 c 0,-1.4 -0.4,-2.6 -1.2,-3.5 -0.8,-0.8 -1.8,-1.2 -3.2,-1.2 z m -3,4.5 c 0.1,-1 0.4,-1.8 0.9,-2.3 0.5,-0.6 1.2,-0.8 2.1,-0.8 0.8,0 1.5,0.3 2,0.8 0.5,0.5 0.7,1.3 0.7,2.4 h -5.7 z"
   class="st13"
   inkscape:connector-curvature="0"
   style="clip-rule:evenodd;fill:#ffffff;fill-rule:evenodd" />

		<path
   id="path5464"
   d="m 783.1,225.6 c 0,1.4 -0.3,2.4 -0.8,3 -0.5,0.6 -1.3,0.9 -2.5,0.9 -0.9,0 -1.5,-0.2 -1.9,-0.6 -0.4,-0.4 -0.6,-1.1 -0.6,-2 v -7 h -1.6 v 7 c 0,1.4 0.3,2.4 1,3 0.7,0.6 1.6,0.9 2.9,0.9 0.8,0 1.4,-0.1 2,-0.4 0.6,-0.3 1.1,-0.7 1.4,-1.2 h 0.1 l 0.2,1.4 h 1.3 V 219.9 H 783 v 5.7 z"
   class="st13"
   inkscape:connector-curvature="0"
   style="clip-rule:evenodd;fill:#ffffff;fill-rule:evenodd" />

		<rect
   id="rect5466"
   height="10.7"
   width="1.6"
   class="st13"
   y="165.3"
   x="635.90002"
   style="clip-rule:evenodd;fill:#ffffff;fill-rule:evenodd" />

		<path
   id="path5468"
   d="m 632.6,203.5 c 0.7,0 1.3,-0.1 1.9,-0.2 0.5,-0.1 1.1,-0.3 1.6,-0.5 v -1.5 c -1.1,0.5 -2.3,0.7 -3.4,0.7 -1.1,0 -1.9,-0.3 -2.6,-1 -0.6,-0.7 -0.9,-1.6 -1,-2.9 h 7.4 v -1 c 0,-1.4 -0.4,-2.6 -1.2,-3.5 -0.8,-0.9 -1.9,-1.3 -3.2,-1.3 -1.4,0 -2.6,0.5 -3.4,1.5 -0.9,1 -1.3,2.4 -1.3,4.1 0,1.7 0.5,3.1 1.4,4 1,1.2 2.2,1.6 3.8,1.6 z m -2.5,-8.9 c 0.5,-0.6 1.2,-0.8 2.1,-0.8 0.8,0 1.5,0.3 2,0.8 0.5,0.5 0.7,1.3 0.7,2.4 h -5.6 c 0,-1.1 0.3,-1.8 0.8,-2.4 z"
   class="st13"
   inkscape:connector-curvature="0"
   style="clip-rule:evenodd;fill:#ffffff;fill-rule:evenodd" />

		<path
   id="path5470"
   d="m 633,219.7 c -0.7,0 -1.4,0.1 -2,0.4 -0.6,0.3 -1.1,0.7 -1.4,1.2 h -0.1 l -0.3,-1.5 h -1.3 v 10.7 h 1.6 V 225 c 0,-1.4 0.3,-2.4 0.8,-3 0.5,-0.6 1.3,-0.9 2.5,-0.9 0.9,0 1.5,0.2 1.9,0.6 0.4,0.4 0.6,1.1 0.6,2 v 6.9 h 1.6 v -7 c 0,-1.4 -0.3,-2.4 -1,-3 -0.6,-0.5 -1.6,-0.9 -2.9,-0.9 z"
   class="st13"
   inkscape:connector-curvature="0"
   style="clip-rule:evenodd;fill:#ffffff;fill-rule:evenodd" />

		<path
   id="path5472"
   d="m 620.8,192.4 c -0.7,0 -1.4,0.1 -1.9,0.4 -0.6,0.3 -1,0.7 -1.5,1.3 h -0.1 l -0.2,-1.5 h -1.3 v 15.6 h 1.6 v -4.4 c 0,-0.6 0,-1.2 -0.1,-1.8 h 0.1 c 0.4,0.5 0.9,0.9 1.5,1.2 0.6,0.3 1.2,0.4 1.9,0.4 1.4,0 2.5,-0.5 3.3,-1.5 0.8,-1 1.2,-2.3 1.2,-4.1 0,-1.8 -0.4,-3.1 -1.2,-4.1 -0.8,-1 -1.9,-1.5 -3.3,-1.5 z m 2,8.6 c -0.5,0.8 -1.3,1.1 -2.2,1.1 -1.1,0 -1.9,-0.3 -2.4,-1 -0.5,-0.6 -0.8,-1.7 -0.8,-3.2 v -0.4 c 0,-1.3 0.3,-2.3 0.8,-2.9 0.5,-0.6 1.3,-0.9 2.4,-0.9 1,0 1.7,0.4 2.2,1.1 0.5,0.7 0.8,1.7 0.8,3.1 0,1.4 -0.3,2.4 -0.8,3.1 z"
   class="st13"
   inkscape:connector-curvature="0"
   style="clip-rule:evenodd;fill:#ffffff;fill-rule:evenodd" />

		<path
   id="path5474"
   d="m 631,174.4 c -0.5,0.3 -1.1,0.4 -2,0.4 -0.5,0 -1.1,-0.1 -1.7,-0.2 -0.6,-0.2 -1.1,-0.4 -1.7,-0.6 v 1.5 c 0.8,0.5 1.9,0.7 3.3,0.7 1.3,0 2.4,-0.3 3.1,-0.8 0.7,-0.5 1.1,-1.3 1.1,-2.3 0,-0.7 -0.2,-1.3 -0.7,-1.8 -0.4,-0.5 -1.3,-0.9 -2.6,-1.4 -0.9,-0.3 -1.6,-0.6 -1.9,-0.8 -0.3,-0.2 -0.6,-0.4 -0.7,-0.6 -0.1,-0.2 -0.2,-0.4 -0.2,-0.7 0,-0.4 0.2,-0.8 0.6,-1 0.4,-0.2 1,-0.4 1.7,-0.4 0.9,0 1.9,0.2 2.9,0.7 l 0.6,-1.3 c -1.1,-0.5 -2.2,-0.7 -3.4,-0.7 -1.2,0 -2.2,0.3 -2.9,0.8 -0.7,0.5 -1.1,1.2 -1.1,2.1 0,0.5 0.1,0.9 0.3,1.3 0.2,0.4 0.5,0.7 0.9,0.9 0.4,0.3 1.1,0.6 2.1,1 1.1,0.4 1.8,0.8 2.1,1.1 0.4,0.3 0.5,0.7 0.5,1.1 0.4,0.4 0.2,0.8 -0.3,1 z"
   class="st13"
   inkscape:connector-curvature="0"
   style="clip-rule:evenodd;fill:#ffffff;fill-rule:evenodd" />

		<path
   id="path5476"
   d="m 636.8,161.3 c -0.3,0 -0.5,0.1 -0.7,0.3 -0.2,0.2 -0.3,0.4 -0.3,0.8 0,0.4 0.1,0.6 0.3,0.8 0.2,0.2 0.4,0.3 0.7,0.3 0.3,0 0.5,-0.1 0.7,-0.3 0.2,-0.2 0.3,-0.5 0.3,-0.8 0,-0.4 -0.1,-0.6 -0.3,-0.8 -0.2,-0.2 -0.5,-0.3 -0.7,-0.3 z"
   class="st13"
   inkscape:connector-curvature="0"
   style="clip-rule:evenodd;fill:#ffffff;fill-rule:evenodd" />

		<path
   id="path5478"
   d="m 644.5,174.9 c -0.5,0 -1,-0.2 -1.3,-0.5 -0.3,-0.3 -0.5,-0.8 -0.5,-1.5 v -6.3 h 3.1 v -1.3 h -3.1 v -2.5 h -0.9 l -0.7,2.3 -1.5,0.7 v 0.8 h 1.5 v 6.4 c 0,2.2 1,3.3 3.1,3.3 0.3,0 0.6,0 0.9,-0.1 0.3,-0.1 0.6,-0.1 0.8,-0.2 v -1.2 c -0.2,0 -0.4,0.1 -0.6,0.1 -0.2,-0.1 -0.5,0 -0.8,0 z"
   class="st13"
   inkscape:connector-curvature="0"
   style="clip-rule:evenodd;fill:#ffffff;fill-rule:evenodd" />

		<path
   id="path5480"
   d="m 642.4,193 c -0.6,0.4 -1,0.9 -1.4,1.6 h -0.1 l -0.2,-2 h -1.3 v 10.7 h 1.6 v -5.8 c 0,-1 0.3,-1.9 0.9,-2.6 0.6,-0.7 1.4,-1.1 2.2,-1.1 0.3,0 0.7,0 1.2,0.1 l 0.2,-1.5 c -0.4,-0.1 -0.8,-0.1 -1.3,-0.1 -0.6,0.1 -1.2,0.3 -1.8,0.7 z"
   class="st13"
   inkscape:connector-curvature="0"
   style="clip-rule:evenodd;fill:#ffffff;fill-rule:evenodd" />

		<path
   id="path5482"
   d="m 654.5,219.7 c -1.4,0 -2.6,0.5 -3.4,1.5 -0.9,1 -1.3,2.4 -1.3,4.1 0,1.7 0.5,3.1 1.4,4 0.9,1 2.2,1.5 3.8,1.5 0.7,0 1.3,-0.1 1.9,-0.2 0.5,-0.1 1.1,-0.3 1.6,-0.5 v -1.5 c -1.1,0.5 -2.3,0.7 -3.4,0.7 -1.1,0 -2,-0.3 -2.6,-1 -0.6,-0.7 -0.9,-1.6 -1,-2.9 h 7.4 v -1 c 0,-1.4 -0.4,-2.6 -1.2,-3.5 -0.8,-0.7 -1.9,-1.2 -3.2,-1.2 z m -3,4.6 c 0.1,-1 0.4,-1.8 0.9,-2.3 0.5,-0.6 1.2,-0.8 2.1,-0.8 0.9,0 1.5,0.3 2,0.8 0.5,0.5 0.7,1.3 0.7,2.4 h -5.7 z"
   class="st13"
   inkscape:connector-curvature="0"
   style="clip-rule:evenodd;fill:#ffffff;fill-rule:evenodd" />

		<path
   id="path5484"
   d="m 640.2,228.4 c -0.1,0.6 -0.2,1.4 -0.4,2.4 -0.2,1 -0.4,1.8 -0.6,2.5 h 1.2 c 0.3,-0.7 0.7,-1.5 1,-2.4 0.3,-0.9 0.6,-1.6 0.7,-2.3 l -0.1,-0.2 z"
   class="st13"
   inkscape:connector-curvature="0"
   style="clip-rule:evenodd;fill:#ffffff;fill-rule:evenodd" />

		<path
   id="path5486"
   d="m 606.3,215.9 c -0.3,0 -0.5,0.1 -0.7,0.3 -0.2,0.2 -0.3,0.4 -0.3,0.8 0,0.4 0.1,0.6 0.3,0.8 0.2,0.2 0.4,0.3 0.7,0.3 0.3,0 0.5,-0.1 0.7,-0.3 0.2,-0.2 0.3,-0.5 0.3,-0.8 0,-0.4 -0.1,-0.6 -0.3,-0.8 -0.2,-0.2 -0.5,-0.3 -0.7,-0.3 z"
   class="st13"
   inkscape:connector-curvature="0"
   style="clip-rule:evenodd;fill:#ffffff;fill-rule:evenodd" />

		<rect
   id="rect5488"
   height="10.7"
   width="1.6"
   class="st13"
   y="219.89999"
   x="605.5"
   style="clip-rule:evenodd;fill:#ffffff;fill-rule:evenodd" />

		<path
   id="path5490"
   d="m 609.2,197.6 c 0,-1 0.3,-1.9 0.9,-2.6 0.6,-0.7 1.4,-1.1 2.2,-1.1 0.3,0 0.7,0 1.2,0.1 l 0.2,-1.5 c -0.4,-0.1 -0.8,-0.1 -1.3,-0.1 -0.7,0 -1.3,0.2 -1.9,0.6 -0.6,0.4 -1,0.9 -1.4,1.6 H 609 l -0.2,-2 h -1.3 v 10.7 h 1.6 v -5.7 z"
   class="st13"
   inkscape:connector-curvature="0"
   style="clip-rule:evenodd;fill:#ffffff;fill-rule:evenodd" />

		<path
   id="path5492"
   d="m 610.1,170.6 c 0,-1.7 -0.4,-3.1 -1.3,-4.1 -0.9,-1 -2.1,-1.5 -3.6,-1.5 -1.6,0 -2.8,0.5 -3.6,1.5 -0.9,1 -1.3,2.3 -1.3,4.1 0,1.1 0.2,2.1 0.6,3 0.4,0.8 1,1.5 1.7,1.9 0.7,0.5 1.6,0.7 2.6,0.7 1.6,0 2.8,-0.5 3.7,-1.5 0.8,-1 1.2,-2.3 1.2,-4.1 z m -2.5,3.2 c -0.6,0.7 -1.4,1.1 -2.4,1.1 -1.1,0 -1.9,-0.4 -2.4,-1.1 -0.5,-0.7 -0.8,-1.8 -0.8,-3.1 0,-1.4 0.3,-2.4 0.8,-3.1 0.5,-0.7 1.3,-1 2.4,-1 1.1,0 1.9,0.4 2.4,1.1 0.6,0.7 0.8,1.7 0.8,3.1 0,1.2 -0.3,2.2 -0.8,3 z"
   class="st13"
   inkscape:connector-curvature="0"
   style="clip-rule:evenodd;fill:#ffffff;fill-rule:evenodd" />

		<path
   id="path5494"
   d="m 770.9,221.4 v 0 c -0.9,-1.1 -2,-1.7 -3.5,-1.7 -1.4,0 -2.5,0.5 -3.3,1.5 -0.8,1 -1.2,2.4 -1.2,4.1 0,1.7 0.4,3.1 1.2,4.1 0.8,1 1.9,1.5 3.2,1.5 1.5,0 2.6,-0.5 3.4,-1.6 h 0.1 c -0.1,0.5 -0.1,1 -0.1,1.7 v 4.6 h 1.6 V 220 H 771 Z m -0.1,4.3 c 0,1.4 -0.3,2.4 -0.8,2.9 -0.5,0.6 -1.3,0.9 -2.4,0.9 -1,0 -1.7,-0.4 -2.2,-1.1 -0.5,-0.7 -0.8,-1.7 -0.8,-3.1 0,-1.4 0.3,-2.4 0.8,-3.1 0.5,-0.7 1.2,-1.1 2.2,-1.1 1.1,0 1.9,0.3 2.4,1 0.5,0.7 0.8,1.7 0.8,3.2 z"
   class="st13"
   inkscape:connector-curvature="0"
   style="clip-rule:evenodd;fill:#ffffff;fill-rule:evenodd" />

		<rect
   id="rect5496"
   height="10.7"
   width="1.6"
   class="st13"
   y="219.89999"
   x="622.79999"
   style="clip-rule:evenodd;fill:#ffffff;fill-rule:evenodd" />

		<path
   id="path5498"
   d="m 623.7,215.9 c -0.3,0 -0.5,0.1 -0.7,0.3 -0.2,0.2 -0.3,0.4 -0.3,0.8 0,0.4 0.1,0.6 0.3,0.8 0.2,0.2 0.4,0.3 0.7,0.3 0.3,0 0.5,-0.1 0.7,-0.3 0.2,-0.2 0.3,-0.5 0.3,-0.8 0,-0.4 -0.1,-0.6 -0.3,-0.8 -0.3,-0.2 -0.5,-0.3 -0.7,-0.3 z"
   class="st13"
   inkscape:connector-curvature="0"
   style="clip-rule:evenodd;fill:#ffffff;fill-rule:evenodd" />

		<path
   id="path5500"
   d="m 618.9,166.7 0.2,-1.5 c -0.4,-0.1 -0.8,-0.1 -1.3,-0.1 -0.7,0 -1.3,0.2 -1.9,0.6 -0.6,0.4 -1,0.9 -1.4,1.6 h -0.1 l -0.2,-2 H 613 V 176 h 1.6 v -5.8 c 0,-1 0.3,-1.9 0.9,-2.6 0.6,-0.7 1.4,-1.1 2.2,-1.1 0.4,0 0.8,0.1 1.2,0.2 z"
   class="st13"
   inkscape:connector-curvature="0"
   style="clip-rule:evenodd;fill:#ffffff;fill-rule:evenodd" />

		<path
   id="path5502"
   d="m 614,229.5 c -0.5,0 -1,-0.2 -1.3,-0.5 -0.3,-0.3 -0.5,-0.8 -0.5,-1.5 v -6.3 h 3.1 v -1.3 h -3.1 v -2.5 h -0.9 l -0.7,2.3 -1.5,0.7 v 0.8 h 1.5 v 6.4 c 0,2.2 1,3.3 3.1,3.3 0.3,0 0.6,0 0.9,-0.1 0.3,-0.1 0.6,-0.1 0.8,-0.2 v -1.2 c -0.2,0 -0.4,0.1 -0.6,0.1 -0.2,0 -0.5,0 -0.8,0 z"
   class="st13"
   inkscape:connector-curvature="0"
   style="clip-rule:evenodd;fill:#ffffff;fill-rule:evenodd" />

		<path
   id="path5504"
   d="m 742.8,203.2 c 0.5,-0.2 1.1,-0.7 1.6,-1.4 h 0.1 l 0.3,1.5 H 746 V 196 c 0,-1.3 -0.3,-2.2 -0.9,-2.7 -0.6,-0.6 -1.6,-0.9 -2.8,-0.9 -0.6,0 -1.3,0.1 -1.9,0.2 -0.6,0.2 -1.2,0.4 -1.7,0.7 l 0.5,1.2 c 1.1,-0.5 2.1,-0.8 3,-0.8 0.8,0 1.4,0.2 1.7,0.6 0.4,0.4 0.5,1 0.5,1.9 v 0.7 l -1.8,0.1 c -3.5,0.1 -5.2,1.2 -5.2,3.4 0,1 0.3,1.8 0.9,2.3 0.6,0.5 1.4,0.8 2.5,0.8 0.8,0 1.5,-0.1 2,-0.3 z m -3.7,-2.8 c 0,-0.7 0.3,-1.3 0.9,-1.7 0.6,-0.4 1.5,-0.6 2.8,-0.6 l 1.6,-0.1 v 1 c 0,1 -0.3,1.8 -0.9,2.3 -0.6,0.6 -1.4,0.8 -2.4,0.8 -0.6,0 -1.1,-0.2 -1.5,-0.5 -0.3,-0.2 -0.5,-0.6 -0.5,-1.2 z"
   class="st13"
   inkscape:connector-curvature="0"
   style="clip-rule:evenodd;fill:#ffffff;fill-rule:evenodd" />

		<rect
   id="rect5506"
   height="15.3"
   width="1.6"
   class="st13"
   y="188.10001"
   x="728.09998"
   style="clip-rule:evenodd;fill:#ffffff;fill-rule:evenodd" />

		<path
   id="path5508"
   d="m 734.6,225.6 c 0,1.4 -0.3,2.4 -0.8,3 -0.5,0.6 -1.3,0.9 -2.5,0.9 -0.8,0 -1.5,-0.2 -1.9,-0.6 -0.4,-0.4 -0.6,-1.1 -0.6,-2 v -7 h -1.6 v 7 c 0,1.4 0.3,2.4 1,3 0.7,0.6 1.6,0.9 2.9,0.9 0.8,0 1.4,-0.1 2,-0.4 0.6,-0.3 1.1,-0.7 1.4,-1.2 h 0.1 l 0.2,1.4 h 1.3 v -10.7 h -1.6 v 5.7 z"
   class="st13"
   inkscape:connector-curvature="0"
   style="clip-rule:evenodd;fill:#ffffff;fill-rule:evenodd" />

		<path
   id="path5510"
   d="m 730.5,170.6 c 0,-1.7 -0.4,-3.1 -1.3,-4.1 -0.9,-1 -2.1,-1.5 -3.6,-1.5 -1.5,0 -2.8,0.5 -3.6,1.5 -0.9,1 -1.3,2.3 -1.3,4.1 0,1.1 0.2,2.1 0.6,3 0.4,0.8 1,1.5 1.7,1.9 0.7,0.5 1.6,0.7 2.6,0.7 1.6,0 2.8,-0.5 3.7,-1.5 0.7,-1 1.2,-2.3 1.2,-4.1 z m -2.5,3.2 c -0.6,0.7 -1.4,1.1 -2.4,1.1 -1.1,0 -1.9,-0.4 -2.4,-1.1 -0.5,-0.7 -0.8,-1.8 -0.8,-3.1 0,-1.4 0.3,-2.4 0.8,-3.1 0.5,-0.7 1.3,-1 2.4,-1 1.1,0 1.9,0.4 2.4,1.1 0.6,0.7 0.8,1.7 0.8,3.1 0,1.2 -0.3,2.2 -0.8,3 z"
   class="st13"
   inkscape:connector-curvature="0"
   style="clip-rule:evenodd;fill:#ffffff;fill-rule:evenodd" />

		<path
   id="path5512"
   d="m 763.3,174.1 c -1.1,0.5 -2.3,0.7 -3.4,0.7 -1.1,0 -1.9,-0.3 -2.6,-1 -0.6,-0.7 -0.9,-1.6 -1,-2.9 h 7.4 v -1 c 0,-1.5 -0.4,-2.6 -1.2,-3.5 -0.8,-0.9 -1.8,-1.3 -3.2,-1.3 -1.4,0 -2.6,0.5 -3.4,1.5 -0.9,1 -1.3,2.4 -1.3,4.1 0,1.7 0.5,3.1 1.4,4 0.9,1 2.2,1.5 3.8,1.5 0.7,0 1.3,-0.1 1.9,-0.2 0.5,-0.1 1.1,-0.3 1.6,-0.5 z m -6,-6.8 c 0.5,-0.6 1.2,-0.8 2.1,-0.8 0.9,0 1.5,0.3 2,0.8 0.5,0.5 0.7,1.3 0.7,2.4 h -5.6 c -0.1,-1.1 0.2,-1.9 0.8,-2.4 z"
   class="st13"
   inkscape:connector-curvature="0"
   style="clip-rule:evenodd;fill:#ffffff;fill-rule:evenodd" />

		<path
   id="path5514"
   d="m 723.7,229.5 c -0.5,0 -1,-0.2 -1.3,-0.5 -0.3,-0.3 -0.5,-0.8 -0.5,-1.5 v -6.3 h 3.1 v -1.3 h -3 v -2.5 h -1 l -0.7,2.3 -1.5,0.7 v 0.8 h 1.5 v 6.4 c 0,2.2 1,3.3 3.1,3.3 0.3,0 0.6,0 0.9,-0.1 0.3,-0.1 0.6,-0.1 0.8,-0.2 v -1.2 c -0.2,0 -0.4,0.1 -0.6,0.1 -0.2,0 -0.5,0 -0.8,0 z"
   class="st13"
   inkscape:connector-curvature="0"
   style="clip-rule:evenodd;fill:#ffffff;fill-rule:evenodd" />

		<path
   id="path5516"
   d="m 751.3,219.7 c -0.8,0 -1.5,0.2 -2.1,0.5 -0.6,0.3 -1.1,0.8 -1.4,1.3 h -0.1 c -0.5,-1.2 -1.6,-1.8 -3.3,-1.8 -0.7,0 -1.3,0.1 -1.9,0.4 -0.6,0.3 -1,0.7 -1.3,1.2 h -0.1 l -0.3,-1.5 h -1.3 v 10.7 h 1.6 V 225 c 0,-1.4 0.2,-2.4 0.7,-3 0.5,-0.6 1.2,-0.9 2.2,-0.9 0.8,0 1.4,0.2 1.7,0.6 0.4,0.4 0.5,1.1 0.5,1.9 v 7 h 1.6 v -6 c 0,-1.2 0.2,-2.1 0.7,-2.7 0.5,-0.6 1.2,-0.9 2.2,-0.9 0.8,0 1.3,0.2 1.7,0.6 0.4,0.4 0.5,1.1 0.5,1.9 v 7 h 1.6 v -7 c 0,-1.4 -0.3,-2.4 -0.9,-3 -0.1,-0.4 -1.1,-0.8 -2.3,-0.8 z"
   class="st13"
   inkscape:connector-curvature="0"
   style="clip-rule:evenodd;fill:#ffffff;fill-rule:evenodd" />

		<path
   id="path5518"
   d="m 758.3,197.2 c -0.9,-0.3 -1.6,-0.6 -1.9,-0.8 -0.3,-0.2 -0.6,-0.4 -0.7,-0.6 -0.1,-0.2 -0.2,-0.4 -0.2,-0.7 0,-0.4 0.2,-0.8 0.6,-1 0.4,-0.2 1,-0.4 1.7,-0.4 0.9,0 1.9,0.2 2.9,0.7 l 0.6,-1.3 c -1.1,-0.5 -2.2,-0.7 -3.4,-0.7 -1.2,0 -2.2,0.3 -2.9,0.8 -0.7,0.5 -1.1,1.2 -1.1,2.1 0,0.5 0.1,0.9 0.3,1.3 0.2,0.4 0.5,0.7 0.9,0.9 0.4,0.3 1.1,0.6 2.1,1 1,0.4 1.8,0.8 2.1,1.1 0.4,0.3 0.5,0.7 0.5,1.1 0,0.6 -0.2,1 -0.7,1.2 -0.5,0.3 -1.1,0.4 -2,0.4 -0.5,0 -1.1,-0.1 -1.7,-0.2 -0.6,-0.2 -1.1,-0.4 -1.7,-0.6 v 1.5 c 0.8,0.5 1.9,0.7 3.3,0.7 1.3,0 2.4,-0.3 3.1,-0.8 0.7,-0.5 1.1,-1.3 1.1,-2.3 0,-0.7 -0.2,-1.3 -0.7,-1.8 -0.1,-0.6 -0.9,-1.1 -2.2,-1.6 z"
   class="st13"
   inkscape:connector-curvature="0"
   style="clip-rule:evenodd;fill:#ffffff;fill-rule:evenodd" />

		<path
   id="path5520"
   d="m 670.8,219.7 c -1.4,0 -2.6,0.5 -3.4,1.5 -0.9,1 -1.3,2.4 -1.3,4.1 0,1.7 0.5,3.1 1.4,4 0.9,1 2.2,1.5 3.8,1.5 0.7,0 1.3,-0.1 1.9,-0.2 0.5,-0.1 1.1,-0.3 1.6,-0.5 v -1.5 c -1.1,0.5 -2.3,0.7 -3.4,0.7 -1.1,0 -1.9,-0.3 -2.6,-1 -0.6,-0.7 -0.9,-1.6 -1,-2.9 h 7.4 v -1 c 0,-1.4 -0.4,-2.6 -1.2,-3.5 -0.8,-0.7 -1.8,-1.2 -3.2,-1.2 z m -3,4.6 c 0.1,-1 0.4,-1.8 0.9,-2.3 0.5,-0.6 1.2,-0.8 2.1,-0.8 0.9,0 1.5,0.3 2,0.8 0.5,0.5 0.7,1.3 0.7,2.4 h -5.7 z"
   class="st13"
   inkscape:connector-curvature="0"
   style="clip-rule:evenodd;fill:#ffffff;fill-rule:evenodd" />

		<path
   id="path5522"
   d="m 668.8,193.9 c 0.3,0 0.7,0 1.2,0.1 l 0.2,-1.5 c -0.4,-0.1 -0.8,-0.1 -1.3,-0.1 -0.7,0 -1.3,0.2 -1.9,0.6 -0.6,0.4 -1,0.9 -1.4,1.6 h -0.1 l -0.2,-2 H 664 v 10.7 h 1.6 v -5.8 c 0,-1 0.3,-1.9 0.9,-2.6 0.7,-0.7 1.4,-1 2.3,-1 z"
   class="st13"
   inkscape:connector-curvature="0"
   style="clip-rule:evenodd;fill:#ffffff;fill-rule:evenodd" />

		<path
   id="path5524"
   d="m 713,219.7 c -0.7,0 -1.4,0.1 -2,0.4 -0.6,0.3 -1.1,0.7 -1.4,1.2 h -0.1 l -0.3,-1.5 h -1.3 v 10.7 h 1.6 V 225 c 0,-1.4 0.3,-2.4 0.8,-3 0.5,-0.6 1.3,-0.9 2.5,-0.9 0.9,0 1.5,0.2 1.9,0.6 0.4,0.4 0.6,1.1 0.6,2 v 6.9 h 1.6 v -7 c 0,-1.4 -0.3,-2.4 -1,-3 -0.6,-0.5 -1.6,-0.9 -2.9,-0.9 z"
   class="st13"
   inkscape:connector-curvature="0"
   style="clip-rule:evenodd;fill:#ffffff;fill-rule:evenodd" />

		<path
   id="path5526"
   d="m 656.9,192.4 c -1.4,0 -2.6,0.5 -3.4,1.5 -0.9,1 -1.3,2.4 -1.3,4.1 0,1.7 0.5,3.1 1.4,4 0.9,1 2.2,1.5 3.8,1.5 0.7,0 1.3,-0.1 1.9,-0.2 0.5,-0.1 1.1,-0.3 1.6,-0.5 v -1.5 c -1.1,0.5 -2.3,0.7 -3.4,0.7 -1.1,0 -2,-0.3 -2.6,-1 -0.6,-0.7 -0.9,-1.6 -1,-2.9 h 7.4 v -1 c 0,-1.4 -0.4,-2.6 -1.2,-3.5 -0.8,-0.8 -1.9,-1.2 -3.2,-1.2 z m -3,4.5 c 0.1,-1 0.4,-1.8 0.9,-2.3 0.5,-0.6 1.2,-0.8 2.1,-0.8 0.9,0 1.5,0.3 2,0.8 0.5,0.5 0.7,1.3 0.7,2.4 h -5.7 z"
   class="st13"
   inkscape:connector-curvature="0"
   style="clip-rule:evenodd;fill:#ffffff;fill-rule:evenodd" />

		<rect
   id="rect5528"
   height="15.3"
   width="1.6"
   class="st13"
   y="215.39999"
   x="661.59998"
   style="clip-rule:evenodd;fill:#ffffff;fill-rule:evenodd" />

		<path
   id="path5530"
   d="m 678.1,201.8 0.3,1.5 h 1.2 V 196 c 0,-1.3 -0.3,-2.2 -0.9,-2.7 -0.6,-0.6 -1.6,-0.9 -2.8,-0.9 -0.6,0 -1.3,0.1 -1.9,0.2 -0.6,0.2 -1.2,0.4 -1.7,0.7 l 0.5,1.2 c 1.1,-0.5 2.1,-0.8 3,-0.8 0.8,0 1.4,0.2 1.7,0.6 0.4,0.4 0.5,1 0.5,1.9 v 0.7 l -1.8,0.1 c -3.5,0.1 -5.2,1.2 -5.2,3.4 0,1 0.3,1.8 0.9,2.3 0.6,0.5 1.4,0.8 2.5,0.8 0.8,0 1.5,-0.1 2,-0.4 0.5,-0.2 1.1,-0.6 1.7,-1.3 z M 678,199 c 0,1 -0.3,1.8 -0.9,2.3 -0.6,0.6 -1.4,0.8 -2.4,0.8 -0.6,0 -1.1,-0.2 -1.5,-0.5 -0.4,-0.3 -0.5,-0.8 -0.5,-1.3 0,-0.7 0.3,-1.3 0.9,-1.7 0.6,-0.4 1.5,-0.6 2.8,-0.6 l 1.6,-0.1 z"
   class="st13"
   inkscape:connector-curvature="0"
   style="clip-rule:evenodd;fill:#ffffff;fill-rule:evenodd" />

		<path
   id="path5532"
   d="m 700.8,219.7 c -1.4,0 -2.6,0.5 -3.4,1.5 -0.9,1 -1.3,2.4 -1.3,4.1 0,1.7 0.5,3.1 1.4,4 0.9,1 2.2,1.5 3.8,1.5 0.7,0 1.3,-0.1 1.9,-0.2 0.5,-0.1 1.1,-0.3 1.6,-0.5 v -1.5 c -1.1,0.5 -2.3,0.7 -3.4,0.7 -1.1,0 -2,-0.3 -2.6,-1 -0.6,-0.7 -0.9,-1.6 -1,-2.9 h 7.4 v -1 c 0,-1.4 -0.4,-2.6 -1.2,-3.5 -0.8,-0.7 -1.9,-1.2 -3.2,-1.2 z m -3,4.6 c 0.1,-1 0.4,-1.8 0.9,-2.3 0.5,-0.6 1.2,-0.8 2.1,-0.8 0.8,0 1.5,0.3 2,0.8 0.5,0.5 0.7,1.3 0.7,2.4 h -5.7 z"
   class="st13"
   inkscape:connector-curvature="0"
   style="clip-rule:evenodd;fill:#ffffff;fill-rule:evenodd" />

		<path
   id="path5534"
   d="m 689.7,219.7 c -0.8,0 -1.5,0.2 -2.1,0.5 -0.6,0.3 -1.1,0.8 -1.4,1.3 h -0.1 c -0.5,-1.2 -1.6,-1.8 -3.3,-1.8 -0.7,0 -1.3,0.1 -1.9,0.4 -0.6,0.3 -1,0.7 -1.3,1.2 h -0.1 l -0.3,-1.5 H 678 v 10.7 h 1.6 V 225 c 0,-1.4 0.2,-2.4 0.7,-3 0.5,-0.6 1.2,-0.9 2.2,-0.9 0.8,0 1.4,0.2 1.7,0.6 0.4,0.4 0.5,1.1 0.5,1.9 v 7 h 1.6 v -6 c 0,-1.2 0.2,-2.1 0.7,-2.7 0.5,-0.6 1.2,-0.9 2.2,-0.9 0.8,0 1.3,0.2 1.7,0.6 0.4,0.4 0.5,1.1 0.5,1.9 v 7 h 1.6 v -7 c 0,-1.4 -0.3,-2.4 -0.9,-3 -0.3,-0.4 -1.2,-0.8 -2.4,-0.8 z"
   class="st13"
   inkscape:connector-curvature="0"
   style="clip-rule:evenodd;fill:#ffffff;fill-rule:evenodd" />

		<path
   id="path5536"
   d="m 698.6,176.1 c 0.3,-0.1 0.6,-0.1 0.8,-0.2 v -1.2 c -0.2,0 -0.4,0.1 -0.6,0.1 -0.3,0 -0.5,0.1 -0.8,0.1 -0.5,0 -1,-0.2 -1.3,-0.5 -0.3,-0.3 -0.5,-0.8 -0.5,-1.5 v -6.3 h 3.1 v -1.3 h -3.1 v -2.5 h -0.9 l -0.7,2.3 -1.5,0.7 v 0.8 h 1.5 v 6.4 c 0,2.2 1,3.3 3.1,3.3 0.2,-0.1 0.5,-0.1 0.9,-0.2 z"
   class="st13"
   inkscape:connector-curvature="0"
   style="clip-rule:evenodd;fill:#ffffff;fill-rule:evenodd" />

		<path
   id="path5538"
   d="m 650,113.9 c 0,-7.5 -5.2,-11.3 -15.5,-11.3 H 622 v 38.1 h 10.3 v -13.9 h 2.6 l 8.1,13.9 h 11.7 l -11.1,-16.6 c 4.3,-2.4 6.4,-5.8 6.4,-10.2 z m -15.8,5.2 h -1.9 v -8.7 h 2 c 3.5,0 5.3,1.3 5.3,3.9 0,3.2 -1.8,4.8 -5.4,4.8 z"
   class="st13"
   inkscape:connector-curvature="0"
   style="clip-rule:evenodd;fill:#ffffff;fill-rule:evenodd" />

		<polygon
   id="polygon5540"
   points="767.2,110.9 779.6,110.9 779.6,102.6 757,102.6 757,140.7 779.6,140.7 779.6,132.3 767.2,132.3 767.2,125.1 778.7,125.1 778.7,116.9 767.2,116.9 "
   class="st13"
   style="clip-rule:evenodd;fill:#ffffff;fill-rule:evenodd" />

		<path
   id="path5542"
   d="m 597.8,126.4 h 6.8 v 6 c -1.3,0.3 -2.7,0.4 -4.2,0.4 -2.8,0 -4.9,-0.9 -6.4,-2.8 -1.5,-1.9 -2.2,-4.6 -2.2,-8.1 0,-3.6 0.8,-6.4 2.5,-8.4 1.6,-2 4,-2.9 7,-2.9 3.3,0 6.3,0.7 9,2 l 3.3,-8.1 c -1.6,-0.7 -3.4,-1.3 -5.6,-1.7 -2.1,-0.5 -4.4,-0.7 -6.8,-0.7 -6.3,0 -11.2,1.7 -14.7,5.1 -3.5,3.4 -5.3,8.2 -5.3,14.4 0,6.3 1.6,11.2 4.8,14.6 3.2,3.4 7.7,5.1 13.6,5.1 5.4,0 10.3,-0.8 14.7,-2.3 v -20.5 h -16.4 v 7.9 z"
   class="st13"
   inkscape:connector-curvature="0"
   style="clip-rule:evenodd;fill:#ffffff;fill-rule:evenodd" />

		<polygon
   id="polygon5544"
   points="668.4,110.9 680.7,110.9 680.7,102.6 658.1,102.6 658.1,140.7 680.7,140.7 680.7,132.3 668.4,132.3 668.4,125.1 679.8,125.1 679.8,116.9 668.4,116.9 "
   class="st13"
   style="clip-rule:evenodd;fill:#ffffff;fill-rule:evenodd" />

		<path
   id="path5546"
   d="m 814.3,113.9 c 0,-7.5 -5.2,-11.3 -15.5,-11.3 h -12.5 v 38.1 h 10.3 v -13.9 h 2.6 l 8.1,13.9 H 819 l -11.1,-16.6 c 4.2,-2.4 6.4,-5.8 6.4,-10.2 z m -15.8,5.2 h -1.9 v -8.7 h 2 c 3.5,0 5.3,1.3 5.3,3.9 0,3.2 -1.8,4.8 -5.4,4.8 z"
   class="st13"
   inkscape:connector-curvature="0"
   style="clip-rule:evenodd;fill:#ffffff;fill-rule:evenodd" />

		<path
   id="path5548"
   d="m 735.8,111 c 0.6,-0.5 1.6,-0.7 2.9,-0.7 2.6,0 5.7,0.8 9.2,2.4 l 3.1,-7.9 c -4.1,-1.8 -8.1,-2.7 -12.1,-2.7 -4.5,0 -8,1 -10.5,2.9 -2.6,2 -3.8,4.7 -3.8,8.2 0,1.9 0.3,3.5 0.9,4.9 0.6,1.4 1.5,2.6 2.8,3.6 1.2,1.1 3.1,2.2 5.6,3.3 2.8,1.2 4.4,2.1 5.1,2.5 0.6,0.4 1.1,0.8 1.4,1.2 0.3,0.4 0.4,0.8 0.4,1.4 0,0.8 -0.4,1.5 -1.1,2 -0.7,0.5 -1.8,0.8 -3.4,0.8 -1.8,0 -3.7,-0.3 -5.8,-0.8 -2.1,-0.6 -4.2,-1.4 -6.1,-2.4 v 9.2 c 1.9,0.9 3.6,1.5 5.4,1.9 1.7,0.4 3.8,0.5 6.4,0.5 3,0 5.7,-0.5 7.9,-1.5 2.3,-1 4,-2.4 5.2,-4.3 1.2,-1.8 1.8,-3.9 1.8,-6.3 0,-2.6 -0.6,-4.7 -1.9,-6.4 -1.3,-1.7 -3.6,-3.3 -6.8,-4.8 -3.4,-1.6 -5.5,-2.6 -6.3,-3.2 -0.8,-0.6 -1.2,-1.3 -1.2,-2 0,-0.7 0.3,-1.3 0.9,-1.8 z"
   class="st13"
   inkscape:connector-curvature="0"
   style="clip-rule:evenodd;fill:#ffffff;fill-rule:evenodd" />

		<path
   id="path5550"
   d="m 695.7,102.5 -12.4,38.3 h 11.3 l 1.9,-7.2 h 12.4 l 1.9,7.2 H 722 l -12.6,-38.3 z m 3,22.6 c 1.6,-6 2.6,-10 3.1,-12 0.5,-2 0.8,-3.5 0.9,-4.4 0.2,1 0.5,2.5 1.1,4.7 0.6,2.2 1,4 1.4,5.4 l 1.6,6.3 z"
   class="st13"
   inkscape:connector-curvature="0"
   style="clip-rule:evenodd;fill:#ffffff;fill-rule:evenodd" />

	</g>

	<path
   id="path5554"
   d="m 739.2,503.9 c -37,0 -67.3,30.3 -67.3,67.4 V 763 c 0,37 30.3,67.3 67.3,67.3 37,0 67.3,-30.3 67.3,-67.3 V 571.2 c 0.1,-37 -30.2,-67.3 -67.3,-67.3 z"
   class="st14"
   inkscape:connector-curvature="0"
   style="clip-rule:evenodd;fill:#000d1d;fill-rule:evenodd" />

	<g
   id="g5564">
		<g
   id="g5560">
			<path
   id="path5556"
   d="m 649.1,696.5 c -31.2,16.2 -43.3,54.6 -27.1,85.8 L 724.8,980 H 868.1 L 734.9,723.6 c -16.3,-31.1 -54.6,-43.3 -85.8,-27.1 z"
   class="st15"
   inkscape:connector-curvature="0"
   style="clip-rule:evenodd;fill:#085275;fill-rule:evenodd" />

			<path
   id="path5558"
   d="m 639.3,791.8 c -33.5,-10.3 -69,8.5 -79.3,42 L 515.1,980 h 132.8 l 33.5,-109 c 10.2,-33.4 -8.6,-68.9 -42.1,-79.2 z"
   class="st16"
   inkscape:connector-curvature="0"
   style="clip-rule:evenodd;fill:#0f5a7e;fill-rule:evenodd" />

		</g>

		<circle
   id="circle5562"
   r="83.099998"
   cy="837.40002"
   cx="627.59998"
   class="st16"
   style="clip-rule:evenodd;fill:#0f5a7e;fill-rule:evenodd" />

	</g>

	<circle
   id="circle5566"
   r="106"
   cy="774.09998"
   cx="583.59998"
   class="st14"
   style="clip-rule:evenodd;fill:#000d1d;fill-rule:evenodd" />

	<g
   id="g6013">
  <path
     style="clip-rule:evenodd;fill:#f7c59f;fill-rule:evenodd"
     inkscape:connector-curvature="0"
     class="st17"
     d="m 780.3,527.1 c -13.8,-21.7 -42.7,-28.1 -64.4,-14.3 -21.7,13.8 -28.1,42.7 -14.3,64.4 L 799,729.9 c 13.8,21.7 42.7,28.1 64.4,14.3 21.7,-13.8 28.1,-42.7 14.3,-64.4 z"
     id="path5568" />
</g>

	<ellipse
   id="ellipse5570"
   ry="54"
   rx="53.900002"
   cy="510.20001"
   cx="744.5"
   class="st14"
   style="clip-rule:evenodd;fill:#000d1d;fill-rule:evenodd" />

	<path
   id="path5572"
   d="m 709.9,502.4 c -38.6,0 -70.3,31.6 -70.3,70.3 v 154 c 0,38.7 31.6,70.3 70.3,70.3 38.7,0 70.3,-31.6 70.3,-70.3 v -154 c 0,-38.7 -31.6,-70.3 -70.3,-70.3 z"
   class="st9"
   inkscape:connector-curvature="0"
   style="clip-rule:evenodd;fill:#e7e5e4;fill-rule:evenodd" />

	<polygon
   id="polygon5574"
   points="741,552.2 777.4,372.8 651.9,372.8 615.4,552.2 "
   class="st17"
   style="clip-rule:evenodd;fill:#f7c59f;fill-rule:evenodd" />

	<path
   id="path5576"
   d="m 651.9,372.8 -11.8,58 -24.6,121.4 h 34.8 l 18.3,-90.3 c 12.8,8.2 28,13 44.3,13 17.4,0 33.6,-5.4 46.9,-14.7 l 17.7,-87.4 h -90.8 z"
   class="st18"
   inkscape:connector-curvature="0"
   style="clip-rule:evenodd;fill:#e38969;fill-rule:evenodd" />

	<path
   id="path5578"
   d="m 730,523.7 h -62.3 c -11.5,0 -20.8,9.4 -20.8,20.8 0,11.5 9.4,20.8 20.8,20.8 H 730 c 11.5,0 20.8,-9.4 20.8,-20.8 0.1,-11.5 -9.3,-20.8 -20.8,-20.8 z"
   class="st17"
   inkscape:connector-curvature="0"
   style="clip-rule:evenodd;fill:#f7c59f;fill-rule:evenodd" />

	<path
   id="path5580"
   d="m 637.4,479.7 c -37,0 -67.3,30.3 -67.3,67.3 v 237.3 c 0,37 30.3,67.4 67.3,67.4 37,0 67.4,-30.3 67.4,-67.4 V 547 c 0,-37 -30.3,-67.3 -67.4,-67.3 z"
   class="st14"
   inkscape:connector-curvature="0"
   style="clip-rule:evenodd;fill:#000d1d;fill-rule:evenodd" />

	<path
   id="path5582"
   d="m 570.1,551.3 v 233 c 0,0.3 0,0.5 0,0.8 34.6,-26.3 57.1,-68.8 57.1,-116.9 0,-48.1 -22.5,-90.6 -57.1,-116.9 z"
   class="st19"
   inkscape:connector-curvature="0"
   style="clip-rule:evenodd;fill:#000511;fill-rule:evenodd" />

	<path
   id="path5584"
   d="m 630.8,442.4 c -37.1,0 -62.8,30 -57.5,67.1 5.3,37.1 39.6,67.1 76.6,67.1 37,0 62.8,-30 57.5,-67.1 -5.3,-37.1 -39.6,-67.1 -76.6,-67.1 z"
   class="st14"
   inkscape:connector-curvature="0"
   style="clip-rule:evenodd;fill:#000d1d;fill-rule:evenodd" />

	<circle
   id="circle5586"
   r="82"
   cy="382.60001"
   cx="733.70001"
   class="st17"
   style="clip-rule:evenodd;fill:#f7c59f;fill-rule:evenodd" />

	<g
   id="g5594">
		<circle
   id="circle5588"
   r="6.0999999"
   cy="457.29999"
   cx="804.5"
   class="st20"
   style="clip-rule:evenodd;fill:#969697;fill-rule:evenodd" />

		<path
   id="path5590"
   d="m 820.3,447.8 h -10.2 c -2,0 -3.6,1.6 -3.6,3.6 v 13.3 c 0,2 1.6,3.6 3.6,3.6 h 10.2 c 2,0 3.6,-1.6 3.6,-3.6 v -13.3 c 0,-2 -1.6,-3.6 -3.6,-3.6 z"
   class="st8"
   inkscape:connector-curvature="0"
   style="clip-rule:evenodd;fill:#cacacb;fill-rule:evenodd" />

		<path
   id="path5592"
   d="m 821.4,455.8 h -20.5 c -4,0 -7.3,3.3 -7.3,7.3 v 26.8 c 0,4 3.3,7.3 7.3,7.3 h 20.5 c 4,0 7.3,-3.3 7.3,-7.3 v -26.8 c -0.1,-4 -3.3,-7.3 -7.3,-7.3 z"
   class="st11"
   inkscape:connector-curvature="0"
   style="clip-rule:evenodd;fill:#7f7d7c;fill-rule:evenodd" />

	</g>

	
	<path
   id="path5598"
   d="m 622.1,494.3 c -22.7,-12.2 -51.1,-3.7 -63.3,19 l -100,185.1 c -12.2,22.7 -3.7,51.1 19,63.3 22.7,12.2 51.1,3.7 63.3,-19 l 100,-185.2 c 12.3,-22.7 3.8,-51 -19,-63.2 z"
   class="st14"
   inkscape:connector-curvature="0"
   style="clip-rule:evenodd;fill:#000d1d;fill-rule:evenodd" />

	<circle
   id="circle5600"
   r="77.699997"
   cy="719.29999"
   cx="507.60001"
   class="st21"
   style="clip-rule:evenodd;fill:#021629;fill-rule:evenodd" />

	<path
   id="path5602"
   d="m 492.9,704.1 c -21.9,13.5 -28.7,42.3 -15.2,64.2 L 560,901 644.8,860.8 557.1,719.3 c -13.5,-22 -42.3,-28.8 -64.2,-15.2 z"
   class="st17"
   inkscape:connector-curvature="0"
   style="clip-rule:evenodd;fill:#f7c59f;fill-rule:evenodd" />

	<path
   id="path5604"
   d="m 733.7,300.6 c -5.3,0 -10.6,0.5 -15.6,1.5 44.4,1 80,37.3 80,82 0,39.9 -28.6,73.2 -66.4,80.5 0.7,0 1.3,0 2,0 45.3,0 82,-36.7 82,-82 0,-45.3 -36.8,-82 -82,-82 z"
   class="st22"
   inkscape:connector-curvature="0"
   style="clip-rule:evenodd;fill:#fad8bc;fill-rule:evenodd" />

	<circle
   id="circle5606"
   r="54.200001"
   cy="320.5"
   cx="819.29999"
   class="st14"
   style="clip-rule:evenodd;fill:#000d1d;fill-rule:evenodd" />

	<path
   id="path5608"
   d="m 811.7,311.9 c -10.1,-11.1 -22.2,-19.8 -35.4,-25.7 -13.3,-5.9 -27.8,-9 -42.7,-9 -18,0 -35.4,4.6 -50.8,13.1 -15.3,8.4 -28.6,20.7 -38.2,35.9 -6.9,10.9 -3.7,25.4 7.2,32.3 0.6,0.4 1.2,0.8 1.9,1.1 2.1,14 14.2,24.8 28.8,24.8 16.1,0 29.1,-13 29.1,-29.1 v -0.6 c 2.2,-1.8 4.6,-3.4 7.1,-4.8 6.9,-3.8 14.8,-5.9 23,-5.9 6.8,0 13.4,1.4 19.4,4.1 6.1,2.7 11.6,6.6 16,11.5 8.6,9.6 23.4,10.3 32.9,1.6 7.3,-6.6 9.5,-16.8 6.2,-25.5 3,-7.8 1.6,-17.1 -4.5,-23.8 z"
   class="st14"
   inkscape:connector-curvature="0"
   style="clip-rule:evenodd;fill:#000d1d;fill-rule:evenodd" />

	<path
   id="path5610"
   d="m 768.8,429.9 h -8.6 c -4.3,0 -7.9,3.5 -7.9,7.9 v 0 c 0,4.3 3.5,7.9 7.9,7.9 h 8.6 c 4.3,0 7.9,-3.5 7.9,-7.9 v 0 c -0.1,-4.4 -3.6,-7.9 -7.9,-7.9 z"
   class="st23"
   inkscape:connector-curvature="0"
   style="clip-rule:evenodd;fill:#612424;fill-rule:evenodd" />

	<g
   id="g5618">
		<path
   id="path5612"
   d="m 794.2,431.9 h -25.4 c -3.5,0 -6.4,2.9 -6.4,6.4 v 0 c 0,3.5 2.9,6.4 6.4,6.4 h 25.4 c 3.5,0 6.4,-2.9 6.4,-6.4 v 0 c 0,-3.6 -2.9,-6.4 -6.4,-6.4 z"
   class="st9"
   inkscape:connector-curvature="0"
   style="clip-rule:evenodd;fill:#e7e5e4;fill-rule:evenodd" />

		<path
   id="path5614"
   d="m 794.5,431.9 h -6.1 c -3.4,0 -6.1,2.7 -6.1,6.1 v 0.6 c 0,3.4 2.7,6.1 6.1,6.1 h 6.1 c 3.4,0 6.1,-2.7 6.1,-6.1 V 438 c 0,-3.4 -2.7,-6.1 -6.1,-6.1 z"
   class="st24"
   inkscape:connector-curvature="0"
   style="clip-rule:evenodd;fill:#cf6614;fill-rule:evenodd" />

		<circle
   id="circle5616"
   r="6.4000001"
   cy="438.29999"
   cx="794.70001"
   class="st25"
   style="clip-rule:evenodd;fill:#ea6001;fill-rule:evenodd" />

	</g>

	<path
   id="path5620"
   d="m 794.6,335.8 c -4.1,1.3 -6.3,5.7 -4.9,9.8 1.1,3.3 1.2,6.7 0.4,9.9 -0.8,3.2 -2.4,6.2 -4.9,8.6 -2.1,2 -4.5,3.5 -7.2,4.4 -2.7,0.9 -5.6,1.1 -8.4,0.6 -4.2,-0.7 -8.2,2.2 -8.9,6.4 -0.7,4.2 2.2,8.2 6.4,8.9 5.3,0.9 10.6,0.4 15.6,-1.2 5,-1.6 9.6,-4.4 13.4,-8.1 4.5,-4.5 7.6,-10.1 9,-16.1 1.4,-6 1.2,-12.3 -0.8,-18.4 -1.2,-3.9 -5.6,-6.1 -9.7,-4.8 z"
   class="st14"
   inkscape:connector-curvature="0"
   style="clip-rule:evenodd;fill:#000d1d;fill-rule:evenodd" />

	<path
   id="path5622"
   d="m 730.6,385.6 c -3.4,-1.6 -7.5,-0.2 -9.1,3.2 -1.6,3.4 -0.2,7.5 3.2,9.1 3.4,1.6 7.5,0.2 9.2,-3.2 1.6,-3.4 0.1,-7.5 -3.3,-9.1 z"
   class="st23"
   inkscape:connector-curvature="0"
   style="clip-rule:evenodd;fill:#612424;fill-rule:evenodd" />

	
		<circle
   id="ellipse5624"
   cy="405.39999"
   cx="784.59998"
   class="st23"
   transform="matrix(0.03258963,-0.9995,0.9995,0.03258963,353.7893,1176.3439)"
   r="6.9000001"
   style="clip-rule:evenodd;fill:#612424;fill-rule:evenodd" />

	<path
   id="path5626"
   d="m 738.9,383.5 -14.5,-6.9 c -3.2,-1.5 -7,-0.2 -8.5,3 -1.5,3.2 -0.2,7 3,8.5 l 14.5,6.9 c 3.2,1.5 7,0.2 8.5,-3 1.6,-3.2 0.2,-7 -3,-8.5 z"
   class="st14"
   inkscape:connector-curvature="0"
   style="clip-rule:evenodd;fill:#000d1d;fill-rule:evenodd" />

	<path
   id="path5628"
   d="m 794.5,393.4 -16.1,-0.5 c -3.5,-0.1 -6.5,2.7 -6.6,6.2 -0.1,3.5 2.7,6.5 6.2,6.6 l 16.1,0.5 c 3.5,0.1 6.5,-2.7 6.6,-6.2 0.1,-3.5 -2.7,-6.5 -6.2,-6.6 z"
   class="st14"
   inkscape:connector-curvature="0"
   style="clip-rule:evenodd;fill:#000d1d;fill-rule:evenodd" />

	<circle
   id="circle5630"
   r="21.700001"
   cy="368.39999"
   cx="661.20001"
   class="st17"
   style="clip-rule:evenodd;fill:#f7c59f;fill-rule:evenodd" />

	<circle
   id="circle5632"
   r="6.8000002"
   cy="368.39999"
   cx="661.20001"
   class="st18"
   style="clip-rule:evenodd;fill:#e38969;fill-rule:evenodd" />

	<path
   id="path5634"
   d="m 704.8,297.1 c -5.7,1.9 -11.2,4.4 -16.3,7.4 -5.1,3 -10,6.5 -14.5,10.5 -3.4,3 -3.8,8.3 -0.7,11.7 3,3.4 8.3,3.8 11.7,0.7 3.6,-3.2 7.6,-6.1 11.9,-8.5 4.2,-2.4 8.7,-4.5 13.3,-6 4.3,-1.5 6.7,-6.2 5.2,-10.5 -1.5,-4.4 -6.3,-6.8 -10.6,-5.3 z"
   class="st26"
   inkscape:connector-curvature="0"
   style="clip-rule:evenodd;fill:#1a293d;fill-rule:evenodd" />

	<path
   id="path5636"
   d="m 836.4,279.5 c -6.1,1.4 -5.3,9.8 1.8,18.8 7.2,9 17.9,15.1 24.1,13.7 6.1,-1.4 5.3,-9.8 -1.8,-18.8 -7.2,-8.9 -18,-15.1 -24.1,-13.7 z"
   class="st26"
   inkscape:connector-curvature="0"
   style="clip-rule:evenodd;fill:#1a293d;fill-rule:evenodd" />

	<path
   id="path5638"
   d="m 617.1,491 h -56.7 c -4.3,0 -7.9,3.5 -7.9,7.9 0,4.3 3.5,7.9 7.9,7.9 h 56.7 c 4.3,0 7.9,-3.5 7.9,-7.9 0,-4.4 -3.5,-7.9 -7.9,-7.9 z"
   class="st21"
   inkscape:connector-curvature="0"
   style="clip-rule:evenodd;fill:#021629;fill-rule:evenodd" />

	<g
   id="gForearmL"
   transform="translate(102,-16)">
  <path
     style="clip-rule:evenodd;fill:#f7c59f;fill-rule:evenodd"
     inkscape:connector-curvature="0"
     class="st17"
     d="m 860.2,504.6 c -3.1,-25.6 -26.4,-43.8 -52,-40.6 -25.6,3.1 -43.8,26.4 -40.6,52 L 792,710.5 c 3.1,25.6 26.4,43.8 52,40.6 25.6,-3.1 43.8,-26.4 40.6,-52 z"
     id="path5596" />
  <path
     style="clip-rule:evenodd;fill:#fad8bc;fill-rule:evenodd"
     inkscape:connector-curvature="0"
     class="st22"
     d="m 864.9,542.4 c -1.8,-14.6 -15.1,-25 -29.7,-23.2 -14.6,1.8 -25,15.1 -23.2,29.6 l 14,111 c 1.8,14.6 15.1,25 29.7,23.2 14.6,-1.8 25,-15.1 23.2,-29.7 z"
     id="path5640" />
</g>

	<path
   id="path5642"
   d="m 558.4,741.1 c -6.4,-10.4 -20.1,-13.6 -30.5,-7.2 -10.4,6.4 -13.7,20.1 -7.2,30.5 l 49.5,80 c 6.4,10.4 20.1,13.7 30.5,7.2 10.4,-6.4 13.6,-20.1 7.2,-30.5 z"
   class="st22"
   inkscape:connector-curvature="0"
   style="clip-rule:evenodd;fill:#fad8bc;fill-rule:evenodd" />

	<path
   id="path5644"
   d="m 652.6,575.5 51.9,170.9 V 540 h -26.2 c -14.4,0 -34.5,6.5 -25.7,35.5 z"
   class="st19"
   inkscape:connector-curvature="0"
   style="clip-rule:evenodd;fill:#000511;fill-rule:evenodd" />

	<circle
   id="circle5646"
   r="8.3000002"
   cy="518.79999"
   cx="682.5"
   class="st3"
   style="clip-rule:evenodd;fill:#444545;fill-rule:evenodd" />

	<circle
   id="circle5648"
   r="8.3000002"
   cy="716.79999"
   cx="682"
   class="st3"
   style="clip-rule:evenodd;fill:#444545;fill-rule:evenodd" />

	<circle
   id="circle5650"
   r="8.3000002"
   cy="760.59998"
   cx="682"
   class="st3"
   style="clip-rule:evenodd;fill:#444545;fill-rule:evenodd" />

	
	
	
	
	
</g>
  </g>
  <style
     id="style5186"
     type="text/css">
	.st0{fill-rule:evenodd;clip-rule:evenodd;fill:#A23F30;}
	.st1{fill-rule:evenodd;clip-rule:evenodd;fill:#902E23;}
	.st2{fill-rule:evenodd;clip-rule:evenodd;fill:#712C1E;}
	.st3{fill-rule:evenodd;clip-rule:evenodd;fill:#444545;}
	.st4{fill-rule:evenodd;clip-rule:evenodd;fill:#A34A3B;}
	.st5{fill-rule:evenodd;clip-rule:evenodd;fill:#111111;}
	.st6{fill-rule:evenodd;clip-rule:evenodd;fill:#242424;}
	.st7{fill-rule:evenodd;clip-rule:evenodd;fill:#303030;}
	.st8{fill-rule:evenodd;clip-rule:evenodd;fill:#CACACB;}
	.st9{fill-rule:evenodd;clip-rule:evenodd;fill:#E7E5E4;}
	.st10{fill-rule:evenodd;clip-rule:evenodd;fill:#616060;}
	.st11{fill-rule:evenodd;clip-rule:evenodd;fill:#7F7D7C;}
	.st12{fill-rule:evenodd;clip-rule:evenodd;}
	.st13{fill-rule:evenodd;clip-rule:evenodd;fill:#FFFFFF;}
	.st14{fill-rule:evenodd;clip-rule:evenodd;fill:#000D1D;}
	.st15{fill-rule:evenodd;clip-rule:evenodd;fill:#085275;}
	.st16{fill-rule:evenodd;clip-rule:evenodd;fill:#0F5A7E;}
	.st17{fill-rule:evenodd;clip-rule:evenodd;fill:#F7C59F;}
	.st18{fill-rule:evenodd;clip-rule:evenodd;fill:#E38969;}
	.st19{fill-rule:evenodd;clip-rule:evenodd;fill:#000511;}
	.st20{fill-rule:evenodd;clip-rule:evenodd;fill:#969697;}
	.st21{fill-rule:evenodd;clip-rule:evenodd;fill:#021629;}
	.st22{fill-rule:evenodd;clip-rule:evenodd;fill:#FAD8BC;}
	.st23{fill-rule:evenodd;clip-rule:evenodd;fill:#612424;}
	.st24{fill-rule:evenodd;clip-rule:evenodd;fill:#CF6614;}
	.st25{fill-rule:evenodd;clip-rule:evenodd;fill:#EA6001;}
	.st26{fill-rule:evenodd;clip-rule:evenodd;fill:#1A293D;}
</style>
</svg>
