<svg xmlns="http://www.w3.org/2000/svg">
<defs>
<font
       horiz-origin-y="253"
       id="Violence"
       horiz-adv-x="1000">
      <font-face
         font-family="SVGFont"
         font-weight="400"
         font-stretch="normal"
         units-per-em="1000"
         panose-1="5 1 1 1 1 1 1 1 1 1"
         ascent="692"
         descent="225"
         x-height="476"
         cap-height="643"
         bbox="16.1951 -0.555556 4431.18 1425.32"
         underline-thickness="100"
         underline-position="-323"
         unicode-range="U+000D-FB02"
         id="font-face22703" />
      <missing-glyph
         horiz-adv-x="1024"
         d="M128 0v1238h768v-1238h-768zM276 148h472v942h-472v-942z"
         id="missing-glyph22705" />
      <glyph
         glyph-name=".notdef"
         horiz-adv-x="1024"
         d="M128 0v1238h768v-1238h-768zM276 148h472v942h-472v-942z"
         id="glyph22707" />
      <glyph
         glyph-name=".notdef"
         horiz-adv-x="1024"
         d="M128 0v1238h768v-1238h-768zM276 148h472v942h-472v-942z"
         id="glyph22709" />
      <glyph
         glyph-name=".notdef"
         horiz-adv-x="1024"
         d="M128 0v1238h768v-1238h-768zM276 148h472v942h-472v-942z"
         id="glyph22711" />
      <glyph
         glyph-name=".notdef"
         horiz-adv-x="1024"
         d="M128 0v1238h768v-1238h-768zM276 148h472v942h-472v-942z"
         id="glyph22713" />
      <glyph
         glyph-name=".notdef"
         horiz-adv-x="1024"
         d="M128 0v1238h768v-1238h-768zM276 148h472v942h-472v-942z"
         id="glyph22715" />
      <glyph
         glyph-name=".notdef"
         horiz-adv-x="1024"
         d="M128 0v1238h768v-1238h-768zM276 148h472v942h-472v-942z"
         id="glyph22717" />
      <glyph
         glyph-name=".notdef"
         horiz-adv-x="1024"
         d="M128 0v1238h768v-1238h-768zM276 148h472v942h-472v-942z"
         id="glyph22719" />
      <glyph
         glyph-name=".notdef"
         horiz-adv-x="1024"
         d="M128 0v1238h768v-1238h-768zM276 148h472v942h-472v-942z"
         id="glyph22721" />
      <glyph
         glyph-name=".notdef"
         horiz-adv-x="1024"
         d="M128 0v1238h768v-1238h-768zM276 148h472v942h-472v-942z"
         id="glyph22723" />
      <glyph
         glyph-name=".notdef"
         horiz-adv-x="1024"
         d="M128 0v1238h768v-1238h-768zM276 148h472v942h-472v-942z"
         id="glyph22725" />
      <glyph
         glyph-name=".notdef"
         horiz-adv-x="1024"
         d="M128 0v1238h768v-1238h-768zM276 148h472v942h-472v-942z"
         id="glyph22727" />
      <glyph
         glyph-name=".notdef"
         horiz-adv-x="1024"
         d="M128 0v1238h768v-1238h-768zM276 148h472v942h-472v-942z"
         id="glyph22729" />
      <glyph
         glyph-name=".notdef"
         horiz-adv-x="1024"
         d="M128 0v1238h768v-1238h-768zM276 148h472v942h-472v-942z"
         id="glyph22731" />
      <glyph
         glyph-name=".notdef"
         horiz-adv-x="1024"
         d="M128 0v1238h768v-1238h-768zM276 148h472v942h-472v-942z"
         id="glyph22733" />
      <glyph
         glyph-name=".notdef"
         horiz-adv-x="1024"
         d="M128 0v1238h768v-1238h-768zM276 148h472v942h-472v-942z"
         id="glyph22735" />
      <glyph
         glyph-name=".notdef"
         horiz-adv-x="1024"
         d="M128 0v1238h768v-1238h-768zM276 148h472v942h-472v-942z"
         id="glyph22737" />
      <glyph
         glyph-name=".notdef"
         horiz-adv-x="1024"
         d="M128 0v1238h768v-1238h-768zM276 148h472v942h-472v-942z"
         id="glyph22739" />
      <glyph
         glyph-name=".notdef"
         horiz-adv-x="1024"
         d="M128 0v1238h768v-1238h-768zM276 148h472v942h-472v-942z"
         id="glyph22741" />
      <glyph
         glyph-name=".notdef"
         horiz-adv-x="1024"
         d="M128 0v1238h768v-1238h-768zM276 148h472v942h-472v-942z"
         id="glyph22743" />
      <glyph
         glyph-name=".notdef"
         horiz-adv-x="1024"
         d="M128 0v1238h768v-1238h-768zM276 148h472v942h-472v-942z"
         id="glyph22745" />
      <glyph
         glyph-name=".notdef"
         unicode=" "
         horiz-adv-x="1024"
         d="M128 0v1238h768v-1238h-768zM276 148h472v942h-472v-942z"
         id="glyph22747" />
      <glyph
         glyph-name=".notdef"
         horiz-adv-x="1024"
         d="M128 0v1238h768v-1238h-768zM276 148h472v942h-472v-942z"
         id="glyph22749" />
      <glyph
         glyph-name=".notdef"
         horiz-adv-x="1024"
         d="M128 0v1238h768v-1238h-768zM276 148h472v942h-472v-942z"
         id="glyph22751" />
      <glyph
         glyph-name=".notdef"
         horiz-adv-x="1024"
         d="M128 0v1238h768v-1238h-768zM276 148h472v942h-472v-942z"
         id="glyph22753" />
      <glyph
         glyph-name=".notdef"
         horiz-adv-x="1024"
         d="M128 0v1238h768v-1238h-768zM276 148h472v942h-472v-942z"
         id="glyph22755" />
      <glyph
         glyph-name=".notdef"
         horiz-adv-x="1024"
         d="M128 0v1238h768v-1238h-768zM276 148h472v942h-472v-942z"
         id="glyph22757" />
      <glyph
         glyph-name=".notdef"
         horiz-adv-x="1024"
         d="M128 0v1238h768v-1238h-768zM276 148h472v942h-472v-942z"
         id="glyph22759" />
      <glyph
         glyph-name=".notdef"
         horiz-adv-x="1024"
         d="M128 0v1238h768v-1238h-768zM276 148h472v942h-472v-942z"
         id="glyph22761" />
      <glyph
         glyph-name="uni001D"
         horiz-adv-x="0"
         id="glyph22763" />
      <glyph
         glyph-name="uni001D"
         horiz-adv-x="0"
         id="glyph22765" />
      <glyph
         glyph-name="uni001D"
         horiz-adv-x="0"
         id="glyph22767" />
      <glyph
         glyph-name="uni000D"
         unicode=" "
         horiz-adv-x="1024"
         id="glyph22769" />
      <glyph
         glyph-name="space"
         unicode=" "
         horiz-adv-x="1024"
         id="glyph22771" />
      <glyph
         glyph-name="space"
         unicode=" "
         horiz-adv-x="1024"
         id="glyph22773" />
      <glyph
         glyph-name="exclam"
         unicode="!"
         horiz-adv-x="1417"
         d="M725 42q0 -17 -14 -17q-15 0 -15 17v136h-27v-134q0 -44 41 -44t41 44v134h-26v-136zM762 153h29v-151h27v151h29v25h-85v-25zM851 153h29v-151h27v151h29v25h-85v-25zM369 136v-92q0 -44 42 -44t42 44v92q0 44 -42 44t-42 -44zM471 178v-176h43q42 0 42 44v88 q0 44 -42 44h-43zM571 136v-92q0 -44 41 -44t41 44v24h-26v-25q0 -17 -14 -17q-15 0 -15 17v94q0 18 15 18q14 0 14 -18v-18h26v17q0 44 -41 44t-41 -44zM1188 2h75v25h-47v52h38v25h-38v49h47v25h-75v-176zM1318 155q14 0 14 -18v-7h26v6q0 44 -40 44q-41 0 -41 -44 q0 -27 27 -52t27 -41q0 -17 -14 -17q-15 0 -15 17v12h-26v-11q0 -44 41 -44t41 44q0 27 -27 52t-27 41q0 18 14 18zM1123 51q0 29 -18 37q18 9 18 36v13q0 41 -41 41h-41v-176h27v72h10q18 0 18 -23v-27q0 -14 2 -22h28q-3 7 -3 22v27zM1141 2h27v27h-27v-27zM948 2h76v25 h-48v52h38v25h-38v49h48v25h-76v-176zM220 38l-14 140h-26l-14 -139l-15 139h-26l19 -176h38l10 94l10 -94h37l19 176h-24zM270 136v-92q0 -44 42 -44t42 44v92q0 44 -42 44t-42 -44zM275 208h49v312h-49v-312zM204 208l48 312h-45l-37 -254l-38 254h-49l48 -312h73z M687 208h134v45h-85v91h68v45h-68v87h85v44h-134v-312zM1348 476v44h-134v-312h134v45h-85v91h67v45h-67v87h85zM851 208h44v226l61 -226h51v312h-44v-186l-50 186h-62v-312zM1038 445v-162q0 -78 73 -78t73 78v42h-46v-45q0 -30 -26 -30q-25 0 -25 30v169q0 30 25 30 q26 0 26 -30v-34h46v30q0 79 -73 79t-73 -79zM505 283v162q0 79 -75 79q-74 0 -74 -79v-162q0 -78 74 -78q75 0 75 78zM585 520h-49v-312h130v45h-81v267zM480 1236q-1 14 -26 34q-16 13 -33 2q-17 -12 -18 -36q7 1 11 10q4 8 9 9q13 3 26 -14q15 -20 21 -23q11 15 10 18z M295 1203q-1 -4 -13 -5q0 5 13 5zM259 1192q21 1 18 3q-1 -2 -5 -3q-4 -2 -5 -4q6 -6 4 -12q33 2 40 13q0 1 -3 2t-3 3l13 4q1 3 -2 5q-4 1 -3 4q7 1 6 6q-51 0 -60 -21zM362 1089q12 15 64 30q-6 9 -29 1q-44 -14 -55 -61q-3 -1 20 30zM457 1195q2 12 -3 21q-20 10 -22 -14 q-1 -9 3 -15q5 -8 12 -7q9 1 10 15zM234 1206q8 1 28 10q17 8 29 7l-44 -22q12 2 36 11q23 8 36 11q1 3 -3 4t-3 4q11 2 11 5q-56 2 -90 -30zM238 1115q18 -2 17 12q-18 -4 -19 -4q-10 -1 -11 6t12 13q14 6 16 13q-4 18 -19 21q-13 3 -28 -7q-14 -9 -18 -22q-4 -15 10 -25 q0 7 -2 12t-2 8q1 11 14 21q15 12 28 7q9 -3 8 -13q-1 -5 -15 -13q-13 -7 -10 -17q2 -10 19 -12zM620 822q-6 -82 -63 -167q-11 -15 -10 -18q33 17 59 84q22 57 18 105h-4v-4zM851 812q2 -5 4 -6q5 -6 13 -3q-1 8 -30 35q-44 41 -47 46q-3 -1 -7 1q-3 2 -5 0q1 -6 33 -35 q33 -30 35 -32q1 -2 4 -6zM265 1254q-8 -1 -11 -1q-4 -2 -11 -6q-8 -5 -10 -6q-18 -8 -20 -15q18 10 54 20q46 12 57 17q-13 2 -44 -7q-6 -1 -15 -2zM216 1213q15 2 41 16q26 13 42 15q28 3 30 6q-64 6 -113 -37zM197 1236q7 2 42 15q57 22 56 21q-73 -10 -98 -36zM256 1314 q-44 -14 -60 -42q52 40 115 40q31 0 35 5q-46 11 -90 -3zM687 1236q2 33 -2 51q-1 0 -2 1h-2q-11 -76 -1 -124q6 1 5 7v6q-1 3 -1 4q0 10 3 55zM1130 1179q-35 -2 -55 -46q-6 -1 32 31q24 20 23 15zM1069 1294q-14 8 -15 15q-8 -1 -14 5q-7 8 -12 9h-2q2 -13 14 -20 q3 -2 11 -7q7 -4 10 -6q18 -15 17 -14q4 11 -9 18zM444 649q-2 3 -32 30q4 -28 32 -30zM1005 1307q-3 -8 5 -13q8 -4 17 -1q9 -12 39 -24q-1 10 -14 16q-15 7 -17 13zM1176 1242q1 13 -8 14q-14 3 -16 -16t17 -17q6 8 7 19zM638 1242q-19 83 -20 86q-2 0 -4 -1t-4 -1 q0 -27 18 -89q21 -75 27 -82q-4 32 -17 87zM602 1197q-20 46 -34 71q-2 -3 -7 -4l52 -108l3 -9q2 -7 4 -10q5 -11 14 -11q-9 19 -32 71zM724 791q11 -54 12 -67q0 -2 -1 -6v-7q0 -7 7 -8q2 32 -9 80q-11 55 -12 79q-1 2 -3 2q-4 -29 6 -73zM562 1147q8 -14 26 -38 q22 -28 28 -38q15 -22 23 -22q-4 12 -21 31q-16 18 -19 33q-9 4 -17 19q-9 16 -16 20q-3 1 -4 -5zM998 1233q6 -5 6 -10q-8 -24 -7 -20q16 0 14 21q-3 21 -18 18q0 -5 5 -9zM1045 1262q-1 0 4 -8q2 -4 7 -4q3 12 -10 18q-18 8 -20 13q2 0 -21 -4q1 14 -14 12q-16 -2 -15 -15 q4 0 7 3q2 4 6 4q21 -12 32 -5q1 -3 6 -7q4 -4 5 -7h13zM679 908q-1 -3 0 -4q14 -49 5 -117q0 -1 -29 -100q30 32 40 101q11 72 -12 120h-4zM724 1211q-15 -38 -16 -49q19 10 20 49h-4zM768 773q29 -62 31 -68q2 -4 4 -12q2 -10 3 -13q5 -15 18 -16q1 7 -18 46 q-22 43 -42 93q-18 43 -20 47h-3q1 -4 0 -4q7 -29 27 -73zM782 829q4 -6 9 -16l7 -14q7 -11 20 -29q18 -22 22 -28q3 -5 11 -14q7 -9 11 -14q2 -3 4 -9q3 -6 5 -9q6 -9 15 -9q0 9 -27 46q-8 11 -46 64q-27 39 -47 63q3 0 -2 1q-2 -6 18 -32zM867 1284q2 0 13 -13 q-6 15 -13 13zM149 860q-7 -2 -35 -11q-21 -7 -37 -10q0 4 -2 6q10 14 70 28q-1 0 4 -13zM183 796q-1 6 -4 7q-6 -3 -2 -18q5 -15 -3 -19q-4 -1 -9 3q-6 5 -9 6q-4 0 -11 -3q-8 -3 -10 -4q-27 -3 -42 16q-15 20 -5 48q31 11 59 19h2q17 -1 34 -23q18 -24 4 -39q-2 1 -4 7z M291 1005q24 -16 36 -19q-1 -5 0 -14q1 -8 1 -13q-12 5 -36 22q-22 16 -38 21q0 3 -1 10q-2 6 0 9q17 -3 38 -16zM342 968q-3 0 -10 4q-1 3 1 10q10 -1 9 -14zM332 959q8 5 13 -2q4 -6 4 -17q-17 6 -17 19zM408 829q-1 6 -7 10q-8 6 -10 8q0 14 4 26q25 -8 60 -3 q4 7 -36 -49q-22 -31 -25 -63q2 1 10 24q10 26 47 61q42 39 52 58q27 19 69 62q31 -20 44 -88q-67 -82 -99 -100q-119 -68 -131 -69q-34 -4 -54 13q-27 21 -24 39q1 9 50 36q39 21 50 35zM353 956q18 -7 29 -26q11 -22 7 -49q-28 40 -36 75zM562 964q-3 -9 -23 -20 q-7 5 -3 32q-9 -4 -8 -18q0 -13 7 -19l-16 -16q-9 -9 -17 -14q-9 25 3 53q13 31 36 25q6 -2 21 -23zM614 958q19 -36 27 -46q1 8 -4 15q-5 8 -5 13q3 0 8 1q5 2 9 1q14 -14 3 -29q-10 -16 -29 -15q-18 49 -46 72q-2 1 -6 0q-3 -1 -5 -1l-30 57q20 7 47 -21q14 -14 31 -47z M563 1026q-8 7 -13 8q8 3 15 -3q15 -12 11 -10q-6 -1 -13 5zM493 617q-15 -28 -49 -24q-17 2 -40 14q-30 16 -30 23q0 -1 17 20q16 19 11 41q15 5 40 18q24 14 38 19q7 2 15 -17q6 -16 7 -29q4 -41 -9 -65zM412 572q-8 6 -21 18q-15 14 -21 18q-4 -1 -9 -7q-4 -4 -8 -3 q-13 2 -5 14q7 11 18 15q10 -17 56 -33q42 -15 51 -38q-33 -4 -61 16zM451 548q13 -5 21 -3q-4 -3 -39 5q7 2 18 -2zM464 1092q6 1 15 -3q2 -20 -16 -21q-1 3 1 24zM432 1056q-2 19 5 32q8 15 22 4q-1 -4 -2 -14t-2 -15q-10 -7 -23 -7zM405 1053q-1 27 4 39q3 2 10 2 q7 1 9 2q0 1 -2 -42q-16 -2 -21 -1zM380 1070q4 16 19 19q5 -8 -2 -36q-21 0 -17 17zM187 768q14 14 16 31q3 25 -21 41q-26 19 -27 29q-3 41 41 52q5 -31 29 -62q41 -53 39 -51q-9 -12 -44 -41q-30 -24 -41 -44q31 -7 64 7l56 23q15 -63 57 -66q38 -2 38 -3q-5 -13 -29 -38 q-32 -31 -32 -35q0 -8 23 -24q3 0 6 4t8 3q2 -2 6 -7q4 -6 7 -9q20 -22 48 -36q37 -18 57 -1q1 15 -11 27q-22 23 -18 17q45 2 51 62q6 56 -22 87q101 91 108 99q29 35 29 59q40 -1 44 25q0 5 -22 41q-3 0 -6 -5q-2 -4 -7 -3q-50 78 -53 80q-14 13 -27 14q-19 1 -23 -16 q-4 -16 5 -32q-52 -8 -43 -95q-11 -13 -16 -13q-3 9 -1 30q1 21 -1 31q-78 -8 -91 -7q-4 6 -21 16q-14 9 -16 20q60 -11 109 1q60 13 61 56q1 30 -32 50q2 8 4 25q1 18 3 26q27 4 37 9q18 11 10 31q-6 6 -26 9q-18 4 -24 10q17 48 -4 90q-6 14 -44 64q-4 5 -10 17 q-5 11 -9 15q-10 12 -36 22q-67 25 -141 -9q-66 -30 -95 -82q-11 -18 -9 -25q5 0 15 18q1 1 15 18q81 92 186 66q-92 7 -118 -23q33 16 87 14q55 -2 83 -21q2 -2 5 2q2 3 4 1q4 -8 39 -49q26 -31 28 -60q1 -6 -2 -36q-2 -22 5 -34l27 -5q16 -2 16 -13q0 -14 -23 -18 q-22 -5 -36 4q0 4 7 6q7 3 6 8q-10 3 -17 -2q-6 -6 -4 -15q1 -5 9 -8q9 -4 11 -8q-2 -4 -2 -18t-3 -18q-30 13 -69 7q-44 -7 -40 -36q2 -19 33 -22q40 -3 86 32q23 -13 16 -40q-5 -24 -25 -36q-56 -35 -149 -4q-87 29 -106 75q20 1 31 9q14 11 7 28q-23 -24 -37 -24 q-34 0 -47 39q-12 41 20 59q23 12 44 5q3 -2 9 -9q5 -6 10 -6q-12 32 -54 24q-13 -3 -26 -18q-16 -18 -18 -19q-11 29 -8 63q3 37 22 51v10q93 76 182 77q-5 8 -26 9q-123 2 -179 -94q-1 -4 2 -6t3 -5q-27 -20 -24 -72q3 -50 29 -70q-1 -1 0 -4q1 -4 0 -6q16 -19 38 -41 l29 -29q15 -19 9 -40q-157 9 -189 -105v-22q6 -27 23 -50q-12 -36 16 -57t63 -7q16 -12 33 6zM968 1207q9 -19 21 -27q9 -6 20 -6q13 1 13 15q-17 -11 -31 -1q-12 9 -16 27q-5 19 1 32q7 15 23 12q8 -1 13 -12q7 -14 10 -17q10 27 -23 33q-33 7 -38 -19q-3 -15 7 -37z M978 847q6 -4 7 -10q-23 -10 -56 -19l3 -20q-12 -5 -19 19q19 15 54 31q4 2 11 -1zM1052 823q77 51 88 56q1 0 1 -3q-11 -21 -46 -40q-42 -23 -53 -35q0 -2 3 -8q2 -5 0 -8q-8 -2 -15 5t-5 14zM1176 1145q-4 -19 -34 -20q-29 -1 -40 13q20 24 74 7zM1215 1200q10 1 13 -5 q-1 -8 -13 -10q-9 -1 -19 3q0 3 1 6t0 5q3 0 18 1zM1269 969q-2 -11 16 -14q25 -5 28 -7q-7 -11 -24 -6q-6 2 -15 6t-12 5q-14 -13 4 -24q5 -3 16 -7q12 -5 15 -6q-11 -7 -25 1q-19 10 -25 10q-9 -8 -1 -21q1 -2 7 -9q4 -6 5 -9q-9 4 -22 22q-12 17 -23 21q4 10 17 25t17 25 q2 0 17 4q12 4 21 5q25 4 34 -8q-51 -23 -50 -13zM1271 1012q2 -22 -13 -20q0 3 1 11q2 9 2 13q2 1 10 -4zM1216 950q-16 -17 -20 -34q21 7 37 -19q16 -27 36 -23q10 12 -3 23q-17 14 -16 23q6 -2 21 -11q13 -7 23 -8q14 17 14 13q0 8 -22 14q-21 6 -21 13q4 0 14 -3 q12 -3 17 -4q21 -5 25 6q4 14 -17 18q-25 5 -28 11q6 5 23 5q20 -2 27 0q0 6 2 8v6q-10 12 -51 9q1 19 -3 26q-6 3 -16 2q-4 -3 -6 -16q-2 -12 -5 -16q6 -1 -116 51q-30 13 -33 19q46 0 69 38q-3 -5 32 75q16 -5 26 1q10 5 10 15q1 10 -9 15q-10 7 -29 4q8 69 -53 141 q-2 14 0 11q-7 12 -29 10q0 16 -13 19q-12 3 -25 -5q-7 22 -35 16q-53 -10 -48 -11q-6 11 58 0q13 -25 42 -13q3 -3 6 -9q3 -7 5 -9q15 0 24 -2q0 -14 13 -25q16 -12 19 -20q-33 -23 -26 -58q10 3 16 23q7 19 20 19q17 -23 19 -69q2 -44 -10 -77q-20 9 -54 5q-37 -4 -33 -24 q3 -13 29 -12q38 0 42 -1q-20 -48 -71 -48q-56 0 -103 57q-44 54 -48 115q-8 112 93 124q-1 -15 13 -18q13 -2 24 7q5 -21 30 -15q7 -14 34 -19q1 10 -11 15q-13 7 -14 14q-10 -2 -27 8q-15 10 -29 3q-2 2 -4 8q-2 5 -5 6q-57 1 -91 -36q-34 -36 -30 -93q1 -10 38 -97 q-64 18 -73 19q-6 0 -20 -1q-13 -1 -21 0q-13 2 -53 28q-31 21 -58 12q7 -12 27 -31t26 -30q-53 -9 -84 -39q-38 -35 -26 -88q14 -57 84 -85q43 -17 55 -28q25 -23 70 -95q7 4 16 1q3 -22 13 -32q15 -2 25 12q0 4 -3 9q-3 6 -3 10q8 2 28 9q17 6 29 7q8 -3 20 -31 q11 -26 23 -27q6 -1 12 4q8 6 8 11q0 4 -5 8t-4 9q2 0 49 25q54 29 57 59q-15 5 -32 -5q-22 -15 -29 -16q-5 18 -5 21q-62 107 -164 129q-25 6 -29 13q106 6 115 8q73 -73 171 -107q5 4 26 33q10 14 12 16q9 8 19 2q-4 -8 -23 -31zM383 753q-2 14 6 31q8 18 8 26 q-31 -38 -14 -57z"
         id="glyph22775" />
      <glyph
         glyph-name="quotedbl"
         unicode="&quot;"
         horiz-adv-x="1249"
         d="M1114 10q8 -1 14 -1q0 14 -2 14q-3 -3 -11 -6q-10 -3 -13 -5q4 0 12 -2zM990 44q23 2 20 1q-23 -3 -20 -1zM959 55q11 -3 19 -4q1 -2 3 5q1 0 -4 13q-24 -2 -37 -9q6 -1 19 -5zM540 660q38 -64 75 -162q31 15 69 83q9 15 24 52q14 35 25 51q-24 -1 -72 -5q-46 -4 -70 -5 q-44 -2 -51 -14zM884 739q2 -4 5 4q-1 0 -2 -1h-3v-3zM687 1117q5 1 4 4q-7 1 -8 -1q-1 -3 4 -3zM498 991q3 -98 61 -168q228 -18 260 -30q-1 -2 0 -2q25 1 52 -22q15 18 -3 56q-89 52 -99 233q-9 10 -5 19q-15 1 -12 19q4 27 3 27q-11 -6 -49 -44q-40 -38 -56 -40 q-19 -3 -47 6q-19 6 -51 26q-32 22 -49 28q1 -9 10 -32q9 -20 8 -33q0 -8 -23 -43zM958 1183q13 -16 18 -18q-13 16 -18 18zM841 1230q-2 -2 -1 -5q1 -4 5 -3zM468 1292q-5 -5 1 -13q-3 14 -1 13zM456 1293q4 1 5 -1q0 10 -5 9v-8zM482 1295q7 -10 7 -19q-1 -2 -6 -3 q-5 0 -7 -1q1 -3 5 -6q3 -3 3 -7q-15 -20 -18 -20q-1 -12 7 -14q2 -1 8 -2t9 -2q13 -4 60 -60q13 -15 37 -29q33 -19 40 -25q9 3 22 10q14 8 21 11q-4 18 -19 21q0 5 -10 18q0 2 2 7q1 5 2 7q-19 6 -19 7q0 8 8 37q0 3 -4 5q-5 2 -6 4q3 2 0 11q8 24 3 31q-2 -2 -3 0l-4 -4 q-4 -3 -7 -4q0 48 78 74q-1 1 -4 1q37 14 47 1q0 2 6 7q0 -5 12 -1q-1 -6 3 -7l8 -1q-3 -2 -1 -3q3 -2 1 -3q5 0 9 -3t10 -3q1 -7 13 -27q10 -18 11 -38q8 -9 7 -12q3 0 5 -4q6 1 12 0q7 -1 12 0q0 -1 -3 -2q-3 0 -3 -2l11 -9l4 -2q0 -1 -2 -2q-2 0 -2 -1q2 -4 7 -7 q6 -4 7 -6q1 3 -4 3q-3 -8 13 -9q3 0 15 1q9 1 14 0q23 -1 63 -30q34 -25 53 -62q65 -121 86 -179q7 -20 24 -54q17 -36 23 -51q3 -7 23 -81q14 -53 24 -79q-8 -4 -84 -21q-20 -22 -45 -73q-32 -65 -42 -81q-18 -29 -14 -47q1 -5 32 -51q13 -20 50 -94q84 -172 93 -198 q1 -1 9 -1q15 -41 15 -42q3 -41 1 -37q0 -4 -7 -6q0 -2 4 -3q4 0 5 -1q-2 -5 -2 -22h-308q-3 1 -6 5q-5 4 -7 5q-10 7 -21 9q-2 1 -42 -1q-25 -2 -31 15q6 9 41 19q-45 19 -42 16q1 17 27 19l43 2q0 -2 -3 -4q-3 -1 -4 -3q34 17 39 28q3 -3 -18 0q-15 60 -44 158 q-37 130 -45 160q-14 51 -9 65q3 9 11 24q10 18 13 25q49 113 73 142q-4 14 -3 20q1 2 -57 -69q-119 -143 -125 -160q-7 -17 -10 -56q-1 -4 -3 -16t-2 -18q-1 -22 11 -31q19 -1 21 -17q1 -14 -11 -26q-24 -3 -48 3q-28 7 -32 21q-2 6 -1 16q1 12 1 15q-1 15 -8 47 q5 6 -33 -51q-8 -27 -43 -89q-33 -58 -41 -94q-5 -22 0 -49q5 -30 24 -70q2 -2 1 -3l-3 -2q36 -6 39 -10q3 -14 -2 -28q-5 -3 -27 -10q4 -3 19 -6q-13 -1 -37 -1h-38q3 2 -4 3q-7 2 -8 5q-17 64 -43 85q-6 -13 -3 -46q2 -36 -1 -47q-6 2 -6 9v7v7q-4 38 -5 47q-2 9 -7 21 q-6 14 -7 19q-4 14 16 48q2 1 5 2q2 2 4 2q1 1 30 50q1 11 7 29q7 21 9 29q3 14 6 43q2 28 6 41q7 30 48 81q1 22 -17 49q-5 7 -16 22q-11 14 -15 22q-36 55 -50 70q-3 -1 -12 -6q-7 -3 -14 -3q-5 17 -32 72q-23 46 -28 78q0 6 -1 14v9q-3 14 1 39q5 30 4 41q-3 43 -39 115 q-42 82 -56 101q-2 -1 -5 -4q-3 -4 -5 -4q-71 -119 -76 -131q-18 -46 -40 -114q-13 -39 -13 -38q-1 -9 3 -29q4 -19 2 -32q5 2 -18 -11q-3 2 -13 1q-14 12 -19 11q0 7 -11 14q-12 8 -13 13l22 47q2 5 3 14q2 11 3 16q4 12 13 37q10 28 14 40q13 44 36 109q4 13 16 38 q11 25 15 37q9 25 16 38q2 5 10 17q6 10 9 16q1 3 3 11q1 7 3 11q19 31 63 32q1 0 1 1t-1 1h1q10 7 15 41q9 60 36 129q2 1 2 5q3 15 20 28q16 14 35 16q27 4 103 -30q31 -33 16 -64q-3 -2 -7 -6l-7 -7q1 -4 9 -16z"
         id="glyph22777" />
      <glyph
         glyph-name="numbersign"
         unicode="#"
         horiz-adv-x="1395"
         d="M693 993q-20 43 -11 95q-68 4 -80 -43q-11 -40 19 -93q29 -52 66 -63q42 -14 61 44q-37 20 -55 60zM1089 750q45 -5 121 19q72 24 114 73q52 61 16 128q-22 42 -87 88q-68 48 -121 55q-34 4 -87 -7q-63 -14 -93 -14q23 -120 -90 -172q48 -29 69 -93q24 -73 -40 -95 q-59 -128 -217 -396q-6 -11 -27 -40q-24 -35 -35 -51q-44 -67 -44 -97q-1 -40 33 -60t81 -6q55 80 132 214q102 179 130 224q5 8 17 30q13 24 19 35q25 40 37 41q22 1 37 -30q5 -9 11 -27q7 -15 10 -21q1 -2 43 -54q30 -38 34 -64q-2 10 -8 -131q-8 -186 4 -204 q27 -40 79 -20q50 19 56 61q4 23 12 220q5 96 5 103q-1 28 -32 70q-6 8 -26 32q-14 19 -20 28q-59 96 -74 119q-2 8 2 23q4 13 -2 18q-32 -21 -68 -11q-39 10 -42 48q-1 8 10 25t10 24q1 -8 -49 65q-34 50 -37 56q-13 30 -4 71q95 -136 119 -180q-7 -1 106 29q1 18 4 51 q4 33 4 51q45 -27 58 -66q-23 -35 -86 -55q-15 -4 -56 -15q-35 -9 -55 -16q-34 -68 27 -76zM845 751q69 -20 83 22q12 39 -20 82q3 -5 -58 61q-4 2 -28 1q-27 -1 -38 -1q-6 -22 9 -41q16 -21 16 -24q-32 15 -61 41q-48 -36 -101 7q-47 39 -59 95q-7 37 10 65q11 17 43 41 q-38 30 -92 44q-70 19 -83 -23q-14 -40 25 -83q53 -58 56 -68q-208 -205 -323 -405q4 -11 18 -19q20 -11 23 -14q-80 -74 -159 -188q-63 -90 -66 -106q-6 -36 20 -56q22 -18 50 -14q17 3 61 70q109 164 213 241q8 -8 29 -15q24 -8 32 -14q-96 -233 -53 -437q36 -21 74 -8 q24 16 27 61q1 12 1 41q-1 29 0 45q8 114 57 253q69 -24 86 -28q55 302 119 421q33 -30 89 -47zM744 948q35 -23 69 -23q57 -2 93 41q33 38 34 92q2 55 -30 90q-36 40 -101 34q-66 -5 -101 -52q-37 -51 -14 -124q11 -33 50 -58zM1072 1151q46 30 57 92t-21 105 q-37 49 -111 43q-45 -4 -77 -35q-30 -29 -39 -70q-9 -42 7 -78q18 -40 60 -59q72 -31 124 2zM605 1201q-19 8 -21 14q24 2 41 12q-2 13 -16 38q-13 23 -13 32q10 -2 25 -9q15 -6 24 -8q6 8 4 37q-1 29 5 37q26 -40 49 -45q19 48 32 61q4 -34 13 -73q14 -2 30 13q15 15 23 11 q-6 -49 -8 -45q18 6 25 32q2 9 4 25q2 19 3 25q-17 -1 -34 -14q-20 -16 -31 -19q-2 9 -3 24q-2 20 -3 26q-4 28 -19 36q-5 -9 -22 -37q-13 -24 -23 -37q4 -2 -25 30q-16 17 -36 20q-1 -14 0 -48q1 -30 0 -38q-67 26 -74 24q5 -21 23 -47q21 -29 27 -43q-47 -9 -62 -20 q41 -30 74 -37q3 16 -12 23z"
         id="glyph22779" />
      <glyph
         glyph-name="dollar"
         unicode="$"
         horiz-adv-x="1773"
         d="M1634 783q23 -21 59 3q33 22 41 52q-2 0 -6 2q-3 2 -7 2q-34 -62 -87 -59zM1686 813q25 23 6 41q4 -23 -19 -32q-31 -12 -35 -18q23 -13 48 9zM388 690q-4 15 -6 22q-184 -21 -292 159q2 -28 35 -205q26 -141 19 -254q-6 -90 -42 -196q-4 -12 -18 -45q-13 -32 -19 -50 q-20 -61 0 -93q13 -21 50 -24q30 -2 58 7q129 224 121 539q76 -40 104 -147q25 -98 5 -221q-2 -12 -17 -63q-11 -36 -8 -58q4 -36 45 -53t76 3q23 14 45 142q30 167 -12 307q-41 137 -138 207q-2 7 -6 23zM1044 887q-2 5 -9 24q-6 15 -11 23q-12 -31 13 -60q25 -28 50 -11 q-30 -3 -43 24zM1073 905q-14 13 -11 33q-21 -9 -6 -35q14 -25 35 -24q-2 9 -18 26zM1617 1213q-9 -36 -10 -127q-1 -90 -11 -127q-15 6 -48 47q-31 38 -60 45q-17 3 -53 1q-46 -2 -60 -1q-129 5 -134 4q-15 -6 -40 -35q-20 -24 -39 -20q-16 37 -9 126t-8 121q-22 15 -62 4 q-21 -24 -21 -150q-1 -242 163 -188q22 -118 -39 -211q-14 -22 -59 -76q-38 -48 -57 -80q-52 -94 -75 -217q-26 -141 -29 -172q-9 -114 38 -146q-5 3 66 -4q29 14 36 48q3 10 6 73q8 150 52 266q48 127 127 177q-22 -347 96 -560q41 -16 78 -1q40 15 43 56q3 26 -19 81 q-26 68 -31 90q-48 249 -16 384q9 40 55 123q38 69 41 131q58 -39 99 -12q34 23 51 91q34 135 -4 263q-40 20 -67 -4zM649 1063q-93 134 -109 179q94 -142 109 -179zM720 1084q-9 2 -15 -4q-6 -7 -14 -4q-19 36 -56 92q-43 67 -57 91q-30 6 -88 21q22 -43 73 -121t73 -121 q-21 -7 -12 -20q12 -17 12 -18q-3 -7 -26 -19q-21 -12 -32 -14q-50 -8 -88 15q-5 3 -31 22q-20 14 -36 21q6 -2 -116 26q-15 3 -59 16q-36 11 -54 13q-60 6 -88 -27q-24 -28 -22 -81q3 -109 68 -176q51 -53 140 -70q98 -18 182 24q14 41 3 58q-9 14 -38 15q-9 0 -62 -6 q-42 -4 -66 0q-60 10 -94 52q-35 42 -36 106q16 -77 65 -116q54 -43 140 -30q10 46 37 80q60 -45 155 -34q94 10 133 63q9 -15 23 -9l27 13q-1 6 -6 20q-4 10 -5 15q-4 16 7 36q-38 80 -37 71zM1524 1171q11 40 -6 82q-17 41 -52 65q-39 26 -87 20q-75 -8 -102 -63 q-23 -48 -1 -108q23 -59 74 -81q57 -26 121 15q41 26 53 70zM435 1129q30 38 27 92q-3 55 -38 89q-39 39 -101 33q-49 -5 -75 -25q-29 -24 -39 -64q-9 -39 3 -78q13 -41 44 -66q35 -27 84 -26q61 1 95 45zM1287 1364q14 14 25 20q-18 9 -35 -5q-15 -14 -15 -36q8 5 25 21z M1253 1399q-30 -24 -12 -48q5 40 71 58q-29 13 -59 -10z"
         id="glyph22781" />
      <glyph
         glyph-name="percent"
         unicode="%"
         horiz-adv-x="2088"
         d="M1306 893q-41 16 -137 53q-88 35 -137 53q0 5 -16 -49q-7 -26 11 -40q-216 82 -376 207h-101q-7 -16 -51 -33q-39 -87 -139 -186q-3 1 -8 10q-5 8 -13 7q-84 -95 -245 -140l-18 -3q-13 -2 -18 -3q-23 -6 -32 -19q18 -16 50 -9q1 0 51 17q73 25 233 127q1 -148 -47 -625 q-2 -23 -10 -70t-10 -70q-7 -77 25 -110q83 -29 110 37q9 22 25 149q53 442 50 431h39q2 -56 29 -291q3 -23 8 -88q5 -61 9 -94q15 -111 46 -148q96 -26 109 58q5 31 -11 166q-65 545 -51 748q-16 13 304 -152q4 -2 24 -14q15 -8 25 -12q30 -12 61 0q23 18 17 51 q-5 28 -21 42q33 -13 93 -36q68 -25 93 -35q27 61 29 71zM1349 2h67q-1 56 -42 131q-3 -4 -12 -9q-10 -5 -13 -8v-114zM1847 2v118q-13 10 -29 17q-2 -25 -20 -70q-15 -40 -14 -65h63zM1403 101q7 -27 12 -40q17 -43 48 -51q68 -17 93 43q24 58 -13 114q-115 4 -152 -26 q4 -12 12 -40zM1653 162q-14 -52 -15 -73q-3 -41 19 -62q48 -47 104 3q53 47 48 116q-72 37 -156 16zM1834 184q-6 -19 13 -22q-9 66 -4 60q1 -8 -9 -38zM1349 226q1 -5 -1 -37q-2 -23 9 -27q21 14 -8 64zM1163 577q1 -32 4 -34q48 2 55 4q-2 6 1 11q4 5 3 10q-34 -12 -63 9 zM2010 565q-20 -4 -36 3q1 4 8 -25h51q6 3 9 17q3 15 -5 21q-8 -12 -27 -16zM2033 661q-29 10 -51 17q-15 -30 -12 -97q17 -8 38 -3q20 4 29 15q15 34 -4 68zM1847 593v38q-16 4 -33 22q-18 20 -30 25q-11 -59 13 -97q7 -10 24 -30q18 -20 26 -34q0 26 4 30q47 -15 93 0 q1 6 -3 16q-3 9 -1 18q-37 17 -93 12zM1376 547q20 25 26 34q28 43 10 97q-41 -40 -63 -51q-9 -35 -5 -34q-55 4 -84 -12q1 -12 -4 -34q4 -2 93 -4q8 -31 4 -30q6 14 23 34zM1218 674q-27 8 -44 -10q-16 -16 -16 -41q0 -26 16 -39q19 -15 52 -3q13 33 -8 93zM1790 881 q-14 42 -27 50q-25 16 -110 9q-12 -1 -27 -1q54 8 84 57q27 45 22 101q-4 57 -41 91q-42 37 -110 27q-54 -9 -80 -34q-45 -43 -35 -123q10 -81 69 -105q23 -10 46 -14q-116 3 -156 -16q-48 -174 -174 -228q12 -45 9 -102q80 25 173 123v-123q-6 -11 -24 -24q-20 -14 -27 -22 q-48 -63 -42 -185q6 -103 42 -191q27 23 148 38q-45 137 -33 211h207q5 -46 -34 -220q59 15 152 -25q76 249 0 363q-7 11 -31 30q-20 17 -24 30q-6 19 -1 61t1 57q86 -93 169 -123q-2 42 17 98q-96 44 -140 126q-5 10 -23 64zM1784 961q6 -101 63 -169v275q-70 18 -67 -59 h-47q-22 -34 -38 -47h89zM1420 961q7 1 43 0q27 -1 38 4q-19 28 -29 35q-21 15 -56 8v54q-34 16 -67 0q1 -23 -1 -140q-2 -87 9 -130q57 102 63 169zM360 936q69 49 114 148q-28 31 -70 32q-39 1 -78 -24q13 11 44 43q27 27 45 42q9 -44 40 -67q36 -27 78 -1q-13 49 -46 63 q-8 1 -14 -7t-16 -5q0 9 -8 19q-9 10 -9 19q18 26 2 51q-5 7 -17 19q-11 12 -14 18q0 1 33 9q13 33 -4 76q-22 1 -38 -11q-5 -3 -13 -11l-12 -12q-2 -14 1 -33q3 -23 3 -30q-10 -12 -46 -43q-44 -38 -64 -57q-82 -78 -89 -128q-9 -68 63 -71q52 -3 115 24v-63zM513 1167 q23 -21 37 -24q46 -11 96 16q48 25 60 60q27 76 -8 129q-31 46 -93 56q-61 10 -106 -25q-51 -38 -50 -114q-1 9 25 -76q16 -2 39 -22z"
         id="glyph22783" />
      <glyph
         glyph-name="ampersand"
         unicode="&amp;"
         horiz-adv-x="988"
         d="M677 618q-6 1 -9 1q-10 0 -12 -6q-2 1 5 6q-23 1 -20 44q2 36 14 56q31 4 52 -6q24 -11 27 -33q3 -27 -8 -44q-13 -19 -42 -19q-2 0 -7 1zM628 645q2 -34 19 -36l5 2q3 2 2 0l-2 -2q46 -15 74 5q20 15 22 48q1 32 -16 52q-20 21 -86 20q-21 -40 -18 -89zM467 1166v0v2v-2 zM858 626q-23 2 -26 -1q-1 -2 2 -4l2 -2q-1 -1 -4 2l-4 4q-10 2 -20 -6q-3 -2 -13 -37q-14 -44 -10 -52q9 -23 69 -30q-36 -38 -91 -13q-56 26 -46 84q31 8 50 40q22 39 13 62q0 1 1 1v-1q7 54 -32 79q-10 31 2 47q-26 -2 -30 -31q-45 16 -121 18q86 28 97 117q45 -1 81 -28 q12 -8 30 -25q19 -19 28 -26q-37 -9 -58 -39q18 11 72 24q0 1 18 -4q39 -11 45 -46t-29 -58q10 -5 31 2q-2 -12 -13 -37q-11 -26 -14 -40q-5 -2 -30 0zM797 540q-1 12 8 34q11 27 12 33q9 4 67 3q-18 -61 -26 -99q-58 2 -61 29zM399 224q9 -7 22 -22q-8 6 -22 22zM766 269 q3 -2 4 -4q-2 4 -8 7l-17 -17q8 29 9 25q-1 3 -4 4t-3 2q0 3 3 -1q4 -4 5 -2q1 1 0 6q0 4 -2 0q-3 -1 0 1q3 4 3 5q5 17 -4 39q-7 20 -19 26q23 -63 3 -113q-43 -17 -45 -19q0 1 2 2q1 1 1 3q-94 -28 -135 -22q26 46 13 84q-2 -7 -8 -27q-5 -17 -9 -27q-12 -28 -33 -34 q-8 -3 -34 -1q-66 3 -151 54q-94 56 -142 65q31 -14 78 -40q53 -30 74 -40q-120 29 -146 28q254 -87 338 -92q45 -3 152 22q35 9 37 8q21 -5 18 -45q0 -12 -27 -56q0 4 -1 20q-1 12 -3 18q-17 -56 -31 -65q-11 -7 -89 -32q-86 -27 -137 -20q-26 3 -36 11q-13 10 -17 34 q-1 5 -3 22q-1 13 -3 21q-15 -23 -8 -71q-39 16 -108 56q-72 42 -86 77q-4 -5 1 -26q-7 4 -34 19q-21 11 -32 20q-33 27 -33 69q0 7 4 48q12 2 33 2q26 1 34 2q-102 50 -98 127q0 7 8 48q6 29 1 51q3 1 11 -4q10 -6 13 -7t56 -8q-65 46 -61 43q-34 31 -38 66q-2 30 29 67 q38 45 39 53q1 6 3 25q1 14 4 22q25 68 84 79q-48 5 -84 -32q30 60 100 62q7 1 127 -27q-11 11 -28 22q7 0 20 -4q15 -4 22 -4q3 -27 17 -49q-60 9 -93 38q14 -29 62 -47q61 -24 74 -35q2 -2 4 3q-4 1 -1 -5q25 -12 42 -14v-186q-8 -1 -27 5q-19 5 -27 4q-2 -1 -3 -2 q1 0 3 -1q-4 1 -3 1l-4 3q3 -1 -25 1q-80 5 -116 29q-4 -2 -19 -18q33 -21 103 -32q123 -19 118 -17v-48q19 -1 52 -1h54q-1 -1 2 36q65 -3 99 3q5 -73 57 -100q13 -6 39 -5q-14 -23 -62 -36q6 33 -9 59q3 -50 -4 -62q-31 1 -106 -15q-64 -13 -107 -6q-13 21 -10 109 q-20 -44 -18 -109q-22 6 -121 50q-73 32 -137 35q45 -10 105 -43q80 -45 98 -52q11 -5 10 -5q2 1 7 -2q38 -19 104 -12q3 1 111 19v1q0 -1 1 -1q-1 0 22 3q7 1 49 4q33 2 67 29q12 -26 6 -77q-2 -20 -3 -18q1 -1 4 3q4 4 4 3q-7 -8 -16 -31q-9 -21 -18 -29q0 -2 3 -5z M368 1289q23 63 91 69h77q91 0 113 -10q23 -11 25 -19q-3 -1 -29 8q-18 5 -103 5q-8 0 -34 1q-20 1 -32 0q-42 -2 -70 -26q-30 -25 -34 -66q-1 -11 0 -91v-1q-7 -51 0 -77q1 -3 5 -8q9 -8 20 -19q13 -11 14 -12l38 -39q-13 11 -52 51q-14 12 -20 19l-2 2l-3 3q-2 -30 22 -58 q-28 15 -32 66q0 -3 0 100q0 87 6 102zM551 1125q-54 -7 -84 41q3 -15 17 -28q18 -17 18 -18q-19 2 -36 21q-16 17 -22 39q-11 46 18 82q28 36 74 36q46 1 60 -26q-40 13 -45 13q46 -7 62 -54q16 -46 -14 -80q-20 -23 -48 -26zM498 907q8 34 40 33q10 0 24 -9q-3 -1 -10 2 q-8 3 -13 3q33 -11 33 -37t-28 -32q-27 -7 -38 18q0 -3 15 -22q-31 11 -23 44zM538 547q2 -1 20 -8q-11 -2 -31 -1h-32v194q7 -34 11 -137q2 -41 4 -42q0 -1 28 -6zM400 922q4 -58 43 -91q39 -34 103 -33q-62 -10 -107 23q-44 33 -49 91q-1 14 0 41q1 30 0 46v3q1 0 1 -1 q21 -6 130 -11q58 -3 95 1q6 1 -196 -6q-22 -14 -20 -63zM759 697q-2 -1 -3 0q0 1 2 -15q3 -38 -18 -66t-58 -31q-6 0 -27 1q-18 1 -26 -1q-4 -1 -3 0q-7 0 -18 1t-17 0v175q70 -1 98 -8q46 -10 61 -44q4 1 2 1q-1 0 0 -5q1 -6 4 -8q1 1 3 0zM703 1083q11 38 6 64q2 21 1 54 v53q4 -158 -3 -186q-25 -43 -58 -55v-2l-2 -2q2 3 -7 1q-15 -4 -20 -5q-12 -1 -45 1q4 2 44 8q39 6 63 29q0 -3 11 16q8 13 10 24zM836 864q-23 23 -36 33q-45 35 -103 34v79q26 22 29 53q1 5 -1 16q-1 11 -1 9q0 13 3 92q2 56 -1 89q-5 57 -50 84q-44 28 -116 20v38h-47 q1 4 -1 -38q-120 8 -156 -67q-9 -19 -9 -159q0 -39 4 -46l4 -4q2 -3 4 -5q-5 4 -8 9q-2 2 -4 -1q-2 -6 0 -36q2 -22 14 -38q1 -2 9 -9q6 -5 7 -9v-42q0 -34 -1 -42q-111 13 -141 11q-70 -3 -104 -46q4 5 -34 -120q-6 -20 -25 -53q-21 -35 -26 -51q-11 -31 -1 -77 q14 -57 13 -74q0 -10 -7 -51q-5 -31 -2 -48q2 -12 15 -33q12 -21 13 -32q2 -17 -2 -56q-3 -39 -1 -59q5 -48 77 -86q68 -35 100 -55q51 -33 98 -56q66 -34 117 -37q52 -4 121 22l42 15l42 15q102 39 102 124q0 20 -14 54q3 4 9 9q7 7 10 9q5 4 0 8q7 -2 20 22q14 25 19 47 q6 26 5 29t-3 2q-2 -2 -2 -3q0 3 2 3q2 5 3 6q5 22 -13 89q51 4 68 37q1 3 15 65q4 19 27 83q18 51 20 86q2 44 -19 69q-3 4 -48 39q-13 10 -36 33zM501 97q-3 41 -27 50q14 -22 18 -53q5 -35 -6 -57q19 20 15 60zM489 306q1 -39 18 -57q-5 17 -1 112q-19 -15 -17 -55z M262 658l-16 20q-23 23 -78 41q19 -17 47 -47q35 -40 45 -50q3 2 19 18q-8 6 -17 18zM367 714q-4 -52 -29 -85q30 23 24 43q2 -5 5 -2q12 44 9 66q-1 0 -2 -1q8 17 -12 36q7 -47 6 -43l1 1q-2 -3 -2 -15zM308 725q2 -3 3 1q22 64 49 86q-34 -4 -50 -47q-15 -38 -8 -78 q0 2 6 23q4 14 -4 19q1 0 4 -4zM549 907q3 -6 -1 -13q-4 -8 -11 -9q-8 -2 -14 8q10 -6 17 5q7 10 -6 15q12 1 15 -6zM555 878q8 8 8 20q0 13 -7 21q-8 9 -23 7q-24 -2 -25 -27q0 -24 23 -28q15 -2 24 7zM484 1246q-17 -20 -14 -49q3 -31 31 -49q29 -19 61 -6q32 12 39 46 q8 35 -15 61q-23 25 -58 20q-28 -4 -44 -23z"
         id="glyph22785" />
      <glyph
         glyph-name="quotesingle"
         unicode="'"
         horiz-adv-x="1185"
         d="M646 880q-9 3 -41 15q-24 10 -38 12q-17 -20 -61 -63q-49 -49 -73 -76q-94 -104 -101 -114q-45 -72 13 -123q-26 -11 -24 -63q3 -75 -2 -92q19 9 72 48q52 38 83 50q6 -7 26 -15q19 -8 25 -16q-84 -268 -51 -427q69 -36 88 8q8 18 15 121q12 178 62 257q34 -17 82 -31 q13 103 88 356q-9 13 -28 35q-24 26 -31 36q-34 44 -29 88q-26 -21 -75 -6zM740 915q-3 -15 2 -18q60 38 108 -72q-9 6 -23 24q-18 23 -23 29q-30 32 -67 8q-8 -25 -5 -41q5 -31 71 -99q67 -69 93 -71q68 -4 54 91q-7 44 -43 141q-44 -19 -95 -6q-48 12 -70 42q3 -9 -2 -28z M109 324q-26 -31 -38 -54q-36 -67 37 -89q2 23 26 97q19 61 10 88q2 2 -35 -42zM711 1062q-112 33 -237 -11q16 -5 125 -37q76 -22 122 -40q-13 59 -10 88zM160 1056q6 -22 123 -56q291 -85 284 -83q92 -28 112 -30q68 -7 53 56q-6 24 -119 57q-392 115 -412 118q2 0 -10 -5 q-43 -16 -31 -57zM721 1015q7 -59 54 -87q43 -26 98 -17t84 49q34 46 17 112q-10 38 -51 65q-49 32 -109 17q-105 -26 -93 -139zM234 1005q-28 7 -43 13q-46 17 -47 54q-1 47 50 53q42 5 100 -17q-18 73 -57 82q-69 17 -120 -53q-46 -62 -63 -168q-16 -103 4 -186 q21 -91 76 -108q44 -147 36 -263q-4 -49 -29 -129q-24 -73 -23 -102q2 -31 33 -50q29 -18 60 -12q32 5 52 57q7 19 25 97q26 112 26 191q0 66 -24 158q-30 112 -32 130q-9 60 20 243q-10 2 -44 10zM1097 1206q-28 -6 -46 -5q22 89 21 98q-22 -5 -45 -23q-32 -25 -38 -29 q-4 8 -15 57q-8 36 -26 46q-4 -8 -19 -51q-11 -32 -22 -47q-10 5 -31 29q-17 20 -36 23q2 -8 3 -51q0 -33 12 -42q-15 -5 5 62q10 -4 28 -27q16 -18 34 -20q14 49 31 83q20 -74 21 -83q20 -1 43 20q23 20 34 16q-13 -39 -21 -82q15 -3 44 4q25 6 34 1q-7 -9 -32 -35 q-21 -21 -30 -37q7 -6 26 -15q18 -9 25 -16q-5 -4 -31 -10q-21 -4 -25 -16q21 -6 50 3q27 8 42 23q-8 8 -31 18q-22 10 -30 18q5 8 39 43q25 25 33 50q-18 1 -47 -5zM488 1371q-50 53 -127 36q-51 -12 -74 -38q-26 -29 -24 -86q1 -50 35 -83q31 -30 78 -36q46 -7 84 13 q41 21 55 65q24 76 -27 129z"
         id="glyph22787" />
      <glyph
         glyph-name="parenleft"
         unicode="("
         horiz-adv-x="1646"
         d="M192 80q133 7 155 3q-6 17 -40 57q-37 42 -48 64q-95 11 -149 -7q-69 -23 -33 -87q20 -35 115 -30zM900 213q7 -3 119 -42q88 50 83 138q-4 59 -51 92q-43 30 -101 26q-58 -3 -93 -37q-40 -38 -30 -98q7 -47 73 -79zM777 364q-4 14 -6 45q-2 27 -5 32q-13 19 -41 19 q-32 0 -42 -30q-8 -26 17 -105q34 -108 121 -174q91 -70 204 -63q28 46 -8 66q-12 7 -35 13q-29 7 -34 9q-137 52 -171 188zM821 439q-25 58 -72 84q-148 84 -573 -49q47 -300 314 -474q61 119 226 264q-42 68 -44 171q51 69 90 15q28 -38 43 -119q44 41 16 108zM1136 877 q-69 35 -117 5q-21 -14 -48 -80q-7 -18 -19 -52q-11 -30 -15 -39q-6 -13 -23 -45t-25 -50q-27 -62 -18 -98q8 -33 46 -46q41 -14 75 7q33 22 63 120q31 101 58 123q16 -13 66 -28q51 40 72 133q-21 2 -115 50zM580 656q35 -14 43 5q-6 7 -30 12q-21 5 -25 16q28 8 66 27 q-5 20 -33 39q-28 20 -33 38q42 -12 93 -11q0 20 -6 46q-9 34 -10 43q11 -7 40 -29q23 -20 42 -26q6 10 11 38q6 28 11 39q11 -14 23 -44q14 -32 21 -45q15 -1 32 17q16 16 24 11q2 -13 -2 -28q-5 -17 -4 -27q23 1 25 35q1 5 1 30q0 19 2 29q-19 -1 -37 -19q-19 -18 -35 -20 q-2 4 -24 59q-14 36 -37 46q-3 -10 -11 -49q-6 -32 -16 -45q-70 55 -88 61q-1 -23 7 -54q9 -33 9 -51q-93 17 -115 11q8 -22 39 -46q34 -26 43 -42q-2 -1 -47 -16q-29 -10 -35 -28q3 -1 56 -22zM1219 1074q-13 -15 -4 -46q2 -6 26 -63q18 -43 21 -72q11 -112 -50 -188 q-7 -9 -60 -49q-32 -24 -28 -55q9 -72 81 -27q54 33 90 82q63 86 62 226q-2 143 -73 215q-50 -4 -65 -23zM1435 1042q17 -1 20 -1q0 1 -6 -38q-5 5 -14 16q-8 12 -13 17q0 7 13 6zM1490 376q-24 49 -35 70q17 42 35 122q19 87 31 121q27 79 27 77q1 19 -12 52q-14 35 -15 53 q-2 37 24 117q25 76 20 125q-34 19 -139 32q-101 12 -170 7q-62 -5 -87 -47q-26 -41 -1 -102q27 -65 83 -99l-22 57q-16 42 -21 70q-17 85 54 82q51 -2 85 -101q32 -93 25 -185q-6 -74 -72 -182q3 -2 27 -10q16 -5 18 -18q-1 -30 -27 -95q-23 -59 -18 -103q0 6 89 -171 q7 -15 21 -48q14 -34 21 -49q27 -55 57 -63q44 -11 76 16q27 23 28 56q2 29 -23 73q-7 12 -23 37q-14 22 -20 33q-14 27 -36 73zM1218 1214q18 45 2 95q-15 51 -56 79q-46 30 -106 17q-63 -14 -87 -66q-22 -47 -5 -103q18 -55 64 -82q52 -31 116 -8q52 19 72 68z"
         id="glyph22789" />
      <glyph
         glyph-name="parenright"
         unicode=")"
         horiz-adv-x="1283"
         d="M212 1264q20 6 44 -3q-9 37 -47 12q-15 -10 -22 -22q-8 -12 -1 -14q4 20 26 27zM99 162q-47 -47 -47 -87q0 -35 27 -55q27 -21 62 -15q47 9 103 103q17 29 41 77t30 59q-77 -13 -154 0q-9 -28 -62 -82zM549 308q-21 -10 -65 -25q-45 -15 -65 -24q12 -19 23 -158 q4 -47 18 -69q19 -28 59 -27q71 3 68 117q-1 16 -29 186h-9zM618 139q9 -134 60 -139q55 -4 58 52q1 18 -3 53q-5 41 -6 54q-2 94 40 204q-29 -2 -52 20q-28 26 -42 29q-65 -129 -55 -273zM789 872q-19 -4 -32 -3q-30 -39 -25 -89q34 4 55 36q5 7 17 30q10 19 18 28 q-14 2 -33 -2zM646 766q32 -61 86 -66q58 -4 106 54q47 55 48 120q-29 12 -48 -1q-14 -9 -30 -37q-38 -68 -71 -71q-18 6 -33 37q3 -6 -23 58q-13 33 -26 41q-19 12 -47 -12q20 -86 38 -123zM869 914q-7 -15 -8 -20q36 -14 37 -46q0 -28 -25 -64q-54 -78 -111 -89 q0 -74 -59 -130q-89 -84 -95 -93q24 -7 69 -50q44 -42 75 -49q29 -7 83 -5q62 2 86 0q-1 42 -15 133q-11 81 -10 135q1 47 33 111q32 62 32 92q0 38 -24 66q-25 30 -66 34q3 -13 -2 -25zM674 901q21 -30 23 -32l105 14q62 8 59 51q-2 38 -64 39q-9 1 -253 -29 q-203 -25 -244 -45q-12 -27 0 -55q49 -20 144 -6q135 21 154 21q-6 58 40 60q24 1 36 -18zM459 834q-65 -15 -144 -14q-30 23 -31 48q0 22 22 40q48 40 118 31q-11 36 -68 40q-54 3 -85 -20q-94 -71 -149 -300q-17 -73 -38 -196q-25 -145 -32 -180q125 -44 288 -21 q150 22 248 86q-35 42 -59 114q75 47 50 145q-25 95 -105 113q-3 92 -15 114zM854 1126q-22 -24 -22 -73q-1 -31 20 -62q21 -33 49 -42q62 -22 104 11q37 29 41 83q5 53 -26 87q-35 39 -99 27q-46 -8 -67 -31zM587 1022q30 39 29 91q-2 55 -36 86q-39 35 -106 23 q-53 -10 -78 -50q-23 -36 -17 -82q5 -46 36 -77q34 -35 84 -35q55 1 88 44zM1203 1169q-35 1 -44 8q6 13 23 41q16 26 22 43q-16 5 -45 -8q-36 -15 -49 -16q-18 110 -10 104q-10 -11 -30 -40q-18 -26 -30 -40q-11 7 -23 34q-11 26 -27 31q-5 -8 -9 -32t-10 -33q-8 4 -22 16 q-14 10 -23 14q-7 -18 -6 -42q0 -31 16 -32q2 2 5 44q3 -1 22 -18q13 -12 22 -6q5 6 7 27q3 21 8 27q30 -53 40 -59q5 6 26 35q16 22 29 34v-84q18 -2 45 10q26 12 34 10q-38 -70 -40 -75q10 -5 37 -7q28 -3 38 -8q-73 -47 -80 -54q38 -34 35 -40q-2 -1 -31 1q-19 1 -18 -11 q6 -11 34 -7q37 5 50 2q4 13 -16 30q-25 21 -29 30q67 34 90 59q-8 11 -41 12zM116 1188q8 -17 30 -24t45 -1q24 6 35 24q12 -17 41 -27q28 -11 48 -8q-5 18 -27 45q-22 26 -27 45q-11 -16 4 -41q17 -25 15 -29q-17 1 -41 22q-22 20 -33 18q11 -16 0 -29q-10 -11 -31 -13 q-20 -2 -35 8q-16 11 -13 34q-1 11 11 18q13 8 13 17q-29 -6 -42 10q-11 14 -6 35q6 21 24 29q20 10 44 -5q-1 9 -10 22q-9 12 -10 23q5 21 26 33q19 11 42 9q24 -3 36 -20q14 -20 6 -52q9 -1 21 3q13 4 23 2q41 -25 25 -67q-15 -42 -59 -42q38 -8 59 13q19 18 18 49 q-2 29 -21 47q-21 20 -52 10q6 38 -19 55q-22 15 -55 8q-33 -6 -51 -27q-21 -23 -9 -51q-65 -2 -54 -70q13 -20 35 -29q-15 -25 -6 -44z"
         id="glyph22791" />
      <glyph
         glyph-name="asterisk"
         unicode="*"
         horiz-adv-x="1792"
         d="M1450 493q22 38 -21 83q-42 45 -77 23q-93 -58 -155 -147q-76 -108 0 -149q76 -5 135 -54q20 -16 53 -50q40 -41 58 -58q11 -10 42 -42q30 -31 49 -48q60 -54 99 -51q38 4 76 48q37 43 37 79q0 43 -51 99q-14 16 -46 46q-31 30 -44 45q-91 103 -155 176zM429 1105 q-212 138 -247 177q2 -2 -34 53q-21 29 -50 39q-3 9 -14 7q-3 -25 -18 -111q-14 -81 -18 -129q-13 -155 57 -204q27 22 29 66q1 28 -10 86q-23 122 9 158q37 -35 46 -114q6 -47 3 -157q-2 -110 3 -157q10 -80 47 -114q23 23 20 64q-2 22 -18 76q-14 50 -13 74q1 36 32 53 q12 -9 23 -54q9 -39 33 -44q13 18 5 72q-8 50 9 62q35 -67 80 -351q36 -230 132 -298q28 49 16 115q-6 38 -39 123q-32 82 -39 127q-10 72 19 129q33 -14 55 -90q21 -74 58 -86q14 55 -11 128q-36 104 -38 118q11 -3 31 -33q16 -25 32 -16q-34 130 -190 231zM880 1078 q-213 183 -313 238q-198 108 -441 93q486 -416 1000 -951q91 84 183 183q-154 200 -429 437z"
         id="glyph22793" />
      <glyph
         glyph-name="plus"
         unicode="+"
         horiz-adv-x="1110"
         d="M1038 1088q-17 -2 -29 -16q-31 -34 -2 -69q11 -3 11 -5q52 -1 62 66q-7 2 -6 12q-17 14 -36 12zM446 1048q-27 -73 -16 -125q9 -40 44 -79q9 -10 33 -34q22 -22 34 -35q37 -45 50 -94q28 -115 -45 -230q-92 -144 -100 -209q-16 -126 68 -199q86 -76 193 -18 q75 41 111 221q50 242 78 302q11 22 43 69q37 53 52 81q58 107 33 205q-29 112 -166 192q-141 82 -273 58q-107 -19 -139 -105zM997 1106q18 25 10 64q-18 15 -40 10q-20 -4 -35 -22q-14 -18 -14 -38q-1 -23 17 -39q42 -3 62 25zM273 1096q17 12 40 2q-3 -8 -22 -15 q-17 -6 -17 -19q-1 -27 28 -33q39 4 22 56q25 -22 19 -42q-4 -17 -27 -23q-23 -7 -41 3q-20 11 -18 39q2 21 16 32zM427 1125q56 11 80 17q119 30 128 50q-2 7 -11 6q8 1 -176 -50q-109 -29 -180 -6q-77 -28 -94 -61q-80 -159 -139 -322q162 -97 233 -122q10 34 52 112 q51 95 68 133q70 165 -36 227q23 6 75 16zM862 1123q28 5 54 44q27 38 20 66q-8 31 -62 20q-27 -5 -44 -27q-18 -24 -12 -56q11 -52 44 -47zM802 1203q25 25 31 63q5 39 -14 61q-22 26 -67 15q-54 -12 -65 -81q-5 -30 6 -51q13 -24 42 -29q39 -6 67 22zM620 1226 q41 32 60 83q21 52 2 81q-23 34 -91 19q-32 -7 -58 -33q-25 -26 -31 -56q-9 -44 1 -77q10 -32 32 -40q41 -13 85 23z"
         id="glyph22795" />
      <glyph
         glyph-name="comma"
         unicode=","
         horiz-adv-x="3062"
         d="M2121 602q58 -37 82 -48q-4 -29 -39 -122q-27 -74 -22 -130q44 -36 69 -35q42 3 64 61q7 18 17 54q10 40 15 53q48 146 45 165q-4 32 -52 59q-14 8 -40 20t-34 17q-83 46 -103 65q-1 9 5 21t6 21q-51 56 -57 72q-18 50 -1 112t51 68q60 12 61 -48q0 -10 -5 -54 q-3 -33 1 -47q2 8 36 75q23 45 10 86q-17 53 -85 46q-62 -5 -95 -42q-43 -49 -77 -134q-36 -87 -41 -161q-5 -63 27 -90q10 -9 76 -36q31 -13 86 -48zM1607 600q-6 -10 -15 -35q-9 -23 -16 -34q37 5 144 4q95 -2 131 8q-169 80 -176 88q-47 6 -68 -31zM2662 849 q-31 3 -52 -20q-19 -21 -21 -53q-2 -31 15 -53q20 -24 58 -24v150zM2795 99q-46 -8 -92 13q-45 20 -70 62q-27 44 -20 97q7 61 57 88q11 -29 33 -70q30 -55 36 -68q14 3 33 15q19 13 32 16q-10 24 -35 70q-24 46 -34 71q47 13 90 -9q38 -20 62 -62q23 -41 22 -86 q0 -49 -29 -84q-35 -43 -85 -53zM2903 449q-96 67 -218 36q-163 308 -218 417h-168v-19q74 -4 75 -4q39 -9 36 -49q14 -8 46 -69q-28 -2 -162 1q-100 1 -152 -9q53 -25 107 -57q93 -55 100 -65q20 -31 9 -68q-3 -10 -12 -32t-13 -34q-55 -194 -61 -203q-27 -45 -83 -34 q-54 11 -62 57q-8 42 29 122q38 83 36 115q-30 13 -79 40q-54 29 -78 40q45 -38 25 -109q1 4 -48 -112q42 -67 46 -119h-46q-31 69 -27 65q-2 -38 -24 -72q-22 -32 -53 -47q-33 -15 -61 -4q-32 13 -49 58q-41 -9 -39 -4q6 -13 4 -48q-1 -37 0 -44q13 0 73 1q46 1 69 -5 q-18 -55 -67 -79q-44 -22 -97 -11q-53 10 -87 48q-38 41 -36 100q2 74 69 118q70 46 145 12q4 22 17 48q19 37 21 44q-123 51 -232 -17q-103 -64 -116 -178q-10 -97 38 -169q45 -64 124 -92q77 -27 153 -8q82 20 129 85q8 11 46 103h337q35 59 100 192q64 128 102 191 q8 -20 35 -65q23 -39 30 -69q-83 -43 -98 -166q-14 -121 49 -194q56 -65 138 -81q77 -14 151 17q75 31 116 96q45 71 35 160q-13 107 -104 170zM2084 973q-11 -64 4 -101q27 -65 123 -83q82 -16 176 6q19 26 11 61q-28 18 -133 13q-40 -2 -61 6q-27 9 -35 39l11 87 q7 52 -46 47q-37 -4 -50 -75zM1244 995q-36 32 -47 41q34 58 73 46q3 -26 21 -47q7 -7 18 -17q14 -13 18 -16q-3 -11 -17 -24t-17 -22q-21 13 -49 39zM1802 572q70 -28 103 -49q-5 -21 -53 -109q-43 -76 -39 -116q3 -27 24 -45q21 -19 49 -16q36 3 64 58q9 18 21 48 q15 40 18 47q6 14 22 43q18 33 26 48q28 59 21 100q-7 35 -52 51q-67 25 -78 33q-34 62 -34 156q0 101 45 142q4 0 16 -6q10 -5 19 -5q1 19 15 40q16 23 19 36q-46 26 -153 46q6 -1 -83 24q-53 14 -81 7q-11 -3 -26 -14q-19 -14 -24 -17q-137 -69 -226 -26q-12 5 -44 35 q-30 26 -44 30q-7 1 -19 -3q-15 -5 -23 -5q-11 0 -28 5q-15 4 -22 3q-17 -4 -37 -30q-20 -27 -35 -32q-31 -1 -111 -57q-68 -47 -69 -61q-3 -26 39 -61q11 -10 34 -26q20 -15 26 -20q8 -7 26 -27q19 -21 30 -31q38 -37 63 -34q30 3 59 68q31 73 44 81v46q11 8 25 28 q16 22 25 29q38 -38 129 -40q81 -2 139 21q-9 -182 76 -348q30 -17 104 -47zM596 1147q-46 49 -118 35q-45 -10 -65 -35q-43 -52 -28 -106q13 -48 63 -76q49 -27 97 -15q53 14 74 75q25 72 -23 122zM2381 1102q41 31 49 90q8 58 -23 97q-36 44 -108 34q-49 -7 -76 -39 q-24 -29 -25 -71q-2 -40 18 -74q21 -36 56 -49q63 -24 109 12zM1947 1153q22 40 16 88q-7 49 -41 77q-38 31 -98 20q-53 -9 -78 -53q-23 -39 -14 -87q9 -49 45 -77q40 -31 97 -20q48 9 73 52zM763 873q-26 -5 -37 -5q-192 -12 -344 73q-48 27 -92 145q-33 92 -23 272 q-10 11 -28 13q-19 3 -33 -6q-26 -122 2 -248q26 -116 86 -192q-135 -249 -184 -467q12 -3 45 -8q30 -5 43 -11q-20 -53 -62 -153q-45 -108 -64 -157q-20 -50 -16 -88q6 -52 66 -38q27 7 48 60q6 17 15 47q10 33 13 42q29 82 88 226q2 3 6 16q3 10 6 16q9 18 23 18 q13 -15 14 -46q0 -9 -1 -27q-2 -18 -2 -27q0 -272 16 -317q75 -30 89 42q3 11 3 157v206q35 -6 95 -7q-41 218 -15 409q111 -28 229 -19q128 9 115 61q-6 25 -61 19q-12 -1 -40 -6zM452 1279q-6 23 -5 33q9 -4 25 -16q14 -12 25 -15q14 10 26 45q12 36 24 47q25 -79 23 -77 q14 2 37 25q26 27 39 33q-12 -54 -15 -88q18 -2 51 6q31 8 44 5q-5 -8 -32 -36q-21 -21 -29 -40q26 -8 69 -27q-5 -4 -31 -13q-20 -7 -26 -18q23 -3 51 7q29 10 41 28q-10 9 -38 17q-29 9 -39 17q10 15 37 42q26 25 36 42q-19 4 -55 -3q-42 -9 -60 -8q15 98 15 99 q-22 -7 -48 -30q-29 -27 -44 -35q-2 17 -23 92h-11q-44 -101 -50 -111q-42 40 -65 42q0 1 6 -53q4 -32 21 -39q6 10 1 29z"
         id="glyph22797" />
      <glyph
         glyph-name="hyphen"
         unicode="-"
         horiz-adv-x="1688"
         d="M817 36q13 -11 35 -8q6 -5 -28 25q-18 15 -27 9q16 -22 20 -26zM792 13q24 -23 53 -6q-26 0 -45 24q-27 36 -30 38q0 -34 22 -56zM981 68q39 33 23 83q-32 -10 -64 -43q-42 -45 -53 -53q54 -19 94 13zM269 429q-3 -5 -7 -24q1 -1 6 -9q4 -8 8 -12q11 -13 20 1 q-18 8 -17 23l10 32q-14 0 -20 -11zM235 400q3 -36 27 -43q-16 16 -10 55q6 37 -4 42q-16 -21 -13 -54zM891 485q6 -4 9 -4q-2 -16 -6 -22q-6 -9 -21 -5q-8 7 -3 16l10 18q6 1 11 -3zM853 371q7 3 20 10q13 8 21 11q71 -26 75 -28q48 49 69 110q-11 38 -72 66q-65 30 -79 58 q4 0 -42 1q-25 0 -27 -15q62 -33 24 -91q-67 -102 -65 -94q16 1 42 18q19 12 40 2q-4 -10 -37 -21q-28 -8 -25 -34q30 -4 56 7zM1036 615q46 12 67 18q76 22 113 54q-129 -15 -247 -89q23 7 67 17zM1454 642q30 58 3 93q-32 -15 -65 -87q-30 -67 -72 -78q-63 5 -127 -48 t-128 -48q-25 -79 -103 -192q-10 -15 -33 -43q-24 -29 -34 -43q-36 -53 -36 -100q59 -15 127 73q76 99 114 106q14 3 38 -4q25 -6 37 -3q43 9 92 67q55 65 80 77q226 -54 295 -41q-23 44 -129 87q-99 41 -118 99q52 71 59 85zM1113 831q-2 9 -13 7q-20 -24 -68 -71 q-50 -50 -70 -73q-42 -50 -18 -36q23 13 60 50q102 103 109 123zM927 781q2 12 13 67q9 41 15 66h-20q-1 -5 -55 -248q29 37 47 115zM894 1073q-20 14 -35 6q10 -15 55 -42q0 22 -20 36zM857 169q39 50 43 65q-66 40 -164 96q9 29 -15 37q-31 10 -33 18q74 27 85 143 q-1 -4 -3 221q-18 6 -41 -11q-25 -18 -41 -17q-29 3 -45 26q-16 24 -10 57q3 17 50 53q48 36 53 64q1 8 -10 30q-9 17 3 31q49 -15 55 -20q1 -39 -68 -88q-70 -50 -70 -84q0 -51 48 -55q31 -2 101 65q69 67 85 114q34 101 -55 144q-73 35 -192 21q35 -89 -12 -159 q-45 -68 -126 -68q-52 0 -92 35q-8 7 -66 75q-241 -115 -309 -296q45 -64 97 -12q14 14 44 54q28 39 44 55q69 65 158 103q59 -58 83 -103q35 -68 27 -158q-10 -34 -83 -91q-67 -52 -75 -109q-8 -67 63 -193q68 -119 102 -123q108 -11 77 116q-15 64 -70 166q52 84 103 110 q-1 -35 -19 -104q-16 -64 -15 -109q54 -57 275 -172q-11 35 18 73zM942 1044q-6 64 -76 69q23 -17 76 -69zM377 1082q-25 -41 -19 -93t41 -86q38 -38 96 -37q67 0 105 50q35 45 30 106q-4 62 -46 97q-48 39 -123 21q-56 -12 -84 -58zM415 1231q-17 13 -9 19q-1 0 48 -6 q11 6 5 30q-5 22 2 24q9 -3 24 -13q15 -11 24 -14q8 8 11 37q3 30 9 39q9 -6 19 -30q9 -21 23 -25q16 0 27 17q13 20 21 24l7 -76q13 -2 37 10q19 10 25 4q-4 -15 -18 -37q-14 -23 -17 -39q2 -6 21 -6q19 1 20 -7q-1 -11 -19 -19q-16 -8 -15 -23q64 14 82 49q-6 6 -33 11 q-24 4 -28 16q42 70 48 89q-13 7 -39 -5q-31 -15 -44 -15v89q-23 -1 -40 -21q-30 -35 -28 -34q-13 7 -29 41q-13 30 -33 35q-8 -12 -11 -45t-10 -45q-12 1 -37 20q-20 15 -32 8q-2 -16 5 -33q9 -20 9 -29q-13 -1 -49 8q-28 6 -40 -1q38 -64 82 -76q2 13 -18 29z"
         id="glyph22799" />
      <glyph
         glyph-name="period"
         unicode="."
         horiz-adv-x="2101"
         d="M1792 287q1 -1 60 -2q8 5 12 21q4 15 0 23q-10 -2 -51 -3q-32 -2 -48 -5q-2 -29 27 -34zM1770 354q-9 8 -13 11q-2 -8 1 -15q4 -7 3 -13q23 0 24 8q-8 1 -15 9zM1926 682q18 7 26 5q14 -1 21 -19q8 -21 15 -25q17 37 -23 52t-61 -12q8 -7 22 -1zM2012 714q-11 -37 16 -59 q-12 32 2 57q5 9 14 20q13 16 16 19q-37 1 -48 -37zM533 687q51 10 64 15q39 14 36 37t-40 24q-14 1 -73 -14q-63 -16 -102 -18q-133 -6 -140 -8q-6 -16 -4 -36q88 -33 259 0zM422 584q-15 20 -44 79q-63 1 -81 5q-37 10 -31 43q7 39 72 24q-20 46 -62 30q-39 -14 -46 -50 q-9 -47 32 -131q34 -69 104 -120h48q67 -51 111 -119q2 -3 36 -84q27 -67 44 -72q58 -17 59 37q1 36 -19 87q-34 81 -88 143q3 -3 -33 29q-17 16 -15 31l108 4q18 -2 56 -13q43 -12 58 -15q64 -11 57 48q-6 47 -135 68q-104 16 -231 -24zM1928 753q-5 -8 -16 -23 q-10 -13 -12 -19q36 8 48 45q13 39 -24 55q21 -26 4 -58zM2025 776q-12 -6 -21 -5q-22 7 -32 52h-12q-9 -38 29 -56q38 -17 59 12q-12 2 -23 -3zM283 916q-30 25 -77 14q-50 -11 -59 -51q-12 -51 10 -80q20 -26 58 -28q36 -1 64 20q30 23 31 60q1 41 -27 65zM190 966 q15 2 11 19q-5 26 -3 33q-11 2 -18 -11t-17 -13q-5 4 -18 27q-10 17 -22 21q-6 -4 -4 -24q1 -20 -4 -24q-9 1 -23 9q-13 8 -25 7q0 -12 7 -25q8 -15 9 -23q-7 -4 -28 -3q-22 0 -28 -5q4 -11 20 -19q19 -10 24 -17q-2 -7 -17 -14q-14 -7 -15 -17q2 -5 18 -4t18 -4 q-2 -7 -14 -21q-10 -11 -10 -23q13 -1 31 5q22 8 29 19q-7 5 -16 0q-12 -7 -20 -4q1 4 10 16q7 9 6 20q-24 7 -24 4q2 6 12 12q10 5 12 11q-3 7 -20 15q-14 7 -16 17h44q1 11 -6 22q-7 12 -6 22q34 -19 44 -20q8 38 4 36q7 -4 24 -32q9 -2 18 9q7 9 13 3v-24zM453 1050 q28 22 64 52q4 3 17 12q13 8 18 13q19 18 5 39q-111 -89 -123 -100q-86 -79 -112 -112q15 5 131 96zM445 1237q-3 1 -9 8q-6 6 -14 4q-16 -39 -70 -140q-46 -88 -62 -139q14 6 44 60q101 184 111 207zM265 1131q3 110 9 158q-4 3 -13 6q-12 5 -15 6q0 -2 -2 -5t-2 -7 q2 -23 -1 -163q-2 -98 13 -140q9 48 11 145zM1846 508q8 -33 6 -28q-18 -10 -28 13q-11 24 8 35q11 -4 14 -20zM1867 644q-17 17 -23 27q-4 9 -11 27t-11 26q-15 28 -41 31q-6 -8 3 -27t5 -25q-38 29 -144 80q-122 59 -223 48q-22 23 -90 69q-61 41 -85 74q-6 8 -13 24 q-7 17 -11 24q-22 32 -176 148h-40q-99 105 -111 111q-23 11 -82 25q-55 12 -82 27q-14 8 -45 35q-25 22 -46 29q-2 5 -8 4q0 -2 -3 -6q-2 -3 -1 -6q46 -151 127 -184q175 -69 164 -59q-23 -21 -46 -102q-21 -73 -58 -90q-8 4 -29 18q-17 11 -31 14q-35 8 -123 0 q-85 -7 -112 0q-9 3 -22 17q-11 12 -22 11q-4 -6 -33 -42q-21 -26 -30 -46q20 -12 49 0q45 20 50 20q49 8 106 -8q56 -16 70 -39q-26 3 -36 0q-74 -54 -188 -92q-14 35 -50 32q-37 -4 -41 -44q49 -36 114 -20q18 5 52 18q34 14 49 18q12 3 34 3q25 0 34 1q25 3 77 19 q48 15 74 17q57 -45 84 -57q55 -26 119 -11q11 -19 66 -145q37 -87 82 -122q8 -6 32 -15q22 -9 32 -17q10 -9 24 -35q18 -33 23 -41q42 -61 48 -75q12 -30 20 -86q10 -70 16 -94q-9 -15 -24 -63q40 -30 56 -36q18 48 4 158q-16 127 -12 160q51 -63 75 -156q28 -108 -7 -182 q1 -1 32 -23q22 -15 28 -9q16 26 11 64q-1 10 -6 33q-4 22 -5 34q-24 252 -60 315q27 28 111 100q22 -12 63 -24q54 -16 65 -20q-3 2 67 -109q41 -66 116 -50q-2 31 22 138q20 89 -2 137q-4 9 -21 24z"
         id="glyph22801" />
      <glyph
         glyph-name="slash"
         unicode="/"
         horiz-adv-x="1736"
         d="M1534 754h6q-1 2 -4 -8q-1 0 -2 8zM1462 786q-1 -6 -10 -8q0 6 10 8zM1217 1048q-2 -2 -4 -1q-2 3 -2 6q3 2 7 2q4 -1 3 -6q-2 0 -4 -1zM1686 707q-1 -9 -16 146q-1 3 0 10v10q-2 17 -11 55q-8 34 -9 50q-13 148 -63 172q-11 5 -69 10q-53 4 -68 2q-36 -6 -39 -41 q0 -2 2 -2q1 6 2 6q5 -7 -1 -15q-10 -11 -11 -13q1 2 -2 -28q-2 -17 -18 -18q-14 10 -34 46q-19 36 -33 47q-26 19 -54 1q-1 0 -41 -38q-26 -25 -22 -20q-11 -13 -2 -28q8 1 10 17t10 17q0 -5 4 -3q4 1 4 -3q-13 -4 -17 -23q1 6 -5 -36q10 -10 4 -22q1 -1 15 -10q9 -5 7 -14 q41 -4 57 38q29 -36 40 -58q28 -54 27 -73q-1 -15 -39 -73q-2 -3 -52 -60q-11 -12 -15 -20q-9 -21 4 -48q15 -32 13 -52q-3 -20 -61 -143q-33 -71 -55 -149q-4 -17 -13 -73q-7 -42 -17 -61q7 -6 10 -54q2 -30 14 -80q12 -54 15 -76h189q24 132 35 154q3 7 15 17q13 12 17 19 q37 53 37 123q-1 16 -5 40q-7 30 -8 39q-1 11 0 20q4 27 43 87q35 54 54 77q1 -18 9 -67q6 -41 4 -64q-1 -4 -23 -71q-51 -158 -91 -227q-8 -63 -14 -86q19 -5 47 -1q32 5 42 19q7 10 11 45q3 41 7 54q5 16 18 44q14 32 17 41t16 43q10 27 16 44q5 15 18 44q12 28 16 40 q9 28 12 84q3 66 7 84q24 8 34 36q10 26 4 57q7 3 9 15q3 13 -3 19q0 -14 -4 -22zM999 1233q2 -4 -34 2q-6 15 -33 107q4 4 16 6q13 3 17 6q6 14 0 32q-5 17 -17 24q-9 -2 -28 -6q-12 14 -27 -1q-18 -18 -29 -17q-8 -12 -4 -31t16 -25q7 0 17 3q12 4 17 5q8 -20 19 -55 q12 -43 17 -57q-7 -20 -28 -64q-1 0 -2 2t-4 2q-10 -5 -36 -23q-21 -15 -37 -22q1 8 -6 19t-8 18q0 5 2 17q3 11 2 17q0 5 -7 21q-5 12 -3 22q9 -1 11 5t7 7q-2 10 -12 20q-13 13 -16 18q-13 4 -39 15q-29 12 -42 16q-50 16 -77 -9q0 7 -4 8q-1 0 -2 -6q-1 -4 -4 -4 q-2 1 -5 5q-3 3 -7 3q5 -7 0 -12q-6 -6 -6 -14q-3 -1 -12 -6q-8 -3 -14 -4v-16q-15 -19 -18 -68q-1 -12 -1 -41q0 -25 -1 -37q-3 0 -7 3q-4 2 -7 1q-44 -37 -51 -52q-15 -11 -52 -34q-34 -22 -51 -35q-56 -44 -69 -103q-25 -15 -28 -44q-17 -18 -36 -53q-25 -48 -31 -56 q-22 -18 -66 -122q-60 -138 -63 -157q-13 -15 -27 -55q-15 -40 -28 -54q15 -2 25 -15q-43 -102 -31 -157q-5 0 17 -24q12 1 16 21q1 3 4 18q2 11 4 17q2 7 7 18q5 10 7 15q-1 -80 2 -83q13 9 19 37q11 53 9 48q34 37 31 36q3 -5 7 -17q5 -14 7 -19q9 -21 28 -17q-1 9 -20 87 q0 2 5 6q4 3 3 8q60 196 166 324q-1 -78 -30 -182q-38 -135 -43 -168q-4 -21 -14 -131q2 -6 13 -13t13 -13q1 -3 -1 -7q-1 -6 -1 -8q0 13 -6 -135h323q11 36 51 279q10 -1 35 -9q22 -6 35 -5q29 1 53 32q22 28 26 61q6 50 -12 126q-25 103 -28 130q-1 5 0 13v14 q-1 6 -29 153q-14 79 -18 87q110 101 117 115q15 10 45 33q29 21 44 32q-8 8 -7 20q2 16 -1 22q9 13 30 15q5 1 17 1h16q-1 -1 -2 19q3 0 14 10q-18 71 -14 66q7 11 6 19z"
         id="glyph22803" />
      <glyph
         glyph-name="zero"
         unicode="0"
         horiz-adv-x="1867"
         d="M722 195q19 -4 145 -6q1 16 -6 33q-10 20 -11 28q-13 -1 -78 1q-49 1 -72 -6q17 -30 22 -50zM355 522v-66h262q-6 1 22 -39q16 12 69 11q58 -1 75 6q-19 36 -33 88h-395zM1628 759q-129 39 -311 30q-118 -5 -165 -14q-91 -16 -130 -58q-3 -3 -72 -156q-67 -148 -72 -155 q-140 7 -192 -6q-95 -23 -47 -111q53 -14 160 -12q148 2 173 1q51 116 111 222v-472h556q2 43 -1 254q-3 157 12 240q43 -32 28 -251q-15 -223 17 -254q21 -22 63 -16q40 6 59 32q-3 74 9 285q9 175 -4 260q-19 129 -194 181zM1350 1050q-44 -18 -111 -25q-82 -10 -133 9 q3 -99 82 -157q70 -53 171 -54q101 0 173 51q79 57 85 154q-187 -21 -267 22zM1525 1051q9 18 5 39q-4 22 -21 29q-19 9 -48 -8q-40 -22 -16 -55q22 -31 50 -28q20 3 30 23zM1258 1112q-21 14 -52 -1q-36 -15 -32 -38q4 -19 31 -33q28 -13 50 -5q25 9 23 43q-1 23 -20 34z M688 210q-5 28 -16 40q-8 9 -45 29q-23 13 -27 43q-2 18 7 48q9 29 4 52q-49 8 -138 7q-121 -2 -145 -1q1 10 -1 65q-1 40 6 57h434q3 -6 14 -39q7 -24 19 -33v67q83 42 96 51q49 32 71 76q36 75 21 287q-17 253 -10 308q-19 28 -64 32q-44 5 -64 -21q-21 -28 -18 -115 q0 -21 4 -72q3 -43 3 -63q0 -17 2 -64q3 -49 3 -74q0 -90 -22 -112q-21 -21 -71 -12q-12 2 -45 9q-29 7 -45 9q-200 24 -411 -23q-35 7 -45 80q-7 52 -2 161q12 249 -9 276q-19 26 -64 21q-44 -4 -63 -32q2 -58 -9 -276q-10 -187 3 -268q11 -69 72 -115q19 -14 56 -35 q40 -23 55 -34v-511h556v133q-40 -3 -94 11q-13 11 -18 38zM786 1100q-8 69 -53 126q-43 55 -108 83q-67 28 -136 19q-135 -18 -197 -135t-3 -237q34 -70 101 -106q62 -33 136 -31q73 2 135 37q64 35 95 94q38 75 30 150zM1378 1128q212 0 250 17q6 87 -46 153 q-48 61 -128 88t-160 11q-85 -18 -138 -80q-32 -37 -52 -94q-26 -71 7 -95h267z"
         id="glyph22805" />
      <glyph
         glyph-name="one"
         unicode="1"
         horiz-adv-x="2519"
         d="M248 267q27 -14 64 -43q49 -38 44 -34q-14 97 79 86q28 -3 82 -20q58 -17 75 -20q-127 153 -164 364q-7 -3 -98 -79q-63 -53 -128 -44q-16 2 -45 22q-24 17 -32 14q-59 -163 -77 -338q41 -45 154 -47l-39 45q-27 30 -18 68q19 71 103 26zM364 233q-12 -43 7 -58 q8 -5 144 -47q116 -35 128 -36q76 -9 62 67q-6 30 -122 69q-91 31 -171 44q-36 6 -48 -39zM310 209q-24 24 -38 36q-47 38 -85 22q-46 -18 -27 -63q14 -32 47 -60q9 -8 41 -39q33 -31 53 -49q69 -59 101 -56q21 2 37 23q15 19 14 39q0 24 -40 59q-12 10 -35 28 q-24 19 -32 26q-10 8 -36 34zM330 529q107 83 154 241q-6 2 -5 10q-18 13 -51 10q-1 -4 -5 -8q-5 -4 -6 -7q-94 -156 -133 -185q-82 -59 -92 5q26 -33 70 -9q38 21 53 55q-31 47 -31 67q-63 11 -109 -20q-40 -28 -51 -76q-12 -47 11 -83q26 -39 82 -41q58 -3 113 41z M509 656q27 33 26 78q0 52 -39 85q-34 29 -83 31q-50 1 -84 -27q-39 -32 -40 -89q-1 -40 31 -82q30 10 61 85q29 69 67 69q72 -1 29 -95q-47 -102 -49 -100q52 11 81 45zM573 622q41 20 44 66q5 61 -56 134q-26 32 -51 44q-29 13 -46 -4q70 -30 76 -124q7 -95 -66 -127 q60 -8 99 11zM212 831q-27 5 -31 16q14 0 32 9q20 9 30 11q-2 20 -30 43q-27 23 -26 34q10 -5 40 -8q31 -2 42 -7q5 12 -4 45q-11 33 -7 42q7 -4 35 -29q21 -19 42 -22q17 68 21 71q3 -15 18 -40t18 -42q17 -1 30 13q15 17 26 18q0 -4 -2 -15q-3 -13 -4 -19q-2 -23 11 -27 q13 35 11 92q-18 -2 -34 -18q-21 -20 -28 -23q-59 105 -56 103q-8 -12 -13 -44q-6 -32 -13 -44q-11 6 -41 31q-24 21 -46 26q0 -21 9 -50q9 -33 11 -48q-2 0 -53 7q-38 6 -55 4q9 -21 35 -43q29 -26 37 -40q-11 -6 -36 -15q-24 -9 -36 -15q9 -19 42 -29q28 -9 51 -7 q-1 15 -26 20zM1325 1242q-49 56 -133 36q-109 -27 -92 -144q6 -44 40 -73q31 -26 74 -31t79 14q38 21 53 64q26 79 -21 134zM2401 1055q-18 -10 -29 -8q4 19 31 25q48 11 46 11q11 -31 10 -36q-38 -15 -77 -26q-3 17 18 21q23 4 23 15q-6 6 -22 -2zM2389 1085 q-41 -12 -37 -38q-123 -30 -245 -15q-132 16 -176 76q-23 31 -20 99q3 78 -11 112q-13 32 -87 58q-19 7 -59 19q-36 10 -49 15q-4 -12 -32 -17q-27 -5 -29 -19q-4 -18 13 -14q18 4 17 -6q-58 -237 -256 -308q-17 -6 -169 -41q-26 -6 -168 -43q-101 -27 -176 -39 q-7 -2 -50 -8q-32 -4 -51 -8q-55 -14 -58 -41q-4 -33 23 -43q18 -6 64 -3q100 7 359 77q35 -55 46 -122q13 -79 -15 -135q-10 -18 -44 -52q-39 -39 -54 -60q-74 -109 -128 -293q-34 -114 -35 -155q-4 -96 86 -76q29 7 45 50q5 12 22 84q74 302 210 390q-14 -171 36 -344 q25 -82 37 -111q29 -63 66 -69q25 -3 50 9q25 13 32 32q13 34 -12 90q-40 92 -39 90q-26 89 -31 174q-6 100 34 306q34 176 7 284q226 131 262 365q44 -1 76 -21q34 -20 37 -51q2 -26 2 -62q-1 -43 -1 -53q3 -56 34 -90q64 -68 208 -77q111 -7 239 20q5 -1 8 -12t12 -8 q25 12 98 30q-9 61 -26 77q-7 -5 -65 -23z"
         id="glyph22807" />
      <glyph
         glyph-name="two"
         unicode="2"
         horiz-adv-x="1318"
         d="M231 181q-1 -124 8 -164q15 -14 42 -14t41 14q25 70 21 178q-3 107 -30 171q-75 -23 -99 -24q18 -51 17 -161zM322 371q5 -19 24 -69q18 -46 26 -83q4 -22 7 -63q2 -53 4 -66q8 -73 48 -78q59 -7 64 68q3 41 -15 139q-26 139 -64 187q-95 -35 -94 -35zM568 937 q-55 -71 -137 -79q-19 -2 -132 22q-36 8 -53 4q-21 -5 -22 -31q-1 -42 90 -61q76 -16 141 -8q58 8 123 53q71 50 59 90q-4 15 -20 21q-17 7 -39 -1q-3 -1 -10 -10zM273 896q20 -3 56 -13q44 -13 52 -15q1 64 -69 85q-65 21 -113 -11q-84 -58 -120 -266q-15 -86 -32 -329 q122 -10 247 29q60 19 206 84q-87 134 -109 314q-82 8 -114 18q-60 17 -63 56q-3 55 59 48zM503 971q30 36 29 88t-34 85q-36 36 -97 29q-50 -6 -79 -45q-27 -35 -27 -81q1 -47 29 -78q32 -36 87 -37q58 -1 92 39zM1254 1378q-12 16 -31 11q-39 -8 -100 -75q-70 -79 -92 -92 q-33 65 -117 56q-83 -8 -105 -71q-24 -68 14 -115q33 -43 93 -49q61 -5 99 32q44 42 31 122q64 40 113 50q17 -97 14 -109q-14 -72 -88 -104q-58 -26 -169 -29q-377 -13 -382 -14q-66 -88 -153 -64q2 -8 8 -22q6 -13 7 -22q19 5 57 6q35 0 56 8q23 9 48 41q21 25 46 23 q19 -1 30 -14q25 -31 24 -30q26 -2 63 1q43 4 60 4q9 -154 -39 -571q-1 -5 -16 -98q-13 -75 -14 -121q-6 -143 79 -130q39 6 52 57q-1 -4 12 106q8 67 34 275q1 9 2 34q0 25 2 38q6 42 40 41q17 -50 3 -261q-14 -205 7 -255q16 -37 59 -37q42 0 64 32q7 168 6 447 q-2 373 -1 453q110 28 164 136q58 116 -6 228q50 38 54 44q3 -3 -28 38zM384 1290q-7 29 -7 30q8 -3 29 -19q17 -14 34 -15q9 59 20 84q3 -11 16 -36q11 -22 14 -38q19 2 36 22q20 23 33 27q-5 -27 -10 -84q16 -2 42 9q24 9 31 6q-45 -92 -44 -83q42 -9 49 -20q3 1 -29 -10 q-18 -6 -20 -20q16 -4 41 10q34 18 43 20q-2 16 -29 22q-30 7 -35 17q55 75 54 94q-17 -3 -43 -12q-28 -10 -41 -13q0 13 5 53q3 33 0 45q-16 -6 -37 -28q-23 -24 -36 -31q-6 8 -22 48q-12 31 -28 41q-5 -11 -12 -52q-5 -34 -17 -46q-5 2 -30 22q-17 14 -34 17q8 -77 24 -89 q8 9 3 29z"
         id="glyph22809" />
      <glyph
         glyph-name="three"
         unicode="3"
         horiz-adv-x="1624"
         d="M1355 1304q-7 -5 -4 -14q2 -15 20 -29q19 -15 21 -30q-6 -1 -12 -8q-5 -8 -11 -9q-55 9 -81 -40q-31 -60 -55 -66q-6 4 -16 17l-16 20q-21 22 -39 4q-1 -21 24 -38q25 -16 23 -27q-2 -18 -35 -27q-11 -3 -33 -7q-25 -4 -36 -7q-43 -10 -59 -28q-23 -25 -7 -72 q-6 -2 -20 -14q-11 -9 -22 -10q-31 50 -59 53q-12 -23 8 -41q26 -23 28 -35q-4 -3 -84 -40q-52 -23 -52 -72l-12 -6q-7 -5 -11 -6q-32 36 -33 37q-24 18 -44 -2q65 -106 130 -129q15 15 3 32q-20 27 -21 32q8 28 71 24q21 8 39 52q17 42 43 48q8 -2 23 -22q11 -16 30 -13 q13 18 -2 34q-21 22 -21 31q9 18 32 19q5 0 22 -2q14 -1 22 0q41 4 63 33q23 30 14 73q5 4 23 19q13 11 24 17q7 -3 24 -23q14 -16 35 -13q2 20 -12 36q-16 18 -18 29q11 2 24 15q12 13 24 15q48 -12 68 31q24 52 44 57q6 -4 15 -13l14 -14q18 -14 35 3q-40 90 -123 136 q0 -5 -8 -10zM1286 1355q13 -5 28 11q17 19 37 19q24 -1 120 -104q96 -101 98 -126q2 -22 -11 -38q0 1 -25 -21q4 -8 26 -13q20 -4 22 -17q-15 -40 -59 -80q-14 -13 -39 -31q-32 -25 -38 -30q-284 -230 -465 -359q7 -8 34 -16q25 -7 30 -20q2 -30 -14 -53q-1 -1 -33 -35 q-79 19 -114 -32q-25 -39 -34 -133q0 -8 -5 -81q-3 -50 -7 -80q-13 -86 -52 -116q-72 12 -71 136q3 187 1 194q-7 25 -25 51q-22 30 -40 31q-29 2 -47 -24q-11 -17 -24 -60q-29 -94 -65 -104q-8 10 -34 112q-16 59 -95 53q-206 -16 -348 -112q20 48 117 90q122 52 148 75 q116 8 328 65q203 55 320 59q8 5 -1 18q-11 15 -5 29q-40 -41 -87 -4q-16 12 -84 92q-10 13 -44 46q-28 28 -40 44q-34 49 20 87q-5 9 -29 15q-22 7 -24 20q11 39 55 76q13 11 40 30q28 20 40 30q30 24 146 120q91 75 149 121q141 112 182 124q22 -7 18 -59z"
         id="glyph22811" />
      <glyph
         glyph-name="four"
         unicode="4"
         horiz-adv-x="1784"
         d="M881 972q-157 -24 -158 -24q-23 -10 -62 -45q-53 -48 -60 -53q-103 -78 -121 -103q35 -45 81 -26q13 6 71 50q102 79 118 88q70 41 149 34q-25 -32 -95 -143q-60 -95 -105 -143q-21 -22 -66 -54q-58 -42 -74 -55q-139 -115 -140 -116q-37 -16 -123 -32q-88 -16 -132 -35 q-42 -63 -25 -97q35 9 162 28q93 13 161 45q13 6 152 122q11 9 35 32q30 30 40 39q50 46 77 50q63 10 121 -73q84 -121 91 -127q-12 -25 -66 -116q-42 -70 -61 -122q26 -28 97 -24q30 35 183 304q-29 41 -92 116q-63 76 -91 115q20 21 113 127q69 78 118 123q24 -3 74 -34 q45 -29 78 -27q34 2 105 60q21 17 52 46q31 28 38 34q12 10 54 38q35 25 51 40q51 48 16 98q-69 -27 -155 -97q-105 -88 -143 -110q-138 117 -468 67zM1161 1148q14 -51 102 -34q73 15 123 53q82 62 61 146q-52 33 -133 6q-69 -24 -110 -67q-56 -59 -43 -104zM1301 1015 q39 -13 48 -25q50 31 152 110q79 60 126 77q90 32 112 -59q17 -73 -37 -134q4 5 -170 -121q-14 -10 -83 -66q-47 -39 -78 -54q-87 -43 -180 28q-48 -41 -146 -158q-2 5 86 -103q70 -87 73 -116q2 -34 -86 -188q-90 -159 -103 -170q-49 -43 -134 -35q-89 9 -103 65 q-16 62 40 132q65 82 69 117q-27 56 -109 140q-55 -20 -143 -108q-94 -93 -143 -117q-8 -4 -182 -48q-13 -4 -54 -16q-38 -12 -61 -18q-73 -17 -104 3q-60 38 -25 127q31 79 79 104q41 21 122 34q88 13 122 27q4 2 127 103q167 137 201 201q-23 0 -65 -42q-47 -46 -75 -55 q-61 -20 -118 8q-59 29 -52 89q6 49 92 114q24 19 72 51q46 30 61 42q77 60 79 61q-6 -3 170 24q200 30 237 24q0 13 -13 34q-15 22 -17 39q-12 93 85 178q89 78 189 90q114 14 153 -65q37 -76 -26 -160q-78 -105 -231 -134q9 -18 43 -30z"
         id="glyph22813" />
      <glyph
         glyph-name="five"
         unicode="5"
         horiz-adv-x="2112"
         d="M1827 590q-172 -84 -317 -59q-44 8 -73 20q-20 8 -16 6q-8 5 -7 12q17 -3 59 -10q36 -5 56 -11q5 -1 22 -8q13 -5 21 -6q22 -1 41 15q4 5 13 21q8 14 15 19q7 4 20 7q18 3 23 5q41 14 39 14q8 4 23 12q17 9 24 13q37 22 41 32q-6 4 -24 -8q-15 -9 -70 -39q-9 -1 -32 -10 q-19 -8 -32 -6q11 19 31 47q26 35 33 46q13 21 26 53q4 10 24 82l6 21q5 7 30 18q21 10 23 23q-3 1 -27 -12q-30 -17 -28 -14q-5 -5 -13 -24q-5 -11 -14 -39q-9 -25 -15 -37q-17 6 -60 27q-37 18 -62 23q-31 7 -31 6q-1 9 4 22q6 15 7 19q3 22 3 75q0 45 6 69t11 33 q3 9 15 21q11 12 15 22q-23 1 -43 -37q-19 -37 -22 -98q-3 -47 -5 -50q-6 1 -9 12q-4 12 -10 12q9 12 19 -59q1 -7 -3 -19q-6 -16 -7 -22q-1 -4 -1 -12q0 -9 -1 -12q-1 -7 -8 -22q-7 -16 -9 -22q-12 -41 -16 -42q-18 -3 -38 38q2 -3 -14 91q-15 -3 -13 -41q1 -34 15 -61 q18 -36 18 -32q-92 21 -157 25q-20 16 -26 64q-7 47 -24 61q-11 9 -39 24q-27 15 -37 25q-9 9 -38 60q-16 29 -18 42q-5 25 17 40q4 -1 16 -24l38 -68q11 -24 19 -32q14 -11 40 -8q11 1 32 12q28 14 30 14q7 -1 18 -24q13 -25 16 -27q21 -23 57 -19q35 4 53 29q19 28 45 109 q22 66 17 121q68 25 148 -8q65 -26 108 -72q37 -40 66 -131q38 -118 52 -144q5 -10 25 -42q16 -25 22 -42q-16 -29 -52 -56q-34 -25 -91 -53zM1876 596q-56 -39 -127 -59q-78 -35 -135 -31q14 7 53 14q38 7 52 16q37 5 82 27q61 30 75 35q-2 -2 48 33q45 32 40 30 q-1 -10 -31 -30q-50 -33 -57 -35zM1908 592q4 2 13 12q8 9 14 9q11 0 23 -31q13 -30 10 -49q-56 8 -60 59zM1593 469q8 9 30 8q0 -5 -4 -12q-3 -7 -3 -12l3 -15q2 -8 -5 -11q-19 16 -21 42zM1396 536q19 2 10 -21q-9 -24 -26 -21q3 40 16 42zM1195 669q-3 1 -9 1t-9 1 q-3 0 -7 3q-4 2 -7 3q-26 4 -50 -2q-5 -1 -15 -8q-11 -6 -18 -7q-4 -1 -16 0h-19q-4 0 -14 -3q-8 -2 -11 -2q-4 1 -11 4q-7 5 -11 5q0 1 -14 1q-8 0 -11 6q1 5 10 5q10 0 12 2l-7 20q-23 58 -17 54q-8 6 -33 5q-9 0 -36 -6q-23 -4 -37 -3q1 9 13 12q4 1 11 1q8 1 11 2 q47 11 65 12q41 3 71 27q-5 9 -16 4q-3 -1 -9 -6q-6 -4 -10 -5q-10 -5 -22 -6q-26 -4 -32 4q5 4 12 4q9 -2 12 -1q6 2 17 9q11 8 16 9q16 4 32 3q11 0 27 -11q20 -14 28 -17q7 -3 22 -5q18 -2 23 -3q-4 1 61 -29q36 -16 65 -24q24 -6 72 -8q57 -2 74 -4q11 -2 33 -7 q24 -5 35 -7q40 -7 62 8q1 0 14 48q11 39 21 44q6 3 46 -4q39 -8 74 -32q28 -20 29 -24q1 -9 -28 -50q-8 -12 -33 -44q-20 -25 -32 -46q-29 -51 -54 -51q-6 0 -15 4q-11 6 -14 7q-18 5 -49 8q-43 5 -51 7q-90 15 -213 74zM963 706q10 -2 14 -10q0 -7 -10 -6q-9 1 -13 5 q-1 13 9 11zM959 738q9 -6 6 -16q-10 -6 -20 -1q-11 6 -6 18q10 5 20 -1zM1257 751q2 6 16 7q15 2 19 5q7 -2 11 -9q4 -8 1 -15q-46 10 -47 12zM1203 842q-9 12 -26 34q-15 19 -20 28q7 -1 30 -15q19 -12 38 -10q75 -36 68 -93q-30 -14 -50 -5q-1 1 -21 30q-1 2 -19 31z M1172 935q17 -29 28 -42q-8 2 -21 12q-12 9 -23 11q-10 7 -13 27q-2 19 2 35q10 -13 27 -43zM1189 1183q0 -3 -2 -9q-3 -5 -3 -9q3 -9 14 -8l17 2q9 -7 2 -30q-9 -30 -8 -38q1 -13 14 -20q14 -8 20 8q-2 2 -9 3l-9 3q-4 13 4 38q8 27 5 41q5 2 16 10q10 7 18 9q7 -7 9 -27 q20 -3 30 18q4 1 14 -4q8 -4 13 1q1 9 -9 12q-12 5 -13 8q2 8 13 13q16 7 18 10q1 -4 -13 12q3 20 6 24q10 -4 19 -20q10 -20 14 -24q7 0 9 10q1 13 5 14q11 -6 10 -26q0 -28 2 -33q12 2 26 16q17 16 24 19q16 6 27 -11q10 -16 6 -36q-2 -9 -12 -21q-11 -13 -12 -18 q-3 -3 -7 0t-7 3q-6 -8 -8 -28q-2 -26 -4 -33q-5 -15 -45 -56q-4 0 -7 3q-2 3 -4 3q-9 -5 -22 -26q-14 -23 -25 -31q-21 -16 -48 -19q-33 -4 -37 24q4 0 11 -1q8 -1 11 -1q14 0 18 9q-2 7 -2 3q-10 -2 -47 9q-4 11 -29 48q-19 29 -24 54q-2 12 1 39t1 41q-5 35 -8 32 q10 2 17 -10zM1245 1188q-1 -2 1 -5q1 -2 0 -4q-4 0 -10 -2q-6 -3 -11 -3q-5 11 -4 19q5 -1 -47 24q9 19 29 33q9 -62 42 -62zM1245 1286q-4 -1 -8 0q-1 6 3 11q5 0 5 -11zM1262 1253q2 -2 5 -13q3 -9 8 -11q5 0 12 17q11 0 18 -8l4 -8q3 -5 6 -7q-6 -11 -24 -21 q-21 -12 -26 -17q-17 21 -22 21q2 -6 14 47h5zM1263 1292q0 10 11 7q10 -2 13 -8q-5 -2 -24 1zM1302 1294q-1 6 10 6q-5 -7 -10 -6zM1392 1364q-16 13 -20 15q20 10 42 -23q-10 -1 -22 8zM1476 1273q-22 17 -16 25q11 -5 16 -25zM1531 1062q-2 -10 -32 -92q-41 -6 -50 -36 q9 -1 22 11q12 13 24 13q-4 -38 -37 -57q-33 -20 -65 4q-24 19 -22 42q9 2 28 -12q17 -13 27 -6q-13 27 -69 35q9 11 29 29q21 20 29 28q33 36 34 82q21 4 27 29q6 1 26 1q16 0 24 4q15 -20 5 -75zM1538 1170q1 8 10 10q0 -10 -10 -10zM1991 513q-5 -1 -6 3q-1 5 1 8 q4 0 5 -11zM891 654q70 -61 62 -142q0 2 -26 -94q-10 -1 -24 8q-15 10 -26 10q-4 42 -3 71q3 63 12 70q-25 2 -39 27q36 41 39 50h5zM1066 436q6 -1 40 -15q94 -39 107 -56q15 -20 18 -56q3 -38 -9 -65q-10 -25 -77 -61q-106 -57 -233 -71q-135 -15 -239 -7q-43 3 -177 27 q-16 3 -41 10q-33 9 -41 11q-169 41 -289 120q-3 2 -16 9q-10 6 -16 10q-21 16 -22 27q5 4 54 11q22 3 59 6q119 9 120 9q10 -1 54 -18q10 -4 28 -10q19 -6 25 -8q4 -2 19 -10q11 -6 19 -7q36 -4 104 0q76 5 187 31q6 1 27 9q18 6 27 7q4 1 10 -1t10 -2q4 1 11 5q8 5 13 6 q3 0 30 -9q10 5 28 4q21 -1 30 2q12 4 24 22q16 26 17 29q0 7 -6 14q-5 8 -5 15q109 12 110 12zM930 27q-133 -17 -263 -9q-190 13 -496 127q-36 14 -73 32q-28 15 -32 17q-16 15 -3 36l38 -21l38 -21q4 -2 14 -5q10 -2 15 -4q10 -5 35 -18q22 -11 36 -17q67 -28 156 -56 q54 -17 83 -15q1 10 -23 15q-97 20 -200 64q-16 6 -49 23t-52 25q-80 33 -92 57q-4 8 -5 37q1 3 5 4q120 -90 308 -148q10 -3 30 -8q21 -4 31 -7q232 -68 464 -39q122 15 185 40q55 23 110 58q34 21 35 21q7 -75 -51 -115q-35 -25 -127 -48q-71 -18 -117 -25zM231 530 q5 -15 -4 -33q-2 -5 -8 -14q-6 -10 -7 -14q-13 6 -3 28l18 33h4zM227 563q0 -3 -23 -57q-8 11 2 29q13 23 13 28h8zM222 609q4 -29 -27 -67q-3 13 8 33q13 24 15 34h4zM215 645h4q0 -2 -24 -61q-11 8 0 26q15 23 15 32q5 5 5 3zM218 683q0 -8 -8 -20q2 -2 -2 18q2 2 10 2z M201 697q10 21 18 30q1 0 3 -1q1 -1 2 -1q-4 -8 -19 -35q-11 -22 -16 -38q-5 0 -5 5v4v5q6 8 17 31zM250 369q-2 -9 -10 -9q-3 9 6 22q7 -4 4 -13zM248 413q4 -11 -6 -21q-12 -12 -12 -20q-7 7 1 21q2 4 7 11q4 7 5 9h5zM228 484h9q3 -35 -25 -53q2 -9 16 53zM240 446 q2 -2 3 -2q0 1 -19 -49q-11 9 -2 26q15 26 15 27q2 0 3 -2zM249 734q10 12 43 17q17 2 56 4q38 1 54 3q15 3 20 0l16 -24q4 -6 15 -14q10 -7 14 -13q-5 -7 -18 -14q-14 -7 -18 -13q-15 -21 -12 -76q1 -14 11 -64q8 -41 5 -71q-6 -89 -9 -148q-24 2 -73 24q-45 20 -78 18 q-1 3 -15 94q-14 90 -18 148q-5 69 -5 84q2 34 12 45zM434 766q-1 6 3 6q4 1 5 -5q0 -5 -4 -6t-4 5zM417 883q0 -6 2 -7q27 39 27 40q-4 2 -10 -3q-7 -6 -8 -5q-1 4 2 6q4 3 4 5q-4 25 15 40q27 23 29 26q34 19 68 -1q0 -3 -4 -6q-3 -2 -2 -6q7 -2 17 4q11 7 16 8q2 5 2 15 q18 12 53 6q29 -35 53 -21q36 -10 27 -52l-17 11q-11 6 -19 -2q0 -2 16 -7q60 -58 42 -109q-12 -6 -18 3q4 7 5 19q1 13 -5 17q9 1 -6 -24q-2 0 -18 12q-4 -1 -4 -10q-1 -9 -3 -11q-10 0 -17 12q-7 13 -14 15q-6 -1 -3 -1q-4 -1 -3 -8q2 -6 0 -7q-54 19 -77 40 q-14 -8 -18 -9q0 -6 7 -15q6 -8 5 -18q-4 -1 -6 3t-5 5q-5 0 -6 -8q-1 -9 -3 -11q-2 1 -10 6q-7 4 -11 5q-11 3 -12 -15q-10 2 -15 17q-9 23 -9 24q-8 -2 -8 -14q-1 -18 -1 -20q-5 -16 -18 -19q-4 1 -5 8q-2 8 -6 8q-10 -2 -15 -17q-6 -20 -9 -23q-8 2 -5 16q3 15 -3 17 q-5 -1 -7 -11q-1 -11 -3 -13q-12 14 -8 48t18 41q4 1 3 -4zM720 808q12 2 14 -12q-15 4 -31 0q4 11 17 12zM729 766q2 -12 -6 -18t-15 1q6 16 21 17zM617 495q30 -7 51 -1q20 5 34 26q4 5 12 20q7 12 12 19q-7 -40 -32 -61q-30 -25 -77 -16q-48 9 -57 45q-2 0 19 -17 q12 -9 38 -15zM573 612q16 -24 42 -26q31 -3 53 24q21 26 22 65q1 37 15 53h3q8 -13 10 -71q2 -44 -9 -85q-12 -44 -31 -57q-15 -10 -37 -9q-46 1 -68 41q-20 35 -18 90q1 0 18 -25zM593 622q8 -3 9 -3q2 2 4 7q3 5 5 7q12 4 30 17q19 13 29 18q6 -37 -27 -57t-56 10 q1 3 6 1zM452 736q-4 10 -1 13h6q4 -14 4 -12q-2 -2 -9 -1zM461 789q3 -1 4 -8q2 -6 5 -6q36 13 32 32q-8 -1 -18 -8q-10 -8 -17 -9q1 -4 20 32q5 -1 12 -8q6 -5 12 -4q5 0 8 6q3 5 9 6q2 -3 0 -11q-1 -7 3 -9q8 -1 13 6q6 7 11 8q4 1 30 -9q18 -6 24 10q-3 7 -20 7 q-15 0 -17 7q-5 15 9 14q-4 0 22 -5q4 -1 11 -2q7 0 10 -1q11 -3 11 -11q-1 -19 6 -21q7 1 11 8q6 9 9 10q1 0 18 -6q1 -4 -3 -17q-3 -10 2 -16q7 -1 13 4q7 6 12 7q0 -11 8 -19q-1 -3 -4 -5l-5 -5q-1 -13 0 -14q-5 -7 -19 -36q-10 -23 -22 -35q-41 -41 -77 -38q6 0 -24 8 q-52 14 -61 24q-11 13 -22 53q-10 39 -25 53q0 6 9 8zM470 591q-2 6 0 10q5 0 5 -7v-6v-5q-4 2 -5 8zM459 307q-11 1 -14 6q-5 39 2 115t4 109q4 4 15 3q12 -2 16 0q4 8 -1 20q-7 13 -6 21q34 -35 16 -122q-22 -111 -15 -149q-5 -4 -17 -3zM731 782q0 3 3 5q3 -2 0 -11 q-4 2 -3 6zM911 369q-1 -12 -8 -13q-9 1 -9 14q1 15 -5 18q-5 -2 -7 -11q-2 -7 -8 -8q-9 0 -7 12q2 14 -3 19q-5 -1 -9 -12q-4 -9 -13 -8l-6 5q0 25 30 32q29 6 42 -13q2 0 7 -1q4 -1 8 0q10 -5 13 -18q4 -13 -6 -22q-6 1 -5 11q0 10 -7 11q-5 -2 -7 -16zM859 491 q-3 -44 0 -63q-4 0 -14 -4q-9 -4 -13 -3q0 14 -1 59q-1 40 1 60q0 4 3 19q3 11 1 16q-2 10 -14 20q-12 11 -14 18q48 -37 51 -60q2 -18 0 -62zM2000 625q-2 3 -9 13q-6 8 -8 14q-3 12 -1 26q2 18 1 23q1 -11 -50 92q-17 34 -36 106q-61 227 -257 265q-7 111 -103 106l-23 -2 q-19 67 -54 99q-37 35 -103 39q-9 0 -24 -2q-20 -4 -26 -4q-4 -1 -14 0h-13q-40 -5 -80 -36q-6 -5 -15 -16q-10 -13 -16 -18q-3 -2 -10 -7q-8 -4 -11 -6q-7 -7 -27 -38q-17 -27 -14 -62q4 -41 29 -44l5 27q3 17 18 12q-3 5 -5 -24q1 -5 6 -17t6 -18q2 -8 -1 -28 q-2 -21 -2 -29q2 -28 3 -26q-1 -4 -9 -9q-9 -5 -10 -8q-19 -23 -19 -134q0 -8 28 -43q26 -34 53 -75q20 -33 19 -43q-10 3 -59 26q-35 16 -71 14q-7 2 -22 16t-28 17q-30 6 -57 -6q-3 -1 -9 -7q-5 -4 -9 -5q-6 -2 -21 -3q-11 0 -16 -3q-4 -4 -8 -13q-3 -10 -7 -11 q-8 -4 -36 -8q-23 -3 -32 -9q-4 -3 -6 -10q-3 -7 -8 -10q-38 23 -90 17q-1 3 1 12q3 9 3 14q0 3 -3 12q-4 8 -4 13q-1 6 2 20q2 13 1 21q-2 10 -12 31q-12 22 -14 33q-2 8 -3 26q-1 16 -3 22q-10 26 -33 29q-4 0 -12 -2t-11 -1q-7 1 -14 8q-8 7 -12 8q-13 5 -27 8 q-25 5 -30 5q-11 -1 -20 -10q-10 -9 -17 -10q-5 -1 -12 1q-9 2 -12 2q-24 0 -54 -18q-27 -16 -37 -32q-3 -5 -4 -15q-1 -13 -3 -18t-10 -14q-8 -10 -11 -15q-10 -15 -16 -35q-9 -30 14 -86q-108 -8 -118 -10q-64 -10 -91 -38q-28 -31 -21 -111q4 -42 20 -131q16 -88 19 -125 l-59 -10q-85 -9 -92 -15q-13 -13 -12 -42q1 -27 12 -45q-12 -10 -13 -28t10 -31q12 -13 67 -36q12 -5 37 -17q24 -11 34 -15q53 -21 157 -50q225 -62 347 -68q14 0 37 1q26 1 32 1q176 -1 312 39q97 29 127 56q37 33 42 97q1 10 0 31q-2 20 -1 31q5 56 4 57q-7 52 -44 79 q-16 11 -83 39q-5 3 -21 11q-14 7 -21 9q-21 6 -60 -1q-44 -7 -63 -5q0 16 7 41q8 28 9 42q1 33 -17 74q-7 17 -26 37q-25 25 -32 35t-19 30q-12 21 -18 30q9 -1 63 5q-3 2 5 -20q1 -3 30 -45q14 -21 11 -19q17 -13 57 -13q6 0 16 2q11 3 16 4h16q10 -1 14 0q7 1 19 8 q12 8 19 8q0 1 36 -6q29 -4 65 -21q38 -17 41 -24q2 -4 2 -39q-1 -55 13 -111q2 -9 9 -24q7 -17 11 -30q-1 3 6 -34q4 -26 11 -25q15 1 0 53q-37 127 -38 171q-1 27 4 33l31 -11q71 -25 75 -28q-33 -96 -33 -102q-1 -21 3 -56q5 -43 6 -56v-9q-1 -8 -1 -12q1 -13 9 -15 q9 5 9 30q-1 14 -7 60q-6 40 -4 64q5 5 12 7q9 3 12 5q4 3 17 19q11 15 15 16q1 1 51 -12q47 -11 50 -13l7 -7q4 -5 7 -6q3 -2 16 -2q11 -1 14 -4q0 -12 28 -59q5 6 -7 -54q-29 10 -69 12q-43 2 -49 -9q-1 1 49 -3q43 -3 59 -15q-4 -8 -23 -19q-16 -9 -18 -22q16 -4 36 1 q20 6 28 17q-5 2 -15 -3q-10 -4 -16 2q24 18 40 28q2 64 -2 58q3 4 14 11q9 5 10 11q1 5 -2 13t-2 13q2 16 24 20q28 6 36 13q-1 5 -9 4q-10 -1 -10 0q17 6 65 24q41 15 63 24q10 4 39 18q23 12 38 17q16 -57 58 -67q4 -1 15 0q10 1 15 0q12 -3 17 -19q2 -4 4 -14 q2 -11 3 -15q1 -3 4 -8q2 -5 2 -7q0 6 -12 -47q13 5 15 -3q0 2 0 -23q1 -4 3 -13q2 -10 2 -14v-10q-1 -8 -1 -10q0 -11 7 -11q8 6 6 50q0 5 1 17q2 11 1 17q-1 4 -6 12q-5 6 -5 10q0 5 4 13t4 12q-2 2 -8 3q-7 1 -9 3q-2 16 2 41t3 36q-2 4 -9 7q-9 3 -11 5q-8 31 -32 80 q18 38 45 -29q42 -101 47 -216q2 -35 5 -38q10 10 9 44q-6 144 -59 242zM472 209q-35 10 -56 11q3 -10 30 -20q115 -40 315 -35q169 5 269 30q54 14 74 28q40 26 46 53q3 16 -2 33q-6 18 -17 14q18 -51 -37 -88q-48 -32 -242 -49q-196 -17 -320 6q-14 3 -60 17zM1631 351 q1 -10 15 -15q4 -1 13 -4q8 -2 11 -3q38 -16 44 -14q-14 20 -79 38q-2 0 -4 -2zM1739 407h-12q-12 -1 -13 -12q46 -7 71 24q-6 3 -16 -3q-14 -8 -19 -9q-4 -1 -11 0zM569 669q5 -9 13 -9q4 1 5 7q1 7 4 8q14 -3 17 2q1 15 -24 17t-26 -14q5 -2 11 -11zM543 733q-12 0 -14 -8 q-1 -7 5 -15t14 -10q9 -2 15 8q-19 31 -20 25zM501 776q-23 -13 -20 -25l3 -3q4 -2 8 1q6 6 8 6q19 -1 20 11q3 22 -19 10zM603 773q19 8 23 19q-13 13 -37 5q-24 -9 -16 -27q5 1 10 6t10 5q14 -7 10 -8zM1418 842q7 -7 18 -7q2 9 -4 15t-16 7q-5 -8 2 -15zM935 852 q18 9 56 29q35 17 54 27q41 21 50 33h-6q-24 -8 -88 -30q-60 -21 -93 -33q-50 -18 -50 -23q-1 -6 7 -17q9 -11 14 -12q4 0 56 26zM1735 891q-51 -28 -54 -49q3 1 36 22q13 9 77 49q3 1 10 5q8 3 11 5q12 8 11 18q-8 3 -14 -1l-5 -5q-3 -3 -5 -4q-19 -13 -67 -40zM696 953 q-5 21 -21 14q-2 -3 5 -7q7 -3 7 -8q7 0 9 1zM508 950q13 4 13 11q1 6 -8 12q-21 17 -35 0q3 -5 16 -4t16 -5q-3 -9 -2 -14zM1053 1011q35 8 44 17q-12 0 -153 -11q-49 -4 -55 -8q1 -20 14 -30q5 1 150 32zM1265 1026q-14 1 -14 11q1 0 17 1q10 1 13 -4q-3 -8 -16 -8z M1268 1010q10 5 24 4q-7 -19 -33 -20q-1 10 9 16zM1281 987q23 11 35 32q-22 29 -38 31q-2 1 -10 -1t-14 -2q-3 0 -10 2q-7 1 -10 1q-9 0 -9 -12q0 -4 11 -19q10 -12 3 -28q16 -18 42 -4zM1296 1068q3 -8 9 -9q12 17 -7 37t-30 -2q-8 4 -14 0q-7 -4 -6 -12q8 0 21 -3 q12 -2 21 0q3 -2 6 -11zM1438 1155q-5 -9 4 -17q32 8 18 53q-11 3 -19 -3t-8 -17q1 -1 7 0q7 2 9 -1q-13 -19 -11 -15z"
         id="glyph22815" />
      <glyph
         glyph-name="six"
         unicode="6"
         horiz-adv-x="2085"
         d="M1272 791q35 8 37 31q-14 2 -29 -4q-16 -6 -27 -5q24 37 28 47q-12 8 -42 16t-42 16q6 8 33 16q24 7 28 21q-6 7 -31 28q-19 16 -25 33q10 -5 36 -6q28 -1 38 -4q9 15 -2 45q-12 29 -7 39q21 -22 65 -47q8 7 14 31q5 23 14 30q-3 4 9 -30q7 -17 23 -17q0 -1 -32 89h-14 q-7 -9 -13 -39q-6 -27 -15 -36q-1 1 -41 39q-25 25 -47 22q-1 7 28 -102q-1 -1 -56 7q-34 4 -42 -12q8 -8 32 -35q20 -22 33 -35q4 2 -44 -16q-26 -10 -35 -26q17 -11 51 -20q45 -12 56 -17q-33 -66 -33 -65q53 6 52 6zM1611 511q-136 94 -140 121q-6 52 42 60q4 1 19 -2 q20 -5 29 -6q40 -5 45 18q8 33 -33 46q-32 10 -65 5q-49 -8 -78 -49q-31 -45 -14 -100q11 -36 74 -81q18 -13 54 -36q35 -23 48 -32q73 -51 165 -115q110 -76 156 -108l24 -20q22 -19 39 -29q53 -35 71 -6q16 25 -51 69q-49 33 -385 265zM1025 1058q-5 0 -45 -5 q-28 -3 -48 -3q-13 0 -390 60q-22 4 -37 -22q-14 -25 -9 -47q8 -38 119 -61q38 -8 159 -23q152 -19 229 -13q147 12 106 101q-33 17 -84 13zM510 702q14 57 52 138q47 97 59 131l-92 23q-46 19 -47 61q-2 70 89 61q29 -3 84 -16q62 -14 82 -17q153 -24 246 -19q13 1 50 6 q31 4 39 3q11 -2 28 -12t23 -11q-9 42 -39 46q-1 0 -77 -4q-126 -8 -307 23q-26 4 -87 23q-49 15 -71 14q-27 -1 -61 -21l-46 -25q-196 -291 -134 -460q-34 -178 -168 -335q-9 -10 -30 -31q-26 -24 -36 -35q-41 -43 -40 -78q0 -30 24 -56q25 -27 59 -27q29 0 102 69 q161 152 237 395q75 -49 92 -68q39 -42 38 -108q0 -49 -46 -129q-39 -68 -23 -113q9 -27 44 -42t67 -4q27 9 50 55q4 8 34 79q43 105 37 182q-4 47 -26 96l-20 40q-13 24 -19 40q-115 105 -167 126zM2015 1091q6 28 -7 56q-12 29 -37 41q-27 13 -58 -3q64 -41 69 -140 q26 15 33 46zM1850 1196q-84 12 -128 -39q-33 -39 -33 -102q1 -66 38 -103q43 -32 94 -32q46 0 86 27q38 27 54 68q18 44 3 91q-26 77 -114 90zM1735 936q-74 54 -59 160q-205 198 -386 182q-20 -31 -9 -75q11 -4 88 -34q54 -20 86 -35q95 -45 137 -107q-24 -24 -265 -284 q-76 -81 -96 -108q-49 -67 -52 -124q-10 -6 -177 -149q-9 -7 -37 -27q-22 -15 -28 -24q-31 -43 -5 -89q27 -48 84 -36q16 3 130 102q110 95 126 107q26 -38 97 -74q-9 -20 -32 -54q-31 -47 -38 -58q-69 -113 -69 -116q-6 -42 16 -68q20 -23 53 -25q35 -2 58 23q4 4 35 51 q7 11 60 98q37 59 61 88q-2 1 60 -4q38 28 93 130q-10 13 -164 112q-101 66 -100 176q49 84 92 93q47 9 87 -9q42 -19 39 -52q-3 -25 -25 -30q-13 -3 -48 0q-33 3 -46 -1q-20 -7 -20 -34q-1 -22 46 -57q14 -11 36 -25q23 -14 24 -15q64 -46 126 -79q23 50 78 174 q50 112 80 174q0 -1 51 -69q32 -43 23 -80q-7 -30 -55 -46q-13 -4 -42 -11q-29 -8 -42 -12q-21 -42 0 -84q88 -16 163 28q76 45 83 121q7 77 -48 153q-27 39 -105 112q-92 -41 -164 11zM836 1391q-52 45 -127 31q-64 -13 -98 -63q-38 -57 -13 -133q17 -50 65 -75 q44 -23 97 -15q54 8 88 44q39 40 38 102q-1 67 -50 109z"
         id="glyph22817" />
      <glyph
         glyph-name="seven"
         unicode="7"
         horiz-adv-x="4242"
         d="M1641 283q16 -2 18 -6q11 -75 -59 -72q-2 3 -8 8l-7 7q-7 10 -5 24q-14 2 -21 -14q-8 -17 -18 -18q-21 -3 -34 9q-4 4 -9 11q-7 10 -9 12q-3 16 9 30q12 15 10 29q-24 -6 -42 5q-16 11 -22 32q-13 50 32 74q-3 0 65 -13q19 44 39 53q52 3 69 -36t-17 -69q11 -13 32 -12 q6 1 20 3q13 2 20 2q-13 -22 -72 -45q-3 -12 9 -14zM1666 416q-7 26 -34 42t-52 10q-29 -7 -39 -41q-7 -5 -23 3q-19 9 -36 4q-53 -17 -49 -84q3 -67 56 -79q-11 -1 -13 -14v-26q2 -7 13 -16t13 -16q70 8 117 -13q31 5 46 37q16 33 0 67q39 23 51 33q27 23 21 46 q-12 2 -44 -10q-26 -9 -41 3q23 25 14 54zM1606 362q-25 7 -32 -21q-7 -27 6 -44q3 17 26 65zM417 499q-13 12 -36 -6q-23 -19 -10 -33q8 16 46 39zM371 507q18 15 46 12q-16 28 -53 2q-14 -10 -20 -23q-7 -15 1 -25q18 27 26 34zM4021 594q87 -1 114 23q-185 19 -236 -7 q43 -16 122 -16zM3953 655q168 -4 240 14q-88 9 -244 7q-208 -2 -252 0q-8 -3 -7 -13q2 -8 13 -13q67 10 250 5zM3762 728q26 -24 114 -24q80 1 121 17q-50 26 -235 7zM634 821q93 3 143 -41q13 -12 33 -43q24 -35 33 -45q40 -44 77 16q-7 73 -83 140q-78 69 -172 76 q-67 5 -125 -15q-76 -26 -57 -83q32 -10 151 -5zM763 926q4 -2 13 -7q8 -6 14 -8q8 25 -26 33q-13 2 -23 -2q-10 -6 -10 -18q16 9 32 2zM777 469q42 77 45 102q6 56 -31 120q-5 8 -35 54q-21 32 -32 55q-25 14 -79 11q-17 -1 -48 -4q-33 -3 -47 -4q-51 -4 -71 9 q-25 17 -10 66q7 22 43 32q52 15 62 20q-46 24 -82 15q-27 -6 -58 -35q-49 -46 -55 -50q-34 -26 -73 -28q-5 0 -24 5q-17 4 -28 2q-58 -10 -143 -56q-96 -52 -92 -88q1 -15 39 -45q73 26 185 79q136 65 181 84q21 -32 95 -117q61 -71 88 -125q-21 -27 -98 -58 q-74 -31 -98 -66q-9 -12 -46 -203q-27 -136 -25 -170q4 -88 90 -71q41 8 59 68q11 35 20 128q10 88 22 122q20 55 63 54q-47 -86 19 -135l144 -67q147 -69 161 -73q101 -29 107 60q4 67 -117 111q-150 55 -171 78q0 47 40 120zM784 948q15 -9 18 -11q9 -2 14 7q-8 17 -43 26 q-36 9 -49 -13q28 11 60 -9zM1806 957q22 -16 42 -20q62 66 59 59q-13 3 -61 41q-39 31 -63 24q-205 -56 -327 -98q12 0 76 -5q52 -4 85 -4q103 -1 153 29q7 -4 36 -26zM399 895q32 44 29 102q-4 59 -42 91q-45 37 -119 19q-53 -13 -78 -56q-23 -40 -15 -89q7 -50 40 -82 q37 -36 92 -34q59 1 93 49zM711 1159q-28 -15 -122 -38q-81 -20 -113 -47q19 5 63 14q52 10 74 15q92 20 131 50q-13 9 -33 6zM1789 608q-11 -7 -15 -10q-18 -10 -31 -1q1 3 27 92q39 -15 32 -72q-4 -2 -13 -9zM3566 532q-22 33 -38 115q-17 84 -40 120q-27 41 -147 71 q-34 9 -100 22q-64 12 -86 18q-658 169 -889 288q-22 -6 -44 -35q-24 -30 -41 -37q-4 14 3 55q4 31 -9 36q-62 -53 -334 -268q-1 2 -78 53q-47 -20 -164 -48q-112 -27 -163 -50q39 -11 151 -13q103 -3 143 -20q-82 -69 -35 -228q23 -79 101 -223q15 -6 59 -6q43 0 58 -7 q25 23 92 101q55 65 98 95q10 -21 40 -68q26 -42 38 -69q-26 -29 -81 -85q-65 -66 -95 -98q-6 -6 -47 -46q-35 -33 -55 -57q-63 -74 -42 -119q34 -32 78 -15q6 3 66 41q20 13 64 38q44 26 66 40q15 10 55 40q50 38 72 54q94 68 135 70q1 0 104 -26q101 -26 111 -27 q112 -8 234 58q150 81 211 93q19 -15 248 -203q12 -9 54 -48q44 -39 71 -62q92 -76 136 -79q47 -4 75 27q24 27 23 64q-1 39 -51 105q-14 19 -43 53q-27 32 -36 45q-142 191 -144 196q-16 45 -26 248q6 -2 25 -10q16 -7 27 -10q10 -128 83 -232t185 -147q50 -19 111 -13 q68 7 72 46q4 48 -69 68q-58 16 -140 11q-68 43 -92 78zM547 1219q66 56 99 97q-6 -1 -13 3q-8 4 -13 3q-21 -26 -98 -98q-7 -6 -28 -23q-18 -15 -27 -24q-29 -29 -24 -51q24 25 104 93zM450 1414q-7 -33 -35 -128q-24 -79 -30 -133q14 23 91 261h-26z"
         id="glyph22819" />
      <glyph
         glyph-name="eight"
         unicode="8"
         horiz-adv-x="1619"
         d="M1142 407q1 -14 -5 -13q-24 8 -91 5q-66 -2 -90 6q-25 23 -48 98q-23 74 -48 98q-14 -104 -11 -293q3 -256 1 -307q61 1 346 -1q212 -1 339 6v414q-69 -6 -188 -5q-168 1 -194 0q-12 5 -11 -8zM1312 605q-57 -2 -158 -8q-91 -6 -113 -7q-5 17 -37 101h-356q-7 -7 -6 -31 q0 -23 6 -32h244q81 -204 80 -202q4 1 85 -2q50 -1 48 23q36 4 126 -2q117 -9 153 -9q183 -3 188 80q3 41 -21 64q-33 32 -239 25zM1503 628q-102 113 -467 69q2 -7 6 -20q4 -15 5 -19q7 -23 21 -30q17 1 435 0zM791 718q-19 179 -435 149q-199 -15 -245 -112v-595h680v441 h-175q1 10 -1 62q-1 38 6 55h170zM1184 946q-140 -50 -228 -16q3 -90 75 -145q65 -48 157 -50q93 -1 158 46q73 53 77 144q-173 -20 -239 21zM1264 978q-3 -27 40 -28q44 -2 45 23q-18 20 -85 5zM1068 985q-41 1 -48 -17q11 -16 42 -17t48 11q-1 23 -42 23zM1430 1107 q-21 50 -49 84q-53 61 -137 74q-77 13 -153 -18t-114 -90q-42 -63 -21 -136q84 -8 230 -6q196 1 237 0q34 23 7 92zM690 1106q-1 -155 4 -184q14 -85 81 -82q64 3 75 101q0 -3 0 181q0 20 2 84q1 53 0 81q-3 85 -34 105q-84 55 -117 -48q-24 -75 -16 -191q-7 104 -89 166 q-80 60 -182 47q-98 -13 -153 -90q-50 -72 -45 -165q5 -94 64 -156q67 -69 177 -67q187 4 233 218zM205 1325q-16 96 -99 73q-50 -15 -56 -96q-2 -28 0 -82q3 -70 3 -93v-196q11 -93 80 -91q65 2 75 94q-1 -8 -1 188q0 190 -2 203z"
         id="glyph22821" />
      <glyph
         glyph-name="nine"
         unicode="9"
         horiz-adv-x="2993"
         d="M541 362q10 -27 -2 -202q-4 -61 6 -90q12 -37 52 -35q48 3 61 108q9 77 -1 184q-4 39 -3 32q-3 20 -17 23q-44 -11 -96 -20zM743 151q0 -13 1 -34v-30q3 -30 19 -42q17 -13 43 -8t42 23q22 221 -70 368q-80 -28 -96 -30q53 -144 61 -247zM2262 357q18 3 45 18t46 18 q55 -117 85 -192q-66 -36 -85 -50q-73 148 -91 206zM2494 231q-11 21 -59 131q-35 80 -62 126q-37 -30 -115 -67q-99 -47 -127 -64q7 -6 15 -25t16 -25q45 25 70 30q12 -37 42 -101q32 -66 43 -100q-25 -25 -60 -40q1 -14 10 -31q9 -18 10 -30q359 227 680 297q-5 32 -16 61 q-197 -44 -447 -162zM924 649q-15 11 -27 6q-11 -4 -16 -16q-4 -12 2 -21q7 -11 26 -9q22 12 15 40zM223 177q-4 33 -4 49q30 8 101 20q67 11 100 21q10 -12 14 -47q5 -37 12 -49q-19 -8 -222 -45q2 21 -1 51zM209 287q-46 301 -126 463q-19 -13 -50 -20q136 -376 136 -730 q59 10 60 10v81q65 12 222 40q1 -6 6 -39q4 -23 9 -37q57 13 60 15q-40 175 -35 267q-71 -9 -282 -50zM798 755q17 10 50 23q38 16 50 22q1 5 -3 14q-4 8 -2 16q-23 2 -58 -1q-39 -4 -57 -4q12 -59 20 -70zM1020 730q-3 96 -41 130q-37 -35 -34 -137q4 -103 44 -129 q35 41 31 136zM1026 913q21 8 13 33q-12 16 -32 8q-21 -8 -13 -33q12 -16 32 -8zM991 973q21 8 13 33q-12 16 -32 9q-21 -8 -13 -34q12 -16 32 -8zM1170 1077q0 6 -5 5q-58 -48 -90 -126q-36 -87 -21 -171q53 14 96 121q49 122 20 171zM682 901q58 78 86 171q-7 2 -5 10 q-21 13 -46 10q-18 -23 -43 -66q-30 -50 -42 -67q-53 -76 -126 -93q-22 14 -17 10q-9 7 -8 20q19 -21 52 -11q30 9 43 31q-52 17 -75 85q-45 -6 -70 -42q-22 -33 -18 -74q4 -42 33 -67q33 -29 85 -23q79 9 151 106zM436 1079q11 8 20 8q0 23 -15 30q-4 -5 -36 -15 q1 4 10 -30q9 0 21 7zM654 1014q39 68 68 93q-47 56 -104 48q-50 -8 -84 -58q-34 -49 -24 -99q11 -56 76 -77q29 24 68 93zM1493 1168q-6 9 -11 9q-95 -133 -307 -419q-201 -272 -307 -421q17 -15 30 -10q3 2 26 20q44 -31 189 -140q117 -87 193 -137q-3 11 22 32 q25 22 23 34q1 -3 -80 55q-45 33 -127 97q-85 66 -110 84q347 476 473 639q61 -48 158 -119q143 -105 159 -117q6 12 24 34q17 21 22 36q-19 15 -191 140q-115 84 -187 142q1 3 13 18q8 10 2 17q-8 -1 -14 6zM622 829q-97 -73 -197 -14q-73 -343 -75 -407q103 -61 284 -16 q151 38 249 111q-158 189 -156 418q68 -10 102 -6q42 6 59 36q28 48 -24 140q-50 89 -86 86q-51 -2 -29 -50q3 -4 39 -55q33 -47 35 -81q4 3 -75 -5q-58 -106 -126 -157zM1301 1218q-15 -2 -91 -25q11 -29 32 -69q28 -55 34 -67q10 -1 23 5q12 6 22 5q-14 76 -20 151z M2041 902q83 -3 85 69q-22 26 -49 27q-5 0 -25 -2q-18 -1 -31 0q-81 8 -155 49q-68 39 -107 92q-62 86 -60 86q-22 5 -41 -5q-16 -9 -20 -20q-20 -56 86 -161q68 -69 191 -106q91 -27 126 -29zM2161 1019q-30 27 -110 38q-151 20 -232 141q-43 64 -54 73q-34 26 -61 -28 q63 -119 142 -175q101 -70 255 -62q32 -19 35 -45q3 -23 -18 -44q-20 -20 -53 -25q-35 -7 -70 9q-1 -95 -48 -245q-48 -156 -52 -248q-5 -103 16 -211q26 -129 74 -147q31 -11 60 1t36 40q8 32 -15 103q-28 87 -30 128q-7 94 20 226q73 22 114 134q38 102 32 224 q-4 81 -41 113zM2326 1276q-32 15 -44 -13q28 14 81 -25q-8 24 -37 38zM402 1217q-17 49 -22 81q-33 -4 -70 -30q15 -18 46 -72q27 -48 49 -69q5 9 20 10q-5 25 -23 80zM2111 1111q40 35 43 95t-34 97q-41 41 -114 25q-40 -8 -66 -42q-24 -31 -28 -71q-3 -42 17 -75 q22 -35 66 -48q71 -20 116 19zM2207 1268q-5 22 1 39q8 21 29 26q-3 -2 40 -5q-7 34 7 54q13 18 37 22q23 4 43 -7q21 -12 24 -33q2 -14 -8 -27q-9 -14 -7 -24q14 6 55 5q18 -13 14 -41q-3 -28 -24 -34q-7 -2 -20 2q-8 3 -10 -7q31 -15 27 -35q-4 -17 -28 -28 q-25 -11 -42 -3q-20 10 -12 41q-10 -5 -38 -25q-23 -17 -43 -21q29 42 25 35q14 25 0 36q-4 -22 -25 -45q-25 -28 -30 -41q26 -9 95 30q12 -17 36 -22q23 -5 45 3q22 9 29 26q8 20 -9 44q23 3 33 20q9 16 5 36q-4 21 -19 33q-16 14 -39 11q12 34 -10 56q-19 20 -52 23 q-34 3 -57 -14q-26 -19 -22 -54q-36 4 -54 -17q-16 -17 -13 -45q4 -28 23 -45q23 -20 54 -14q-63 57 -60 45zM623 1261q9 -20 29 -23q1 7 -9 22q-8 12 -1 18q8 1 25 -6q13 -6 20 1q2 9 -5 31q-5 19 0 24q8 -3 26 -19q16 -12 29 -16q7 11 12 44q5 31 14 42q29 -65 35 -76 q15 4 33 25q17 22 32 26q-13 -62 -5 -86q13 1 35 11q21 9 36 9q-5 -10 -26 -40q-16 -24 -20 -45q47 -16 51 -21q-54 -38 -51 -30q22 -4 48 9q27 13 38 32q-62 21 -65 25q37 49 60 95q-14 6 -47 -9q-33 -14 -44 -11q0 10 5 52q3 32 0 44q-21 -4 -40 -27q-24 -28 -35 -34 q-2 3 -20 53q-12 32 -35 38q-21 -95 -26 -101q-45 39 -65 46q-6 -11 1 -33q9 -28 9 -38q-12 -1 -28 5q-17 5 -27 5q6 -31 11 -42z"
         id="glyph22823" />
      <glyph
         glyph-name="colon"
         unicode=":"
         horiz-adv-x="1475"
         d="M966 706q-14 27 -12 48q-50 -3 -33 -68q26 -104 26 -98q-8 -13 -35 -34q-26 -20 -35 -36q5 -8 32 -13q24 -5 26 -19v-38q-44 -25 -66 -70q-27 -56 34 -71q39 37 112 115q72 79 111 115q-5 15 -26 63q-16 39 -25 65q-91 -13 -89 -13q-3 21 -20 54zM997 708q12 -9 2 -30 q67 -16 94 50q25 64 -11 109q-13 -59 -26 -77q-23 -33 -77 -25q1 -14 18 -27zM1001 764q18 6 30 3q20 21 32 115q1 0 -71 -13q18 -60 -13 -102q8 -7 22 -3zM687 1036q-4 16 3 27q8 12 27 11q-2 -17 3 -39q5 -24 4 -38q-29 -1 -37 39zM441 943q-52 -7 -56 35q87 -20 145 -10 q9 3 15 4q-6 -2 -15 -4q-92 -25 -89 -25zM760 1091q5 -4 9 -4q-2 -4 -9 -49q-5 -30 -23 -34q-3 66 12 89q6 1 11 -2zM812 1055q-8 -33 -24 -39q-17 9 -6 39q3 9 10 25q7 15 8 19q21 -9 12 -44zM867 1058q-3 -41 -35 -29q2 56 20 77q18 -7 15 -48zM967 1057q1 -28 -26 -21 q-9 18 6 51q20 -1 20 -30zM902 968q-14 -27 -31 -35q-21 -9 -49 -7q-37 3 -53 1q-1 12 -22 30q-18 16 -10 27q14 -3 42 4q23 5 34 -4q1 -3 -14 -16q-9 -9 8 -9q35 -7 82 28q51 40 84 42q14 32 0 64q-18 3 -42 -3q-25 -5 -41 -3q-2 3 -7 21q-4 14 -12 17q-209 -40 -218 -45 q-3 -7 5 -22q6 -12 -5 -16q-38 -8 -145 -14q-97 -6 -142 -18q-5 -42 13 -83q65 1 170 21q109 22 168 24q38 -62 52 -71q44 16 108 -6q65 -21 109 -6q-4 10 -10 31l-10 30q-12 31 -31 34q-23 4 -33 -16zM832 428q-16 -91 -57 -127q-39 14 -43 52q-7 79 -8 82q10 4 108 -7z M657 436q31 1 41 -8q0 -21 -41 -21q-42 0 -42 21q12 7 42 8zM646 325q-39 7 -50 27q11 -2 35 -4q24 -1 35 -3q39 -6 45 -32q3 -1 -65 12zM1159 382q-87 -104 -231 -120q-17 -53 -75 -73q-51 -18 -117 -4q-65 13 -111 49q-50 38 -55 86q50 -62 144 -92q107 -34 176 15 q-47 167 -51 147q54 91 57 77q-4 19 -56 39q-55 21 -65 37q-244 -78 -262 -89q-1 -28 14 -55q14 -25 11 -47q-64 -66 -124 -14q-33 29 -86 129q-68 127 -71 204q92 17 295 9q214 -8 306 4q22 14 31 59l14 75q17 5 24 -13q7 -19 27 -12q18 7 10 30q-11 34 -10 40q-9 0 -37 5 q-22 4 -40 1q-15 -2 -21 -26q-7 -27 -17 -31q-233 23 -575 108q64 156 180 244q126 95 293 95q240 0 394 -198q149 -191 123 -441q-14 -143 -95 -238zM507 1387q-204 -71 -333 -253q-137 -193 -134 -437q3 -285 198 -487q195 -204 473 -210q298 -6 503 187q200 190 219 478 q22 334 -203 558q-222 222 -538 196q-123 -10 -185 -32z"
         id="glyph22825" />
      <glyph
         glyph-name="semicolon"
         unicode=";"
         horiz-adv-x="1094"
         d="M828 1185q-11 -23 3 -35q41 12 42 13q-21 13 -18 39q-17 6 -27 -17zM382 1135q-4 -24 -4 -32q-11 -270 -11 -265q-6 0 69 14q40 8 68 -3q0 14 -10 32q-12 21 -14 31q-1 4 0 15q1 10 0 16q-5 22 -31 59q-24 35 -27 54q-11 94 14 133q-9 1 -20 11q-10 10 -22 8 q-3 5 -11 -40q2 -14 -1 -33zM255 1116q-4 -44 -3 -63q0 -3 4 -13q4 -9 4 -13q0 6 -10 -103q-5 -65 15 -88q10 2 21 -1q13 -3 24 -2q-11 41 0 126q14 116 55 212q-4 5 -8 26q19 18 16 19q-7 6 -13 23t-11 21q-1 -2 -6 -7q-3 -5 -4 -9q-75 -36 -84 -128zM483 1226 q15 -11 41 -5q32 8 37 8q13 -2 24 -18t23 -19q7 -1 13 5q5 6 11 5q17 2 26 -5q24 10 122 10q89 -1 119 22q-14 14 6 36q141 11 136 8q-3 6 11 -13q7 -8 4 -21q8 3 -62 -2q-1 -1 -10 -19q-5 -11 -17 -10q4 -37 -2 -53q-19 -9 -84 0q-4 -1 -6 -9q-2 -10 -5 -12q8 6 -110 -18 q-5 -1 -17 -7q-11 -5 -17 -6q-5 -1 -18 0t-18 0q-104 -15 -110 -13q0 7 31 -220q16 -112 18 -123q-1 5 10 -22q4 -13 -2 -23q-18 -3 -33 14q-16 19 -24 20q-10 1 -28 -11q-17 -12 -35 -10q1 -16 10 -78q7 -48 5 -79q0 -8 -3 -30q-2 -19 -2 -30q1 -14 9 -41q10 -30 12 -43 l16 -94q-3 -9 2 -23q5 -18 6 -25q0 -8 -2 -28t-1 -32q1 -7 4 -22t4 -22q1 -18 0 -44q-2 -29 -2 -36q1 -34 31 -46q-1 -9 1 -22q2 -14 1 -20h-65q-19 26 -50 42q5 18 -16 61q-21 40 -5 73q-26 48 -29 78q-1 11 3 31q3 22 3 32q-1 14 -6 40q-6 30 -7 41q-11 90 -61 178 q-16 -46 -47 -231q-25 -148 -68 -211q3 -12 1 -34q-1 -21 2 -32q-2 -9 -25 -9q-38 1 -36 1q-4 0 -13 -5q-10 -6 -18 -8q-37 -9 -72 -8q-42 1 -43 19q-1 22 36 18q5 3 33 17q21 10 30 20q1 4 -1 10t-1 11q2 5 11 14q9 10 12 17q1 3 1 9q0 7 2 9q2 4 11 12q8 6 10 12 q6 18 2 53q-5 40 -2 60q1 7 8 26q7 18 8 29q0 13 -2 37q-3 29 -4 39q-1 25 -1 132q0 81 -4 124q-11 -1 -26 -8q-18 -8 -24 -10q0 15 19 168q-13 -9 -29 -27q-20 -22 -26 -28q-1 -5 -1 -13q-1 -10 -1 -13q-2 -15 -12 -16q-8 0 -7 14q0 17 -3 20q-5 -2 -7 -11q-2 -11 -3 -13 q21 -47 23 -39q-2 -10 -13 -9q-14 1 -16 -2q-25 14 -26 54q0 38 21 56q-4 -3 -3 19q17 15 25 48q12 43 17 54q4 6 15 19q11 12 14 20q3 7 3 21q1 15 2 21q5 16 21 38q21 27 24 33q1 12 2 44q1 30 3 45q7 50 37 55q8 1 34 1q23 1 37 4q4 1 12 7q7 5 11 6q6 2 15 3q10 1 13 2 q14 3 19 16q0 5 -3 12q-4 8 -5 12q17 58 20 65q15 32 43 34q53 6 71 -7q7 -5 14 -18q10 -16 15 -22q17 -19 19 -26q5 -16 -19 -24q-7 -43 -47 -86z"
         id="glyph22827" />
      <glyph
         glyph-name="less"
         unicode="&lt;"
         horiz-adv-x="756"
         d="M602 723q-2 -3 -1 -7q22 5 37 -6l25 -19q-6 41 -59 38q0 -3 -2 -6zM609 767q1 39 0 35q16 89 16 81q-8 8 -21 48q-3 -27 -3 -96q-1 -64 -5 -95q12 7 13 27zM475 1174q6 -6 5 -13q-1 -5 -5 -10q-5 -5 -6 -9q32 -207 -8 -291q112 4 118 8q-18 41 -23 182q-6 133 -36 187h-8 q2 -14 -14 -26q-4 -2 -15 -8q-10 -6 -14 -9q0 -5 6 -11zM407 1080q4 -39 -9 -66q-4 -9 -13 -24q-11 -18 -16 -26q6 -12 2 -21q-4 -10 -21 -9q-1 -5 2 -11q2 -5 1 -10q6 4 -19 -44q11 -14 49 -15q58 0 62 -1q-25 49 -10 141q19 120 18 145q-20 28 -11 46q-26 12 -59 48 q-9 -12 -5 -36q2 -7 6 -22q5 -18 7 -25q15 -63 16 -70zM381 1319q-5 2 -6 -2q2 -7 10 -20q9 -14 12 -22q12 -26 4 -47q21 -32 48 -35q29 -4 55 27q1 6 -3 10q-6 4 -5 9q29 63 16 116q13 -19 8 -55q-1 -10 -5 -30t-6 -29q5 -3 38 -10q14 -20 40 -30q7 -3 24 -8q16 -5 25 -8 q33 -13 53 -110q9 -43 20 -149q5 -47 -41 -245q-1 -2 -8 -3q-6 -1 -8 -3q4 -39 -15 -63q-18 -24 -49 -23q-1 15 14 35q13 19 10 40q-27 -4 -30 -36v-33q0 -23 -3 -38q-1 -8 -6 -23q-6 -14 -7 -21q-9 -62 -19 -75q-3 -3 0 -8q6 -9 5 -8q-4 -15 -43 -108q-27 -65 -32 -119 q0 -4 -3 -10q-4 -6 -5 -9q-1 -23 14 -49q15 -27 16 -48q-35 -27 -92 6q-2 12 0 33q3 19 0 32q-2 8 -11 18q-9 11 -11 17q-2 12 2 30q6 24 6 29q1 3 -2 8t-3 8q0 -4 16 78q19 97 19 103q6 9 19 10q0 7 -4 13q-4 7 -4 12q12 24 8 73q-5 89 -5 83q-16 -10 -20 -56t-18 -57 q-2 -8 -3 -42q0 -27 -8 -36q10 -14 2 -30q-1 -3 -15 -24q0 -2 10 -27q0 -22 -10 -114q-7 -70 -3 -107q-16 -21 -30 -132q-17 -7 -47 -7q-33 0 -44 9q-4 20 9 40q16 24 17 36q4 23 -12 56q-17 37 -17 54q0 9 4 26q6 20 7 28q1 10 -1 32q-1 19 1 28q1 6 8 20q7 12 8 20 q0 9 -5 26q-6 17 -6 25t6 27q7 19 7 30q3 37 6 110q3 80 5 116q-7 20 -31 32q-8 4 -22 10q-16 6 -22 10q-15 -26 -41 -46q20 -42 -2 -81q-3 -3 -13 -3q-9 0 -12 -3q2 -46 35 -70q2 -23 -8 -48q-13 -2 -22 14q-9 15 -23 13q-4 -10 -5 -76q-1 -54 -20 -67q0 -5 3 -8q5 -3 5 -6 q-11 -13 -13 -65q-2 -61 -8 -80q-15 11 -11 52q5 48 0 61q-3 3 -14 5q-10 2 -13 6q4 15 32 29q3 6 -4 6q-7 -1 -6 3q-1 20 4 62q4 43 4 62q-2 37 2 43q-2 4 -12 5q-12 1 -15 3q6 73 3 86q14 9 11 30q12 2 18 16q10 22 12 24q-5 40 8 143q16 16 45 -5q4 12 11 42q7 27 11 41 q25 33 45 106q27 94 36 115q1 6 -1 14q-3 7 -2 13q26 8 140 79q1 17 -10 36q-12 22 -14 34q-1 5 5 7q6 3 6 6q-7 35 11 58q17 20 46 25q28 4 50 -9q25 -15 28 -44q-34 61 -87 46q-47 -14 -40 -89q-1 -4 -7 -1z"
         id="glyph22829" />
      <glyph
         glyph-name="equal"
         unicode="="
         horiz-adv-x="2724"
         d="M1133 1357q32 5 32 -21q-29 12 -64 -4q0 20 32 25zM665 1192q41 -3 55 -24q-19 9 -96 0q-1 27 41 24zM702 1140q-10 -12 -29 -4q6 13 29 4zM611 1142q16 5 20 -9q-7 0 -19 -5q-11 -4 -21 -2q5 10 20 16zM2612 456q-38 39 -52 57q-58 76 -75 86q-5 -1 -12 2q-6 3 -13 1 q-13 25 -45 32q-6 1 -29 5q-18 3 -29 6q-19 6 -51 25q-42 24 -52 28q-249 121 -342 132q-16 33 -45 46q-34 14 -62 -14q-20 37 -96 67q-127 50 -121 47q-9 5 -28 21q-17 15 -25 18q-11 4 -32 0q-24 -4 -32 -3t-18 7q-14 9 -18 11l-107 35l-106 36q-10 1 -25 0q-20 -1 -25 -1 q-28 0 -43 22q5 5 20 11q14 5 19 10q-2 100 22 157q-18 13 -17 50q1 40 -8 53q-4 -1 -5 -13q0 -11 -10 -8q-1 29 -17 32q-5 -3 -1 -14q3 -11 -3 -14q-5 2 -8 15q-3 11 -10 13q-4 -2 -3 -16t-4 -16q-3 1 -6 10q-3 7 -12 4q7 -36 -10 -43q-24 20 -15 22q-1 -2 -3 -32 q7 -10 32 -14q-2 -60 -21 -100q-148 -19 -157 -18q-13 1 -37 11t-38 10q-77 5 -164 -10q-25 -5 -59 -40q-39 -41 -55 -49q-4 5 -10 18q-7 12 -11 17q-11 2 -39 11q-22 7 -39 7q-8 0 -21 -5q-14 -5 -22 -6q-6 0 -19 5q-12 4 -20 3q-36 -5 -58 -38q-19 -30 -20 -71 q0 -41 18 -71q21 -32 56 -38q23 -3 58 11q32 12 63 4q-1 -3 -34 -48q-21 -28 -19 -52q2 -20 37 -55q37 -36 41 -70q3 -17 -2 -54q-5 -33 2 -63q-77 -82 -213 -185q66 -18 103 -79q-2 -2 -13 -5q-8 -2 -8 -9q39 -10 75 21q11 9 30 30q20 22 30 31q23 21 54 46q41 32 46 36 q42 36 48 115q1 18 1 76q0 50 4 83q18 -5 38 3q26 11 33 11q73 8 148 -74q19 -20 55 -67q32 -41 46 -54q-27 -31 -16 -90q3 -14 13 -49q8 -31 10 -47q1 -6 1 -19q-1 -14 -1 -20q2 -24 12 -63q11 -46 13 -58q2 -8 4 -45q1 -26 7 -40q9 -22 29 -27q4 -1 39 -2q29 0 139 -22 q97 -18 156 -13q68 5 260 -25q17 14 28 59q12 48 25 62q45 17 87 2l70 -34q70 -35 75 -39q17 -17 37 -79q17 -53 48 -67q-3 -6 29 28q19 193 -86 278q20 22 5 66q-15 41 -40 55q5 5 -68 -25q-13 -6 -28 -20q-16 -16 -22 -19q-42 -25 -192 -22q-23 1 -54 12q-34 12 -49 13 q-30 4 -119 -1q-78 -5 -123 5q-4 16 10 22q16 8 18 14q-1 29 39 185q2 8 3 30q1 20 4 30q23 58 105 43q16 -3 70 -18q45 -13 68 -14q13 -1 43 3q27 3 42 0q132 -20 142 -17q11 10 75 10q46 -49 154 -100q130 -62 166 -88q23 11 54 47q32 37 53 49q24 -56 57 -79q5 -3 32 -14 q20 -8 29 -21q4 -7 6 -20q3 -15 4 -19q16 -38 50 -68q75 -65 121 -61q17 2 37 21t20 33q1 13 -25 53q-19 31 -51 64zM275 424q0 3 3 6t4 5q-10 1 -17 -8q-9 -9 -15 -10q-29 14 -61 -7q-49 -32 -50 -32q-6 -2 -18 -3q-15 0 -19 -1q-19 -3 -20 -24q11 -9 42 -2q34 9 44 5 q-22 -50 -139 -57q31 -70 25 -64q85 -33 153 23q112 94 114 95q10 -19 34 -12q21 6 30 22q-10 1 -22 -10q-11 -9 -24 -8q-9 16 -64 82z"
         id="glyph22831" />
      <glyph
         glyph-name="greater"
         unicode="&gt;"
         horiz-adv-x="655"
         d="M321 795q8 -9 16 -8q-18 16 -22 31q-2 -14 6 -23zM436 730q-7 -12 -5 -26q-13 -10 -11 -6q-46 25 -54 57q-16 2 -13 -2q-4 6 -2 16q1 9 6 11q-22 -6 -41 9q-19 14 -17 36q3 20 24 22q46 6 41 4q1 6 -3 10q-4 5 -4 10h23q10 -16 13 -24q-1 -2 -5 -4q-3 -3 -4 -5 q8 -6 13 -45q23 23 49 2t12 -51q-14 -1 -22 -14zM340 892q0 9 2 11q12 0 20 -12q-1 -17 -28 -23q-27 -7 -26 19q5 1 14 -3q8 -3 13 1q4 0 5 7zM378 995q-9 26 -12 39q21 -5 31 -32q10 -29 -8 -46q-3 15 -11 39zM429 938q-16 72 9 96q-5 1 11 -7q-4 -35 -20 -89zM457 1064 q-6 -36 -6 -32q-9 1 -12 10q-1 3 -2 9q-1 8 -2 10q-7 -4 -10 -20q-3 -14 -16 -14q5 16 21 35q18 23 23 32q7 -9 4 -30zM554 163q-7 13 -7 18q0 3 6 6q5 2 5 7q0 44 22 107q5 12 16 33q12 22 15 31q7 19 -6 63q-31 101 -45 127q13 13 5 33q-3 6 -10 18q-8 14 -10 20 q-38 82 -45 143q7 9 30 23q20 12 26 24t6 58q0 8 3 24q4 17 4 25q4 62 0 78q-6 20 -39 34q-38 17 -46 28q-7 10 -18 28q-11 19 -17 28q0 -27 -21 -50q-24 -28 -28 -42q-15 11 -11 34q-6 -2 -11 -14q-4 -11 -14 -11q-1 9 -8 37q-6 23 -3 37q7 -5 23 -28q13 -19 24 -21 q-3 8 -16 20q-14 12 -18 20q-2 6 -3 24q0 16 -6 25q1 -44 -25 -70q-26 -27 -73 -28q-54 99 -162 278q-48 79 -63 87q-4 -12 18 -44q38 -56 90 -153q68 -124 86 -155q-59 130 -169 303q-21 33 -20 45q21 -28 111 -181q85 -143 105 -189q15 -22 42 -76q32 -62 36 -80 q-13 1 -31 38q-55 110 -74 140q-1 -6 3 -11q5 -5 4 -11q-1 -4 -6 -12q-5 -7 -5 -13q-1 -17 -11 -69q13 -109 20 -131q5 -9 19 -19q16 -12 21 -19q-8 -66 -45 -212q0 -5 5 -8q6 -3 6 -7q-30 -62 -38 -114q-2 -15 -15 -37q-14 -22 -16 -32q-1 -7 0 -21q1 -16 0 -21 q-1 -17 -14 -94q-10 -57 -6 -89q-14 -11 -17 -36q-3 -26 13 -38q-2 -5 -14 -31q-9 -19 -11 -36q-4 3 67 -4q22 36 20 74q14 0 16 2q7 14 4 35q-3 28 -2 36q1 7 6 15q6 9 7 12q8 20 13 60q5 42 10 53q2 7 8 17q7 12 9 16q8 19 -4 32q8 2 9 17q0 23 0 21q20 12 34 39 q3 4 12 25q8 16 14 27q33 58 51 58q13 1 36 -29q28 -35 69 -147q0 -3 -6 -6q-6 -2 -5 -7q2 -22 -31 -163q-3 -13 6 -36q10 -24 5 -44q26 -10 42 -4q56 -40 107 -21q-2 21 -26 35q-29 17 -34 26q2 11 -4 20zM414 722q6 1 6 7q-9 1 -16 -9zM404 735q12 1 14 9q-13 2 -14 -9z M384 744q2 2 8 5l8 4q10 7 6 14zM444 751q11 -2 9 10q-1 13 -9 12v-22zM371 773q-4 1 4 -6q30 7 20 24q-25 -19 -24 -18zM373 793q15 -1 16 9q-17 -12 -16 -9zM362 824q10 1 9 5q-4 -1 -10 1q-5 2 -8 -1q-1 -6 9 -5zM453 1152v-13q0 -8 2 -5q1 -5 12 16q-15 1 -14 2z M380 1261q-6 -1 40 -4q35 -2 39 -28q4 -34 14 -41q20 52 -25 82q-44 30 -86 0q-21 -15 -22 -84q0 6 6 8q7 3 9 7q36 64 25 60z"
         id="glyph22833" />
      <glyph
         glyph-name="question"
         unicode="?"
         horiz-adv-x="4481"
         d="M2311 323q-60 -87 -15 -197q32 -78 114 -107q75 -27 154 -1q82 27 118 94q42 76 5 177q-22 60 -78 96q-61 38 -141 29q-101 -11 -157 -91zM389 357q-49 -48 -56 -129q-8 -107 62 -172q65 -61 162 -56q97 6 148 76q47 63 39 149q-7 86 -64 140q-63 61 -161 49 q-81 -9 -130 -57zM4141 918q-43 74 -87 101q-65 39 -201 39q-8 0 -122 -3q-77 -2 -128 1q-4 -12 -72 -112q-55 -83 -49 -125q4 -29 27 -46q24 -18 57 -15q42 5 70 61q38 76 51 88q9 0 56 1q35 1 51 -5q-108 -333 -224 -484q-145 4 -185 -4q-89 -18 -66 -94q18 -56 141 -54 q188 4 194 3q31 37 79 126q48 88 79 125q30 -7 45 -44q4 -12 10 -34q7 -24 10 -33q8 -21 26 -64q18 -45 26 -67q4 -12 19 -65q14 -48 25 -75q36 -88 90 -87q66 1 68 64q0 38 -26 112q-14 40 -39 105q-27 70 -40 105q-37 103 -37 111q0 2 37 107q27 76 37 107q20 -8 40 -51 q20 -42 49 -51h111q94 0 124 10q47 15 44 69q-3 56 -70 67q-6 1 -139 3q-34 26 -81 108zM4172 1135q30 -4 31 19q-4 22 -30 25q-27 3 -31 -21q0 -19 30 -23zM1454 582q1 37 0 212q-1 131 5 206q55 -3 142 -1q114 2 135 2q151 -2 221 -47q2 -2 172 -186q116 -127 158 -186 h-833zM1361 582q-143 2 -378 -1q-277 -4 -375 -4q-5 12 5 25q3 3 10 11q6 7 8 11q91 141 172 265q59 90 75 97q32 16 141 15q176 0 165 -1q31 2 89 1q61 -2 88 -1v-418zM2985 358q-16 55 -28 85q-37 93 -103 120q-23 10 -149 14q-54 2 -288 5q-103 107 -195 209 q-15 16 -93 114q-56 71 -98 105q-78 62 -242 74q-51 4 -153 5q-112 2 -163 4q11 68 -13 104q-21 31 -57 26q-35 -4 -55 -39q-23 -40 -10 -95q-67 -11 -273 0q-165 9 -234 -28q-32 -17 -93 -112q-40 -61 -126 -189q-81 -121 -120 -183q-148 1 -233 -95q-56 -63 -112 -216 q-56 5 -75 -39q-11 -27 -13 -101q40 -6 113 -5q99 1 120 0q-41 158 58 265q93 101 230 84q115 -14 181 -116q69 -107 28 -233h1451q-1 15 -8 49q-6 28 -6 44q2 120 85 190q75 62 182 61q107 -2 180 -67q81 -72 79 -193q-1 -34 -14 -84h381q23 154 -107 149q-8 23 -27 88z M1547 1240q-4 31 -16 43q-14 14 -35 -4q24 -59 0 -125q22 -11 28 -9q33 19 23 95zM1312 1215q-3 50 3 74q-21 7 -35 -14q-12 -20 -14 -52q-1 -32 9 -54q12 -25 35 -24q4 18 2 70zM1557 1121q45 14 46 91q1 76 -37 100h-14q-4 -10 -9 -14q20 -30 16 -87q-1 -17 -6 -46t-6 -39 q9 -3 10 -5zM1268 1126q2 16 -7 53t-7 59q1 8 13 36q8 20 1 33q-6 6 -28 5q-27 -41 -26 -105q1 -71 45 -86q2 6 9 5zM1597 1140q-8 -20 6 -37q25 7 40 42q14 32 13 74q0 43 -14 73q-16 34 -44 39q-2 -22 10 -74q10 -49 4 -80q1 1 -15 -37zM1217 1144q-12 30 -14 42 q-4 32 6 76q12 57 13 64q-6 6 -28 5q-36 -40 -32 -134q2 -42 16 -66q16 -28 44 -24q4 14 -5 37zM3926 1128q28 -47 88 -68q59 -20 113 -3q59 18 81 74q-41 -16 -92 -1q-10 3 -81 33q-7 12 -4 32q2 21 14 24q18 -4 106 -29q64 -18 112 -22q20 33 2 98q-15 56 -39 83 q-71 81 -185 55q-113 -26 -145 -129q-1 -11 10 -16q12 -7 13 -12q-25 -66 7 -119z"
         id="glyph22835" />
      <glyph
         glyph-name="at"
         unicode="@"
         horiz-adv-x="2178"
         d="M477 18q82 -34 229 -4q14 14 16 59q1 12 0 35q0 22 1 29q94 -1 522 1q320 1 516 -5q11 -117 9 -115q41 -11 107 -16q82 -5 105 12q26 19 20 82q-8 82 -3 105q74 17 72 114h-1679q-15 -43 12 -79q25 -33 64 -39q13 -191 9 -179zM1719 560q-10 -59 34 -84q45 -25 82 -2 q32 20 42 64q9 43 -14 71q-26 32 -85 20q-49 -10 -59 -69zM578 582q-15 -46 9 -78q21 -28 60 -32q39 -5 66 17q31 25 26 72q-3 37 -33 57q-31 22 -72 11q-44 -11 -56 -47zM1159 1032q44 -11 86 -11q58 0 59 28q1 30 -64 32q-63 1 -85 -19zM544 899q7 -16 17 -20q24 12 32 20 q13 13 11 35q-2 30 -24 37q-16 6 -50 -1q-97 -19 -121 -10q-25 9 -40 29q-15 21 -37 30q-48 -26 -100 -24q-61 2 -65 50q-3 40 37 57q13 6 86 19q-36 52 -98 28q-53 -20 -80 -66q-50 -86 -48 -253q2 -180 78 -209q-3 -227 -68 -450q-3 -8 -9 -22q-8 -18 -10 -25 q-12 -30 -7 -55q6 -25 33 -43q30 -19 61 -12q51 12 89 161q51 202 59 390q1 31 -6 188q-5 105 15 169q7 -1 14 -12q6 -10 15 -10q17 22 86 30q71 9 109 -8q13 -6 21 -23zM1703 507q-25 56 8 105q27 40 78 42q51 3 95 -33q35 -65 4 -122q-32 -58 -101 -52q-58 4 -84 60z M663 934q7 -11 19 -61q10 -41 28 -53q17 18 -2 68q-24 62 -24 76q1 24 20 57q23 38 27 53q154 36 488 38q320 3 509 -38q22 -55 62 -137q57 -116 65 -134q-243 -6 -624 -5q-516 1 -627 1q21 55 59 135zM592 469q-29 24 -36 64q-8 39 11 72q21 35 67 45q55 13 90 -15 q30 -24 35 -68q4 -43 -19 -78q-24 -37 -68 -42q-47 -5 -80 22zM1984 916q-82 -6 -74 -66h-34q-40 79 -64 148q-49 146 -59 157q-24 26 -136 37q-28 2 -191 10q-200 8 -301 4q-374 -17 -407 -38q-20 -14 -34 -57q-16 -48 -25 -58q-8 22 -23 79q-13 52 -24 78q-2 -2 -7 -12 q-4 -7 -10 -9q0 5 26 -89q25 -95 -4 -178q-16 -45 -21 -53q-19 -31 -47 -19q-13 51 -26 59q-87 12 -174 0q-19 -11 -22 -54q-2 -41 14 -61q29 -11 106 -8q82 2 110 -4q-15 -14 -42 -34q-35 -24 -44 -32q-50 -40 -62 -91q-11 -45 -6 -134q6 -105 2 -150h580v212q67 -7 64 -4 v-208h42q1 18 0 108q-1 68 5 104q65 -10 59 -4v-208h42v212q67 -7 64 -4v-208h43v212q65 -10 59 -4q1 -18 -1 -107q-1 -66 5 -101h42v212q67 -7 64 -4v-208h577q-7 49 2 159q8 95 -6 142q-14 43 -68 81q-75 52 -85 63q17 1 115 -1q72 -1 105 9q15 14 15 55q-1 41 -15 56 q-96 13 -129 11zM204 1091q-34 -16 -24 -59q42 -58 203 13q86 37 132 72q62 47 99 121q44 90 -61 74q-87 -157 -276 -204q-75 -18 -73 -17zM434 1189q17 10 46 42q33 36 35 51q4 47 -52 82q-54 33 -105 24q-36 -6 -69 -34q-29 -25 -37 -51q-17 -51 10 -107q26 -56 66 -58 q21 -1 106 51zM567 1372q-7 25 -14 37q-1 -4 -11 -6q-10 -1 -10 -6q6 -11 11 -34q6 -26 10 -34q6 -2 13 2q6 4 12 2q-2 7 -11 39z"
         id="glyph22837" />
      <glyph
         glyph-name="A"
         unicode="A"
         horiz-adv-x="2588"
         d="M1814 837q0 -12 9 -23q10 -12 12 -19q17 4 -21 42zM1782 873q13 -14 20 -11q-3 1 -23 23q-14 15 -23 2q12 1 26 -14zM1956 745q-6 -4 0 -11q8 -10 4 -18q-19 10 -25 8q-2 -6 4 -8q7 -2 4 -8q6 -2 -100 79q45 -36 9 -113q-32 18 -79 64q-49 48 -76 66q8 -24 57 -77 q40 -43 39 -94q0 -1 -17 -16q-9 -9 -4 -22q-16 -1 -49 -9q-30 -8 -51 -8q-10 23 -7 102q2 69 -22 90q-2 10 5 16q8 6 8 13q-21 115 -63 163q-6 1 -24 3q-15 2 -23 4q-26 6 -32 22q2 5 6 11q6 8 7 11q8 14 3 32q26 48 92 34q65 -14 71 -67q-12 -1 -21 10q-11 13 -16 15 q-2 -9 1 -24q2 -11 -1 -18q-10 1 -15 15q-6 14 -15 15q-7 -6 3 -19q9 -12 2 -19q-18 7 -42 58q-8 -9 -4 -25q8 -26 8 -25q-16 5 -25 24q-9 18 -4 35q-18 -3 -21 -21q6 -24 23 -38q19 -15 44 -8q26 -20 41 -71q0 -2 8 49q4 29 22 35q55 -12 175 -4q118 7 171 -5q9 -2 12 -4 q14 -7 37 -18q32 -14 39 -18q43 -21 58 -43q-26 -27 -88 -81q-59 -51 -87 -82q-44 1 -42 0zM1843 624q4 4 10 2q7 -2 11 2q3 48 13 84q23 -1 72 -30q50 -29 53 -45q4 -23 -20 -54q-8 -10 -22 -25l-21 -21q-29 16 -96 87zM1842 1041q-115 -9 -107 -8q20 32 89 42 q68 8 111 -13q-29 -17 -93 -21zM2030 1038q12 -8 18 -9q-8 -16 -28 -6q-21 11 -10 22q10 1 20 -7zM2457 995q-30 19 -96 34q-9 2 -22 7q-16 7 -22 8q-26 8 -44 -7q17 -4 49 -9q40 -5 53 -7q62 -11 86 -42q35 -45 29 -92q-4 -34 -29 -38q-8 -2 -24 0q-19 1 -26 0q-6 0 -19 -7 q-13 -8 -19 -9q-5 -1 -18 2t-19 2q-12 -1 -25 -8q-10 -6 -17 -5q-23 4 -53 32q-35 33 -51 39q-2 8 -6 17q-6 12 -7 17q-68 43 -121 125q32 -2 70 -32t72 -31q18 -33 58 -58q-3 11 -16 34t-16 33q-11 35 45 41q-28 10 -51 -11q-30 -28 -41 -30q-42 27 -108 86q-72 65 -105 89 q-149 -42 -142 -38q-8 -5 -20 -21t-21 -20q-32 -16 -149 -4q-94 10 -122 -42q-4 -7 -5 -27q0 -21 -4 -28q-26 -5 -73 -1q-48 5 -73 1q-15 9 -20 38q-9 51 -9 50q-3 8 -13 24q-12 18 -16 26q-13 28 -31 85q-22 64 -31 87q-39 98 -92 108q-31 5 -72 -9t-66 -37 q-19 -18 -36 -62q-21 -53 -31 -68q-8 -12 -31 -31q-23 -20 -31 -31q-13 -18 -25 -49q-16 -40 -21 -51q4 -12 19 -37q14 -22 18 -38q-161 -146 -325 -130q-17 -7 -24 -34q-3 -8 -5 -24q-3 -19 -5 -25q39 -22 112 -25q131 -5 126 -4l76 -18q45 -10 74 1q39 77 5 108 q10 33 52 59q51 31 64 50q12 16 25 80q11 52 42 70q1 -121 59 -309q-63 -68 -163 -137q-57 -40 -69 -46q-42 -21 -77 -13q-5 -4 -16 -16q-9 -10 -15 -15q-21 -16 -53 -10q-38 -39 -44 -43q-30 -20 -77 -12q-207 -154 -333 -183q-47 -11 -67 -9q-16 2 -62 24q-36 16 -63 10 q-39 -10 -49 -63q-1 -6 -5 -108q-1 -14 -6 -53q-4 -32 -3 -47q3 -40 20 -61q14 -19 33 -17q18 3 28 25q12 24 7 61q101 130 313 146q18 -13 50 -54q30 -37 54 -50q5 2 114 53q74 35 115 68q47 37 46 36q27 18 63 18q94 1 196 46q188 82 204 100q170 6 229 18q124 26 155 103 h54q54 -53 188 -100q123 -43 167 -34q36 9 67 55q2 2 46 83q14 20 89 63q60 35 69 83q62 -21 112 1q44 19 66 66q22 46 16 96q-7 53 -44 87q4 -3 -41 25zM1693 829q8 -11 31 -16q30 -6 36 -9q-5 10 -38 37q-29 -16 -29 -12zM1751 865q11 -14 21 -16q-6 17 -17 26 q-14 12 -28 4q13 0 24 -14z"
         id="glyph22839" />
      <glyph
         glyph-name="B"
         unicode="B"
         horiz-adv-x="1222"
         d="M922 863q52 12 66 48q-127 -58 -259 3q-87 41 -190 147q-6 -8 -49 -29q-31 -16 -34 -43q11 -12 42 -41q27 -26 41 -42q2 0 6 5q6 5 8 7q10 8 14 -1q-11 -26 -61 -50q-49 -25 -61 -50q2 0 128 33q73 -55 188 -83q55 -69 77 -77q4 36 -17 77q-21 43 -21 72q4 0 7 9q2 9 9 8 q79 2 106 7zM324 302q-16 -34 3 -69q19 -34 46 -25q-23 69 -49 94zM1176 584q-224 176 -299 200q207 -142 299 -200zM479 800q31 -17 99 -88q56 -58 76 -71q52 -36 57 26q3 39 -59 91q-73 63 -79 76q-78 -19 -94 -34zM429 457q-9 -31 17 -67q31 -43 33 -66q-16 19 -48 74 q-29 49 -52 70q-6 -7 50 -11zM508 565q-103 32 -124 53q-26 167 122 271q-17 4 -40 18q-25 16 -37 21l-24 -24q-14 -14 -32 -15q48 -80 -53 -116q-30 -11 -94 -24q-65 -14 -85 -21q8 -35 9 -122q1 -72 19 -110q-2 4 60 -50q135 -115 205 -432q122 -53 105 91q-10 86 -60 208 q7 11 30 37q28 31 40 45q48 60 46 95q-3 49 -87 75zM351 875q-24 1 -74 -15q-122 -41 -136 -32q11 14 70 22q63 8 85 28q-29 6 -55 36q-34 40 -45 47q-142 -70 -155 -138q-10 -56 42 -73q43 -15 119 0q69 12 125 40q58 28 57 49q0 33 -33 36zM408 921q23 21 26 51 q2 12 -10 18t-12 15q29 8 22 33q1 8 -16 6t-17 5q1 3 8 12q6 6 3 16q-7 6 -25 17q-17 10 -25 16q-68 15 -109 -23q-36 -33 -36 -87q0 -55 37 -88q41 -37 108 -23q48 34 46 32zM528 1105l120 33q71 20 102 50q-142 -26 -222 -83zM132 1075q-17 -8 -19 -20q50 -23 72 -11 q1 12 -18 12q-20 1 -21 10q28 34 28 28q-32 55 -39 44q41 2 45 6q2 11 -9 31q-9 17 -2 24q10 0 23 -10q11 -10 26 -7q25 59 17 56q3 -5 6 -15q4 -11 6 -15q7 -17 21 -20q5 3 15 18q8 13 18 15v-39q16 -3 29 8t27 9q-2 -5 -10 -18q-6 -11 -7 -21q21 3 31 27q3 8 7 23 q4 16 6 22q-18 1 -35 -11q-20 -15 -31 -17q2 12 -2 26q-5 14 -4 24q-14 0 -26 -20q-12 -19 -29 -18q-9 49 -39 60q-5 -9 -7 -36q-3 -26 -9 -36q-14 2 -32 13q-19 12 -29 15q-7 -13 4 -36q13 -27 12 -41q-56 7 -66 0q6 -18 28 -34q27 -20 33 -27q-3 -10 -20 -19zM654 1330 q-4 3 -9 2q-19 -29 -71 -90q-47 -56 -68 -93q101 89 155 177q-3 0 -7 4zM501 1409q-3 -29 -25 -118q-17 -72 -14 -114q54 180 55 232h-16z"
         id="glyph22841" />
      <glyph
         glyph-name="C"
         unicode="C"
         horiz-adv-x="1220"
         d="M406 117q-31 -14 -47 -18q-102 -23 -237 5q-21 -13 -20 -42q0 -29 20 -43q-11 -2 219 -9q162 -5 165 49q1 25 -20 49t-43 22q-10 0 -37 -13zM992 512q7 -14 9 -25q85 36 98 45q-8 45 -47 36q7 1 -69 -32q1 -8 9 -24zM390 487q-52 -7 -86 14q-29 18 -31 45q-2 28 25 39 q31 12 83 -9q0 16 -11 27q-3 4 -10 9q-7 6 -10 9q-83 7 -139 -45q-105 -98 -169 -414q73 -61 219 -57q139 3 222 57q-95 160 -93 325zM1010 651q-16 -23 4 -39q22 -3 30 10q7 12 1 30q-19 21 -35 -1zM316 507q52 -19 123 -11q56 6 137 55q91 56 81 101q-2 9 -19 22 q-19 16 -30 5q-67 -66 -79 -75q-59 -42 -130 -41q-17 0 -53 11q-30 8 -59 2q-33 -47 29 -69zM860 713q15 -4 25 -3q6 73 4 98q-41 20 -48 -20q-2 -11 -2 -38q-1 -25 -3 -35q11 1 24 -2zM234 848q-77 -13 -89 -80q-13 -69 27 -106q35 -32 91 -26q55 6 85 45q34 43 11 105 q-31 79 -125 62zM1023 850q3 24 -13 38q-38 4 -36 -30q1 -13 8 -22q8 -11 19 -10q18 1 22 24zM675 835q-52 39 -17 75q33 33 93 32q-49 40 -89 27q-35 -12 -58 -62q-47 -102 -18 -224q4 -2 28 3q23 5 34 -3q30 -25 7 -64q-35 -58 -33 -52q6 -14 29 -26q26 -14 33 -23 q54 -170 -9 -352q-4 -11 -13 -30q-10 -23 -14 -31q-15 -38 -9 -64q6 -20 32 -33q29 -15 58 -2q23 10 41 55q-4 -11 26 78q30 93 35 170q7 105 -37 271q-42 157 -30 259q-28 -5 -89 -4zM234 955q6 -3 27 -19q16 -13 31 -16q3 9 8 38q4 26 10 37q20 -39 31 -66q13 2 31 25 q18 20 27 19q-5 -71 -5 -76q11 0 34 10q20 8 29 4q-42 -76 -40 -72q41 -14 44 -17q-40 -40 -40 -32q59 17 71 36q-5 9 -26 14q-22 5 -27 13q5 11 26 41q17 25 23 43q-11 4 -41 -8q-31 -12 -39 -9q5 31 9 84q-20 -5 -39 -24q-26 -25 -33 -29q-3 16 -15 40q-13 25 -16 40h-13 q-5 -12 -11 -45q-5 -31 -12 -44q-68 34 -62 36q2 -8 4 -23q2 -19 3 -24q5 -27 20 -34q-4 -6 -9 58zM935 1083q-11 -33 -15 -39q-58 -101 -182 -120q-6 -1 -30 -3q-18 -1 -28 -4q-29 -8 -27 -37q1 -32 49 -36q37 -3 85 9q93 24 155 91q59 66 76 158q-7 14 -27 21 q-23 7 -35 -7q-12 -10 -21 -33zM605 1068q28 -67 97 -68q52 -1 83 35q27 33 26 80t-30 77q-33 33 -88 26q-52 -6 -76 -35q-40 -49 -12 -115zM1014 1352q-75 -43 -112 -133q-40 -96 -17 -206q14 20 15 90q0 69 16 89q6 -15 19 -33q18 -25 21 -30q37 15 60 -11q22 -26 7 -65 q13 0 37 11q21 10 30 7q93 -294 -23 -321q-67 -15 -108 41q-17 24 -52 115q-16 -39 5 -84q20 -41 62 -69q42 -29 83 -27q47 3 73 46q35 58 16 160q-5 25 -43 153q71 36 85 66q-75 135 -174 201zM619 1370q4 -8 7 -9q-4 -9 -13 -3t-5 16q8 3 11 -4zM666 1343q6 -6 5 -17 q-2 -12 -14 -10q2 7 -2 14q-4 6 -2 13h13zM599 1303q10 -12 35 -12q28 -1 37 -6q-1 6 19 41q14 25 -15 39q-24 -5 -36 -4q1 6 -3 12q-5 7 -5 10q29 -6 35 14q-65 25 -85 -40q0 -18 33 -22q31 -3 30 -23q-30 9 -45 -9zM786 1374l3 -9q1 -6 2 -8q-14 -2 -22 4q-2 7 1 12 q4 5 3 10q9 0 13 -9zM834 1315q-4 12 -7 15q14 17 25 0t-7 -27q-8 1 -11 12zM814 1311q5 -12 -1 -17q-18 9 -53 -4q5 -22 43 -23q43 -2 46 -4q-5 13 15 27q23 17 25 26q7 33 -15 44q-20 11 -61 1q1 6 -7 18q-7 10 -2 13q14 -5 26 0q22 9 23 9q-4 20 -34 18q-40 -2 -46 0 q-2 -12 -21 -28t-19 -30q1 -50 71 -31q-1 3 10 -19z"
         id="glyph22843" />
      <glyph
         glyph-name="D"
         unicode="D"
         horiz-adv-x="1049"
         d="M887 754q-1 -1 -8 -7q-5 -4 -5 -9q-6 7 30 4q-3 -9 -3 -19q1 -3 3 0q3 3 6 2l3 -13q2 -8 7 -8q4 31 5 32q3 -23 8 -26q7 3 7 20q-1 19 4 22q3 -21 6 -27q-4 -1 13 34q4 -1 4 -10t2 -11q14 2 14 28q0 8 -2 21q-1 15 -1 18q-16 0 -42 4q-27 5 -37 5q-18 -15 -14 -60z M150 837q-1 0 -7 3q-4 3 -8 3q-16 -6 -57 -53q-31 -35 -40 -52q3 -1 5 -5q16 11 36 36q24 29 35 38q3 -2 1 -6q-1 -4 1 -6q5 1 14 27q7 18 22 4q0 -4 -4 -10t-4 -11t5 -11q5 -7 5 -12q-13 -18 -12 -25q7 -5 13 0q8 6 12 6q-2 -16 -2 -17q5 -2 11 1q5 2 6 1q-2 -9 -2 -8 q11 -5 10 -11h13q6 14 6 19q-13 11 -23 40q-4 0 -8 -4t-9 -4q7 6 7 19q-1 15 2 19q5 -2 22 -13q13 -9 24 -10q0 16 -11 28q-20 22 -18 20q-25 0 -45 -6zM282 852q-10 11 -27 16q-41 12 -50 -23q10 -8 28 -42q14 -7 35 4q20 10 22 19q3 14 -8 26zM589 993q-12 -18 -12 -93 q1 -4 7 -7q8 -3 9 -6q-6 -6 -8 -20q-1 -15 4 -24q21 -6 34 9q-13 33 -2 84q14 60 10 82q-16 116 -14 121q-36 10 -34 10q-2 -139 6 -156zM623 1147q8 9 12 24q5 17 -6 22q-1 -14 -21 -18q-22 -3 -25 -11q23 -1 40 -17zM652 1202q-8 13 -23 -61q-3 -18 10 -59q15 -43 13 -64 q0 -14 -4 -42q-4 -27 -4 -41q-3 -46 13 -75q12 -3 27 0q19 4 21 15q1 5 -8 27q-10 24 -11 30q-26 164 -12 340q-4 2 -9 15q-5 11 -13 12q-16 -97 -16 -99q1 6 16 2zM509 1259q-34 16 -27 17q-13 -2 -17 -23q-4 -19 2 -34q16 1 22 -19q7 -22 14 -26q5 1 10 7q5 7 9 8 q3 -11 17 -20q17 -10 21 -16q15 5 24 29q10 31 16 37q6 -2 12 -11t13 -10q20 42 15 95l-23 -5q-3 -18 -13 -23q-9 4 -20 16q-12 14 -18 18h-6q-5 -6 -7 -27q-2 -20 -8 -26q2 -5 -36 13zM730 1283q49 3 58 3q66 0 67 -44q1 -5 8 -6q9 -3 11 -5l27 -42q21 -32 30 -46 q42 -67 49 -97q2 -12 10 -197q1 -31 -4 -116q-11 -1 -30 -17q-18 -15 -33 -14q-2 -2 2 -76q9 -171 19 -376q0 -7 -1 -30q-1 -18 1 -29q1 -9 13 -33q10 -23 12 -37q1 -5 0 -18q-1 -12 0 -17q2 -7 32 -39q21 -22 4 -44q-34 -9 -66 10q-56 34 -52 32v24l-24 30q-14 18 -18 33 q-3 10 -4 27q0 24 -1 28q-7 74 -114 369q-21 -10 -28 -48q-2 -12 -4 -34q-2 -25 -4 -34q-32 -216 -78 -297q-3 -7 -17 -24q-10 -13 -12 -21q-1 -5 -1 -31q0 -16 -10 -22q-8 -1 -24 0q-15 2 -24 0q-5 -1 -14 -8q-10 -7 -16 -8q-15 -4 -76 4q-6 23 23 38q49 27 45 23 q8 7 14 18q7 13 11 18q2 43 -3 132q-5 83 -1 127q2 31 11 81q10 62 12 80q19 151 19 162q-1 29 -23 118q-4 16 -15 55q-10 35 -15 55q-16 -8 -99 -67q-24 -18 -67 -41q-56 -29 -70 -37q-25 3 -42 -19q5 -35 -11 -51q-37 -9 -74 25q-25 -3 -33 2q-7 -1 -18 -14 q-10 -13 -18 -15q-12 -3 -23 2q-10 5 -11 13q-1 6 48 61q45 49 57 53q27 -13 56 2q45 24 52 25q102 78 137 122q4 1 10 4q5 2 9 3q4 3 15 19q9 13 21 15q10 24 32 35q-6 75 31 89q-8 8 -16 40q-27 15 -26 34q-24 3 -38 24q-16 23 -6 56q2 6 35 40t43 40q27 18 51 13 q-5 1 23 -25q4 -4 26 -17q19 -10 27 -21l21 -38q1 -3 9 -2q8 0 10 -3q4 -3 10 -11q6 -9 9 -12q18 -3 54 -1z"
         id="glyph22845" />
      <glyph
         glyph-name="E"
         unicode="E"
         horiz-adv-x="703"
         d="M409 623q-8 52 -4 48q-15 -33 -14 -28q17 -20 18 -20zM576 760q4 11 -2 17q0 -6 -6 -16q-7 -9 -6 -14q10 1 14 13zM454 942q-27 25 -22 23q3 -28 20 -55q-1 27 2 32zM464 910q-4 4 6 -68q23 28 40 84q0 2 -4 2t-2 4q16 37 0 45q-4 -12 -38 -35q6 -19 -2 -32zM341 1298 q-6 -1 -11 2q-6 4 -9 4q-48 -54 -129 -167q12 -19 -4 -42q23 -45 87 -104q15 3 26 -7q13 -12 20 -13q3 3 8 3q7 -1 10 1q4 2 10 10t10 10q12 5 31 -3q4 -2 15 -8q11 -5 16 -7q-3 17 -22 42q2 13 -5 33t-5 31q2 8 10 20q9 13 10 20q28 20 64 6q36 -13 43 -44q11 -48 -16 -90 q16 -26 59 -49q57 -31 68 -40q2 6 8 -44q0 -3 -1 -9q-2 -6 -1 -9q0 -4 3 -10q4 -7 5 -10q1 -7 2 -20q0 -13 2 -18q1 -4 6 -12q5 -7 6 -11q11 -47 -28 -70q-41 1 -85 30q-6 -2 -6 -19q0 -18 -4 -21q11 -21 8 -78q-5 -123 6 -389q1 -9 3 -30q3 -21 3 -32q1 -13 -2 -46 q-2 -28 0 -40q1 -6 16 -25q13 -16 8 -30q-40 -11 -64 2q0 1 -2 20q-1 1 -10 3q-8 2 -12 7q0 10 -40 147q-9 31 -15 101q-5 74 -14 106q-8 -9 -10 -26q-25 -230 -24 -225q-3 -12 -10 -27q-10 -22 -12 -25q-11 -29 -4 -55q-12 -13 -22 -12q1 -19 -4 -24q-21 -9 -62 -2 q-4 16 7 32l11 11q8 9 10 11q-1 10 -6 58q-5 35 -2 57q1 9 6 27q5 19 6 29q7 88 0 252q0 5 1 22q1 14 -1 20q-3 8 -24 22q-20 14 -22 24q-2 8 16 61q48 147 50 175q4 49 -10 76q3 -7 -64 42q-63 46 -97 93q-17 11 -18 18q-1 9 6 17q8 10 8 13q-10 4 -23 -9q-3 -4 -10 -12 q-6 -8 -9 -11q-28 -28 -44 -36q-28 17 -23 36q1 1 29 18q25 15 54 48q-2 16 6 27q15 21 14 20q11 3 14 -3q69 90 129 198q-10 9 -34 7q-36 -3 -35 -3q0 43 33 68q7 -6 58 -38q36 -23 52 -44q-5 -21 -18 -31z"
         id="glyph22847" />
      <glyph
         glyph-name="F"
         unicode="F"
         horiz-adv-x="2338"
         d="M1904 477q15 -14 21 -18q6 23 -16 38t-29 -5q11 -3 24 -15zM1921 504l31 -32q3 31 -28 51q-32 21 -51 -5q30 6 48 -14zM1645 829q34 -1 130 -23q62 42 14 80q-39 32 -99 38q-125 13 -220 -59q-89 -66 -101 -157q25 -33 47 -32q18 0 39 23q6 7 37 49q23 33 40 45 q51 37 113 36zM1896 877q-38 37 -51 46q-65 50 -129 8q11 -4 35 -10q22 -6 32 -9q32 -12 38 -40q10 -49 -17 -63q-20 -11 -72 -5q-98 12 -92 11q-51 3 -75 -15q-10 -22 -33 -56q-28 -43 -35 -55q-39 -66 -30 -125q2 -16 19 -39q22 -28 27 -40q12 -28 22 -72q13 -59 17 -72 q-13 -10 -164 -66q-118 -44 -124 -97q-12 -100 96 -78q46 9 166 64q128 60 150 78q64 53 27 139q42 -14 61 -79q9 -32 21 -134q11 -87 28 -122q26 -52 80 -45q60 7 57 96q0 27 -25 153q-35 182 -39 190q-21 39 -98 70q-83 33 -105 61q36 67 190 242q30 -12 180 -85 q109 -54 193 -72q37 33 14 69q-20 31 -81 59q-125 59 -234 55q-19 10 -49 38zM1528 928q23 5 31 9q-15 14 -35 9q-22 -6 -24 -28q8 6 28 10zM1517 976q-40 -12 -37 -39q6 3 18 11q13 8 20 11q24 11 47 -2q-8 31 -48 19zM1054 590q12 3 22 -1q12 -5 18 -5q3 -12 -7 -17 q-12 -5 -13 -10q-23 12 -20 33zM1126 590q-92 31 -260 5q-240 -37 -251 -38q61 99 -28 275q-34 69 -77 115q-44 47 -71 43q-39 -7 -48 -82q-3 -19 -5 -69q-3 -44 -6 -65q-51 -42 -73 -130q-22 -87 1 -159q-34 61 -30 117q4 41 31 94q45 87 47 90q22 54 17 105q-8 5 -36 23 q-24 16 -40 24q-50 25 -94 12q-18 -42 3 -105q29 -83 30 -104q0 -5 -17 -123q-10 -75 23 -120q-60 -85 -216 -124q9 -18 65 -46q35 25 100 20q66 -5 90 -33q-93 -106 -91 -85q15 -4 46 4q24 6 45 -11q42 33 173 96q109 52 155 107q5 7 24 39q13 24 28 33q40 26 119 32 q117 9 143 14q52 -35 147 -22q12 2 148 35q-21 2 -26 14q1 6 13 9t13 10q-34 21 -92 0zM2077 879q42 40 40 107t-45 105q-50 42 -127 17q-44 -10 -67 -47q-21 -34 -19 -79t24 -80q24 -39 62 -50q83 -19 132 27zM1552 1160q0 -3 -4 -9q-4 -5 -3 -11q31 -5 140 -35 q86 -25 136 -24q-149 62 -269 79zM1766 1230q-69 61 -96 94q-18 1 -26 -7q132 -135 216 -183q-29 37 -94 96zM1906 1153q-6 24 -16 73t-16 73q-20 83 -53 123q11 -126 85 -269z"
         id="glyph22849" />
      <glyph
         glyph-name="G"
         unicode="G"
         horiz-adv-x="2128"
         d="M367 1254q-70 -22 -96 -68q84 66 185 65q5 0 15 -1t15 -1q18 1 25 11q-72 17 -144 -6zM883 703q-4 0 -9 -2q-5 -1 -10 0q0 -1 -28 41q-17 24 -19 50q32 11 76 -34q21 -22 48 -75q31 -58 44 -74q2 13 -6 24q-9 13 -9 21q6 -1 14 2t15 2q21 -23 4 -48q-16 -25 -47 -24 q-29 78 -73 117zM736 356q-39 -28 -48 -34q-58 -38 -111 -44q-56 -6 -88 21q-13 10 -26 30q-15 22 -13 33q2 14 82 57q61 34 79 57q-1 9 -11 16q-13 9 -15 13q-1 21 6 41q40 -12 96 -5q-9 -15 -27 -39q-26 -32 -31 -39q-35 -51 -40 -101q10 4 12 17q5 25 4 22q15 41 76 98 q67 62 83 91q43 32 110 100q50 -32 72 -140q-109 -133 -159 -162q-21 -11 -51 -32zM748 136q-24 -45 -80 -39q-27 3 -63 22q-48 26 -49 37q0 -1 29 33q25 30 16 65q25 8 64 30t62 29q12 4 23 -27q10 -26 12 -46q6 -66 -14 -104zM618 63q-14 9 -35 29q-23 22 -33 29 q-6 -2 -14 -11q-7 -6 -13 -5q-21 4 -8 23q11 17 29 24q17 -27 90 -53q68 -24 81 -61q-53 -6 -97 25zM681 24q20 -7 32 -5q-11 -8 -30 -2q-5 1 -16 5q-10 4 -15 5q11 4 29 -3zM362 770q-2 9 0 14q28 -5 62 -26q39 -25 57 -31q-1 -8 1 -21q1 -13 1 -22q-19 9 -58 36 q-35 25 -61 34q1 5 -2 16zM505 699q-4 -1 -16 6q-1 5 2 16q15 -1 14 -22zM489 684q13 8 21 -3q7 -10 7 -27q-28 9 -28 30zM523 680q29 -11 46 -43q18 -35 12 -77q-45 63 -58 120zM858 692q-5 -15 -37 -32q-10 9 -4 51q-15 -5 -14 -28q1 -21 12 -31l-25 -25q-15 -16 -28 -22 q-15 38 5 85q20 49 58 39q10 -2 33 -37zM860 792q-13 11 -20 13q12 5 23 -5q3 -2 9 -8q5 -6 8 -8q-8 -2 -20 8zM251 423q-2 10 -7 10q-10 -4 -3 -28t-5 -31q-6 -1 -14 6q-10 8 -15 8q-6 1 -17 -4q-13 -5 -17 -6q-44 -5 -67 26q-24 32 -9 76q50 18 96 31h2q28 -1 56 -37 q28 -38 5 -63q-3 2 -5 12zM189 546q-1 0 6 -21q-11 -3 -55 -18q-34 -11 -59 -14q-1 6 -4 8q16 23 112 45zM701 898q10 1 24 -6q4 -31 -26 -32q-2 3 2 38zM650 839q-3 32 8 53q13 23 35 6q-1 -7 -3 -23t-3 -23q-17 -13 -37 -13zM607 835q-2 43 6 63q4 3 15 4q12 1 16 3 q-1 1 -4 -68q-26 -3 -33 -2zM566 862q6 26 31 30q8 -11 -4 -57q-34 1 -27 27zM1018 653q-3 4 -12 15q-8 9 -11 14q-5 0 -9 -7t-12 -5q-81 124 -85 129q-23 21 -43 22q-31 2 -37 -26q-6 -25 8 -52q-84 -13 -69 -153q-19 -20 -27 -20q-3 15 -1 49q3 34 -1 49 q-125 -13 -147 -10q-5 9 -32 25q-23 14 -27 32q97 -17 175 1q96 22 99 91q1 47 -51 79q2 13 5 41q2 28 5 41q43 6 60 16q28 16 15 49q-9 8 -40 14t-39 17q26 76 -7 144q-10 22 -71 103q-6 8 -15 26q-9 17 -15 25q-16 18 -57 34q-109 41 -228 -13q-105 -48 -152 -132 q-17 -29 -14 -40q10 0 16 10q1 3 4 9t4 9q1 2 25 29q54 61 122 91q86 37 176 15q-148 12 -190 -37q53 26 140 23q88 -3 133 -33q3 -4 7 2q5 6 8 2q6 -12 62 -79q41 -49 46 -96q1 -9 -4 -58q-3 -36 8 -55l43 -7q26 -4 26 -21q0 -22 -37 -29q-35 -7 -59 6q1 7 12 11 q11 3 11 12q-17 5 -28 -4q-10 -9 -7 -23q2 -9 15 -14q15 -5 18 -12q-4 -7 -4 -29t-5 -28q-47 19 -110 10q-71 -11 -65 -57q4 -30 53 -35q64 -6 139 51q35 -22 26 -65q-9 -38 -41 -57q-90 -57 -239 -7q-139 46 -171 121q33 1 51 15q22 16 11 44q-5 -4 -14 -15q-7 -9 -12 -13 q-13 -11 -34 -11q-54 0 -75 64q-20 64 33 93q36 21 69 8q6 -2 15 -14q7 -10 16 -10q-9 24 -34 35q-24 10 -52 4q-21 -5 -42 -28q-26 -29 -29 -31q-17 47 -13 101q5 59 35 82v17q149 120 292 122q-8 14 -41 14q-97 2 -175 -42q-73 -40 -113 -109q-2 -6 3 -9q6 -3 5 -7 q-43 -33 -39 -116q5 -81 48 -113q-3 -2 -1 -6q2 -6 1 -10q25 -30 61 -65q43 -44 46 -47q23 -31 15 -63q-121 7 -199 -36q-80 -43 -105 -134v-34q10 -44 37 -82q-19 -56 26 -91q44 -33 100 -11q27 -18 54 9q22 24 26 50q5 40 -35 67q-42 29 -43 45q-4 67 66 84q8 -50 46 -99 q66 -86 64 -82q-16 -19 -72 -65q-47 -39 -65 -72q49 -10 103 12l89 37q24 -102 92 -106l61 -4q-8 -22 -47 -62q-51 -50 -51 -57q0 -12 37 -38q4 0 10 7q5 6 12 5q3 -3 9 -12q7 -10 11 -15q34 -34 78 -56q60 -30 92 -3q1 25 -18 44q-4 4 -16 14q-10 8 -13 14q72 3 82 99 q9 89 -35 139q162 146 173 159q47 56 47 94q64 -1 69 41q3 18 -11 36zM668 187q-2 5 -51 48q7 -45 51 -48zM580 404q13 29 13 42q-49 -63 -23 -92q-2 22 10 50zM952 470v-6q-11 -131 -102 -267q-17 -25 -16 -29q54 27 95 135q35 91 29 167h-6zM1150 509h-4q1 -7 0 -6 q10 -46 43 -117q47 -100 51 -110q2 -6 5 -19q3 -15 5 -21q9 -24 28 -25q4 18 -7 39q-3 6 -11 17q-7 11 -10 17q-35 70 -68 149q-28 70 -32 76zM1184 526q-1 1 -2 1q-4 -12 8 -27q3 -4 11 -12q7 -8 10 -12q7 -10 15 -26q9 -19 11 -23q11 -17 33 -45q28 -37 35 -47 q5 -6 17 -22q12 -14 18 -22q2 -5 7 -14l7 -14q9 -16 24 -15q1 20 -15 41q-4 5 -14 16t-14 16q-13 18 -73 103q-45 63 -76 101q-1 0 -2 1zM1118 415q19 -87 20 -108q0 -3 -1 -10q-2 -7 -2 -11q0 -11 13 -12q2 50 -15 128q-18 88 -20 127q-1 3 -4 2q-6 -45 9 -116zM1322 448 q4 -7 6 -10q8 -10 22 -5q-3 19 -20 34l-15 12q-10 7 -14 11q-70 66 -76 74q-4 -1 -10 2q-6 2 -8 0q2 -11 53 -57q52 -48 55 -51t7 -10zM1046 603q-2 -5 0 -6q23 -80 8 -188q-1 -3 -47 -161q49 51 66 161q17 116 -21 194h-6zM538 892q18 25 102 49q-10 14 -47 2 q-69 -22 -88 -98q-4 -1 33 47zM858 986q13 -22 43 -61q34 -44 45 -61q1 -2 6 -11q5 -8 8 -12q9 -12 22 -12q-6 19 -33 50q-26 29 -32 52q-13 6 -27 31q-13 26 -26 32q-4 1 -6 -8zM339 934q29 -3 27 20l-30 -7q-17 -2 -19 11q-1 11 20 20q23 10 25 20q-6 30 -30 35 q-21 4 -44 -11q-24 -15 -29 -36q-7 -24 16 -41q-1 12 -4 20t-3 13q2 17 23 34q24 19 45 11q14 -5 12 -20q-1 -9 -23 -21q-21 -12 -18 -28q3 -17 32 -20zM1770 1037q-56 -3 -88 -73q-10 -2 51 49q39 32 37 24zM1119 1088q-25 -60 -26 -77q31 15 32 77h-6zM430 1076 q-2 -7 -21 -8q1 8 21 8zM373 1058q33 2 28 6q-1 -4 -8 -6q-7 -3 -8 -7q10 -10 6 -18q53 2 65 21q-1 2 -5 3q-5 2 -5 5q21 6 20 6q2 5 -3 8q-5 2 -5 6q12 2 10 10q-82 0 -95 -34zM691 1062q2 20 -6 34q-15 8 -25 1q-9 -7 -10 -22t5 -26q7 -11 19 -10q14 2 17 23zM332 1080 q13 2 45 17q27 13 47 12l-72 -37q20 5 58 18q37 14 58 19q1 4 -5 6q-6 1 -5 6q18 3 19 8q-91 3 -145 -49zM1558 1123q9 -8 10 -14q-14 -39 -12 -33q27 -1 22 33q-4 34 -28 30q0 -8 8 -16zM303 1092q24 3 66 25t67 24q4 1 12 0h14q17 1 23 10q-103 9 -182 -59zM1844 1139 q2 20 -13 23q-10 1 -17 -7q-8 -8 -9 -20q-3 -30 28 -26q10 12 11 30zM1510 1083q15 -31 34 -44q14 -9 31 -9q22 0 22 24q-28 -18 -50 -2q-19 13 -26 44q-8 29 2 50q10 24 37 20q13 -2 21 -20q10 -22 16 -27q7 21 -5 36q-11 14 -32 18t-38 -4q-19 -8 -23 -28q-5 -24 11 -58z M382 1158q-14 -1 -18 -2q-6 -2 -17 -9q-13 -8 -17 -10q-28 -13 -31 -24q28 16 85 32q74 20 93 27q-21 3 -72 -10q-8 -3 -23 -4zM922 1067q-32 74 -54 113q-4 -5 -12 -6l84 -174q2 -4 5 -14q4 -11 6 -16q9 -17 23 -18q-15 30 -52 115zM273 1129q12 4 67 25q91 34 90 32 q-118 -15 -157 -57zM727 1129q-2 23 -42 55q-26 21 -53 2q-28 -18 -29 -57q11 2 18 15q7 14 15 16q21 4 41 -23q24 -33 34 -37q17 24 16 29zM1059 1129q3 53 -3 82q-1 0 -3 1q-1 1 -3 1q-18 -123 -2 -200q9 2 8 12q0 3 -1 8q-1 6 -1 8q0 16 5 88zM1633 1170q-1 1 6 -12 q4 -7 13 -7q5 20 -17 30q-29 12 -32 19q3 0 -33 -6q1 23 -24 20q-24 -4 -23 -24q6 -1 11 5q4 6 10 5q33 -19 51 -8q2 -3 9 -10t9 -12h20zM1570 1243q-6 -13 8 -20q13 -7 27 -2q14 -20 63 -39q-2 16 -23 26q-24 11 -28 21zM1672 1222q-23 12 -24 23q-13 -1 -23 10 q-11 11 -18 13h-4q4 -20 23 -32q4 -3 17 -10q11 -7 17 -11q29 -23 26 -23q7 19 -14 30zM980 1139q-30 133 -32 137q-3 1 -6 -1t-6 -1q0 -44 28 -143q35 -122 43 -133q-6 53 -27 141zM2019 677q39 -7 45 -11q-12 -17 -40 -9q-8 3 -22 9q-15 7 -20 8q-23 -20 5 -37 q9 -5 27 -12q19 -8 23 -10q-17 -11 -40 1q-30 17 -39 17q-14 -13 -3 -33l12 -16q7 -9 9 -14q-15 8 -36 36q-19 27 -37 33q6 17 27 40q21 24 28 40q3 1 27 8q20 5 33 7q40 7 56 -13q-83 -36 -82 -20q-2 -18 27 -24zM1996 770q4 -36 -20 -33q-1 5 1 18q3 15 3 21q4 1 16 -6z M1525 504q11 -6 12 -16q-37 -16 -89 -30q4 -32 4 -33q-14 -5 -22 7q-3 4 -9 24q31 25 88 51q7 3 16 -3zM1646 466q122 82 140 90q1 0 2 -4q-17 -35 -74 -66q-67 -37 -85 -55q0 -4 4 -13q3 -7 0 -13q-13 -4 -24 8q-11 11 -8 22q0 1 45 31zM1779 991q33 1 64 -9 q-6 -29 -54 -31q-47 -1 -64 21q15 18 54 19zM1907 1071q15 1 20 -7q-1 -14 -20 -16q-15 -2 -31 3q-1 5 1 10t1 9q4 -1 29 1zM2000 786q-8 5 -24 4q-6 -5 -10 -25q-3 -20 -8 -26q10 -2 -186 82q-5 2 -15 5q-11 3 -15 5q-17 6 -23 21q74 -1 111 60q-5 -7 50 121q26 -8 43 1 q15 8 16 24q0 16 -14 25q-18 11 -47 5q8 72 -21 133q-18 39 -65 94q-3 22 0 18q-11 19 -47 16q0 25 -21 31q-19 4 -40 -8q-11 35 -56 25q-84 -17 -76 -17q-10 17 94 0q7 -16 26 -23q20 -8 41 1q4 -4 8 -14q5 -11 8 -15q25 1 39 -2q0 -23 22 -41q25 -19 29 -33 q-52 -36 -41 -91q16 3 26 36q10 30 31 31q29 -37 32 -112q3 -70 -17 -123q-32 15 -86 9q-60 -7 -53 -39q4 -21 46 -20q62 1 68 -1q-32 -77 -114 -77q-90 -1 -165 92q-71 86 -78 183q-6 87 32 139q39 52 117 61q-2 -25 22 -29q21 -3 37 11q10 -34 49 -25q11 -22 55 -30 q1 16 -18 25q-21 10 -23 22q-15 -4 -43 13q-24 16 -46 5q-3 2 -7 12q-3 8 -8 10q-92 2 -146 -57q-55 -59 -47 -151q1 -15 61 -155q-104 30 -119 31q-8 1 -31 -2q-22 -2 -34 0q-22 3 -85 46q-50 34 -92 19q10 -19 43 -50q32 -30 40 -48q-85 -15 -135 -63q-60 -57 -40 -141 q22 -92 134 -136q69 -28 88 -45q40 -37 112 -153q13 6 27 2q4 -36 20 -51q25 -4 41 18q0 7 -5 15q-5 9 -5 16q12 3 45 14q27 9 47 12q12 -5 31 -50q18 -42 38 -44q9 0 19 8q12 8 12 17q0 6 -8 12q-7 7 -7 14q5 2 80 41q47 25 59 35q29 23 33 59q-26 9 -52 -8 q-36 -23 -46 -25q-9 29 -8 33q-101 173 -263 208q-42 9 -47 20q169 10 183 13q119 -117 276 -172q8 8 40 53q17 24 20 27q14 12 31 2q-6 -12 -38 -49q-25 -28 -31 -55q22 7 37 -3q10 -7 22 -27q26 -43 57 -37q17 20 -4 37q-27 23 -26 36q10 -3 34 -17q21 -11 37 -14 q22 29 23 23q-1 11 -35 22q-35 10 -35 21q7 -1 23 -5q20 -6 28 -7q34 -7 39 10q7 22 -27 29q-40 8 -44 18q10 8 36 7q33 -2 43 1q1 9 4 12v10q-16 18 -81 14q1 31 -7 41zM1349 1206q2 -1 20 -21q-10 24 -20 21z"
         id="glyph22851" />
      <glyph
         glyph-name="H"
         unicode="H"
         horiz-adv-x="1720"
         d="M1476 169q6 54 -47 52q13 -9 47 -52zM668 221q-25 -15 -20 -39q6 2 22 21q12 15 34 9q-10 23 -36 9zM1502 174q9 29 -14 55q-22 26 -51 18q40 -15 65 -73zM661 232q7 4 23 8q15 4 20 7q-30 15 -60 -7q-31 -23 -13 -45q3 26 30 37zM850 384q-24 4 -30 -28t17 -36 q-12 28 13 64zM807 366q3 7 26 39q-29 2 -41 -39t19 -51q-15 24 -4 51zM1199 644q18 -12 37 -3q-1 12 4 17q-7 1 -36 25q-19 16 -28 -12q8 -17 23 -27zM1553 637q9 32 -7 52q-14 18 -38 19q-25 0 -39 -17q-17 -18 -10 -50q97 -5 94 -4zM625 778q-67 -50 -97 -77 q11 -6 27 -29q14 -22 29 -27q130 112 137 211q-30 -29 -96 -78zM1395 868q39 -35 48 -47q25 -32 16 -64q-76 138 -202 163q-2 9 6 11q11 3 12 6q53 -9 120 -69zM1459 886q-36 -12 -59 5q-23 18 -23 59q8 -13 29 -15q23 -2 31 -11q-6 -32 22 -38zM1421 710q13 23 25 34 q-5 2 19 -10q11 -5 20 1q42 54 26 117q-14 57 -67 99q-53 41 -112 42q-64 1 -105 -52q-2 -12 7 -19q10 -8 11 -15q-64 -63 -69 -90q-20 -103 68 -150q37 -20 79 -18q43 3 76 31q10 9 22 30zM1451 580q-5 -25 -18 -33q-34 6 -71 42q-41 39 -66 48q-17 -38 -53 -66 q-37 -28 -76 -33q4 8 21 40q12 24 18 42q-4 2 -39 30q-5 -5 -32 -38q-20 -24 -32 -27q-8 58 18 103q6 11 23 36q16 23 23 37q-13 12 -73 22q-50 9 -55 34q-9 38 63 102q79 70 82 82q-5 5 -30 36q-18 23 -38 29q-103 -67 -153 -184q-59 -140 76 -185q-76 -115 -108 -189 q-52 -121 -61 -163q-23 -103 44 -133q-24 -8 -76 -15q-65 -9 -84 -13q-96 -20 -93 -87q4 -73 98 -68q-1 0 168 33q28 6 114 19q61 10 96 20q66 18 55 83q-10 61 -59 80q65 -27 73 -65q16 -76 -66 -105q-27 -10 -77 -18q-62 -10 -76 -14q15 -69 95 -61q27 3 73 16 q61 17 72 20q14 3 71 12q44 8 67 15q71 23 72 75q3 65 -122 106q-148 48 -161 62q35 125 172 188q32 -35 78 -40q42 -6 80 16q39 21 57 60q20 43 8 93q-8 -2 -40 0q-36 1 -50 0q2 6 -8 -44zM323 954q-9 21 -18 59q-10 39 -17 57q-11 29 -45 28q-34 0 -49 -28 q13 -133 84 -252q28 -47 143 -194q-14 -10 -7 -22q17 -28 16 -25q28 11 60 4q27 4 36 35q13 40 20 47q-19 22 -22 30q-6 6 -11 -1q-7 -9 -15 -8q-106 108 -175 270zM1170 1042q19 -24 36 -32q32 16 34 42q2 23 -17 42q-20 19 -43 17q-27 -2 -43 -33q11 -7 33 -36zM1638 987 q-32 4 -42 10q4 7 26 38q17 23 21 43q-18 1 -43 -8q-26 -8 -42 -9q-2 17 2 47q4 29 2 48q-22 -5 -42 -32q-23 -30 -35 -37q-1 1 -14 38q-8 22 -25 26q-6 -7 -12 -30q-5 -23 -14 -30q-58 54 -64 56q1 -9 2 -29q1 -19 2 -29q5 -32 22 -41q7 10 3 30q-8 34 -8 31q9 -5 26 -25 q14 -16 30 -18q7 4 11 23t11 24q21 -47 30 -52q15 6 30 26q19 25 25 30q2 -12 -3 -43q-4 -25 3 -38q13 2 35 8q23 7 34 9q-4 -10 -22 -34q-15 -20 -17 -39q5 -1 31 -6q20 -3 29 -7q-23 -17 -68 -39q-2 -13 14 -28q14 -13 12 -19q-51 -21 -48 -4q-2 -12 35 -15q33 -3 51 2 q-2 15 -19 30q-18 15 -19 30q75 33 90 52q-11 7 -40 11zM1153 1153q-27 -11 -24 -32q5 2 24 16q14 11 36 6q-9 22 -36 10zM1143 1182q-38 -13 -36 -43q32 25 37 27q24 12 53 3q-15 27 -54 13zM184 1029q-7 75 49 80q50 4 66 -49q30 -96 28 -93q86 -74 219 -73q84 1 136 26 q64 32 22 86q-24 12 -61 3q-62 -16 -63 -16q-78 -8 -149 21q-76 30 -100 86q-7 16 -13 59q-6 42 -17 65q-99 26 -111 30q2 -15 8 -45q7 -28 9 -45q-5 -5 -35 -23q-27 -17 -38 -32q-45 -64 -62 -213q-19 -162 28 -229q9 -14 37 -29q27 -16 31 -23q9 -13 22 -103 q21 -148 -9 -283q-33 -149 -34 -145q5 -23 34 -39q28 -17 56 -13q48 8 81 129q18 64 26 184q7 105 -17 231q-38 203 -39 207q-3 5 -33 56q-23 39 -35 68q-32 73 -36 122zM414 1254q-21 9 -23 26q-2 19 8 26q9 7 23 3q34 -11 34 -50q-20 -15 -42 -5zM316 1199q6 -21 7 -35 q64 -20 118 12q51 29 62 83q14 74 -31 121q-40 41 -104 42t-102 -41q-43 -47 -25 -127q10 -7 33 -11q27 -6 36 -10q1 -12 6 -34z"
         id="glyph22853" />
      <glyph
         glyph-name="I"
         unicode="I"
         d="M1206 485q-14 -14 -1 -43q-89 -13 -233 -39q-172 -32 -230 -41q0 -1 1 30q0 18 -16 13q-91 -2 -162 -43q-50 -29 -113 -94q9 -82 -51 -145q7 -72 60 -104q47 -28 106 -14q60 15 89 62q33 53 6 121q16 -4 49 -20q35 -17 52 -23q63 -22 109 14q45 -40 117 -10q95 39 100 39 q-33 -71 -2 -124q27 -47 88 -60q60 -13 107 16q52 33 53 103q-58 28 -62 162q-4 174 -17 207q-36 5 -50 -7zM32 297q88 -237 94 -246q17 17 71 55q47 33 67 61q-19 20 -14 105q5 84 -15 105q-33 -19 -203 -80zM756 427q-2 -34 7 -43q418 72 420 72q3 11 -3 22t-4 22 q9 3 42 8q27 5 38 13q-5 12 -22 76q-12 48 -29 69q-264 -54 -644 -116q-49 -83 -102 -94q1 -12 -7 -78q-5 -49 7 -74q126 123 297 123zM1999 763q-2 12 -3 17q-4 20 -16 24q-243 -51 -565 -102q-1 -14 6 -30q8 -17 9 -28q251 42 572 102q-2 5 -3 17zM1098 1059q6 13 6 20 q-16 -14 -45 -46q-29 -31 -45 -45q-56 -50 -128 -54q2 5 -4 -32q-3 -18 -17 -19q-18 -2 -22 18l-7 33q-74 8 -128 53q-35 30 -82 99q-6 -6 -2 -23q5 -21 2 -35q-167 -21 -273 -284q-93 -230 -89 -483q1 -95 63 -118q26 -10 54 2q29 12 49 43q-11 481 160 623v-203 q-71 23 -87 22q-39 -124 -29 -152q22 8 44 42q24 36 43 45q260 53 572 101q3 9 -1 72q-3 60 8 80q133 -142 152 -441q1 -24 1 -71q-1 -48 0 -69q4 -75 35 -92q145 -79 131 203q-13 245 -99 430q-100 213 -264 257q-2 13 2 24zM785 1211q35 -12 51 -38q-7 -24 -30 -37 q-21 -11 -45 -7q-25 4 -39 24q-15 22 -9 56q33 16 72 2zM1004 1154q-14 -19 -42 -24q-27 -4 -47 8q-22 14 -21 42q17 21 50 32q37 11 66 -3q10 -32 -6 -55zM992 1369q-81 48 -178 29q-88 -18 -135 -74q-51 -60 -46 -158q6 -114 86 -171q73 -52 170 -38q98 14 156 83 q65 78 44 191q-16 89 -97 138z"
         id="glyph22855" />
      <glyph
         glyph-name="J"
         unicode="J"
         horiz-adv-x="2136"
         d="M1133 998q17 -4 28 -4q-13 -62 -13 -69q-13 0 -29 4q-18 4 -27 5q9 54 13 68q11 1 28 -4zM1246 990q0 -13 5 -34q5 -20 4 -35q-34 -12 -94 0q12 63 13 69h72zM1321 968q7 -21 7 -34q-50 -9 -56 -9q0 15 -6 35q-6 21 -7 34q14 3 56 8q0 -13 6 -34zM1306 784 q-16 -33 -87 -36q-70 -2 -105 27q142 -30 192 9zM1195 656q-4 2 -5 18q-2 13 -12 12h-26q3 6 -4 -78h38q5 2 4 14q0 11 5 12h34v-26q10 2 25 -1q12 -2 18 1q-7 84 -4 78q-32 -2 -34 -5q-6 1 -5 -13q2 -13 -4 -12q-9 4 -9 25q-1 20 5 30q87 6 135 53q50 48 49 131 q-1 124 -98 190q-98 67 -193 3q-54 -35 -79 -101q-23 -62 -13 -127q11 -67 54 -109q48 -45 123 -44q-9 -56 -4 -51zM128 457q-56 -55 -85 -88q139 22 231 124q-9 6 -28 27q-17 18 -32 24q-25 -27 -86 -87zM1436 588q-386 -6 -558 -1q-10 -1 -8 -17q654 -19 1126 -9 q3 0 14 -1t18 -1q21 0 24 15q-3 15 -22 15q-5 0 -16 -1q-10 -1 -14 -1q-193 8 -564 1zM1648 771q15 -9 14 -30q-1 -25 -17 -30q-14 -4 -30 7t-19 25q-2 18 19 28q19 10 33 0zM1699 720q5 23 -5 47t-31 36q-23 14 -53 7q-38 -9 -49 -39q-9 -25 6 -54t43 -41q31 -13 60 5 q23 14 29 39zM894 770q15 -2 18 -7q-6 -115 -4 -107l-6 22q-3 13 -20 8q-9 -8 -9 -34q1 -42 1 -44h30q8 26 4 26h34q-1 -20 5 -26h38v73q-18 6 -38 5q-5 -2 -4 -18q1 -14 -9 -12q1 9 -1 56q-1 35 5 51q17 -2 59 -10q37 -6 61 -8q-1 2 -28 42q-21 32 -23 57q-26 0 -69 4 q-47 4 -68 5q-2 -15 2 -39q3 -23 2 -39q4 -3 20 -5zM1413 844q-8 -41 -59 -103q22 6 61 12q50 7 63 10q-1 -10 0 -57q1 -35 -5 -50q-6 1 -8 17q-2 14 -13 13h-26q-15 -39 0 -78h35q4 2 4 15q0 12 8 11h35v-26q42 4 42 5v68q-17 6 -38 5q-5 -2 -4 -18q1 -14 -9 -12 q-6 16 -5 53q2 48 1 58q9 -1 25 3q15 3 26 1q11 44 68 53t86 -27q63 12 180 30q127 20 180 30q22 59 30 94q16 0 -47 -60q-249 -21 -630 -47zM1449 1026q-37 -8 -66 -6q1 -8 6 -16q6 -11 7 -14q9 2 35 6q21 4 33 7q37 10 48 34q-19 -1 -63 -11zM1032 1020q-19 -1 -65 9 q-39 8 -59 3q9 -21 49 -30q54 -12 62 -17q13 20 13 35zM685 1212q-20 -4 -58 -15q-39 -10 -57 -15q-21 -96 -30 -115q-24 106 -26 115q-18 5 -58 15q-37 11 -58 15q4 -17 11 -49q8 -33 11 -49q-90 -12 -136 -121q-34 -83 -40 -209q-1 -26 5 -99q5 -63 0 -98q-1 -7 -14 -22 q-7 -8 5 -17q8 -24 20 -17q3 1 10 7q5 6 9 6q44 9 40 7q11 6 24 40q3 10 8 20q4 8 4 10q1 5 -8 17q-6 8 -8 22q-27 132 42 304v-912q10 -39 57 -48q47 -10 72 18q24 26 23 137q0 31 -3 94q-3 61 -3 86v218q0 3 -1 15q-2 12 -2 18q1 22 20 23q15 -5 15 -26q0 -7 -1 -18 q-1 -12 -1 -16v-223q0 -15 -4 -103q-4 -70 -1 -110q10 -123 86 -117q59 5 67 102q3 32 1 89q-3 75 -3 88q0 576 4 685q48 -103 38 -321q-2 -50 0 -62q4 -30 26 -37q62 -18 72 83q3 32 -3 161q-15 287 -176 330q15 59 21 94zM1199 1268q-6 -119 -8 -137h34q1 -6 -1 76 q-1 45 -16 61h-9zM523 1281q-2 -19 -16 -26q-13 -7 -29 -1t-23 19q-7 16 3 34q47 1 65 -26zM604 1253q-14 -4 -26 2q-14 6 -17 22q5 17 27 25t42 0q10 -38 -26 -49zM523 1165q3 -17 17 -17h8q11 2 13 21q2 22 9 26q6 2 48 12q29 7 46 14q30 73 -2 127q-28 47 -89 61 q-59 14 -107 -14q-53 -30 -59 -97q-2 -19 13 -77q50 -18 98 -26q0 1 5 -30z"
         id="glyph22857" />
      <glyph
         glyph-name="K"
         unicode="K"
         horiz-adv-x="652"
         d="M483 366q0 1 26 114q18 77 0 178q-18 99 -55 135q-30 29 -76 25q-50 -5 -55 -51q7 0 39 4q23 3 36 2q37 -2 36 -39q-1 -49 -114 -49q-94 0 -166 43q24 -37 73 -53q52 -17 103 0q23 -158 16 -205q-147 -139 -153 -286q-2 -58 11 -110q17 -65 51 -72q28 -6 50 9t25 39 q1 14 -5 34q-10 28 -11 35q-12 61 6 121q16 54 49 84q13 -107 59 -189q71 -127 127 -124q46 3 52 49q3 26 -12 47q-4 6 -14 17q-12 12 -17 18q-82 100 -81 224zM284 946q-2 -45 27 -74q25 -26 65 -31t71 13q34 20 43 59q13 64 -26 100q-34 32 -85 27q-90 -8 -95 -94z M399 705q52 19 9 62q-93 -18 -169 4q-81 24 -98 83q45 -49 56 -55q-22 57 -30 104q187 352 231 476q-10 12 -61 32q-65 -104 -215 -498q-3 -4 -9 -9q-9 -6 -11 -7q-2 -7 3 -9q5 -3 4 -7q-32 5 -38 -24q-5 -25 12 -45q-3 -13 -25 -24q-19 -11 -18 -25q2 -13 25 -22 q21 -8 40 -7q8 9 5 21q-5 19 -5 25q67 -77 179 -85q73 -5 115 10z"
         id="glyph22859" />
      <glyph
         glyph-name="L"
         unicode="L"
         horiz-adv-x="1595"
         d="M1276 114q-62 -8 -129 -10q-9 85 -15 194q98 10 129 10q0 -6 4 -21q3 -12 1 -24q-69 -3 -74 -10q-5 -25 19 -25q6 0 21 3q14 3 19 3q2 -3 5 -45q-12 2 -30 -3q-17 -4 -29 -2q7 -10 5 -25q11 -8 34 -4q29 6 40 4v-45zM1032 124q-11 17 -14 30q-8 -7 -5 -34q3 -28 0 -31 h-55q0 7 -15 194q14 -2 33 2q19 5 32 3q1 -12 13 -29q12 -16 12 -30q5 6 0 64h54q14 -130 15 -194q-11 2 -27 -3q-15 -4 -27 -2q-4 10 -16 30zM784 75q-6 127 -15 188q25 9 135 15v-44q-42 1 -70 -5v-20q-5 11 60 -5q-2 -24 5 -45q-13 2 -30 -2q-18 -5 -30 -3q0 -3 2 -8 q2 -6 2 -8q2 -8 -4 -14q20 0 39 3q20 2 35 2q7 -21 5 -45q-94 -10 -134 -9zM591 229q20 38 80 34q62 -5 64 -54q-5 -6 -25 -6t-25 -4q-9 -2 -11 11q-3 12 -14 9q-16 -9 -11 -51q2 -12 6 -34q4 -23 5 -30q8 3 17 9q13 9 16 11q20 11 47 5q5 -47 -40 -63q-41 -15 -85 4 q-18 24 -24 159zM494 104q-6 26 -37 32q-33 7 -40 23q-16 33 2 59q16 23 49 30t58 -7q28 -16 30 -52q-22 -8 -53 6q-26 12 -37 -1q10 -18 42 -24q34 -7 43 -16q28 -30 19 -63q-9 -29 -40 -44t-62 -3q-35 14 -51 60q-10 -4 77 0zM44 224v-224q1166 61 1520 79q-1 28 2 163 q2 101 -12 150q-851 -99 -1510 -168zM700 681q-42 -5 -160 -38q-103 -29 -163 -27q-48 2 -214 40q19 53 104 39q152 -24 145 -24q50 1 138 29q91 28 130 30q-22 16 -64 32q-57 22 -68 27q-77 37 -77 115q42 18 80 5q1 -11 11 -31q8 -19 9 -33q195 -120 392 -70q-3 25 -32 38 q-46 20 -47 22q113 104 188 69q-10 -20 -39 -35q-7 -4 -25 -12q-17 -8 -25 -12q10 -16 84 -55q85 -45 95 -45q15 1 51 23q35 21 68 22q64 2 115 -21q55 -24 54 -63q-2 -58 -114 -55q-35 1 -87 26q-50 25 -72 24q-24 -2 -63 -33q-9 -7 -32 -27q-19 -17 -29 -25 q-106 -78 -120 -84q-14 -7 -154 -35q-76 -16 -77 -16q-48 -3 -67 26q28 37 108 49q111 18 131 25q59 24 99 80q-17 21 -58 23q-12 0 -36 -2q-25 -1 -35 -1h-144zM679 436q47 1 170 26q99 21 192 82q31 20 77 56q57 44 74 56q62 -44 184 -41q133 2 139 76q3 40 -42 72 q-40 28 -106 42q-151 33 -220 -20q-15 11 -47 28q-34 17 -47 27q-1 -1 42 24q25 15 32 35q-57 59 -161 28q-91 -27 -137 -87q2 -14 26 -27t24 -18q-235 -8 -288 129q-43 15 -96 10q-58 -6 -73 -35q-13 -64 42 -105q17 -12 52 -30q36 -20 50 -29q-26 2 -74 -13 q-52 -16 -75 -16q-28 -1 -103 14q-68 15 -106 10q-43 -5 -76 -26q-37 -23 -38 -53q-2 -29 96 -50q65 -14 142 -20q100 -7 273 39q162 43 279 26q-18 -27 -73 -40q-17 -4 -108 -17q-67 -9 -97 -24q-42 -21 -40 -63q2 -69 113 -66zM576 1272v-40q20 -4 27 11q6 13 -3 29h-24z M1072 1163q-1 33 -7 97t-7 96q84 11 134 10q-3 -42 -5 -44h-65v-30q4 -4 25 -1q24 3 35 1v-45q-13 2 -29 -1q-18 -4 -26 -4v-25q10 -7 34 -2q28 5 41 2q-2 -9 1 -27q2 -13 -1 -17q-98 -9 -130 -10zM978 1217q-8 -5 -15 -44q-11 2 -16 15q-2 4 -5 12q-2 9 -4 12 q-14 -14 0 -59q0 -1 -54 -5q-2 38 -7 97q-7 74 -8 96q11 0 29 4q17 3 30 1q1 -9 7 -22q7 -14 8 -22q10 4 14 21q6 27 6 28q48 11 45 5q-6 12 25 -198q-48 -11 -45 -5q-11 19 -10 64zM839 1143q-19 -1 -59 -6q-38 -4 -60 -4q-7 21 -5 44q30 1 34 5q-4 21 -9 100q1 -6 -35 5 q2 9 -1 27q-3 13 1 18q21 -2 59 2q37 4 60 2q0 -6 4 -18q3 -11 1 -21q-4 0 -14 -4q-7 -3 -16 -1q-1 -16 5 -105q4 -4 14 -1q12 4 21 1v-44zM586 1123q-12 -5 -60 -5q-1 42 -15 194q35 15 73 10q34 -5 58 -25t22 -43q-1 -26 -34 -47q5 -16 26 -39q20 -22 24 -40q-48 -3 -60 0 q-24 5 -29 35q5 1 -5 -40zM340 1179q-3 91 -3 88q16 41 77 39q62 -2 67 -49q-18 -25 -79 5q-17 -45 5 -109q5 -1 29 14q23 14 50 6q2 -48 -43 -66q-41 -16 -76 6q-25 16 -27 66zM1564 1411q-631 -31 -1520 -79v-309q262 24 756 81q527 61 764 83v224z"
         id="glyph22861" />
      <glyph
         glyph-name="M"
         unicode="M"
         horiz-adv-x="1422"
         d="M1255 385q-24 16 -56 3q-36 -26 -31 -54q5 -24 33 -38q29 -13 52 -3q27 12 25 50q-1 28 -23 42zM520 574q53 -50 138 -58q84 -9 137 30q59 43 40 126q-34 -15 -74 5q-4 -54 -58 -89q-57 -38 -92 14q109 -14 120 155q-76 31 -147 24q-83 -8 -107 -69q-17 -82 43 -138z M636 871q71 -20 98 -21q59 -3 81 36q-38 56 -147 86q-18 5 -95 23q-58 13 -91 25q-3 -20 -12 -50q-10 -37 -13 -49zM592 1079q55 -13 94 -24q79 -22 96 -25q69 -10 78 25q10 35 -47 63q-29 14 -92 32q-38 10 -105 27q-57 14 -84 22q-3 -21 -11 -51q-13 -42 -14 -48 q28 -8 85 -21zM1074 1015q34 -77 75 -109q11 -9 60 -29q41 -17 54 -36q14 -19 11 -47q-6 -47 -6 -57q3 -38 34 -109q38 -89 46 -115q42 -151 40 -294q-2 -101 -10 -136q-18 -78 -75 -83q-1 0 -144 40q-12 3 -53 12q-32 7 -48 13q-50 20 -54 69q-2 36 38 129q43 100 47 165 q2 25 0 87q-3 59 0 88q9 96 85 109q-108 19 -155 -110q-73 31 -119 0q-17 -11 -32 -38q-17 -31 -28 -41q-43 -42 -113 -51q-66 -9 -133 13q-69 22 -112 69q-48 51 -50 118q0 17 5 48q6 38 7 48q5 56 -32 78q-10 6 -44 11q-27 5 -40 19q-23 25 -13 99q13 87 8 110 q-137 57 -259 65q0 34 20 74q116 -52 244 -74q4 24 -22 32q-8 2 -23 4t-20 4q-164 47 -239 74q1 64 35 130q12 7 25 -2q16 -9 25 -8q14 1 36 19q20 16 33 15q29 0 52 -26q6 -5 38 -53q59 -20 194 -30q21 -2 249 -65q243 -67 279 -89q6 -4 19 -8q12 -4 15 -7q10 -7 27 -32 q14 -20 28 -23q20 -5 70 7q40 10 60 -7q-48 -36 -135 -70z"
         id="glyph22863" />
      <glyph
         glyph-name="N"
         unicode="N"
         horiz-adv-x="1488"
         d="M529 1322q5 -25 21 -68q16 -44 22 -67q4 4 98 172q-20 -2 -114 0q-71 2 -107 -7q14 -14 36 -52q22 -37 38 -52q14 81 6 74zM299 1086q-59 21 -89 39q14 1 121 -5q75 -5 118 5q-71 84 -80 117q101 -63 99 -61q-2 32 -13 89q-10 57 -12 89q-174 11 -282 -99 q-66 -67 -78 -226q-2 -20 -2 -319v-374q16 -182 188 -249q143 -56 376 -27q-163 85 -184 251q-17 142 67 248q76 95 203 126q-85 -4 -92 0q14 81 6 74h105q-5 45 33 97q52 69 59 87q-6 17 -40 28q-34 10 -40 27q86 -25 98 -61q-6 -16 -60 -76q-39 -43 -32 -102h116 q-1 -7 1 -44q2 -28 -7 -36q-5 -1 -39 3q-27 4 -40 -3q111 -6 182 -91q64 -78 75 -193q12 -113 -33 -207q-49 -101 -145 -135q496 -38 522 295v723q-20 214 -240 266q-105 24 -478 17q-6 -18 -10 -55q-5 -42 -8 -56q9 -2 18 14q7 14 12 5q-2 -11 -16 -57q-11 -35 -14 -60 q32 7 99 37q62 27 91 30q-117 -131 -123 -141q3 -2 23 -4q15 -2 14 -14q-16 3 -42 -2q-32 -7 -38 -23q132 -107 129 -104q-20 4 -70 17q-43 11 -71 14q-7 -4 2 -18q12 -17 10 -25q-6 0 -25 23q-14 17 -18 2q-6 -19 -8 -72q-2 -50 -10 -70q-7 33 -27 84q-21 55 -28 82 q-19 -11 -34 -55q-15 -45 -34 -55v61q-22 -9 -64 -48q-38 -35 -58 -38q67 180 67 184q-130 -16 -159 -12q88 37 104 49q-18 8 -95 34zM1222 1401q139 -41 188 -140q45 -91 45 -301v-503q0 -186 -31 -265q-35 -92 -141 -146q-81 -41 -252 -45q-56 -2 -154 0q-124 2 -158 2 q-256 0 -299 2q-182 10 -253 53q-37 23 -79 77q-43 56 -56 101q-6 21 -6 485q0 452 18 496q56 137 205 174q89 22 366 23q563 0 607 -13z"
         id="glyph22865" />
      <glyph
         glyph-name="O"
         unicode="O"
         horiz-adv-x="1531"
         d="M1051 891q-36 4 -162 22q-100 16 -153 15q23 -12 14 -38q-3 -7 -10 -22q-8 -14 -10 -20q232 -34 321 43zM544 774q96 -31 99 -31q80 122 87 173q-41 36 -72 -12q-6 -10 -23 -44q-14 -27 -23 -37q-38 1 -78 42q-40 40 -71 39q-49 -2 -67 -54q-13 -36 -15 -118 q-2 -105 -6 -132q-9 -68 -42 -92q-17 -5 -54 -7q-40 -1 -55 -4q-60 -11 -51 -70q28 -25 99 -16q18 2 59 9q36 6 52 7q13 17 33 59q20 41 35 59q14 -14 57 -30q40 -16 54 -32q0 -20 -19 -80q-15 -47 -5 -81q65 -28 88 57q6 21 15 77q7 50 14 70q-16 23 -61 44q-54 25 -69 37 q21 172 19 167zM581 978q13 52 -15 89q-25 33 -69 41q-43 7 -74 -17q-35 -27 -34 -82q1 -30 20 -53q3 -4 42 -40q112 -9 130 62zM1401 509q-10 60 22 85q8 -29 7 -89q-2 -80 -1 -96q-27 95 -28 100zM767 56q-304 0 -355 5q-170 19 -246 106q-59 68 -68 235q0 -9 0 310v390 q10 79 68 148q59 70 143 99q62 23 184 23q36 0 106 -2q73 -2 106 -2q392 0 472 -17q212 -45 246 -243q-71 31 -114 -2q-38 -28 -37 -84q2 -55 41 -82q45 -32 116 1v-62q-74 37 -118 25q-14 16 -35 54q-25 45 -35 61q-47 67 -109 46q5 -63 57 -126q61 -74 73 -110 q-22 18 -65 44q-47 30 -65 43q3 -14 44 -55q40 -40 43 -56q-86 13 -130 18q12 -8 130 -55q-50 -32 -99 -44q12 -13 46 -16q9 0 29 -1q20 0 30 -1q-12 -23 -44 -46q-39 -29 -49 -41q22 -1 54 5q36 7 51 7q-9 -30 -95 -156q-65 -93 -41 -166q74 6 117 91q54 107 81 126 q5 -22 10 -64q7 -46 10 -65q14 -73 48 -100q2 0 56 12q-24 -99 -91 -165q-75 -74 -188 -88h-377zM1466 1213q-58 150 -233 190q-92 21 -404 21q-428 0 -477 -7q-115 -14 -194 -73q-75 -55 -103 -137q-27 -80 -23 -236q1 -34 6 -132q5 -82 5 -127q0 -44 -4 -134 q-4 -99 -5 -142q-2 -167 27 -238q63 -153 272 -187q72 -11 459 -11q338 0 428 18q189 37 246 186q35 90 30 366q-1 74 -6 219q-5 130 -5 177q0 199 -19 247z"
         id="glyph22867" />
      <glyph
         glyph-name="P"
         unicode="P"
         horiz-adv-x="1507"
         d="M473 217q58 -20 246 -20q248 0 269 6q60 17 93 73q30 51 29 116h-733q-7 -1 -6 -18q3 -123 102 -157zM1110 496v85h-733q-7 -14 -8 -49q-2 -38 8 -36h733zM859 793q-53 -27 -119 -28q-67 0 -119 27q-57 30 -79 82q-170 -36 -171 -189h377h362q-5 153 -171 189 q-23 -51 -80 -81zM836 968q-63 1 -111 35q-36 -37 -98 -37q-23 0 -63 16q-32 13 -41 8q1 -93 70 -144q62 -47 151 -42q88 4 144 56q62 58 51 149q-36 -42 -103 -41zM835 1009q22 33 10 52q-11 16 -36 14t-33 -19q-10 -20 16 -47h43zM661 1010q23 7 27 23q2 28 -15 40 q-15 10 -34 3q-20 -6 -27 -22q-7 -19 9 -39q17 -12 40 -5zM824 1118q66 4 103 -24q-9 64 -67 102q-52 34 -124 35q-71 0 -124 -32q-59 -36 -70 -99q38 21 96 18q62 -2 87 -30q39 26 99 30zM1155 79q-86 -17 -418 -17q-312 0 -398 18q-169 36 -225 178q-24 61 -24 221 q1 47 3 127q3 79 3 104q0 62 -3 147q-4 94 -4 117q-2 115 25 187q26 69 93 120q71 56 164 70q40 6 415 6q309 0 401 -22q175 -41 216 -198q6 -23 6 -220q0 -596 -18 -653q-48 -149 -236 -185zM1452 1198q-22 64 -81 119q-62 59 -139 83q-71 21 -204 19q-30 -1 -117 -4 q-75 -3 -119 -3q-414 0 -458 -6q-96 -14 -174 -70q-74 -55 -101 -126q-33 -90 -29 -234q1 -31 6 -127q5 -82 5 -133q0 -385 16 -459q40 -186 228 -238q78 -21 230 -19q36 1 129 4q81 3 124 3q347 0 432 17q188 37 246 191q33 90 29 354q-1 71 -6 212q-5 126 -5 173 q0 209 -12 244z"
         id="glyph22869" />
      <glyph
         glyph-name="Q"
         unicode="Q"
         horiz-adv-x="1518"
         d="M1301 568q32 -11 46 -5q-17 3 -45 23q-25 18 -47 20q1 -17 -6 -25q14 0 52 -13zM1059 716q-18 -1 -79 -13v86q-13 0 -62 -9q-38 -8 -54 -3q2 14 -2 31q-5 19 -4 30q-18 2 -39 -1q-26 -5 -35 -5q5 22 20 53q18 35 23 51q-7 3 6 -55h86v-55h122v-55q59 3 80 18 q11 -12 2 -34q-11 -27 -9 -39q12 -9 46 -7q44 2 52 1q-95 -55 -140 -68q-14 39 -13 74zM1243 881q-84 -43 -141 -61q0 8 12 35q9 22 0 32q-53 -13 -146 -12q1 7 17 42q13 26 7 37q-36 -14 -122 -30q7 127 12 116q-28 -24 -88 -83q-60 -57 -95 -88q-132 -115 -144 -129 q-69 -81 -71 -190q-31 -21 -88 -73q-56 -51 -89 -73q-50 10 -83 -20q-32 -30 -21 -78q5 -23 72 -87q64 -63 81 -66q44 -7 71 19q30 28 27 85q32 11 83 71q49 59 88 70q30 8 95 1q72 -7 113 -1q74 53 252 173q162 110 250 175q-103 -1 -153 12q60 107 61 123zM1316 1046 q-72 -14 -104 -31q-5 2 25 -36q27 14 79 67zM807 1133q10 20 14 35q-19 -2 -61 5q-37 6 -49 1q15 -10 40 -36q24 -27 39 -37q3 7 17 32zM1102 1201q-50 4 -73 10q-2 -24 6 -51q11 -34 12 -47q24 11 129 80q-22 4 -74 8zM1188 67q-41 -12 -416 -12q-37 0 -135 -2 q-88 -3 -136 -2q-154 2 -225 35q-135 61 -164 222q-13 68 -13 395q0 58 -2 152q-3 89 -3 125q1 122 30 188q64 150 263 178q44 6 422 6q345 0 397 -19q157 -55 193 -221q15 -72 15 -396q0 -409 -18 -459q-53 -144 -208 -190zM1232 1383q-97 24 -387 24q-447 0 -495 -6 q-127 -16 -196 -71q-63 -51 -89 -143q-21 -77 -21 -477q0 -42 -4 -124q-5 -97 -6 -133q-4 -161 22 -239q54 -160 251 -198q80 -16 410 -16q472 0 514 12q73 21 135 77q61 55 85 119q27 72 25 227q0 41 -4 135q-3 88 -3 133q0 56 5 139q6 99 7 126q3 140 -30 231 q-53 144 -219 184z"
         id="glyph22871" />
      <glyph
         glyph-name="R"
         unicode="R"
         horiz-adv-x="1502"
         d="M1170 549q28 -20 28 -58q0 -62 -39 -72q-34 -8 -73 21q-39 30 -40 64q-1 39 60 55q37 9 64 -10zM1032 620h-516v184h516v-184zM377 436q-19 17 -24 44q-6 27 7 48q14 24 46 31q39 9 62 -11q19 -18 20 -49q0 -31 -17 -55q-18 -25 -47 -26q-27 -1 -47 18zM522 909 q2 2 -106 -170q-64 -102 -133 -143v-246q66 -14 61 -6q10 -166 13 -172q26 -21 64 -21t65 21q14 23 12 89q-1 83 0 89q50 -1 283 1q175 1 276 -7q0 -10 -1 -87q-1 -53 7 -79q26 -29 73 -27q46 2 68 33q18 93 0 166h55v276q-74 24 -121 119q-9 19 -36 83q-22 53 -39 81h-541z M478 904q28 54 75 60q13 80 -23 129q-34 46 -94 43q23 -3 26 -40q2 -38 -19 -46q-9 37 -64 71q-57 34 -65 70q-6 -13 -18 -35q-13 -23 -18 -34q-19 -42 -14 -90q1 -1 28 -31q17 -18 15 -43q-3 3 -12 14q-8 11 -14 16q-19 18 -35 7q46 -137 51 -145q43 -71 133 -33q5 5 48 87 zM852 999q18 37 23 56q19 65 -33 99q10 -21 -2 -40q-11 -18 -35 -21q4 4 6 49q-13 13 -19 55q-7 44 -12 50q-76 -49 -92 -74q0 -1 1 -44q1 -26 -13 -30q16 32 -19 55q1 -31 -25 -82q-21 -44 -11 -77q13 -45 76 -50q20 -2 63 0q47 2 69 1q6 16 23 53zM1309 136 q-63 -57 -142 -75q-27 -6 -430 -6q-360 0 -417 19q-170 54 -215 190q-25 75 -21 219q0 33 5 121q3 75 3 115q0 358 25 439q25 83 85 128q63 49 179 65q45 6 424 6q346 0 399 -18q62 -22 117 -73q53 -49 73 -99q19 -46 19 -215v-233q0 -414 -19 -461q-26 -69 -85 -122z M1468 952q0 200 -12 239q-49 157 -227 199q-96 22 -406 22q-428 0 -479 -6q-125 -15 -194 -69q-63 -49 -89 -141q-24 -82 -24 -477q0 -56 -4 -143q-5 -107 -5 -134q-4 -150 21 -227q54 -162 263 -200q85 -15 450 -15q437 0 510 31q131 55 178 178q18 48 18 491v252z"
         id="glyph22873" />
      <glyph
         glyph-name="S"
         unicode="S"
         horiz-adv-x="1494"
         d="M753 400q0 12 -13 8q-13 10 -20 -1q-11 -18 -10 -17q-24 -15 -97 -8q-85 8 -114 2q12 -60 87 -100q70 -37 160 -41q93 -4 157 29q72 38 79 112q-19 -1 -118 1q-74 1 -111 -7q1 -5 0 22zM953 686q-94 -24 -146 31q-51 53 -25 133q25 76 85 90q89 22 152 -26 q66 -50 42 -143q-16 -61 -108 -85zM771 584q19 2 30 -19q-2 -26 -30 -24q-15 21 0 43zM662 559q1 23 24 25q0 -3 12 -6q2 -29 -6 -37q-19 -3 -30 18zM506 668q-103 20 -122 91q-13 47 5 90q18 39 58 63q91 54 185 -8q23 -36 31 -90q8 -61 -13 -97q-40 -69 -144 -49z M422 1080q-167 -97 -183 -249q-14 -131 84 -214q15 -13 200 -118q-2 -6 -14 -26q-8 -16 -10 -28h102q-7 -53 37 -43q8 1 5 25q-2 22 13 18q8 -1 6 -25q-3 -22 12 -18q23 -7 28 11q7 31 8 32h49q0 -1 -1 -29q-1 -17 13 -14h24q7 2 6 28q-1 21 18 15q8 -1 6 -25q-3 -22 12 -18 h24q9 1 6 21q-2 21 7 22h102q1 12 -6 27t-6 27q272 73 290 242q19 172 -144 295q-144 108 -339 122q-189 14 -349 -78zM1324 168q-50 -52 -100 -74q-62 -28 -199 -32q-46 -1 -121 0q-102 2 -121 2q-342 0 -423 15q-192 35 -242 184q-26 75 -22 220q1 35 6 115q4 69 4 100 q0 414 6 436q20 75 91 132q75 59 175 73q41 6 411 6q291 0 384 -21q166 -39 214 -178q13 -35 13 -218v-223q0 -406 -13 -442q-15 -45 -63 -95zM1454 952q0 200 -12 236q-44 132 -188 188q-67 26 -200 27q-41 1 -119 -1q-85 -2 -122 -2q-428 0 -472 -6q-100 -14 -173 -65 q-68 -48 -99 -117q-30 -69 -30 -215q0 -40 3 -138t3 -154q0 -45 -3 -132q-4 -95 -4 -135q-2 -157 25 -229q22 -57 83 -112q62 -55 129 -76q78 -24 233 -21q35 1 133 5q84 4 130 4q347 0 437 19q185 40 234 199q12 39 12 484v241z"
         id="glyph22875" />
      <glyph
         glyph-name="T"
         unicode="T"
         horiz-adv-x="1081"
         d="M675 1192q-6 -7 -7 -12q12 -5 17 8q4 13 -4 18q0 -7 -6 -14zM279 1174q5 -6 12 -18q7 -13 11 -18q6 -2 74 2q46 2 49 -24q-64 -15 -121 0q-69 17 -70 73q29 3 45 -15zM1046 1138v42q-41 -1 -123 0q-85 2 -124 1q-141 -3 -212 -35q-5 -10 -12 -47q-5 -32 -18 -42 q-14 9 -19 40q-7 42 -10 49q-117 45 -111 38q7 2 14 -1q8 -3 12 -3q-3 2 -16 37q-11 30 -31 31q-13 4 -13 -10q-1 -16 -9 -15q-68 -10 -123 25q-14 40 -38 43q-38 -2 -84 22q-66 33 -78 37q-5 -23 -11 -61q-8 -50 -10 -62q68 -8 111 -21q-18 -183 255 -196v-727 q0 -202 -2 -191q13 -102 91 -90q57 9 63 124q3 37 0 101q-3 78 -3 94v226q0 4 -2 16q-1 12 -1 19q0 22 15 28q15 -5 16 -27q0 -7 -2 -19q-1 -13 -1 -17v-230q0 -11 -4 -106q-3 -69 1 -109q12 -117 97 -100q49 10 56 102q3 30 1 82q-2 72 -2 80q0 576 4 689q30 -99 34 -187 q2 -27 -1 -74q-3 -53 -2 -69q0 -72 37 -83q40 -11 51 24q6 16 9 87q5 127 -14 236q-24 135 -80 185q-11 10 -37 21q-22 9 -35 26q6 18 32 19q8 0 23 -1q16 -1 21 -1h285zM500 1299q23 -5 40 -25q0 -16 -13 -24q-11 -6 -27 -4q-16 3 -25 12q-11 10 -7 24q6 22 32 17z M642 1266q-6 -13 -21 -18q-15 -6 -28 -1q-15 6 -19 22q5 17 27 26q22 8 41 0q8 -16 0 -29zM579 1150q-2 10 4 9q11 0 29 7q18 6 30 6q61 64 47 136q-10 54 -55 80q-39 24 -91 17q-51 -6 -85 -40q-37 -37 -37 -91q1 -46 47 -102q25 2 53 -15q28 -18 53 -15q6 -2 5 8z"
         id="glyph22877" />
      <glyph
         glyph-name="U"
         unicode="U"
         horiz-adv-x="1233"
         d="M184 22q47 -31 105 -18q96 109 114 138q-53 2 -108 25q-14 6 -46 21q-29 13 -46 20q-6 -13 -40 -51q-27 -30 -27 -58q1 -47 48 -77zM906 797q112 131 138 166q155 208 154 440q-2 6 -10 5q-2 -2 -571 -667q-7 5 -21 17q-15 13 -22 18q-27 19 -57 8q-3 -21 35 -51 q38 -29 37 -49q-46 34 -102 30q-39 -3 -106 -29q-164 -65 -245 -53q-10 -32 -44 -148q-28 -92 -46 -147q20 -3 242 -100q163 -70 277 -19q46 20 103 93q56 70 68 121q9 37 -2 64q-3 7 -11 21q-8 12 -11 20q43 38 39 38q98 -43 95 -43q5 35 -26 55q-36 25 -41 40 q42 70 127 170z"
         id="glyph22879" />
      <glyph
         glyph-name="V"
         unicode="V"
         horiz-adv-x="722"
         d="M169 836q-47 8 -42 57q4 31 41 43q8 2 35 8q23 5 35 10q-20 42 -80 31q-48 -9 -75 -84q-24 -67 -23 -161q2 -93 27 -161q29 -74 75 -83q9 -90 -4 -245q-1 -15 -7 -57q-7 -43 -9 -65q-7 -81 12 -107q15 -20 54 -22q40 -2 57 22q18 25 22 98q1 19 2 63q1 39 3 57 q12 157 7 236q-2 46 -30 191q-21 107 -8 184q-52 -22 -92 -15zM265 962q-10 -5 -68 -24q-47 -16 -54 -26q-24 -33 3 -55q24 -19 58 -14q64 11 138 60q73 49 103 101q-33 3 -77 42q-24 -44 -103 -84zM523 1138q-3 -19 -6 -27q34 10 57 -10q21 -18 20 -44q-3 -35 -47 -48 q-28 -8 -87 -9q3 -81 -19 -210q-23 -138 -23 -218q0 -69 7 -187q8 -112 14 -139q18 -72 70 -71q64 0 67 76q1 25 -4 70q-8 65 -9 71q-13 161 -8 276q49 20 78 100q28 74 28 165q-1 94 -32 156q-36 71 -100 75q-3 -8 -6 -26zM468 1149q-11 -23 -12 -42h50q11 29 8 50 q-4 27 -31 30q-3 -12 -15 -38zM241 1051q22 38 16 86t-39 77q-37 33 -94 27q-2 0 -3 -2q-2 -2 -1 -2q-63 -10 -88 -57q-36 -68 10 -131q48 -64 127 -49q48 9 72 51zM497 1009q79 2 85 44q5 34 -9 45q-11 8 -38 6q-74 -8 -87 3q2 32 19 60q15 23 12 43q-4 23 -30 33 q-26 9 -43 -6q-35 -33 -41 -104q-7 -74 30 -102q30 -24 102 -22zM480 1365q-23 -36 -20 -80q4 -46 33 -76q32 -33 85 -33q58 0 91 42q29 38 26 90q-3 53 -39 83q-40 35 -104 22q-46 -10 -72 -48z"
         id="glyph22881" />
      <glyph
         glyph-name="W"
         unicode="W"
         horiz-adv-x="2005"
         d="M1130 424q-25 13 -28 18q3 11 50 7q46 -3 46 10q1 12 -37 14q-44 1 -50 5q14 9 62 12q3 0 10 -1h11q13 1 14 9q4 18 -62 14q-45 -3 -44 -4q5 8 39 22q2 1 11 4q8 2 13 4q16 7 13 16q-4 14 -62 -7q-48 -17 -65 -17q0 1 13 21q12 19 -1 33q-7 -4 -16 -16q-10 -12 -18 -17 q-24 -17 -43 -58q-4 1 -3 3q1 4 1 6q-178 22 -215 33q-50 16 -55 24q-6 9 -16 103q-10 107 -9 102q-9 56 -33 77q11 21 -7 51q-26 44 -27 47q13 2 30 -7q16 -8 24 -7q2 1 33 43q33 46 35 59q1 5 -1 18q-2 11 -1 16q2 6 13 13q10 7 11 10q1 -2 -5 76q-3 -6 17 -7q0 14 -7 12 q3 0 6 -3q2 -4 9 -5q2 2 -3 6q-4 4 -9 6q2 2 8 -1q5 -3 6 -6q4 12 -12 24q-19 5 -2 16q1 0 -103 68q-13 4 -36 2q-20 -2 -28 3q-1 -1 -1 -3q0 -3 1 -4q-11 4 -42 -10q0 -1 2 -1q1 0 1 1q2 -2 -2 -4l-8 -3q-8 -5 -33 -37q-1 -5 -17 -72q-11 -49 -12 -76q-21 -8 -61 -31 q-25 2 -78 35q-43 26 -88 16q-26 29 -43 39q-2 -1 47 55q7 9 24 24q16 14 23 22q40 45 41 46q0 12 12 18q-10 5 96 4q1 1 4 6t5 7q6 6 16 5q3 18 3 17q2 2 8 6q5 2 6 6q-4 8 -1 19q3 12 3 16q-2 9 -19 25q-18 16 -27 18q-11 1 -32 -14q-15 -11 -53 -29q-42 -20 -55 -28 q-10 7 -20 1q-21 -11 -17 -10q-4 -1 -10 -1h-7q3 1 -46 -36q1 0 -47 -30q2 4 -34 -32q-30 -31 -66 -80q-23 -32 -22 -50q1 -6 8 -16q7 -8 6 -15q4 0 7 -3q-2 2 118 -159q-2 -24 -3 -89q-1 -57 -4 -93q-2 -26 -16 -74q-13 -50 -16 -75q-5 -48 -35 -145q-18 -56 -47 -137 q-43 -121 -46 -132q1 -5 10 -9t12 -8q-8 -31 -24 -155h483q35 82 91 338q25 114 26 116q7 -1 14 -12q8 -11 18 -15q5 -2 17 -3q14 -2 20 -3q133 -34 248 -48q8 9 12 24q24 -2 29 27q7 -1 19 -4q13 -4 19 -5q11 -1 30 3q19 3 28 3q12 -1 38 -17q21 -12 34 -5q-2 14 -24 25z M1792 482q-3 -5 -8 -7q-2 4 9 18q3 -4 -1 -11zM1939 236q-25 14 -58 16q-9 0 -32 -4q-21 -4 -33 -1q-24 4 -49 40q-1 2 -3 10q-1 -4 -5 -3q-1 0 -5 5q-3 5 -9 5q-23 26 -74 98q10 39 34 54q-2 5 10 20q24 30 56 58q-1 -9 -7 -29q-5 -18 -5 -25q1 3 5 5q0 -4 -3 -9 q-4 -5 -4 -8q4 0 8 9q3 8 6 6q-11 -21 -10 -20q4 -2 16 -9q10 -7 17 -10v-8q58 14 63 59q36 46 29 201q-4 84 -4 142q1 87 -11 131q-20 71 -75 73q-22 20 -86 7q-34 -7 -59 -36q-26 -30 -19 -62q-39 -58 -33 -98q-11 3 -69 28q-45 19 -80 21q-16 1 -76 -9q-48 -8 -78 2 q39 18 85 34q5 2 17 3q11 2 16 4q4 1 14 7q7 4 14 4q3 1 10 0q7 -2 10 -1q32 3 79 37q22 16 31 27q-2 4 -10 5q-10 0 -12 2q5 3 17 9q13 7 18 10q21 13 22 30q-12 3 -29 -7q-18 -11 -25 -10q4 3 15 8q10 5 15 8q17 12 16 28q-15 -1 -37 -13q-27 -15 -36 -18q5 7 23 17 q14 7 17 22q-18 4 -43 -12q-31 -20 -39 -22q2 5 18 22q12 13 14 27q-11 2 -32 -18q-5 -5 -15 -13q-11 -8 -16 -13q-9 -8 -26 -32q-16 -23 -26 -30q-214 -72 -236 -83q-35 -16 -44 -23q-34 -27 -4 -66q36 -46 201 -61q8 -10 26 -22q16 -11 25 -24q-5 -33 -28 -77 q-32 -62 -36 -73q-9 -22 -26 -82q-15 -51 -28 -80q-7 -15 -19 -36q-15 -28 -18 -35q-14 -26 -29 -79q-47 -160 -53 -269h467q8 124 5 172q-2 23 -18 91q-15 59 -13 90q32 -38 101 -89q82 -62 107 -85h13q3 -2 76 -20q4 -2 11 -11q6 -8 13 -10q11 7 7 20q-3 9 -12 18 q8 -3 27 -32q11 -3 12 13q1 14 -3 25q4 -1 7 -11q2 -9 4 -7q18 -2 13 22q-5 25 -19 25q7 0 19 -11q11 -9 21 -6q-2 25 -31 42z"
         id="glyph22883" />
      <glyph
         glyph-name="X"
         unicode="X"
         horiz-adv-x="1643"
         d="M688 940q3 -7 -38 3q4 7 24 14q19 6 21 17q0 -16 -55 24q1 1 -76 -41q-4 13 -10 37q-6 25 -9 35q-12 40 -40 52q-21 10 -57 4q-63 -10 -67 -11q-3 5 1 17q3 11 -5 18q4 10 13 0q10 -13 19 -10q-17 39 -32 51q0 1 -10 2q-5 1 0 9q-42 -11 -88 32q-49 46 -85 44 q-32 -3 -62 -39q-34 -42 -55 -51q1 -6 0 -31q4 4 -21 -28q-11 -14 -24 -10q23 -7 7 -17q7 -9 28 -21q20 -11 27 -21q5 -26 25 -44q21 -18 44 -18q-2 -27 28 -128q9 -2 9 11q1 14 8 13q7 -39 0 -62q1 0 11 14q4 7 6 -10q6 3 6 23q0 17 15 18q-7 -33 28 -31q2 -17 18 -40 t16 -40q2 -22 -13 -57q-18 -42 -21 -57q-1 -5 -11 -86q-2 -22 0 -45q5 -44 30 -125q25 -84 29 -120q1 -9 -2 -32q-2 -19 2 -30q-52 -130 -55 -173h117q0 -5 49 149q9 63 17 255q4 -16 47 -123q32 -76 22 -129q-3 -19 -28 -73q-21 -46 -20 -79h121q12 31 28 87q20 69 27 89 q-7 159 -31 263q-6 26 -24 70q-19 47 -25 68q-2 10 0 28q2 19 0 27q-2 12 -15 41q-13 28 -16 46q-4 39 11 96q8 -9 21 -29q13 -21 24 -33q98 -105 96 -97q3 -13 -11 -49q-13 -33 -6 -54q13 0 17 19q5 20 14 22q11 -6 8 -39q-3 -32 13 -37q40 70 14 159q-123 178 -145 218 q57 20 96 45zM1403 922q11 -1 42 -13t48 -14q12 -199 -14 -270q-71 176 -76 297zM1505 1009q-86 49 -102 83q-31 26 -106 55q-82 32 -111 52q9 77 -8 132q-19 62 -68 78q-60 20 -135 -41q12 -10 2 -31q-15 -32 -16 -45q-6 -84 -10 -90q21 -12 62 -79q-83 -64 -117 -66 q-16 -1 -44 7q-40 12 -50 14q-129 25 -155 38q-15 27 -21 72q-6 6 -12 1q-1 -2 -4 -6t-5 -5q-68 46 -100 45q-7 -12 0 -29q7 -16 0 -23q18 -18 46 -50q33 -38 44 -50q29 -12 91 -45q62 -32 96 -46q117 -46 224 -6q6 -5 23 -10q16 -5 22 -11q4 -36 31 -85q32 -59 38 -80 q9 -32 22 -86q15 -66 20 -84q23 -90 34 -100q-1 -3 -10 -11q-6 -6 -7 -13q0 -42 -5 -135q-6 -95 -5 -145q0 -41 -11 -110q-9 -64 7 -104h166q-6 16 -7 55q21 -13 38 -55h166q-69 186 -62 294q0 9 -2 31q-3 20 -2 27q1 5 8 15q8 10 9 16q2 5 0 17q-1 10 0 15q25 82 25 86 q10 1 23 6q16 6 22 8q-10 15 -4 33q1 5 5 16q4 10 5 16q3 10 6 48q2 36 8 59q45 176 28 239q-10 36 -92 83z"
         id="glyph22885" />
      <glyph
         glyph-name="Y"
         unicode="Y"
         horiz-adv-x="1717"
         d="M419 356q22 30 21 69q-2 40 -27 63q-29 27 -79 18q-45 -7 -65 -38q-17 -28 -10 -64q7 -35 32 -59q28 -25 64 -23q40 2 64 34zM1310 137q-251 -3 -346 7q11 51 61 116q56 -65 106 -87q72 -32 188 -16q-132 171 -349 329q-128 -218 -130 -219q-127 44 -229 205 q-151 235 -174 260q-87 -41 -178 -96l-52 -28q-36 -20 -56 -35q-63 -46 -36 -87q32 -49 144 18q131 78 144 78q9 -15 30 -41q24 -30 33 -42q36 -49 32 -88q-4 -49 -94 -131q-19 -17 -72 -61q-40 -34 -53 -48q-22 10 -92 68q-54 46 -113 48q-25 -27 -34 -41v-27 q21 -20 123 -103q10 -7 31 -28q24 -22 35 -32q44 -38 71 -35q34 3 76 68q43 67 81 75q35 -12 128 -82q85 -64 146 -75q71 -13 225 -1q151 11 233 -6h452q6 10 20 24q15 16 21 24v34q-3 12 -15 23q-17 15 -19 18q-108 18 -338 14zM505 691q62 14 151 69q-12 1 -57 5 q-35 2 -53 8q0 16 -5 70q-4 42 -2 74q-25 -5 -48 -40q-24 -36 -47 -42q-15 11 -44 45q-25 32 -45 44q-9 -16 -2 -64q7 -47 -5 -66q-81 24 -151 0q132 -94 137 -96q18 13 58 34q41 22 58 34q57 -76 55 -75zM724 807q75 -2 121 67q62 91 84 104q-25 40 -34 48q-22 24 -55 28 q-17 -30 -74 -97q-49 -59 -69 -102q23 -30 27 -48zM651 968q-14 11 -47 34q-33 24 -51 38q-138 108 -130 103q-84 48 -96 -48q53 -48 178 -123q94 -57 99 -59q60 -30 106 -17q-12 34 -59 72zM981 770q-6 -150 -4 -229q17 -14 66 -64q40 -41 71 -60q-1 150 14 240 q15 -41 14 -126q-1 -139 -1 -141q109 -114 137 -109q3 64 -2 426q-4 263 23 401q6 -3 32 -15q20 -9 29 -19q0 -46 -28 -115q-27 -68 -26 -117q43 -33 75 -28q92 132 109 315q-43 25 -396 185q-14 -16 -41 -21q-5 -16 -10 -63q-4 -41 -11 -60q73 -99 75 -109 q-49 -49 -123 -62q3 -80 -3 -229zM1073 1074q-11 -17 -43 -28q-50 -18 -53 -20q-140 111 -164 178q-5 1 66 -37q51 -27 91 3q-2 1 103 -96zM1037 1023q7 4 33 21q19 12 30 17q-6 34 -44 68q-42 38 -51 62q21 35 1 89q-21 59 -8 95q-12 14 -82 48h-55q-72 -24 -102 -73 q-33 -53 -8 -125q11 -32 96 -121q87 -93 117 -98q32 -6 73 17z"
         id="glyph22887" />
      <glyph
         glyph-name="Z"
         unicode="Z"
         horiz-adv-x="1555"
         d="M523 1073q12 11 5 26q-5 15 -19 18l58 14q-1 -10 5 -27q5 -16 2 -31q-45 -3 -51 0zM744 1184q-5 37 -2 57q-58 2 -206 -18q-126 -17 -202 -4q-15 -3 -39 -34q-16 -21 -42 -3q-14 -15 11 -33t11 -32q0 -26 -18 -45q-5 -5 -16 -14q-12 -9 -17 -14q-43 -1 -101 8 q-75 12 -96 14v-190q59 13 229 10q149 -3 216 26q-1 26 16 76q15 42 6 63q11 8 43 9q34 1 45 6q10 6 3 27q-8 25 -3 38q19 -1 160 8q6 14 2 45zM1350 840q5 16 13 53q9 43 14 63q7 24 25 56q18 30 19 39q18 102 -38 190q-52 81 -149 128q-95 46 -197 39q-109 -6 -185 -72 q-7 -43 44 -44q-3 -8 -61 -99q-38 -59 -20 -105q-65 -57 -80 -88q7 -18 13 -24q10 -10 31 -5q-26 -24 -20 -40q2 -6 10 -18q12 -15 17 -23q-33 -60 -29 -109q34 -37 160 -36q-5 -17 -14 -57t-16 -60q-22 -70 -64 -95q-152 -443 -168 -533h854q37 206 -55 423q-21 47 -86 176 q-55 108 -78 175q43 14 60 66z"
         id="glyph22889" />
      <glyph
         glyph-name="bracketleft"
         unicode="["
         horiz-adv-x="711"
         d="M449 1424h-193l-6 -205l205 6zM515 232q20 -7 29 -11q33 -15 38 -44h27q20 53 22 71q-20 -5 -77 7q-44 10 -69 -13q9 -4 30 -10zM620 280q14 19 5 42q-1 4 -8 19q-6 12 -8 20q-21 5 -30 -13q-13 -22 -19 -25q-33 -14 -102 -40q-69 -27 -103 -41q-3 10 -22 11 q-18 2 -27 -5q4 -10 6 -25q3 -17 4 -20q5 -20 28 -26q142 120 276 103zM442 323q27 4 54 0q-1 33 -6 38q-21 -4 -43 0q-5 -5 -5 -38zM392 320q-38 20 -53 41q-19 -15 -27 -36q-8 -24 5 -45q25 13 68 3q42 -10 67 3q-9 6 -60 34zM393 437q-10 28 17 33q22 4 42 -6v-27h-59z M470 394q-15 2 -18 -11q-16 16 11 54q26 -3 27 -54q-6 8 -20 11zM544 437h-59q-10 28 17 33q22 4 42 -6v-27zM415 362v-28q5 1 11 -2q5 -4 10 -3v37q34 5 65 0v-37q28 6 27 21q0 3 -2 6q-3 4 -3 5q8 -2 16 -5q2 19 18 57q12 31 9 56q-5 38 -35 59q-27 20 -64 19 q-36 -2 -63 -22q-29 -23 -33 -61q-3 -28 12 -56q14 -26 10 -52q10 3 22 6zM647 134q-34 1 -198 0q-122 -2 -191 6q-15 249 0 497q5 6 16 11h373v-514zM597 856q-41 41 -139 94v103q62 -20 75 40q11 49 -10 101q-257 14 -341 -6q-28 -29 -5 -119q5 -12 31 -14q32 -3 39 -7 v-108q-199 -65 -216 -254q-7 -72 11 -671q310 -30 621 0q9 697 11 681q-11 95 -77 160z"
         id="glyph22891" />
      <glyph
         glyph-name="backslash"
         unicode="\"
         horiz-adv-x="1009"
         d="M765 243q-1 -2 -1 -7q-2 -13 1 -14v11q1 7 1 11q0 2 -1 -1zM332 333q-12 -7 -9 -20q15 12 9 20zM357 206q2 -6 7 -3q-5 -1 -7 5q-2 7 -6 4q2 0 6 -6zM366 171q-3 5 -2 9q4 -10 10 -14q24 50 34 90q0 3 18 43q10 21 16 27q30 34 30 35q5 2 7 17q1 7 17 29q-1 2 -2 7 q-1 4 -3 5q-10 -7 -32 -16q-25 -10 -34 -15q-1 -11 0 -10q-2 -1 -2 1q-1 2 -2 2q-5 -4 -10 -13q-5 -11 -8 -14q-2 -4 -8 -6q-7 -3 -9 -5q-3 -2 -11 -19q-7 -14 -14 -14q-10 0 -8 23q-7 -8 -21 -32q21 -35 21 -38q0 -1 -1 -2q-1 -2 -1 -3q-1 -7 4 -24q3 -14 1 -17q10 0 10 -5 q-1 1 -3 2q-3 0 -4 -2q-1 1 3 -3q-5 0 -5 1t9 -5q4 1 6 -9q-2 -1 -6 0q-3 1 -3 0q1 -2 9 -14q-2 1 -5 -2q-6 3 -5 4q2 -3 0 -2h-3q2 -2 6 -11q3 -7 7 -9q-1 3 -6 9zM265 427q3 0 18 -19q-2 21 -18 19zM252 505q2 -6 3 -16t3 -15q2 -9 15 -27l20 -45q10 -7 12 -25q-3 8 -8 13 q10 -34 11 -38q8 5 39 29q25 20 43 29l6 11q-2 -1 39 31q40 31 55 48q18 22 9 28q-18 -1 -51 4q-13 -29 -15 -29q-3 -1 -22 4q-76 19 -135 50q-3 -58 -15 -80q2 7 1 7q-5 -6 -3 -5q-9 29 -7 26zM721 773q-8 -3 -10 -6q3 0 10 6zM756 794q-21 -14 -19 -11zM490 1028q0 7 -2 8 q-1 -2 -5 -3t-3 -5h10zM495 1038q-1 0 -3 1v-4q0 -3 2 -2q-1 4 1 5zM443 1114q-1 -2 1 -2q0 1 2 1q1 2 -1 3q-2 2 -2 0q1 0 0 -2zM422 1127q0 -1 -2 0q2 -7 5 -7q0 5 -3 7zM43 548q7 15 17 49q13 41 17 52l12 33q1 6 1 17v17q2 23 12 53q2 6 10 22q6 14 9 24q-1 -4 6 53 q9 65 9 58q-1 16 -11 45q-10 30 -11 47q-3 43 -24 65q4 15 -4 21q4 18 -1 31q0 1 4 3q3 2 3 4q-7 16 4 27q-1 -11 52 134q20 20 19 41q0 3 -4 12t-5 14q-3 25 -2 24q9 23 46 20q1 -1 1 -9q-2 2 13 -8h-1t-1 -1q3 -1 8 -5t2 -3q0 1 -1 1q-1 -2 6 -9q6 -6 3 -12l-1 4 q-2 -1 3 -11q5 2 8 10q4 9 6 11q3 1 4 -2q1 -2 2 -2q-1 -4 -4 -9q-4 -6 -5 -9q12 -10 64 -43q40 -26 58 -49q-3 1 -117 59l1 5q-6 -3 -16 5q0 1 -11 -21q-5 2 -6 9q-17 -7 -19 -29t13 -33q-3 -5 -7 -16q-5 -11 -8 -17q-1 -3 -6 -10q-5 -5 -7 -9q-1 -3 -1 -9q-1 -7 -2 -9 q-2 -5 -7 -11q-5 -7 -7 -10q4 -4 -2 -14q-6 -11 -4 -17q-1 -7 -5 -9q3 -5 -1 -18q48 -73 50 -78q4 -8 18 -19q15 -12 19 -18q4 -5 8 -14q5 -11 8 -15q21 2 27 10q-13 14 -2 54l-3 -3q32 76 46 84q0 -3 12 6q-4 1 -6 -2q3 5 14 8q14 5 18 8q-3 2 -8 2q-5 -1 -5 -5q-2 2 0 3 l3 3q7 -1 19 -1q14 1 19 1q30 -3 34 -6q9 -6 9 -16q4 1 1 13q5 -1 7 -11q-1 0 26 -18q1 6 -1 4q1 0 2 -6q-1 1 13 -16q-2 2 8 5q-6 -7 5 -16q2 0 2 2q1 2 2 2q1 2 0 -1q-2 -4 -3 -5q20 -20 18 -26q4 -2 -23 -15q-1 -11 -2 -13q-2 -4 -4 -6q-2 -3 -1 2l5 15q-1 1 -5 0t-5 1 q-4 -3 -5 -16q-2 -12 -8 -13q0 -1 2 -1q1 1 2 0q-1 -2 -9 -5q0 -4 3 -19q3 -12 -1 -17q-3 0 -7 1t-8 0q-4 -3 -4 -13q-10 -2 -12 -13q-3 -3 -7 -4t-6 -3q-2 -1 -6 -8q-4 -5 -9 -6q-6 -1 -16 8q-11 10 -15 10q2 0 -12 -12q-2 -2 -8 -4q-5 -2 -7 -3q-1 -1 -3 -7q-1 -5 -4 -7 q2 1 5 -1t4 -7q-4 0 -4 3q-1 0 2 -6q2 -5 -2 -4q0 -1 3 -3q2 -1 2 -4q4 -7 32 -33q21 -19 23 -37q3 -18 -15 -71q-31 -91 -51 -119q22 -13 23 -13q0 -1 -4 -1q0 1 9 -1q1 -4 2 -3q12 0 38 -8q25 -8 40 -7q3 1 2 0q-1 -2 0 -2q3 0 8 3q4 2 7 3q0 -2 -2 -3q-2 -2 -2 -3 q16 15 57 30q6 -13 7 -9q-2 0 -3 2q-1 3 -3 2l-3 -2q0 -3 5 -3q5 -1 6 -2q21 18 87 91q52 59 95 84q9 11 44 31q15 33 12 30q0 3 -12 6q-13 5 -19 15q-8 12 1 23q0 2 -3 6q-3 3 -2 6q1 2 5 6q5 4 6 6q7 7 1 16q0 3 2 5q4 3 4 4q-14 11 1 22q21 18 22 20q-3 19 -3 16 q20 23 19 19q0 3 -2 1t-2 0q8 44 79 43q20 -1 59 -18q10 -17 11 -18q-2 -4 -4 13q8 -8 6 -18q1 -2 5 -1q3 0 5 -2q0 -2 -2 -7q4 1 6 -2q1 -2 4 0q1 -2 1 -12q18 -18 19 -18q-4 -2 -3 -13q2 -13 -1 -17q0 -1 -2 -2q-3 -1 -3 -2q-18 -25 -14 -23q-7 -27 -35 -51q-7 -5 -39 -18 q2 -6 3 -18q2 -12 4 -18t9 -19q6 -11 7 -19q1 -2 0 -6v-7q5 -56 5 -60q-1 -3 -4 -9q-2 -6 -3 -10q-1 -5 -1 -15t-1 -15q-2 -10 -11 -30q-7 -18 -8 -29q-1 -12 -2 -41q-2 -28 -3 -44q-4 -37 -38 -115q-1 -3 -11 -19q-8 -12 -9 -21q0 3 4 -32q1 -12 -2 -55q-2 -19 -11 -28 q-2 -1 -7 2q-6 -21 -15 -18q-2 5 -1 10q-9 -16 -7 -15q-9 -2 -8 13q-1 -1 -2 -4t-3 -4h-6q1 -2 -4 61l-3 -9q-3 -7 -4 -9q-4 -10 -15 -10q-1 2 3 11q1 24 7 44q-1 -5 21 35q4 7 8 21q5 19 6 24q12 32 14 45q8 64 17 86q1 2 2 2t1 1q2 16 1 24q-5 -9 -16 -28q-10 -18 -16 -27 q-9 -3 -19 -12q-12 -10 -18 -13q10 -5 12 -15t-9 -14q4 -5 -1 -14q1 -4 2 -15q1 -8 5 -12q-2 -6 -1 -14q0 -10 -1 -14q-1 -5 -6 -14q-5 -10 -6 -14q-6 -23 -7 -23q0 -3 1 -4l3 -3q-53 -59 -44 -57q-10 -14 -11 -30q-1 -3 2 -5q2 -2 1 -4q0 -4 -3 -7q-4 -5 -4 -6 q-1 -22 -6 -59q-7 -42 -8 -54q9 -3 14 -13q5 -11 -3 -19q1 -3 5 -5q5 -2 5 -5q1 -3 -2 -5q-2 -3 -2 -5q1 -1 6 -2q6 0 7 -1q2 -2 10 -24h-136q-18 22 -35 102q-27 -9 -24 -9q-3 -6 -5 -17q-3 -14 -4 -17q-6 -20 -20 -24q-4 -40 -3 -35h-211q-1 31 -2 28q-1 2 -5 4q-3 2 -4 4 q-1 13 -10 35t-10 33q0 1 1 4v4q-2 8 -13 18q-11 12 -13 18q-4 -8 5 -70q7 -46 9 -78h-141q-1 -4 -5 28q0 5 1 15q0 10 -1 15q0 4 -6 20q-6 12 -6 23q0 -2 -3 53q6 1 -13 2v16q13 19 10 17q-2 5 -5 13q-3 9 -5 13v333z"
         id="glyph22893" />
      <glyph
         glyph-name="bracketright"
         unicode="]"
         horiz-adv-x="2128"
         d="M367 1254q-70 -22 -96 -68q84 66 185 65q5 0 15 -1t15 -1q18 1 25 11q-72 17 -144 -6zM883 703q-4 0 -9 -2q-5 -1 -10 0q0 -1 -28 41q-17 24 -19 50q32 11 76 -34q21 -22 48 -75q31 -58 44 -74q2 13 -6 24q-9 13 -9 21q6 -1 14 2t15 2q21 -23 4 -48q-16 -25 -47 -24 q-29 78 -73 117zM736 356q-39 -28 -48 -34q-58 -38 -111 -44q-56 -6 -88 21q-13 10 -26 30q-15 22 -13 33q2 14 82 57q61 34 79 57q-1 9 -11 16q-13 9 -15 13q-1 21 6 41q40 -12 96 -5q-9 -15 -27 -39q-26 -32 -31 -39q-35 -51 -40 -101q10 4 12 17q5 25 4 22q15 41 76 98 q67 62 83 91q43 32 110 100q50 -32 72 -140q-109 -133 -159 -162q-21 -11 -51 -32zM748 136q-24 -45 -80 -39q-27 3 -63 22q-48 26 -49 37q0 -1 29 33q25 30 16 65q25 8 64 30t62 29q12 4 23 -27q10 -26 12 -46q6 -66 -14 -104zM618 63q-14 9 -35 29q-23 22 -33 29 q-6 -2 -14 -11q-7 -6 -13 -5q-21 4 -8 23q11 17 29 24q17 -27 90 -53q68 -24 81 -61q-53 -6 -97 25zM681 24q20 -7 32 -5q-11 -8 -30 -2q-5 1 -16 5q-10 4 -15 5q11 4 29 -3zM362 770q-2 9 0 14q28 -5 62 -26q39 -25 57 -31q-1 -8 1 -21q1 -13 1 -22q-19 9 -58 36 q-35 25 -61 34q1 5 -2 16zM505 699q-4 -1 -16 6q-1 5 2 16q15 -1 14 -22zM489 684q13 8 21 -3q7 -10 7 -27q-28 9 -28 30zM523 680q29 -11 46 -43q18 -35 12 -77q-45 63 -58 120zM858 692q-5 -15 -37 -32q-10 9 -4 51q-15 -5 -14 -28q1 -21 12 -31l-25 -25q-15 -16 -28 -22 q-15 38 5 85q20 49 58 39q10 -2 33 -37zM860 792q-13 11 -20 13q12 5 23 -5q3 -2 9 -8q5 -6 8 -8q-8 -2 -20 8zM251 423q-2 10 -7 10q-10 -4 -3 -28t-5 -31q-6 -1 -14 6q-10 8 -15 8q-6 1 -17 -4q-13 -5 -17 -6q-44 -5 -67 26q-24 32 -9 76q50 18 96 31h2q28 -1 56 -37 q28 -38 5 -63q-3 2 -5 12zM189 546q-1 0 6 -21q-11 -3 -55 -18q-34 -11 -59 -14q-1 6 -4 8q16 23 112 45zM701 898q10 1 24 -6q4 -31 -26 -32q-2 3 2 38zM650 839q-3 32 8 53q13 23 35 6q-1 -7 -3 -23t-3 -23q-17 -13 -37 -13zM607 835q-2 43 6 63q4 3 15 4q12 1 16 3 q-1 1 -4 -68q-26 -3 -33 -2zM566 862q6 26 31 30q8 -11 -4 -57q-34 1 -27 27zM1018 653q-3 4 -12 15q-8 9 -11 14q-5 0 -9 -7t-12 -5q-81 124 -85 129q-23 21 -43 22q-31 2 -37 -26q-6 -25 8 -52q-84 -13 -69 -153q-19 -20 -27 -20q-3 15 -1 49q3 34 -1 49 q-125 -13 -147 -10q-5 9 -32 25q-23 14 -27 32q97 -17 175 1q96 22 99 91q1 47 -51 79q2 13 5 41q2 28 5 41q43 6 60 16q28 16 15 49q-9 8 -40 14t-39 17q26 76 -7 144q-10 22 -71 103q-6 8 -15 26q-9 17 -15 25q-16 18 -57 34q-109 41 -228 -13q-105 -48 -152 -132 q-17 -29 -14 -40q10 0 16 10q1 3 4 9t4 9q1 2 25 29q54 61 122 91q86 37 176 15q-148 12 -190 -37q53 26 140 23q88 -3 133 -33q3 -4 7 2q5 6 8 2q6 -12 62 -79q41 -49 46 -96q1 -9 -4 -58q-3 -36 8 -55l43 -7q26 -4 26 -21q0 -22 -37 -29q-35 -7 -59 6q1 7 12 11 q11 3 11 12q-17 5 -28 -4q-10 -9 -7 -23q2 -9 15 -14q15 -5 18 -12q-4 -7 -4 -29t-5 -28q-47 19 -110 10q-71 -11 -65 -57q4 -30 53 -35q64 -6 139 51q35 -22 26 -65q-9 -38 -41 -57q-90 -57 -239 -7q-139 46 -171 121q33 1 51 15q22 16 11 44q-5 -4 -14 -15q-7 -9 -12 -13 q-13 -11 -34 -11q-54 0 -75 64q-20 64 33 93q36 21 69 8q6 -2 15 -14q7 -10 16 -10q-9 24 -34 35q-24 10 -52 4q-21 -5 -42 -28q-26 -29 -29 -31q-17 47 -13 101q5 59 35 82v17q149 120 292 122q-8 14 -41 14q-97 2 -175 -42q-73 -40 -113 -109q-2 -6 3 -9q6 -3 5 -7 q-43 -33 -39 -116q5 -81 48 -113q-3 -2 -1 -6q2 -6 1 -10q25 -30 61 -65q43 -44 46 -47q23 -31 15 -63q-121 7 -199 -36q-80 -43 -105 -134v-34q10 -44 37 -82q-19 -56 26 -91q44 -33 100 -11q27 -18 54 9q22 24 26 50q5 40 -35 67q-42 29 -43 45q-4 67 66 84q8 -50 46 -99 q66 -86 64 -82q-16 -19 -72 -65q-47 -39 -65 -72q49 -10 103 12l89 37q24 -102 92 -106l61 -4q-8 -22 -47 -62q-51 -50 -51 -57q0 -12 37 -38q4 0 10 7q5 6 12 5q3 -3 9 -12q7 -10 11 -15q34 -34 78 -56q60 -30 92 -3q1 25 -18 44q-4 4 -16 14q-10 8 -13 14q72 3 82 99 q9 89 -35 139q162 146 173 159q47 56 47 94q64 -1 69 41q3 18 -11 36zM668 187q-2 5 -51 48q7 -45 51 -48zM580 404q13 29 13 42q-49 -63 -23 -92q-2 22 10 50zM952 470v-6q-11 -131 -102 -267q-17 -25 -16 -29q54 27 95 135q35 91 29 167h-6zM1150 509h-4q1 -7 0 -6 q10 -46 43 -117q47 -100 51 -110q2 -6 5 -19q3 -15 5 -21q9 -24 28 -25q4 18 -7 39q-3 6 -11 17q-7 11 -10 17q-35 70 -68 149q-28 70 -32 76zM1184 526q-1 1 -2 1q-4 -12 8 -27q3 -4 11 -12q7 -8 10 -12q7 -10 15 -26q9 -19 11 -23q11 -17 33 -45q28 -37 35 -47 q5 -6 17 -22q12 -14 18 -22q2 -5 7 -14l7 -14q9 -16 24 -15q1 20 -15 41q-4 5 -14 16t-14 16q-13 18 -73 103q-45 63 -76 101q-1 0 -2 1zM1118 415q19 -87 20 -108q0 -3 -1 -10q-2 -7 -2 -11q0 -11 13 -12q2 50 -15 128q-18 88 -20 127q-1 3 -4 2q-6 -45 9 -116zM1322 448 q4 -7 6 -10q8 -10 22 -5q-3 19 -20 34l-15 12q-10 7 -14 11q-70 66 -76 74q-4 -1 -10 2q-6 2 -8 0q2 -11 53 -57q52 -48 55 -51t7 -10zM1046 603q-2 -5 0 -6q23 -80 8 -188q-1 -3 -47 -161q49 51 66 161q17 116 -21 194h-6zM538 892q18 25 102 49q-10 14 -47 2 q-69 -22 -88 -98q-4 -1 33 47zM858 986q13 -22 43 -61q34 -44 45 -61q1 -2 6 -11q5 -8 8 -12q9 -12 22 -12q-6 19 -33 50q-26 29 -32 52q-13 6 -27 31q-13 26 -26 32q-4 1 -6 -8zM339 934q29 -3 27 20l-30 -7q-17 -2 -19 11q-1 11 20 20q23 10 25 20q-6 30 -30 35 q-21 4 -44 -11q-24 -15 -29 -36q-7 -24 16 -41q-1 12 -4 20t-3 13q2 17 23 34q24 19 45 11q14 -5 12 -20q-1 -9 -23 -21q-21 -12 -18 -28q3 -17 32 -20zM1770 1037q-56 -3 -88 -73q-10 -2 51 49q39 32 37 24zM1119 1088q-25 -60 -26 -77q31 15 32 77h-6zM430 1076 q-2 -7 -21 -8q1 8 21 8zM373 1058q33 2 28 6q-1 -4 -8 -6q-7 -3 -8 -7q10 -10 6 -18q53 2 65 21q-1 2 -5 3q-5 2 -5 5q21 6 20 6q2 5 -3 8q-5 2 -5 6q12 2 10 10q-82 0 -95 -34zM691 1062q2 20 -6 34q-15 8 -25 1q-9 -7 -10 -22t5 -26q7 -11 19 -10q14 2 17 23zM332 1080 q13 2 45 17q27 13 47 12l-72 -37q20 5 58 18q37 14 58 19q1 4 -5 6q-6 1 -5 6q18 3 19 8q-91 3 -145 -49zM1558 1123q9 -8 10 -14q-14 -39 -12 -33q27 -1 22 33q-4 34 -28 30q0 -8 8 -16zM303 1092q24 3 66 25t67 24q4 1 12 0h14q17 1 23 10q-103 9 -182 -59zM1844 1139 q2 20 -13 23q-10 1 -17 -7q-8 -8 -9 -20q-3 -30 28 -26q10 12 11 30zM1510 1083q15 -31 34 -44q14 -9 31 -9q22 0 22 24q-28 -18 -50 -2q-19 13 -26 44q-8 29 2 50q10 24 37 20q13 -2 21 -20q10 -22 16 -27q7 21 -5 36q-11 14 -32 18t-38 -4q-19 -8 -23 -28q-5 -24 11 -58z M382 1158q-14 -1 -18 -2q-6 -2 -17 -9q-13 -8 -17 -10q-28 -13 -31 -24q28 16 85 32q74 20 93 27q-21 3 -72 -10q-8 -3 -23 -4zM922 1067q-32 74 -54 113q-4 -5 -12 -6l84 -174q2 -4 5 -14q4 -11 6 -16q9 -17 23 -18q-15 30 -52 115zM273 1129q12 4 67 25q91 34 90 32 q-118 -15 -157 -57zM727 1129q-2 23 -42 55q-26 21 -53 2q-28 -18 -29 -57q11 2 18 15q7 14 15 16q21 4 41 -23q24 -33 34 -37q17 24 16 29zM1059 1129q3 53 -3 82q-1 0 -3 1q-1 1 -3 1q-18 -123 -2 -200q9 2 8 12q0 3 -1 8q-1 6 -1 8q0 16 5 88zM1633 1170q-1 1 6 -12 q4 -7 13 -7q5 20 -17 30q-29 12 -32 19q3 0 -33 -6q1 23 -24 20q-24 -4 -23 -24q6 -1 11 5q4 6 10 5q33 -19 51 -8q2 -3 9 -10t9 -12h20zM1570 1243q-6 -13 8 -20q13 -7 27 -2q14 -20 63 -39q-2 16 -23 26q-24 11 -28 21zM1672 1222q-23 12 -24 23q-13 -1 -23 10 q-11 11 -18 13h-4q4 -20 23 -32q4 -3 17 -10q11 -7 17 -11q29 -23 26 -23q7 19 -14 30zM980 1139q-30 133 -32 137q-3 1 -6 -1t-6 -1q0 -44 28 -143q35 -122 43 -133q-6 53 -27 141zM2019 677q39 -7 45 -11q-12 -17 -40 -9q-8 3 -22 9q-15 7 -20 8q-23 -20 5 -37 q9 -5 27 -12q19 -8 23 -10q-17 -11 -40 1q-30 17 -39 17q-14 -13 -3 -33l12 -16q7 -9 9 -14q-15 8 -36 36q-19 27 -37 33q6 17 27 40q21 24 28 40q3 1 27 8q20 5 33 7q40 7 56 -13q-83 -36 -82 -20q-2 -18 27 -24zM1996 770q4 -36 -20 -33q-1 5 1 18q3 15 3 21q4 1 16 -6z M1525 504q11 -6 12 -16q-37 -16 -89 -30q4 -32 4 -33q-14 -5 -22 7q-3 4 -9 24q31 25 88 51q7 3 16 -3zM1646 466q122 82 140 90q1 0 2 -4q-17 -35 -74 -66q-67 -37 -85 -55q0 -4 4 -13q3 -7 0 -13q-13 -4 -24 8q-11 11 -8 22q0 1 45 31zM1779 991q33 1 64 -9 q-6 -29 -54 -31q-47 -1 -64 21q15 18 54 19zM1907 1071q15 1 20 -7q-1 -14 -20 -16q-15 -2 -31 3q-1 5 1 10t1 9q4 -1 29 1zM2000 786q-8 5 -24 4q-6 -5 -10 -25q-3 -20 -8 -26q10 -2 -186 82q-5 2 -15 5q-11 3 -15 5q-17 6 -23 21q74 -1 111 60q-5 -7 50 121q26 -8 43 1 q15 8 16 24q0 16 -14 25q-18 11 -47 5q8 72 -21 133q-18 39 -65 94q-3 22 0 18q-11 19 -47 16q0 25 -21 31q-19 4 -40 -8q-11 35 -56 25q-84 -17 -76 -17q-10 17 94 0q7 -16 26 -23q20 -8 41 1q4 -4 8 -14q5 -11 8 -15q25 1 39 -2q0 -23 22 -41q25 -19 29 -33 q-52 -36 -41 -91q16 3 26 36q10 30 31 31q29 -37 32 -112q3 -70 -17 -123q-32 15 -86 9q-60 -7 -53 -39q4 -21 46 -20q62 1 68 -1q-32 -77 -114 -77q-90 -1 -165 92q-71 86 -78 183q-6 87 32 139q39 52 117 61q-2 -25 22 -29q21 -3 37 11q10 -34 49 -25q11 -22 55 -30 q1 16 -18 25q-21 10 -23 22q-15 -4 -43 13q-24 16 -46 5q-3 2 -7 12q-3 8 -8 10q-92 2 -146 -57q-55 -59 -47 -151q1 -15 61 -155q-104 30 -119 31q-8 1 -31 -2q-22 -2 -34 0q-22 3 -85 46q-50 34 -92 19q10 -19 43 -50q32 -30 40 -48q-85 -15 -135 -63q-60 -57 -40 -141 q22 -92 134 -136q69 -28 88 -45q40 -37 112 -153q13 6 27 2q4 -36 20 -51q25 -4 41 18q0 7 -5 15q-5 9 -5 16q12 3 45 14q27 9 47 12q12 -5 31 -50q18 -42 38 -44q9 0 19 8q12 8 12 17q0 6 -8 12q-7 7 -7 14q5 2 80 41q47 25 59 35q29 23 33 59q-26 9 -52 -8 q-36 -23 -46 -25q-9 29 -8 33q-101 173 -263 208q-42 9 -47 20q169 10 183 13q119 -117 276 -172q8 8 40 53q17 24 20 27q14 12 31 2q-6 -12 -38 -49q-25 -28 -31 -55q22 7 37 -3q10 -7 22 -27q26 -43 57 -37q17 20 -4 37q-27 23 -26 36q10 -3 34 -17q21 -11 37 -14 q22 29 23 23q-1 11 -35 22q-35 10 -35 21q7 -1 23 -5q20 -6 28 -7q34 -7 39 10q7 22 -27 29q-40 8 -44 18q10 8 36 7q33 -2 43 1q1 9 4 12v10q-16 18 -81 14q1 31 -7 41zM1349 1206q2 -1 20 -21q-10 24 -20 21z"
         id="glyph22895" />
      <glyph
         glyph-name="asciicircum"
         unicode="^"
         horiz-adv-x="1062"
         d="M297 386q26 -51 30 -57q-6 50 -30 57zM391 1232q7 10 -20 20q2 9 20 -20zM1020 1001q1 2 1 5q-11 -36 -33 -63q-28 -35 -61 -35q-3 -22 9 -38q2 -3 11 -12q7 -8 10 -14q-2 -21 2 -77q5 -52 -2 -84q-2 -12 -12 -34q-12 -24 -15 -34q-69 -222 -77 -232q5 -26 2 -58 q-4 -36 -2 -54q-3 -12 -23 -42q-18 -27 -21 -49q-4 -31 -1 -88q4 -77 4 -90h-155q-9 -1 -10 17q-23 -21 -91 -19q-100 3 -111 2q18 38 27 124q10 86 27 122q5 10 23 28q19 18 24 29q1 2 10 35q5 20 20 26q-15 16 14 44q-2 4 -13 7q-11 2 -14 6q63 304 155 415q-4 35 -64 91 q-65 60 -57 54q-35 27 -37 40q-29 -22 -203 -115q17 -76 11 -216q-9 -176 -4 -249q-23 -13 -81 -3q-1 -9 12 -17q16 -10 19 -13q14 -21 23 -78q12 -77 17 -94q2 -6 8 -16q7 -11 9 -18q-1 3 10 -54q5 -28 24 -37q-5 -1 -9 1q-5 3 -8 2q0 -25 8 -59q10 -45 12 -55h-357 q3 49 17 141q-49 43 -31 142q1 -9 -13 0q4 23 23 20q11 127 31 206q23 93 33 104v41q16 27 15 110q0 84 9 102q-16 67 7 116q26 52 84 56q-51 20 -37 152q39 55 44 60q51 20 124 4q0 -2 -3 -4q-3 -1 -3 -3q5 2 13 2q3 0 3 5q30 -7 44 -34q-2 0 -5 7q-2 5 -8 3q3 -10 20 -17 q19 -7 24 -13q0 -11 -3 -19q-3 -6 -1 -15q-5 5 -9 1l-4 -4q-2 -3 -4 -4q3 -1 0 10q-13 -13 -13 -41q0 -29 17 -43q35 14 51 67q16 50 3 91q2 0 3 -5t3 -5q5 0 4 7q-1 9 0 10q-1 4 -3 2q-1 -2 -1 -5q-1 9 4 27t3 27q-1 6 -19 31q-15 20 -8 40q7 5 11 15q3 10 9 15q8 2 10 -4 q4 -9 4 -10q5 2 10 13q4 10 10 11q3 -2 8 -5q7 -4 9 -6q9 -6 3 -16q6 -1 14 -7q7 -6 13 -6q3 -6 1 -12q-1 -9 -1 -15q-1 7 14 0q1 -9 -5 -14q-8 -7 -9 -10q8 -12 57 -65q35 -39 48 -73q-29 14 -61 50q-46 50 -54 58q-5 -29 1 -56q7 -30 26 -39q2 -13 -1 -32q-3 -21 -2 -32 q2 -3 6 6q5 12 14 8q1 -6 -1 -13q-3 -6 -2 -11q62 -109 155 -162q1 7 17 42q10 20 -4 39q24 16 37 20q23 40 24 54q32 30 121 17q1 -3 -3 -3q3 0 14 -7q12 -8 23 -7q4 -6 18 -24q12 -17 17 -27q18 -33 2 -63q1 -4 2 -2z"
         id="glyph22897" />
      <glyph
         glyph-name="underscore"
         unicode="_"
         horiz-adv-x="1124"
         d="M435 1035q-58 3 -99 23q-46 24 -59 25q-15 2 -30 -4q-35 -15 -27 -57q9 -40 92 -66q70 -22 140 -21q65 0 131 18q86 23 92 61t-20 51q-20 9 -55 1q-134 -32 -165 -31zM1039 1119q2 -14 -6 -18h-546q4 18 -17 25q-6 2 -17 3q-8 2 -10 2q-3 -8 -5 -27q-1 -14 -8 -21 q-48 0 -83 -8q-24 63 -102 45q-73 -16 -99 -67q-19 1 -47 -4q-31 -5 -45 -5q5 -17 15 -71q8 -45 16 -69q-1 -4 9 0q12 4 13 -4q-21 -103 -10 -189q13 -109 75 -134q16 -184 -43 -306q-14 -28 -53 -75q-37 -44 -48 -69q-18 -45 13 -81q32 -36 83 -24q40 9 110 122 q35 58 74 162q1 -6 -28 -193q-8 -55 4 -82q16 -33 68 -31q63 2 91 118q63 259 -78 520q-49 88 -48 87q-7 37 7 98q18 76 19 86q118 -19 125 -19q81 -3 89 49q-89 -26 -208 -2q-126 25 -137 81q-8 36 12 58q18 20 45 21q14 0 35 -14q29 -18 39 -21q47 -19 109 -18 q13 0 131 30q74 18 96 -21q26 -45 18 -44q10 -3 9 13q-2 17 4 18h192q5 -1 4 11q0 10 9 6h170v40q-18 -4 -24 15q-6 22 -15 24q-10 -3 -7 -17zM425 1186q37 42 35 104q-3 63 -44 100q-46 41 -121 25q-54 -11 -82 -53q-25 -39 -21 -89t35 -85q33 -39 85 -43q72 -7 113 41z "
         id="glyph22899" />
      <glyph
         glyph-name="grave"
         unicode="`"
         horiz-adv-x="916"
         d="M369 1030q-8 4 -45 36q-22 20 -51 13q-38 -11 -35 -53q4 -47 77 -81q64 -30 138 -33q67 -2 151 28q102 36 89 90q-10 43 -55 33q-14 -4 -37 -14q-27 -13 -30 -14q-117 -43 -202 -5zM590 1083q5 -21 -11 -31q5 1 36 16q22 10 43 6q8 -1 23 -14q16 -14 25 -17q30 -7 88 -1 q61 6 87 1v53q-26 6 -149 -1q-109 -6 -148 18q-2 -3 6 -30zM290 948q-66 40 -65 87q1 25 20 41q18 15 41 16q24 0 48 -22q25 -24 40 -27q-11 87 -95 76q-77 -11 -111 -67q-41 -68 -56 -210q-15 -151 21 -218q6 -11 31 -31q23 -19 26 -26q15 -37 0 -149q-18 -135 -87 -227 q4 6 -41 -43q-24 -27 -25 -49q-2 -39 27 -65q30 -25 69 -18q34 5 66 47q-2 -3 48 75q53 82 79 162q11 -51 -16 -131q-28 -81 -19 -118q11 -50 68 -51q54 -1 76 33q58 91 44 293q-11 150 -96 311q-49 91 -49 87q-6 41 9 99q17 68 18 89q55 -20 146 -10q141 15 151 15 q2 20 18 43q-177 -64 -254 -56q-71 6 -132 44zM447 1184q34 40 32 97q-2 58 -37 96q-39 43 -103 38q-58 -4 -88 -30q-29 -26 -38 -68q-10 -41 2 -81q29 -95 128 -96q67 -1 104 44z"
         id="glyph22901" />
      <glyph
         glyph-name="a"
         unicode="a"
         horiz-adv-x="1646"
         d="M641 230q-1 7 -9 121q-2 36 -58 35q-40 -7 -48 -57q-10 -72 19 -145q28 -68 78 -106q40 -31 140 -55q118 -28 133 24q17 57 -66 74q-14 3 -70 10q-39 6 -53 13q-53 27 -66 86zM685 280q1 -54 40 -91q36 -33 88 -41q52 -7 93 17q45 25 56 80q18 82 -34 135q-48 47 -115 41 q-131 -12 -128 -141zM522 347q15 57 66 52q37 -3 48 -41q8 -30 1 -91q48 22 42 77q-6 51 -42 77q-49 35 -141 39q-87 5 -178 -19q-93 -25 -148 -71q-61 -50 -53 -112q5 -40 49 -66q9 -6 40 -21q25 -13 39 -23q-156 -3 -151 -2q-74 -13 -65 -82q3 -24 28 -42q24 -17 56 -19 q100 -7 213 4q143 15 170 53q38 56 -10 105q-13 13 -44 36q-27 21 -34 31q58 10 114 -5q-11 75 0 120zM601 518q-1 18 -26 26q-30 10 -35 18q6 2 29 12q18 8 32 10q-2 25 -29 58q-26 33 -28 48q7 -2 42 -14q25 -8 46 -8q1 21 -4 53q-5 34 -5 52q13 -6 38 -32q22 -23 42 -29 q7 12 20 49q12 33 24 48q3 -12 13 -54q7 -33 13 -52q18 1 42 23q23 21 33 21q13 -78 0 -70q35 41 22 114q-18 -7 -42 -28q-26 -22 -42 -29q-5 23 -15 61q-11 46 -15 62h-14q-8 -14 -25 -59q-14 -38 -28 -55q-104 70 -92 70q1 -22 7 -62q5 -39 6 -61q-105 27 -110 26 q9 -25 37 -60q29 -38 38 -59q-78 -40 -75 -35q35 -36 101 -44zM1447 949q45 25 58 54q15 32 -14 61q-40 -3 -65 -17q-6 -3 -21 -13q-13 -9 -24 -14q-97 -49 -163 -22q-26 10 -66 64q-38 52 -49 55q-27 8 -45 -9q-16 -14 -16 -35q-1 -39 61 -101q65 -65 155 -71q96 -6 189 48 zM1524 634q21 194 20 188q8 34 35 96q22 49 22 76q2 77 -51 123q-55 48 -121 13q-38 -20 -79 -114q85 46 104 51q74 24 72 -47q-1 -50 -88 -87q-29 -12 -132 -41q-20 -70 -26 -145q-19 6 -66 39q-38 28 -71 27q-34 -1 -93 -51q-17 -14 -43 -39q-25 -24 -31 -29 q-8 -6 -38 -28q-28 -21 -45 -35q-54 -47 -58 -82q-5 -42 21 -69q28 -28 76 -19q24 4 56 35q59 57 54 53q11 9 114 88q141 -82 150 -88q-42 -191 44 -379q66 -143 110 -154q45 -12 77 16q28 24 29 59q0 -13 -75 150q-63 137 -35 264q56 27 68 129zM1450 1160q50 33 62 101 t-23 114q-39 54 -121 46q-52 -5 -85 -40q-31 -31 -38 -77q-8 -46 11 -85q20 -43 63 -62q75 -34 131 3z"
         id="glyph22903" />
      <glyph
         glyph-name="b"
         unicode="b"
         horiz-adv-x="1619"
         d="M429 871q1 62 -58 45q-25 -8 -35 -39q-17 -55 -14 -51q-20 -38 -65 -60q-47 -22 -107 -18q-73 5 -77 4q-39 -6 -29 -53q9 -47 135 -45q67 1 127 33q63 33 93 86q29 49 30 98zM1450 928l-62 -8q-66 -10 -159 8q-21 4 -74 16q-43 9 -65 12q-2 1 -3 -1l-1 -3q-42 -8 -37 -49 q8 -61 237 -73q211 -12 200 65q-4 32 -36 33zM555 585v65h24q-3 -23 10 -37q12 -13 32 -15t36 7q17 10 20 29q16 -5 70 -37q-12 -17 -41 -41q-30 -26 -41 -41q-40 34 -110 70zM568 777q20 -51 11 -111h-24q-10 84 -45 184q39 -22 58 -73zM732 627q-47 29 -55 31 q9 127 -58 215q-69 90 -187 100q-86 7 -115 -12q-25 -18 -31 -66q-6 -49 15 -82q10 12 28 69q14 42 46 46q26 3 44 -10q17 -13 21 -35q9 -54 -35 -114q-13 -19 -38 -46q-29 -31 -33 -36q18 -87 16 -131q-184 -126 -180 -298q2 -67 34 -149q36 -92 77 -105q37 -12 68 11 q28 22 30 55q1 25 -27 78q-31 58 -35 93q-10 110 90 172q27 -163 123 -270q37 -41 86 -75q66 -47 110 -43q27 2 46 23q21 23 20 54q-2 31 -35 55q-10 8 -29 19q-21 13 -26 16q-85 57 -127 151q-46 104 -16 217q49 -23 90 -57q-16 -14 -13 -33q3 -16 44 -57q40 -41 54 -41 q16 0 44 28q8 8 20 22q11 13 14 15q6 7 21 19q16 13 23 19q26 23 26 40q-1 24 -39 53q-44 34 -51 49q-29 -9 -60 10zM1585 421q-8 20 -27 55q-25 43 -33 59q-37 77 -26 156q3 22 14 64q13 52 17 70q17 83 -11 123q-25 35 -77 31q-55 -5 -66 -51q51 19 87 6q39 -14 32 -59 q-9 -48 -107 -53q-24 -1 -83 1q-51 1 -72 -1q27 -54 98 -58q-6 -56 -25 -181q-17 -117 -24 -182q4 0 32 3q18 2 34 1q0 -18 -1 -59q-1 -40 1 -60q5 -76 27 -162q28 -108 62 -120q29 -10 54 7q26 16 28 46q-1 -10 -33 119q-34 139 -20 237q91 7 119 8zM1322 1004 q-21 34 -64 10q-20 -35 -25 -82q7 0 44 -3q26 -3 46 -1q20 43 -1 76zM1192 1144q-28 20 -44 9q-13 -10 -11 -34q2 -23 17 -31q18 -9 42 16q2 27 -4 40zM332 987q42 35 46 98q4 62 -33 102q-42 45 -117 31q-48 -9 -75 -45q-25 -32 -26 -76t21 -79q23 -37 63 -49 q73 -22 121 18zM1522 1245q-46 26 -105 14q-73 -15 -93 -91q-20 -75 32 -126q31 -30 74 -35q40 -4 77 16q38 19 57 56q21 39 12 86q-9 53 -54 80zM1155 1414q-40 -3 -73 -12q7 -33 25 -110q16 -70 24 -111q7 0 21 3q13 3 24 1q-15 185 -21 229z"
         id="glyph22905" />
      <glyph
         glyph-name="c"
         unicode="c"
         horiz-adv-x="2937"
         d="M2688 411q-44 52 -16 147q-66 62 -225 59q-52 -2 -131 -11q-104 -12 -113 -12q-21 87 31 157q41 54 120 90q-250 18 -310 -150q-1 -22 14 -52q15 -29 12 -54q-123 -35 -131 -38q-66 -31 -46 -95q12 -35 56 -47q29 -8 96 -8q74 -1 101 -5q53 -9 75 -37q-29 -39 -104 -42 q-24 -1 -142 9q-86 7 -125 -8q-53 -21 -54 -92q-1 -108 211 -172q196 -59 439 -48q257 11 371 97q134 100 6 264q-93 0 -135 48zM1699 912q-148 -86 -310 -124q-174 -40 -167 -37q-81 -35 -28 -122q156 -24 377 54q198 70 331 176q99 78 128 160q16 43 -7 62q-27 22 -103 8 q-84 -97 -221 -177zM1743 956q11 8 114 106q68 65 116 63q42 -3 65 -29q22 -24 24 -60q2 -52 -55 -104q-56 -49 -52 -73q101 5 168 67q61 57 72 139t-35 147q-50 71 -151 90q-47 8 -136 -3q-116 -15 -121 -15q-81 -3 -273 24q-186 27 -329 20q-499 -23 -593 -35 q-283 -37 -350 -57q-189 -56 -181 -182q7 -110 117 -128q65 -11 211 13q397 65 655 79q216 -215 460 -186q111 14 274 124zM2732 1347q-99 88 -246 61q-119 -22 -181 -105q-70 -94 -40 -240q22 -104 111 -160q82 -51 187 -43q105 9 177 74q79 73 83 191q4 137 -91 222z"
         id="glyph22907" />
      <glyph
         glyph-name="d"
         unicode="d"
         horiz-adv-x="1504"
         d="M1138 626q-6 24 -45 39q-33 -41 -112 -125q-74 -80 -110 -127q9 -3 23 -21q12 -15 26 -16q12 6 26 24q14 19 24 25l111 -111q120 -121 111 -117q56 -22 106 25q51 47 48 123q-114 121 -235 234q34 22 27 47zM374 778q-6 54 -27 78q33 -8 48 -69q16 -65 -23 -91q7 36 2 82 zM266 685q23 -18 56 -21q32 -4 57 9q28 13 36 42q16 57 -20 114q-12 19 -34 45q-29 34 -32 38q4 8 -64 -80q-36 -46 -29 -99q5 -29 30 -48zM649 1109q-85 -1 -149 54q-17 14 -51 50q-32 34 -52 50q12 -261 179 -462q57 -68 159 -161q146 -133 167 -153q16 17 70 77 q43 49 72 77q-253 320 -395 468zM1299 133q-67 -55 -138 -71q-26 -7 -432 -7q-378 0 -419 13q-65 20 -129 76q-66 60 -86 121q-25 75 -21 217q0 32 5 121q3 76 3 118q0 360 26 442q25 83 84 128q64 49 180 65q45 6 425 6q293 0 380 -22q158 -38 218 -188q12 -30 12 -222 v-234q0 -403 -18 -450q-24 -60 -90 -113zM1463 961q0 210 -13 240q-62 154 -230 194q-92 22 -398 22q-447 0 -493 -6q-176 -24 -244 -134q-58 -95 -58 -297v-518q0 -209 43 -297q50 -102 197 -147q62 -18 456 -18q437 0 469 6q89 18 162 79q72 59 96 131q22 64 20 225 q-1 40 -4 138q-3 86 -3 130v252z"
         id="glyph22909" />
      <glyph
         glyph-name="e"
         unicode="e"
         horiz-adv-x="916"
         d="M648 1021q-12 -32 -19 -42q102 -69 106 -71q70 -35 138 -16q-37 46 -205 169q-10 -12 -20 -40zM376 818q15 65 14 82q-12 10 -39 25q-30 17 -42 25q-47 33 -45 76q1 27 21 43q19 15 44 14q22 -1 47 -28q22 -25 36 -20q-23 104 -136 78q-95 -21 -160 -91q-87 -94 -87 -244 q0 -140 61 -139q34 1 42 38q6 25 3 85q-5 69 -2 93q5 48 31 63q-24 -113 -15 -202q11 -114 76 -146q26 -215 -83 -366q-65 -90 -65 -91q-8 -44 17 -72q25 -26 65 -23q35 2 72 44q13 16 50 73q33 50 78 165q1 -7 -26 -187q-8 -52 2 -78q14 -33 59 -35q44 -2 69 36 q15 21 27 68q68 259 -74 527q-48 89 -48 91q-6 35 8 96zM538 1092q22 9 35 47q-37 -3 -35 -47zM649 1142q-21 10 -46 2q-5 -2 -9 -5q-5 -4 -57 -78q-38 -54 -86 -56q-38 -2 -69 33q-30 36 -57 36q-39 0 -48 -30q-16 -54 51 -100q61 -41 123 -39q39 1 74 17q40 19 94 80 q62 70 54 111q-4 19 -24 29zM501 1337q-22 36 -58 56q-38 21 -79 16q-65 -8 -96 -48q-37 -48 -27 -103q9 -50 51 -86q42 -35 92 -36q56 -1 97 43q70 73 20 158z"
         id="glyph22911" />
      <glyph
         glyph-name="f"
         unicode="f"
         horiz-adv-x="1038"
         d="M659 815q-5 11 -15 63q-8 42 -20 51q-21 16 -45 3q-22 -12 -26 -30q-7 -29 27 -111q34 -81 105 -120q82 -45 168 -2q17 29 0 59q-26 14 -63 10q-42 -4 -60 2q-42 13 -71 75zM233 921q-25 39 -58 23q-32 -15 -37 -54q-18 -130 66 -241q86 -113 195 -91q29 50 -23 81 q-9 5 -49 24q-31 14 -43 25q-74 69 -51 233zM573 781q-40 83 -28 129q3 13 19 24q14 10 28 11q31 2 46 -23q10 -16 19 -57q9 -46 16 -61q13 -30 38 -37q-5 19 -10 53q-6 40 -8 53q-12 61 -38 84q-22 20 -60 19t-58 -23q-34 -38 -24 -174q1 -14 16 -67q12 -44 8 -63 q-10 -43 -115 -48q-5 -27 -12 -43q132 -55 190 -83q47 -149 0 -328q-26 -98 -24 -106q9 -34 49 -35q37 0 54 23q31 43 46 176q15 130 1 215q4 1 16 -5q9 -5 8 5q-2 21 -13 109q-8 68 -11 112q-9 6 -34 15q-26 9 -37 17q-43 28 -82 108zM177 957q40 6 54 -14q10 -16 9 -54 q-4 -106 12 -126q24 109 16 162q-13 84 -99 71q-56 -8 -92 -82q-32 -66 -39 -162q-7 -92 13 -164q22 -78 67 -93q17 -160 -31 -332q-28 -98 -28 -99q2 -30 28 -49t59 -14q41 7 71 107q71 236 31 482q-123 99 -122 248q1 111 51 119zM899 1116q10 17 1 38q-21 18 -38 12 q-15 -4 -21 -21q-5 -17 2 -31q9 -16 29 -15q18 1 27 17zM735 1048q30 40 25 95t-43 86q-42 36 -109 20q-44 -10 -67 -39q-44 -56 -13 -129q31 -76 111 -77q62 0 96 44zM355 1225q-36 26 -83 24q-60 -3 -93 -39q-30 -33 -29 -87q1 -58 46 -91q40 -31 95 -27t86 41 q36 42 22 112q-9 41 -44 67zM872 1198q33 -12 40 -12q72 162 87 201q-14 4 -34 12q-27 10 -33 12q-49 -167 -60 -213z"
         id="glyph22913" />
      <glyph
         glyph-name="g"
         unicode="g"
         horiz-adv-x="628"
         d="M468 364q0 1 26 114q17 76 -1 176q-18 99 -54 134q-30 29 -76 25q-50 -4 -54 -50q7 0 38 4q24 3 36 2q37 -2 36 -39q-1 -48 -113 -48q-94 0 -165 42q24 -37 72 -52q51 -18 102 0q23 -157 17 -204q-147 -139 -153 -285q-2 -58 11 -109q17 -65 51 -72q28 -6 50 9t24 39 q2 13 -5 34q-10 28 -11 34q-11 61 7 120q16 54 48 84q13 -107 59 -188q71 -126 126 -123q46 3 52 49q3 26 -12 46q-4 7 -14 17q-12 13 -16 18q-82 100 -81 223zM270 941q-2 -45 26 -74q26 -26 65 -30q40 -5 71 13q34 19 42 58q13 64 -26 100q-33 31 -84 26q-90 -8 -94 -93z M384 701q52 19 9 62q-93 -18 -168 4q-81 24 -97 83q44 -50 55 -55q-22 57 -29 104q185 350 229 472q-10 12 -61 33q-64 -104 -214 -496q-2 -4 -9 -8q-8 -6 -10 -8q-3 -6 2 -9t4 -7q-31 5 -37 -23q-5 -26 11 -45q-2 -13 -24 -25q-19 -10 -18 -24q2 -13 25 -22q20 -8 40 -7 q7 9 4 21q-4 19 -4 24q67 -76 178 -84q73 -5 114 10z"
         id="glyph22915" />
      <glyph
         glyph-name="h"
         unicode="h"
         horiz-adv-x="1797"
         d="M793 449q8 -14 25 -11q-27 41 -26 34q-6 -10 1 -23zM809 421q-29 25 -34 51q-7 -45 34 -51zM1561 494h99q7 0 29 -2q19 -1 29 -1q33 2 33 20q-27 12 -90 10q-83 -3 -100 -1v-26zM1127 494q2 0 40 -1q24 -1 25 14q-1 14 -25 14q-38 -2 -40 -1v-26zM628 494q8 2 80 -2 q50 -3 54 23q-21 6 -64 5q-58 -1 -70 0v-26zM1445 571q-6 -10 -28 -42q-16 -24 -23 -40q-13 -26 -10 -52q5 -34 44 -34q23 1 47 31q4 6 35 55q102 166 -4 151q-21 -3 -61 -69zM1191 570q7 -16 24 -41q23 -34 24 -35q7 -11 19 -35q11 -21 17 -30q19 -27 46 -26q56 4 36 62 q-6 18 -49 89q-38 62 -40 65q-23 27 -55 17q-45 -15 -22 -66zM768 568q7 -16 25 -42q23 -35 25 -37q42 -70 39 -65q21 -28 51 -21q44 11 24 67q-6 17 -46 84q-31 52 -43 66q-26 27 -56 16q-43 -16 -19 -68zM749 638q15 5 17 11q-16 4 -28 -6q-11 -10 -2 -20q-1 11 13 15z M1239 653q-2 17 -24 10q-22 -6 -10 -19q8 21 34 9zM1127 644q-1 17 -19 19q-17 3 -24 -10q11 3 43 -9zM734 651q12 11 32 6q-12 17 -33 5q-20 -12 -19 -31q-1 0 20 20zM1214 672q17 6 29 -6q-3 21 -30 16q-26 -5 -26 -25zM1112 681q-23 5 -32 -11q32 2 29 2q19 -1 27 -15 q-1 19 -24 24zM35 597q28 -61 69 -112q101 125 142 168q-22 37 -48 52q-117 -82 -163 -108zM1321 726q23 -14 53 -14t52 16q24 16 28 45q-45 -16 -163 -4q5 -27 30 -43zM865 769q6 -26 31 -42q23 -15 53 -15q31 -1 52 14q24 17 27 47q-21 -8 -163 -4zM594 816h-13 q-7 -2 -8 -11q-2 -9 4 -14q-31 -14 -106 -45q-68 -29 -105 -46q-3 1 -9 15q-5 10 -12 2q-1 -34 -24 -53q-16 -13 -54 -24v-297q0 -16 -4 -118q-4 -76 0 -118q13 -126 103 -103q49 12 55 109q2 31 -1 88q-2 70 -2 86v194q0 3 -1 14q-2 12 -1 18q1 21 19 19q9 -38 9 -253 q0 -202 -2 -193q14 -104 100 -82q45 11 52 88q0 -3 0 144v580zM1606 835q4 -14 11 -14v21q-2 1 -7 5t-7 5q-9 5 -11 -6q11 3 14 -11zM1626 816q19 11 4 36t-30 12q32 -12 26 -48zM1556 752q42 23 40 56q-3 35 -58 48q-15 3 -106 12q1 -4 17 -26q15 -21 14 -39q39 1 47 -8 q-10 0 -23 -7q-14 -7 -24 -6q-1 -36 -29 -57q-25 -19 -62 -19q-36 0 -61 19q-28 21 -29 57q-20 2 -47 17q37 5 47 4q-3 17 16 41q16 20 10 24q-108 -7 -151 -35q-47 44 -155 31q19 -6 39 -61q35 1 43 -8q-8 -2 -21 -7q-14 -5 -22 -6q-1 -34 -29 -55q-25 -19 -60 -21 q-36 -1 -62 16q-28 20 -29 56q-5 2 -25 9q-16 6 -23 12q46 4 43 4q0 14 17 39q15 21 9 26q-15 0 -26 -17q-15 -25 -17 -26q-43 -39 -112 -26q7 -34 50 -53q66 -29 71 -33q-10 -71 24 -128q61 -104 57 -96h35q9 17 26 41q22 32 27 40q-19 -35 -23 -42q-25 -42 -32 -71 q-11 -53 40 -54q25 0 49 31q8 11 37 60q40 66 38 62q20 41 5 67q-14 25 -47 15q-26 -9 -39 -24q-7 -9 -16 -24q30 58 21 132q65 13 112 51q15 -15 107 -56q-9 -73 25 -131q7 -12 32 -47q20 -29 29 -50h39q0 1 57 100q35 60 24 133q62 19 81 30zM1454 799q3 36 -23 58 q-23 19 -59 19q-35 -1 -58 -20q-27 -21 -23 -57q84 -33 163 0zM1033 799q2 36 -25 57q-24 19 -59 19q-36 0 -60 -19q-26 -21 -24 -57q84 -31 168 0zM1028 889q1 15 -18 17q-18 2 -20 -12q17 5 38 -5zM1321 910q-19 -5 -18 -21q4 2 10 6q5 4 8 5q10 5 21 -2q-3 17 -21 12z M1017 922q-24 7 -32 -11q29 12 56 -13q0 18 -24 24zM1351 920q-16 11 -37 6t-23 -24q16 17 60 18zM1613 950h-95v38h95v-38zM1622 993h-112v-48h112v48zM359 732q3 -2 8 -7q5 -6 8 -8l189 82q-4 0 -5 8t-4 9q14 5 43 18q27 12 43 17q-2 11 -17 43q37 18 120 51q-14 54 0 52 q-71 -35 -230 -101q-154 -63 -230 -101q42 -48 56 -69q10 11 19 6zM855 942q4 37 -8 59q-14 25 -47 22q-28 -3 -37 -34q-3 -8 -7 -29t-7 -32q11 -2 -91 -30q63 -90 138 -60q49 19 59 104zM1119 993h-95q-9 35 29 35q6 1 34 -1q21 -2 32 0v-34zM1127 1031h-107v-47h107v47z M959 1040q-9 42 -54 24q-15 -5 -38 -19q-27 -16 -32 -18q24 -21 26 -30q64 23 98 43zM1226 1070h99v-34h-99v34zM1278 1113h94q4 -9 3 -19q0 -12 2 -20h-99v39zM1428 1070v-34q-87 -2 -99 0v34h99zM1432 1027v47h-51v43q-10 0 -59 1q-36 1 -53 -5q11 -31 -4 -39h-48 q-1 -10 1 -27q2 -13 -1 -20h215zM869 1117h-90q-4 2 -1 14q4 13 -3 16q13 6 44 5q42 -1 50 0v-35zM826 1195h95v-35h-95v35zM925 1152v47h-103q-9 -41 -4 -39h-48v-47h108q9 41 4 39h43zM316 673q16 16 16 36q0 -5 -69 103q-38 59 -42 106q-6 62 46 87q1 -15 0 -99 q-1 -61 4 -94q59 17 160 61q124 54 163 68q2 7 -1 22q-2 12 1 12q6 -1 12 -14q5 -11 14 -11q12 10 42 22q32 12 44 21q-6 4 -56 85q-33 53 -95 48q1 18 8 44q8 29 9 42q-112 -29 -116 -30q1 1 -9 -51q-6 -30 -21 -40q-10 15 -26 91q-11 2 -59 16q-38 11 -57 10q0 3 10 -37 q8 -29 8 -49q-160 -37 -177 -164q-13 -99 56 -206q62 -97 103 -95q18 1 32 16zM413 1281q-2 -16 -16 -24q-13 -7 -28 -4q-38 8 -29 49q40 19 73 -21zM511 1265q-9 -12 -26 -14q-15 -1 -27 6q-12 9 -10 24q1 15 25 22q23 7 44 -1q4 -23 -6 -37zM408 1178q1 -12 2 -17 q5 -18 25 -14q10 2 12 23t9 25q7 2 49 12q29 7 46 13q26 60 6 110q-17 45 -63 69q-45 24 -93 16q-52 -8 -82 -48q-20 -26 -24 -67q-5 -43 11 -80q19 -6 99 -25q2 -5 3 -17z"
         id="glyph22917" />
      <glyph
         glyph-name="i"
         unicode="i"
         horiz-adv-x="1102"
         d="M1000 859q-15 -7 -16 -17q11 -2 39 -21q23 -16 36 -12q-7 8 -19 35q-10 24 -23 31q-2 -8 -17 -16zM368 897q33 6 39 30q-11 17 -90 62q-3 -28 -9 -90q34 -8 60 -2zM731 957q-32 124 -31 121q-13 6 -30 5q-18 -1 -27 -9q-14 -122 33 -202q54 -92 171 -77q70 9 136 61 q74 58 29 100q-42 -2 -109 -49q-59 -43 -108 -32q-46 10 -64 82zM275 1072q9 -15 28 -22q0 14 9 34t10 32q-11 2 -52 -9q-6 -19 5 -35zM312 854q2 -21 0 -31q-7 1 -16 -3q-8 -4 -17 -2q-5 12 -4 57q-9 7 -52 26q-33 15 -43 36q19 16 46 0q40 -23 44 -24q5 13 9 48 q4 33 10 47q-28 10 -42 36q-12 24 -7 49q6 26 28 38q25 14 63 4q1 0 20 26q11 15 32 12q0 -11 -8 -23q-9 -13 -11 -20q5 -3 22 -14q14 -9 22 -15q23 -20 27 -46q-1 -2 -8 -4q-5 -2 -6 -6q-18 5 -35 26q-20 25 -31 31q-13 -18 -28 -76q14 -12 58 -38q38 -23 55 -42 q2 -46 -41 -64q-36 -16 -87 -7q-3 -4 0 -21zM766 785q-76 51 -85 62q-40 50 -56 142q-18 106 47 108q36 2 48 -38q4 -13 7 -38q4 -28 6 -37q21 -93 76 -99q28 -4 88 27q58 29 68 48q1 2 -2 13q-3 12 -3 11q1 4 4 19q2 12 2 19q1 21 -15 33q-12 9 -32 5q-24 -4 -35 0 q4 -2 -52 56q152 5 166 128q7 68 -35 114q-37 42 -98 51q-60 9 -106 -21q-51 -33 -59 -102q-2 -18 14 -94q-93 68 -219 87q-124 18 -234 -17q-116 -37 -174 -124q-66 -96 -44 -234q13 -82 98 -142q89 -62 195 -52q58 5 110 48q18 16 74 79q1 -11 0 -108q-1 -66 10 -104 q3 -13 14 -32q11 -21 14 -30q31 -89 14 -178q-17 -92 -80 -148q-11 -10 -71 -41q-47 -25 -57 -49q-19 -49 12 -87t83 -31q100 13 236 198q-33 -97 -33 -148q2 -86 90 -78q97 7 114 250q8 122 -38 237q-9 21 -34 62q-23 37 -28 56q1 -3 0 179z"
         id="glyph22919" />
      <glyph
         glyph-name="j"
         unicode="j"
         horiz-adv-x="1081"
         d="M67 71q3 5 2 7q-5 -16 -6 -14q0 2 4 7zM144 888q-1 -8 1 -25q2 -18 1 -27q0 -4 -1 -11q-2 -8 -2 -12q-2 -20 6 -61q5 -30 7 -33q3 -6 13 -17q10 -10 13 -17q3 -5 4 -17q2 -11 5 -17q1 26 8 68q2 15 3 43q2 34 3 45q8 92 8 86q0 14 -36 100q0 2 -1 1q-6 -29 -15 -55 q-16 -46 -17 -51zM956 1215q-3 1 -4 0q10 -2 10 -1q-1 0 -6 1zM978 1221q-1 -4 -4 -8q4 -1 10 2v17q-20 -2 -19 -1q11 -5 13 -10zM403 1219q-24 2 -23 2q-3 -3 -5 -13q-2 -11 -3 -14q21 -26 27 -27q3 0 34 6q14 3 32 4q9 0 24 -2q17 -3 22 -3q17 -1 46 6q38 8 47 10 q32 4 47 8q36 10 43 11q8 0 19 -1q16 -3 19 -3q61 -4 117 7q8 -2 10 -3q2 2 12 10q8 7 12 11q13 15 5 32q9 -2 21 10q22 -6 68 -5q54 0 66 -1v-17q1 -3 -3 -2h-6q0 -11 -2 -16q-7 2 -23 1q-11 0 -19 4q3 4 -4 -24h-33q-1 0 0 -5q1 -4 -1 -5q-2 -3 -12 -36q-5 -4 -13 -3 q-11 2 -15 2q-3 -1 -9 -4t-10 -4q-5 0 -16 2q-12 2 -17 2q-2 0 -2 -3q-1 -3 -2 -3q-25 -2 -68 -11q-44 -10 -64 -12q-10 -1 -26 1q-18 2 -26 2q-18 -1 -53 -12q-16 -5 -45 -20q-28 -14 -47 -20q-54 -16 -57 -21q-11 -19 -15 -81q-4 -80 17 -164q10 -40 20 -117q1 -5 1 -15 q-1 -11 -1 -16q1 -5 6 -41q15 -95 15 -93v-23q-1 -15 0 -23q0 -9 4 -26q4 -18 5 -26q1 -5 0 -14v-14q1 -7 3 -19l4 -20q16 -96 16 -104q-1 -32 -1 -26q1 -12 9 -53q6 -31 4 -47q0 -2 -3 -8t-3 -5q0 -3 14 -13q11 -8 4 -15q49 -46 89 -46q6 -10 5 -21q-11 -8 -75 -8 q-6 0 -20 -1h-20q-9 0 -31 1q-20 1 -32 1q-33 3 -28 40q0 7 7 22q6 13 6 21q0 7 -7 22q-9 18 -10 23q-14 48 -12 44q-14 37 -15 41q-7 20 -12 60q-6 45 -10 61q-1 5 -4 12q-3 8 -4 12q-2 5 -2 15q-1 10 -2 14q-1 6 -6 17q-4 11 -6 17q-20 71 -24 116q-16 -33 -46 -117 q-24 -65 -34 -88q-2 -5 -7 -13q-5 -9 -7 -13q-4 -9 -11 -30t-12 -31q-25 -54 -26 -57q-23 -73 -22 -73q-7 -28 -9 -31q-2 -4 -9 -10q-6 -6 -8 -10q-2 -7 2 -25q3 -19 1 -32q-21 -11 -24 -13q-3 -1 -13 -6l-12 -6h-9q-7 0 -10 -1q-47 -8 -66 -1q-13 10 -5 25q6 11 20 18 q-1 2 -4 4q-4 2 -4 4q5 7 14 18q10 12 14 18q16 4 17 5q1 2 0 6q-2 5 -2 8q1 5 5 13q4 9 5 15q11 75 15 91q6 22 12 42q3 7 6 21t5 21t8 20t8 21q9 33 14 41q30 199 30 236q-19 3 -27 40q-4 -17 4 -34q1 -3 10 -12q7 -7 7 -14q-12 -7 -25 -1q7 -3 -22 12q-3 2 -12 5 q-8 2 -10 4q-9 9 -12 24q-2 7 0 22q2 14 1 20q-1 3 -3 8q-3 6 -3 8q-1 1 -8 54q-16 104 -12 126q0 3 2 10q3 7 4 10q3 19 6 55q4 38 7 55q0 2 13 49q18 65 20 69q18 27 35 36q10 5 50 18q33 10 49 23q19 39 16 48q-1 6 -10 24q-9 16 -10 26q-5 40 20 68q26 29 66 25 q41 -4 64 -28q13 -13 22 -55q1 -3 8 -18q7 -13 6 -19q0 -4 -5 -9t-7 -8q-3 -8 -7 -23q-3 -17 -6 -23q-6 -7 -20 -6z"
         id="glyph22921" />
      </font>
</defs>
</svg>
